<?xml version="1.0" encoding="UTF-8"?>
<svg id="Layer_1" data-name="Layer 1" xmlns="http://www.w3.org/2000/svg" viewBox="0 0 65.61 60">
  <defs>
    <style>
      .cls-1 {
        fill: #41b0d5;
      }

      .cls-2 {
        fill: #02243c;
      }
    </style>
  </defs>
  <g>
    <path class="cls-1" d="M30.49,45.03c.81-.31,1.77-1.02,2.88-2.14,1.52-1.52,2.22-2.85,2.12-3.98-.11-1.13-1.02-2.55-2.72-4.26l-4.09-4.09-7.82,7.82,4.14,4.14c1.21,1.21,2.23,2.01,3.05,2.4,.82,.39,1.64,.43,2.44,.12Z"/>
    <path class="cls-1" d="M53.71,17.63c.35,.35,.68,.69,.99,1.04v-5.97c0-2.82-2.29-5.11-5.11-5.11h-5.92l10.04,10.04Z"/>
    <path class="cls-1" d="M48.75,39.05c-1.88,.33-3.92-.02-6.12-1.05,1.33,2.26,1.8,4.51,1.4,6.75-.4,2.23-1.64,4.39-3.72,6.47-.43,.43-.86,.83-1.29,1.2h10.57c2.82,0,5.11-2.29,5.11-5.11v-11.88c-2.16,2.1-4.14,3.31-5.95,3.63Z"/>
    <path class="cls-1" d="M20.12,49.17l-7.9-7.9v6.04c0,2.82,2.29,5.11,5.11,5.11h6.44c-1.18-.91-2.4-1.99-3.66-3.25Z"/>
    <path class="cls-1" d="M37.23,7.58H17.33c-2.82,0-5.11,2.29-5.11,5.11v19.9L37.23,7.58Z"/>
  </g>
  <circle class="cls-2" cx="41.48" cy="24.44" r="5.61"/>
</svg>