<?xml version="1.0" encoding="UTF-8"?>
<svg xmlns="http://www.w3.org/2000/svg" viewBox="0 0 91.5 64.2"><path d="M21 35.8h1v4h-1zM24 35.8h1v4h-1zM27 35.8h1v4h-1z" style="fill: #141414;"/><path d="M82 48.8c0 .6-.4 1-1 1h-2c-.6 0-1-.4-1-1h-1c0 .6-.4 1-1 1h-2c-.6 0-1-.4-1-1h-1c0 .6-.4 1-1 1h-.7l5.9-7.4c.5-.6.8-1.4.8-2.2v-1.4c0-.6-.4-1-1-1h-5.1c-1.1 0-2.1.5-2.7 1.3l-.5.7H64c-.3 0-.6.1-.9.1V29.8c0-.6-.4-1-1-1H51c-.6 0-1 .4-1 1v5.5H39c-.6 0-1 .4-1 1v5.5h-6.5v-7c0-1.1-.9-2-2-2H28v-3c0-.6-.4-1-1-1h-5c-.6 0-1 .4-1 1v3h-1c-1.1 0-2 .9-2 2v7h-2.5c-.6 0-1 .4-1 1v7H14c-.6 0-1-.4-1-1h-1c0 .6-.4 1-1 1H9c-.6 0-1-.4-1-1H7c0 1.1.9 2 2 2h2c.6 0 1.1-.3 1.5-.7.4.4.9.7 1.5.7h2c.6 0 1.1-.3 1.5-.7.4.4.9.7 1.5.7h2c.6 0 1.1-.3 1.5-.7.4.4.9.7 1.5.7h2c.6 0 1.1-.3 1.5-.7.4.4.9.7 1.5.7h2c.6 0 1.1-.3 1.5-.7.4.4.9.7 1.5.7h2c.6 0 1.1-.3 1.5-.7.4.4.9.7 1.5.7h2c.6 0 1.1-.3 1.5-.7.4.4.9.7 1.5.7h2c.6 0 1.1-.3 1.5-.7.4.4.9.7 1.5.7h2c.6 0 1.1-.3 1.5-.7.4.4.9.7 1.5.7h2c.6 0 1.1-.3 1.5-.7.4.4.9.7 1.5.7h2c.6 0 1.1-.3 1.5-.7.4.4.9.7 1.5.7h2c.6 0 1.1-.3 1.5-.7.4.4.9.7 1.5.7h2c.6 0 1.1-.3 1.5-.7.4.4.9.7 1.5.7h2c.6 0 1.1-.3 1.5-.7.4.4.9.7 1.5.7h2c1.1 0 2-.9 2-2h-1zm-31-19h11v5.5H51v-5.5zm0 6.5h11v4.1c-.3.2-.6.5-.8.7l-.5.7H51v-5.5zm-12 0h11v5.5H39v-5.5zm-17-6.5h5v3h-5v-3zm-3 5c0-.6.4-1 1-1h9.5c.6 0 1 .4 1 1v7H19v-7zm-3.5 8h45.1c.3 0 .6-.1.8-.4l.6-.7c.5-.6 1.2-.9 2-.9h3.7c.3 0 .6-.1.8-.4l.6-.7c.5-.6 1.2-.9 2-.9H76v1.4c0 .6-.2 1.1-.5 1.6l-3.2 4H15.5v-3zm53.5 7c-.6 0-1-.4-1-1h-1c0 .6-.4 1-1 1h-2c-.6 0-1-.4-1-1h-1c0 .6-.4 1-1 1h-2c-.6 0-1-.4-1-1h-1c0 .6-.4 1-1 1h-2c-.6 0-1-.4-1-1h-1c0 .6-.4 1-1 1h-2c-.6 0-1-.4-1-1h-1c0 .6-.4 1-1 1h-2c-.6 0-1-.4-1-1h-1c0 .6-.4 1-1 1h-2c-.6 0-1-.4-1-1h-1c0 .6-.4 1-1 1h-2c-.6 0-1-.4-1-1h-1c0 .6-.4 1-1 1h-2c-.6 0-1-.4-1-1h-1c0 .6-.4 1-1 1h-2c-.6 0-1-.4-1-1h-1c0 .6-.4 1-1 1h-2c-.6 0-1-.4-1-1h-1c0 .6-.4 1-1 1h-.5v-3h56l-2.4 3H69z" style="fill: #141414;"/><path d="M41 37.8h1v2.5h-1zM44 37.8h1v2.5h-1zM47 37.8h1v2.5h-1zM53 37.8h1v2.5h-1zM56 37.8h1v2.5h-1zM59 37.8h1v2.5h-1zM53 31.3h1v2.5h-1zM56 31.3h1v2.5h-1zM59 31.3h1v2.5h-1zM34.262 28.936h5.691v1h-5.691zM34.604 23.906a7.739 7.739 0 0 1-.95-1.685l.931-.365c.182.462.46.955.83 1.464l-.811.586zm-.276-3.28h-1c0-.128.005-.257.014-.385.137-1.848 1.35-3.838 3.69-3.838v1c-1.71 0-2.585 1.463-2.693 2.913a4.104 4.104 0 0 0-.01.31zM34.832 30.644h4.552v1h-4.552z" style="fill: #141414;"/><path d="M39.705 28.229h-5.196a.5.5 0 0 1-.479-.356c-.256-.856-.712-1.977-1.06-2.608l-.174-.316c-.724-1.304-1.473-2.653-1.473-4.183 0-3.622 2.487-6.354 5.785-6.354 3.297 0 5.784 2.732 5.784 6.354 0 1.507-.732 2.836-1.44 4.12l-.207.377c-.361.663-.808 1.76-1.061 2.61a.5.5 0 0 1-.48.356zm-4.83-1h4.463c.28-.848.682-1.808 1.03-2.445l.208-.38c.676-1.228 1.316-2.388 1.316-3.638 0-3.052-2.057-5.354-4.784-5.354-2.728 0-4.785 2.302-4.785 5.354 0 1.27.655 2.45 1.347 3.697l.177.32c.335.609.745 1.589 1.028 2.446zM36.531 11.795h1v1.558h-1zM29.474 16.824l.454-.891 1.389.708-.454.89zM42.746 16.64l1.389-.708.454.891-1.389.709z" style="fill: #141414;"/><g><path d="M29.685 24.29l1.397-.712.455.891-1.398.713z" style="fill: #141414;"/><path d="M29.644 24.32l1.397-.712.455.891-1.398.713zM42.65 24.45l.454-.89 1.399.713-.454.89z" style="fill: #141414;"/></g></svg>
