<?xml version="1.0" encoding="UTF-8"?>
<svg xmlns="http://www.w3.org/2000/svg" viewBox="0 0 64.111 63.839"><path fill="#00243d" d="M53.041 39.957l-1.208-.24a7.033 7.033 0 0 0-.316-.764l.684-1.025c.398-.599.318-1.402-.19-1.908l-.847-.848a1.486 1.486 0 0 0-.6-.345V19.643a2.5 2.5 0 0 0-2.497-2.497h-36.04a2.5 2.5 0 0 0-2.496 2.497V43.6a2.5 2.5 0 0 0 2.496 2.498h26.101l-.034.05c-.397.6-.317 1.403.19 1.909l.847.848c.51.506 1.312.584 1.907.186l1.024-.683c.247.12.502.226.763.316l.241 1.207a1.518 1.518 0 0 0 1.484 1.216h1.195c.719 0 1.343-.511 1.484-1.216l.241-1.207c.26-.09.516-.196.763-.316l1.024.683c.597.399 1.4.319 1.909-.189l.845-.844a1.52 1.52 0 0 0 .19-1.91l-.684-1.024c.12-.248.226-.503.316-.763l1.208-.242a1.519 1.519 0 0 0 1.215-1.483V41.44c0-.717-.511-1.341-1.215-1.483zm-41.014-21.81h36.04c.825 0 1.496.67 1.496 1.496v2.144H10.531v-2.144c0-.825.671-1.497 1.496-1.497zm-1.496 25.452V22.787h39.032v12.064c-.104.04-.21.07-.306.134l-1.024.683a6.981 6.981 0 0 0-.763-.316l-.241-1.206a1.518 1.518 0 0 0-1.484-1.217H44.55c-.719 0-1.343.512-1.484 1.217l-.24 1.206c-.262.09-.516.196-.764.316l-1.024-.682a1.518 1.518 0 0 0-1.909.188l-.844.844a1.518 1.518 0 0 0-.19 1.91l.683 1.024c-.12.248-.226.503-.316.764l-1.208.241a1.517 1.517 0 0 0-1.215 1.483v1.195c0 .717.511 1.341 1.216 1.484l1.207.24c.087.252.19.498.306.738h-26.74a1.498 1.498 0 0 1-1.497-1.498zm42.725-.964a.516.516 0 0 1-.412.503l-1.494.299a.5.5 0 0 0-.381.347 6.026 6.026 0 0 1-.47 1.135.5.5 0 0 0 .023.514l.846 1.268a.516.516 0 0 1-.064.648l-.845.844a.513.513 0 0 1-.647.065l-1.269-.846a.504.504 0 0 0-.515-.023c-.358.193-.74.352-1.135.47a.5.5 0 0 0-.346.381l-.299 1.493a.515.515 0 0 1-.503.413H44.55a.515.515 0 0 1-.503-.413l-.299-1.493a.5.5 0 0 0-.346-.38 6.055 6.055 0 0 1-1.135-.471.501.501 0 0 0-.515.023l-1.27.847a.513.513 0 0 1-.645-.064l-.846-.847a.514.514 0 0 1-.064-.646l.846-1.269a.5.5 0 0 0 .024-.514 6.056 6.056 0 0 1-.47-1.135.5.5 0 0 0-.382-.347l-1.493-.299a.516.516 0 0 1-.413-.503V41.44c0-.243.173-.454.412-.502l1.494-.299a.5.5 0 0 0 .381-.347c.118-.393.276-.776.47-1.135a.5.5 0 0 0-.023-.515l-.846-1.268a.515.515 0 0 1 .065-.648l.844-.844a.513.513 0 0 1 .647-.065l1.269.846a.5.5 0 0 0 .515.024c.359-.194.74-.352 1.134-.47a.5.5 0 0 0 .347-.381l.299-1.494a.515.515 0 0 1 .503-.413h1.195c.244 0 .456.174.503.413l.299 1.494a.5.5 0 0 0 .347.38c.394.119.776.277 1.134.47a.502.502 0 0 0 .515-.023l1.269-.846a.52.52 0 0 1 .646.063l.847.847a.514.514 0 0 1 .064.647l-.847 1.268a.5.5 0 0 0-.024.515c.195.36.353.742.47 1.135a.5.5 0 0 0 .382.347l1.494.299c.239.048.412.26.412.502v1.195z" style="fill: #141414;"/><path fill="#00243d" d="M45.147 37.327c-2.597 0-4.71 2.114-4.71 4.71s2.113 4.71 4.71 4.71 4.71-2.112 4.71-4.71-2.112-4.71-4.71-4.71zm0 8.42c-2.046 0-3.71-1.663-3.71-3.71s1.664-3.71 3.71-3.71 3.71 1.665 3.71 3.71-1.664 3.71-3.71 3.71zM42.91 19.602h.89v1h-.89zM44.703 19.602h.89v1h-.89zM46.439 19.602h.89v1h-.89zM19.338 31.49h3.19c.58 0 1.033-.39 1.033-.887v-3.878c0-.695-.566-1.262-1.262-1.262h-2.771c-.698 0-1.266.568-1.266 1.266v3.842c0 .515.473.919 1.076.919zm-.076-4.76c0-.148.119-.267.266-.267h2.771c.145 0 .262.118.262.262v3.769a.038.038 0 0 0-.02-.005h-3.202a.262.262 0 0 1-.077-.01v-3.75zM25.365 33.966h-8.909a2.496 2.496 0 0 0-2.493 2.493v6.08l13.895-.013v-6.067a2.496 2.496 0 0 0-2.493-2.493zm1.493 7.56l-1.892.002v-3.44h-1v3.441l-6.22.006v-3.447h-1v3.448l-1.783.002v-5.079c0-.823.67-1.493 1.493-1.493h8.91c.822 0 1.492.67 1.492 1.493v5.068zM30.034 27.157h14.592v1H30.034zM30.034 30.089h14.592v1H30.034zM30.034 33.02h7.296v1h-7.296z" style="fill: #141414;"/></svg>
