<?xml version="1.0" encoding="UTF-8"?>
<svg xmlns="http://www.w3.org/2000/svg" viewBox="0 0 64.111 63.839"><path fill="#00243d" d="M39.872 15.602h10.603v1H39.872zM39.872 17.558h10.603v1H39.872zM39.872 19.515h4.17v1h-4.17z" style="fill: #141414;"/><path fill="#00243d" d="M52.05 13.164H38.33a.976.976 0 0 0-.974.975v8.214a.98.98 0 0 0 .975.984l2.367-.02v2.568c0 .54.44.98.98.98h1.449a.97.97 0 0 0 .751-.354l2.61-3.174h5.562a.98.98 0 0 0 .975-.984v-8.205a.98.98 0 0 0-.975-.984zm-5.562 9.173a.978.978 0 0 0-.757.356l-2.604 3.172-1.43.02v-2.568a.98.98 0 0 0-.98-.98l-2.361.016-.025-8.19 13.694-.015.025 8.19h-5.562zM40.301 41.405c0-1.566-.865-3-2.22-3.758v-.426c0-.846-.687-1.534-1.532-1.534H18.368c-.846 0-1.534.688-1.534 1.534v.43a4.324 4.324 0 0 0-2.218 3.754v8.657h-1.158v1h28v-1h-1.157v-8.657zm-24.685 8.657v-8.657c0-1 .462-1.931 1.218-2.554v11.21h-1.218zm11.27-4.805h1.18c.34 0 .659-.133.9-.373s.371-.561.37-.901l-.004-2.021a3.043 3.043 0 0 1 1.15 2.372c0 .871-.378 1.7-1.035 2.275-.765.666-1.185 1.546-1.185 2.478v.975h-1.607v-.975c0-.931-.421-1.811-1.185-2.478a3.02 3.02 0 0 1 .145-4.672v2.049c0 .7.57 1.27 1.271 1.27zm2.376 4.805v-.975c0-.638.299-1.25.842-1.725a4.02 4.02 0 0 0 1.378-3.028c0-1.537-.896-2.961-2.281-3.627a.603.603 0 0 0-.586.035.603.603 0 0 0-.285.515l.006 2.728a.27.27 0 0 1-.27.272h-1.18a.271.271 0 0 1-.27-.271v-2.744c0-.209-.107-.4-.284-.513a.604.604 0 0 0-.582-.039 4.04 4.04 0 0 0-2.316 3.644 4.02 4.02 0 0 0 1.378 3.029c.543.473.843 1.086.843 1.724v.975h-7.82V37.22c0-.294.239-.534.533-.534h18.18c.295 0 .534.24.534.534v12.84h-7.82zm8.82 0V38.846a3.32 3.32 0 0 1 1.22 2.559v8.657h-1.22zM19.875 30.036v.904c0 .763.621 1.384 1.384 1.384h.244v.761c0 .866.695 1.57 1.55 1.57h8.575a1.62 1.62 0 0 0 1.618-1.619v-2.92h1.237c.686 0 1.244-.559 1.244-1.245v-3.474c0-.539-.349-.987-.83-1.16v-2.103c0-.487-.184-.951-.498-1.284l-1.619-1.945a1.963 1.963 0 0 0-1.427-.615h-7.921c-.57 0-1.11.245-1.48.673l-1.61 1.86a1.907 1.907 0 0 0-.467 1.248v2.161a1.233 1.233 0 0 0-.853 1.165v3.474c0 .547.36 1 .853 1.165zm.147-4.639c0-.136.107-.244.244-.244h1.237v.712h-.606v1h.606v.557h-.606v1h.606v.693h-1.237a.245.245 0 0 1-.244-.244v-3.474zm1.237 5.927a.384.384 0 0 1-.384-.384v-.825h.628v1.209h-.244zm10.987 1.712c0 .341-.277.619-.618.619h-8.575a.56.56 0 0 1-.55-.57v-.761h2.907v.364a.5.5 0 0 0 .5.5h2.307a.5.5 0 0 0 .5-.5v-1.73a.5.5 0 0 0-.5-.5H25.91a.5.5 0 0 0-.5.5v.366h-2.907V22.43a.56.56 0 0 1 .55-.57h8.644a.56.56 0 0 1 .549.57v10.605zm-5.836-.848v-.73h1.307v.73H26.41zm8.317-3.317c0 .135-.11.244-.244.244h-1.237v-.693h.606v-1h-.606v-.557h.606v-1h-.606v-.712h1.237c.136 0 .244.108.244.244v3.474zm-13.629-7.395l1.61-1.859a.955.955 0 0 1 .724-.327h7.92c.266 0 .52.11.68.277l1.618 1.946c.16.169.248.39.248.62v2.02h-.652v-1.722c0-.865-.695-1.57-1.55-1.57h-8.643c-.855 0-1.55.705-1.55 1.57v1.722h-.628v-2.082a.91.91 0 0 1 .223-.595z" style="fill: #141414;"/></svg>
