<?xml version="1.0" encoding="UTF-8"?>
<svg xmlns="http://www.w3.org/2000/svg" viewBox="0 0 64 64"><path d="M32.72 20.07h2.904c.552 0 .984-.375.984-.853V15.69c0-.658-.535-1.194-1.193-1.194h-2.522c-.66 0-1.197.537-1.197 1.197v3.496c0 .495.45.881 1.025.881zm-.024-4.378c0-.109.088-.197.197-.197h2.522c.106 0 .193.087.193.194v3.38l-2.912-.016v-3.36zM47.05 36.608h-9.2c.04-.126.08-.255.08-.395v-4.407l2.13-1.475c.317-.22.506-.581.506-.967V24.3a2.317 2.317 0 0 0-2.314-2.315h-8.113a2.315 2.315 0 0 0-2.313 2.313v5.077c0 .375.182.73.486.95l2.045 1.474v4.347c0 .163.033.317.086.462h-8.791a.5.5 0 0 0-.5.5v5.444h-6.915a.5.5 0 0 0-.5.5v5.953a.5.5 0 0 0 .5.5h25.41a.5.5 0 0 0 .5-.5V46.02l.768 1.053a.6.6 0 0 0 .679.223.605.605 0 0 0 .42-.578v-3.156h5.037a.5.5 0 0 0 .5-.5v-5.954a.5.5 0 0 0-.5-.5zm-18.153-7.095a.17.17 0 0 1-.07-.138v-5.077c0-.724.588-1.313 1.312-1.313h8.113c.725 0 1.314.59 1.314 1.315v5.064a.177.177 0 0 1-.075.145l-1.561 1.08v-4.816h-1v10.44c0 .174-.14.314-.315.314h-4.877a.382.382 0 0 1-.381-.381V25.773h-1v4.794l-1.46-1.054zm-6.745 8.095H46.55v1.974H24.64v1h12.594v1.97H22.152v-4.944zm-7.415 10.897v-1.973H35.66v-1H14.737v-1.98h6.866c.017.001.032.01.049.01h15.582v3.156a.605.605 0 0 0 .61.608c.19 0 .374-.09.489-.25l.813-1.115v2.544H14.737zm26.278-2.991l-.986-1.352a.501.501 0 0 0-.808 0l-.987 1.353v-4.933h2.78v4.932zm1-2.952v-1.98h4.536v1.98h-4.536z" style="fill: #141414;"/></svg>
