<?xml version="1.0" encoding="UTF-8"?>
<svg xmlns="http://www.w3.org/2000/svg" viewBox="0 0 64 63.9"><path d="M20.96 46.633h1v3.816h-1zM27.348 46.633h1v3.98h-1zM23.271 40.694h2.823c.544 0 .97-.37.97-.841v-3.43c0-.648-.526-1.174-1.173-1.174h-2.452c-.649 0-1.177.528-1.177 1.177v3.398c0 .488.443.87 1.01.87zm-.01-4.268c0-.098.08-.177.178-.177h2.452c.095 0 .173.078.173.174v3.271l-2.802-.013v-3.255z" style="fill: #141414;"/><path d="M28.647 42.937h-7.885A2.264 2.264 0 0 0 18.5 45.2v5.496h1V45.2c0-.695.566-1.262 1.262-1.262h7.885c.698 0 1.265.567 1.265 1.264v5.484h1V45.2a2.267 2.267 0 0 0-2.265-2.264zM35.809 46.633h1v3.816h-1zM42.196 46.633h1v3.98h-1zM38.287 35.249c-.65 0-1.178.528-1.178 1.177v3.398c0 .488.444.87 1.01.87h2.822c.545 0 .972-.37.972-.841v-3.43c0-.648-.527-1.174-1.175-1.174h-2.45zm2.626 1.174v3.271l-2.804-.013v-3.255c0-.098.08-.177.178-.177h2.451c.097 0 .175.078.175.174z" style="fill: #141414;"/><path d="M43.496 42.937H35.61A2.264 2.264 0 0 0 33.35 45.2v5.496h1V45.2c0-.695.566-1.262 1.261-1.262h7.886c.697 0 1.264.567 1.264 1.264v5.484h1V45.2a2.266 2.266 0 0 0-2.264-2.264zM35.334 34.956l-.022-2.531h2.369c.535 0 .97-.44.97-.979v-5.354h5.197c.536 0 .971-.44.971-.98v-7.613a.977.977 0 0 0-.971-.981H30.215a.973.973 0 0 0-.972.972v5.358h-5.192a.98.98 0 0 0-.97.985v7.613c0 .54.435.979.97.979l5.508-.005 2.613 3.163a.983.983 0 0 0 .742.352h1.441c.54 0 .979-.439.979-.979zm8.485-17.457l.029 7.593H38.32a.975.975 0 0 0-.754.355l-2.586 3.151-1.417.023V26.07a.978.978 0 0 0-.977-.977l-2.343.018-.028-7.593 13.604-.02zM30.335 31.79a.969.969 0 0 0-.761-.366l-5.493.021-.03-7.598h5.192v1.263c0 .541.436.981.972.981l2.348-.022v2.551c0 .539.439.977.978.977h1.44c.291 0 .565-.13.748-.353l1.927-2.334.025 4.514h-2.368a.98.98 0 0 0-.979.978l.021 2.532-1.418.003-2.602-3.147z" style="fill: #141414;"/></svg>
