<?xml version="1.0" encoding="UTF-8"?>
<svg xmlns="http://www.w3.org/2000/svg" viewBox="0 0 64.111 63.839"><path fill="#00243d" d="M26.505 24.377h-2.087c-.192 0-.312.096-.348.288l-1.955 8.108h1.08l.623-2.65h3.286l.624 2.65h1.104l-1.979-8.108c-.048-.192-.156-.288-.348-.288zm-2.47 4.798l.887-3.85h1.055l.912 3.85h-2.855zM33.813 24.377h-2.638v8.396h1.08v-3.011h1.558c1.68 0 2.819-.287 2.819-2.687 0-2.422-1.139-2.698-2.819-2.698zm-.155 4.438h-1.403v-3.49h1.415c1.21 0 1.858.047 1.858 1.75 0 1.668-.635 1.74-1.87 1.74zM39.166 24.377h1.08v8.396h-1.08z" style="fill: #ffffff;"/><path fill="#00243d" d="M42.24 38.621h.001c.014 0 .028 0 .043-.002 4.293-.364 7.657-3.789 7.657-7.798 0-2.72-1.64-5.262-4.302-6.705-.117-6.082-5.454-10.995-11.986-10.995-4.223-.092-8.24 2.09-10.553 5.738-1.407-.256-2.758.077-3.838.948-1.249 1.006-1.992 2.637-2.023 4.413-2.434 1.339-3.996 3.834-4.098 6.601 0 4.177 3.423 7.132 8.983 7.714l4.417.02v2.96l-1.707 1.707h-2.947a2.403 2.403 0 0 0-2.346-1.9c-1.323 0-2.4 1.077-2.4 2.4s1.077 2.4 2.4 2.4a2.403 2.403 0 0 0 2.346-1.9h3.154a.5.5 0 0 0 .353-.147l2-2a.5.5 0 0 0 .147-.353v-3.164l3.475.015v7.402a2.404 2.404 0 0 0-1.9 2.346c0 1.324 1.077 2.4 2.4 2.4s2.4-1.076 2.4-2.4a2.404 2.404 0 0 0-1.9-2.346v-7.397l3.425.014v3.13a.5.5 0 0 0 .146.353l2 2a.5.5 0 0 0 .354.147h3.254a2.403 2.403 0 0 0 2.346 1.9c1.323 0 2.4-1.077 2.4-2.4s-1.077-2.4-2.4-2.4a2.403 2.403 0 0 0-2.346 1.9h-3.047l-1.707-1.707v-2.919l5.798.025zm-22.7 6.5c-.771 0-1.399-.628-1.399-1.4 0-.772.628-1.4 1.4-1.4s1.4.628 1.4 1.4c0 .772-.628 1.4-1.4 1.4zm13.376 3.2c0 .773-.628 1.4-1.4 1.4a1.401 1.401 0 0 1 0-2.8c.772 0 1.4.628 1.4 1.4zm10.625-6c.772 0 1.4.628 1.4 1.4 0 .772-.628 1.4-1.4 1.4s-1.4-.628-1.4-1.4c0-.772.628-1.4 1.4-1.4zm-29.4-11.481c.092-2.488 1.557-4.738 3.824-5.871a.5.5 0 0 0 .276-.463c-.048-1.585.568-3.05 1.648-3.92a3.634 3.634 0 0 1 2.307-.81c.334 0 .677.043 1.024.13a.499.499 0 0 0 .55-.23c2.095-3.52 5.888-5.658 9.871-5.555 6.065 0 11 4.576 11 10.3a.5.5 0 0 0 .276.447c2.482 1.241 4.024 3.523 4.024 5.953 0 3.43-3.013 6.475-6.72 6.8l-20.042-.083c-4.958-.521-8.038-3.095-8.038-6.698z" style="fill: #ffffff;"/></svg>
