<?xml version="1.0" encoding="UTF-8"?>
<svg xmlns="http://www.w3.org/2000/svg" viewBox="0 0 63.9 63.9"><path d="M43.935 38.383l-2.843-6.837v-.8a8.93 8.93 0 0 0-4.316-7.628l-.513.858a7.825 7.825 0 0 1 3.829 6.77v.9c0 .065.012.13.038.191l2.88 6.926a.393.393 0 0 1-.358.543h-2.06a.5.5 0 0 0-.5.5v3.319a2.943 2.943 0 0 1-2.94 2.94h-2.98a.5.5 0 0 0-.5.5v3.06h-10.72v-10.88a.5.5 0 0 0-.19-.392 5.823 5.823 0 0 1-2.23-4.597v-5.04a5.824 5.824 0 0 1 3.703-5.454l-.366-.931a6.819 6.819 0 0 0-4.337 6.384v5.04c0 2.03.88 3.92 2.42 5.227v11.143a.5.5 0 0 0 .5.5h11.72a.5.5 0 0 0 .5-.5v-3.06h2.48a3.945 3.945 0 0 0 3.94-3.94v-2.82h1.56c.461 0 .891-.228 1.149-.612.26-.385.31-.874.134-1.31z" style="fill: #141414;"/><path d="M27.13 28.388l.576 1.455h5.057l.664-1.677c.32-.806.733-1.564 1.259-2.455a5.155 5.155 0 0 0-1.113-6.546 5.188 5.188 0 0 0-4.217-1.152 5.134 5.134 0 0 0-4.174 4.036 5.194 5.194 0 0 0 .563 3.587c.518.913 1.014 1.81 1.386 2.752zm-1.047-6.158a4.21 4.21 0 0 1 3.423-3.31 4.281 4.281 0 0 1 3.473.946 4.232 4.232 0 0 1 .914 5.378c-.546.928-.98 1.723-1.32 2.583l-.435 1.096H28.33l-.345-.873c-.393-.997-.906-1.926-1.442-2.868a4.275 4.275 0 0 1-.461-2.952z" style="fill: #141414;"/><path d="M28.64 21.187c.584-.578 1.377-.59 1.446-.586h.008v-.92c-.212-.003-1.271.033-2.1.851-.646.638-.977 1.569-.983 2.766l.92.005c.005-.945.243-1.657.709-2.116zM23.372 20.282l.459-.796 1.055.61-.46.795zM35.622 19.808l1.055-.609.46.796-1.056.609zM29.711 15.9h.92v1.217h-.92zM28.038 30.331h4.278v.92h-4.278zM28.46 31.783h3.63v.92h-3.63z" style="fill: #141414;"/></svg>
