<?xml version="1.0" encoding="UTF-8"?>
<svg xmlns="http://www.w3.org/2000/svg" viewBox="0 0 64 64"><path d="M8.963 49.874h46v1h-46z" style="fill: #141414;"/><path d="M31.23 50.863H17.86a1 1 0 0 1-1-1v-35.33a1 1 0 0 1 1-1h22a1 1 0 0 1 1 1v23.766h-1V14.533h-22v35.33h13.37z" style="fill: #141414;"/><path d="M31.718 28.485h2.675v1h-2.675z" style="fill: #141414;"/><path d="M35.742 30.836a1.85 1.85 0 1 1 1.85-1.85 1.852 1.852 0 0 1-1.85 1.85zm0-2.7a.85.85 0 1 0 .85.85.85.85 0 0 0-.85-.85zM47.347 50.874H33.24a.905.905 0 0 1-.904-.904V38.703a.905.905 0 0 1 .904-.904h14.106a.905.905 0 0 1 .904.904v11.266a.905.905 0 0 1-.904.905zm-14.01-1H47.25V38.799H33.337z" style="fill: #141414;"/><path d="M42.1 42.938h-3.613a.5.5 0 0 1-.5-.5v-4.14a.5.5 0 0 1 .5-.5h3.614a.5.5 0 0 1 .5.5v4.14a.5.5 0 0 1-.5.5zm-3.113-1h2.614v-3.14h-2.614zM42.101 47.52h4.068v1h-4.068zM42.101 46.011h4.068v1h-4.068z" style="fill: #141414;"/></svg>
