<?xml version="1.0" encoding="UTF-8"?>
<svg xmlns="http://www.w3.org/2000/svg" viewBox="0 0 64 64"><path d="M8.963 49.873h46v1h-46z" style="fill: #141414;"/><path d="M31.23 50.864H17.86a1 1 0 0 1-1-1v-35.33a1 1 0 0 1 1-1h22a1 1 0 0 1 1 1v23.764h-1V14.534h-22v35.33h13.37z" style="fill: #141414;"/><path d="M31.718 28.485h2.675v1h-2.675z" style="fill: #141414;"/><path d="M35.742 30.835a1.85 1.85 0 1 1 1.85-1.85 1.852 1.852 0 0 1-1.85 1.85zm0-2.7a.85.85 0 1 0 .85.85.85.85 0 0 0-.85-.85zM47.347 50.873H33.24a.905.905 0 0 1-.904-.904V38.703a.905.905 0 0 1 .904-.905h14.106a.905.905 0 0 1 .904.905v11.266a.905.905 0 0 1-.904.904zm-14.01-1H47.25V38.798H33.337z" style="fill: #141414;"/><path d="M42.1 42.938h-3.613a.5.5 0 0 1-.5-.5v-4.14a.5.5 0 0 1 .5-.5h3.614a.5.5 0 0 1 .5.5v4.14a.5.5 0 0 1-.5.5zm-3.113-1h2.614v-3.14h-2.614zM42.101 47.52h4.068v1h-4.068zM42.101 46.01h4.068v1h-4.068zM30.826 50.873H20.39a.905.905 0 0 1-.905-.904v-7.475a.905.905 0 0 1 .905-.905h10.437a.905.905 0 0 1 .903.905v7.475a.905.905 0 0 1-.903.904zm-10.342-1H30.73V42.59H20.484z" style="fill: #141414;"/><path d="M27.414 44.71H23.8a.5.5 0 0 1-.5-.5v-2.12a.5.5 0 0 1 .5-.5h3.614a.5.5 0 0 1 .5.5v2.12a.5.5 0 0 1-.5.5zm-3.114-1h2.614v-1.12H24.3zM27.414 47.52h2.337v1h-2.337zM27.414 46.01h2.337v1h-2.337zM30.809 40.931h-6.647a.905.905 0 0 1-.904-.904v-8.108a.905.905 0 0 1 .904-.904h6.647a.905.905 0 0 1 .904.904v8.108a.905.905 0 0 1-.904.904zm-6.551-1h6.455v-7.916h-6.455z" style="fill: #141414;"/><path d="M28.66 34.136h-2.35a.5.5 0 0 1-.5-.5v-2.121a.5.5 0 0 1 .5-.5h2.35a.5.5 0 0 1 .5.5v2.121a.5.5 0 0 1-.5.5zm-1.85-1h1.35v-1.121h-1.35zM28.565 37.797h1.422v1h-1.422zM28.565 36.287h1.422v1h-1.422z" style="fill: #141414;"/></svg>
