<?xml version="1.0" encoding="UTF-8"?>
<svg xmlns="http://www.w3.org/2000/svg" viewBox="0 0 64 64"><path d="M45.164 38.282h-5.72a.5.5 0 0 1-.5-.5V31.23a.5.5 0 0 1 .5-.5h5.72a.5.5 0 0 1 .5.5v6.552a.5.5 0 0 1-.5.5zm-5.22-1h4.72V31.73h-4.72z" style="fill: #141414;"/><path d="M53.467 50.841H31.14a1.142 1.142 0 0 1-1.14-1.14V31.87a1.142 1.142 0 0 1 1.14-1.14h22.326a1.142 1.142 0 0 1 1.14 1.14v17.832a1.142 1.142 0 0 1-1.14 1.14zM31.14 31.73a.14.14 0 0 0-.14.14v17.832a.14.14 0 0 0 .14.14h22.326a.14.14 0 0 0 .14-.14V31.87a.14.14 0 0 0-.14-.14z" style="fill: #141414;"/><path d="M45.164 46.117h6.438v1h-6.438zM45.164 44.385h6.438v1h-6.438zM27.33 50.841H10.81a1.142 1.142 0 0 1-1.14-1.14V37.87a1.142 1.142 0 0 1 1.14-1.14h16.52a1.142 1.142 0 0 1 1.14 1.14v11.832a1.142 1.142 0 0 1-1.14 1.14zM10.81 37.73a.14.14 0 0 0-.14.14v11.832a.14.14 0 0 0 .14.14h16.52a.14.14 0 0 0 .14-.14V37.87a.14.14 0 0 0-.14-.14z" style="fill: #141414;"/><path d="M21.93 41.086h-5.72a.5.5 0 0 1-.5-.5V37.23a.5.5 0 0 1 .5-.5h5.72a.5.5 0 0 1 .5.5v3.356a.5.5 0 0 1-.5.5zm-5.22-1h4.72V37.73h-4.72zM21.931 46.117h3.698v1h-3.698zM21.931 44.385h3.698v1h-3.698zM27.33 35.195H16.81a1.142 1.142 0 0 1-1.14-1.14V21.223a1.142 1.142 0 0 1 1.14-1.14h10.52a1.142 1.142 0 0 1 1.14 1.14v12.832a1.142 1.142 0 0 1-1.14 1.14zM16.81 21.084a.14.14 0 0 0-.14.14v12.831a.14.14 0 0 0 .14.14h10.52a.14.14 0 0 0 .14-.14V21.223a.14.14 0 0 0-.14-.14z" style="fill: #141414;"/><path d="M23.93 24.44h-3.72a.5.5 0 0 1-.5-.5v-3.356a.5.5 0 0 1 .5-.5h3.72a.5.5 0 0 1 .5.5v3.356a.5.5 0 0 1-.5.5zm-3.22-1h2.72v-2.356h-2.72zM23.779 30.817h2.251v1h-2.251zM23.779 29.119h2.251v1h-2.251z" style="fill: #141414;"/></svg>
