<?xml version="1.0" encoding="UTF-8"?>
<svg xmlns="http://www.w3.org/2000/svg" viewBox="0 0 63.6 63.6"><path d="M36.3 48.5H22.6c-.3 0-.5-.2-.5-.5v-8.8c0-.2.1-.3.2-.4l3.5-2.4c.3-.2.8-.4 1.2-.4h9.1c1.1 0 2 .9 2 2v1.3l5.3-4.6c.8-.7 2-.7 2.8.1l1.1 1.1c.4.4.6.9.6 1.5 0 .5-.2 1.1-.6 1.5l-8.5 8.6c-.6.6-1.5 1-2.5 1zm-13.2-1h13.2c.7 0 1.4-.3 1.8-.8l8.5-8.5c.2-.2.3-.5.3-.8s-.1-.6-.3-.8l-1.1-1.1c-.4-.4-1-.4-1.4 0l-6.6 5.9c-.4.4-.9.6-1.4.6H29v-1h7.1c.6 0 1.1-.5 1.1-1v-1.6c0-.6-.4-1.1-1-1.1h-9.1c-.2 0-.4.1-.6.2l-3.3 2.2v7.8h-.1z" style="fill: #141414;"/><path d="M21 50.6h-3.1c-1.1 0-2.1-.9-2.1-2.1V37.8c0-1.1.9-2.1 2.1-2.1H21c1.1 0 2.1.9 2.1 2.1v10.7c0 1.2-.9 2.1-2.1 2.1zm-3.1-13.8c-.6 0-1.1.5-1.1 1.1v10.7c0 .6.5 1.1 1.1 1.1H21c.6 0 1.1-.5 1.1-1.1V37.8c0-.6-.5-1.1-1.1-1.1h-3.1v.1z" style="fill: #141414;"/><g><path d="M31 33.4c-4.4 0-8-3.6-8-8s3.6-8 8-8 8 3.6 8 8-3.6 8-8 8zm0-15c-3.9 0-7 3.1-7 7s3.1 7 7 7 7-3.1 7-7-3.2-7-7-7z" style="fill: #141414;"/><path d="M31 27.5c-1.2 0-2.1-.9-2.1-2.1s.9-2.1 2.1-2.1 2.1.9 2.1 2.1c0 1.1-1 2.1-2.1 2.1zm0-3.2c-.6 0-1.1.5-1.1 1.1s.5 1.1 1.1 1.1 1.1-.5 1.1-1.1c-.1-.6-.5-1.1-1.1-1.1z" style="fill: #141414;"/><path d="M30.5 27h1v5.9h-1zM23.614 23.72l.334-.942 5.655 2.008-.335.942zM32.404 24.822l5.655-2.006.334.943-5.655 2.006z" style="fill: #141414;"/></g></svg>
