<?xml version="1.0" encoding="UTF-8"?>
<svg xmlns="http://www.w3.org/2000/svg" viewBox="0 0 64.1 64.1"><path d="M38.1 43.7H16.8c-1.8 0-3.3-1.5-3.3-3.3V19.9c0-1.8 1.5-3.3 3.3-3.3H40c1.6 0 2.9 1.7 2.9 3.8V22h-1v-1.6c0-1.5-.9-2.8-1.9-2.8H16.8c-1.3 0-2.3 1-2.3 2.3v20.6c0 1.3 1 2.3 2.3 2.3h21.3v.9z" style="fill: #141414;"/><path d="M22.7 33h-3.4v-1h3.4c.2 0 .3-.2.3-.3v-1.5c0-.2-.2-.3-.3-.3h-2.5c-.7 0-1.3-.6-1.3-1.3v-1.5c0-.7.6-1.3 1.3-1.3h3.4v1h-3.4c-.2 0-.3.2-.3.3v1.5c0 .2.2.3.3.3h2.5c.7 0 1.3.6 1.3 1.3v1.5c.1.7-.5 1.3-1.3 1.3z" style="fill: #141414;"/><path d="M21 24.9h1v1.3h-1zM21 32.5h1v1.3h-1zM26.8 29.2h7.4v1h-7.4zM26.8 25.6h5.4v1h-5.4zM45.7 51h-6.2c-.9 0-1.6-.7-1.6-1.6V36.2h1v13.2c0 .3.3.6.6.6h6.2c.3 0 .5-.2.5-.5V36.2h1v13.3c0 .8-.7 1.5-1.5 1.5zM44.5 28.8h-3.7c-.7 0-1.2-.4-1.2-1v-4.5c0-.8.6-1.4 1.4-1.4h3.2c.8 0 1.4.6 1.4 1.4v4.5c0 .5-.5 1-1.1 1zM41 22.9c-.2 0-.4.2-.4.4v4.4h4v-4.4c0-.2-.2-.4-.4-.4H41z" style="fill: #141414;"/><path d="M47 43.9l-.6-.8 3-2.1c.1-.1.1-.2.1-.3v-6.5c0-1-.8-1.8-1.8-1.8H37.4c-1 0-1.8.8-1.8 1.8v6.5c0 .1.1.2.1.3l2.9 2.1-.6.8-2.9-2.1c-.3-.3-.6-.7-.6-1.1v-6.5c0-1.5 1.3-2.8 2.8-2.8h10.3c1.5 0 2.8 1.3 2.8 2.8v6.5c0 .4-.2.9-.6 1.1L47 43.9z" style="fill: #141414;"/></svg>
