<?xml version="1.0" encoding="UTF-8"?>
<svg xmlns="http://www.w3.org/2000/svg" viewBox="0 0 64.111 63.839"><path fill="#00243d" d="M39.298 15.497h10.603v1H39.298zM39.298 17.453h10.603v1H39.298zM39.298 19.41h4.17v1h-4.17z" style="fill: #ffffff;"/><path fill="#00243d" d="M51.476 13.059H37.757a.976.976 0 0 0-.975.975v8.214a.98.98 0 0 0 .975.984l2.367-.02v2.568c0 .54.44.98.98.98h1.45a.97.97 0 0 0 .75-.354l2.61-3.174h5.562a.98.98 0 0 0 .975-.984v-8.205a.98.98 0 0 0-.975-.984zm-5.562 9.173a.978.978 0 0 0-.756.356l-2.605 3.172-1.429.02v-2.568a.98.98 0 0 0-.98-.98l-2.362.016-.025-8.189 13.694-.016.025 8.19h-5.562z" style="fill: #ffffff;"/><path fill="#00243d" d="M43.289 48.661h5.137a2.81 2.81 0 0 0 2.807-2.807V34.632a2.81 2.81 0 0 0-2.807-2.806H32.703V30.01h1.237c.686 0 1.245-.558 1.245-1.244v-3.474c0-.539-.35-.987-.83-1.16V22.03c0-.487-.185-.951-.5-1.284L32.238 18.8a1.964 1.964 0 0 0-1.427-.615h-7.92c-.57 0-1.11.245-1.48.673l-1.611 1.86a1.91 1.91 0 0 0-.467 1.248v2.161a1.233 1.233 0 0 0-.853 1.165v3.474c0 .547.361.999.853 1.165v.904c0 .763.621 1.384 1.384 1.384h.244v.761c0 .866.695 1.57 1.55 1.57h7.047c-.001.028-.009.054-.009.082v2.356H18.384a4.316 4.316 0 0 0-4.311 4.312v8.657h-2.098v1h39.911v-1h-8.598V48.66zm6.944-14.029v11.222c0 .996-.81 1.807-1.807 1.807H43.29v-5.808c0-.738-.601-1.339-1.34-1.339h-3.118c-.738 0-1.339.6-1.339 1.339v5.808h-5.138c-.996 0-1.806-.81-1.806-1.807V34.632c0-.996.81-1.806 1.806-1.806h16.072c.996 0 1.807.81 1.807 1.806zm-16.048-5.866c0 .135-.11.244-.245.244h-1.237v-.693h.607v-1h-.607v-.557h.607v-1h-.607v-.712h1.237c.137 0 .245.108.245.244v3.474zm-13.63-7.395l1.61-1.859a.955.955 0 0 1 .724-.327h7.921c.265 0 .52.11.679.277l1.618 1.946c.16.169.248.39.248.62v2.02h-.652v-1.722c0-.865-.695-1.57-1.55-1.57H22.51c-.855 0-1.55.705-1.55 1.57v1.722h-.628v-2.082c0-.217.08-.428.223-.595zm-.831 7.64a.244.244 0 0 1-.245-.245v-3.474c0-.136.108-.244.245-.244h1.236v.712h-.606v1h.606v.557h-.606v1h.606v.693h-1.236zm.992 2.208a.384.384 0 0 1-.384-.384v-.825h.628v1.209h-.244zm1.794 2.33a.56.56 0 0 1-.55-.569v-.761h2.908v.364a.5.5 0 0 0 .5.5h2.306a.5.5 0 0 0 .5-.5v-1.73a.5.5 0 0 0-.5-.5h-2.306a.5.5 0 0 0-.5.5v.366H21.96v-8.893a.56.56 0 0 1 .55-.57h8.644a.56.56 0 0 1 .55.57v9.584a2.813 2.813 0 0 0-1.938 1.64H22.51zm3.358-1.466v-.73h1.306v.73h-1.306zM15.073 41.3a3.315 3.315 0 0 1 3.311-3.312h11.164v7.866a2.81 2.81 0 0 0 2.806 2.807h.859v1.296H20.394V43.94h-1v6.017h-4.321V41.3zm19.14 8.657V48.66h3.28v1.296h-3.28zm5.045 0h-.766v-8.104a.34.34 0 0 1 .34-.339h3.118a.34.34 0 0 1 .339.339v8.104h-3.03z" style="fill: #ffffff;"/><path fill="#00243d" d="M32.9 35.224h14.896a.5.5 0 1 0 0-1H32.9a.5.5 0 1 0 0 1z" style="fill: #ffffff;"/></svg>
