<?xml version="1.0" encoding="UTF-8"?>
<svg xmlns="http://www.w3.org/2000/svg" viewBox="0 0 64.111 63.839"><path fill="#00243d" d="M35.35 26.075l.625.78 1.577-1.261a.937.937 0 0 0 .356-.739v-.673c0-.29-.13-.559-.354-.737l-1.58-1.263-.624.78 1.35 1.057h-3.194v1h3.163l-1.32 1.056z" style="fill: #141414;"/><path fill="#00243d" d="M51.32 43.095a.499.499 0 0 0-.499-.477H48.03V16.064a3.008 3.008 0 0 0-3.004-3.005h-22.58a3.008 3.008 0 0 0-3.005 3.005v32.97c0 1.647.313 1.959 1.971 1.959l24.994-.03a1.63 1.63 0 0 0 1.624-1.628v-1.55c.828-.103 1.526-.428 2.068-.995 1.314-1.375 1.228-3.6 1.223-3.695zM22.444 14.06h22.581c1.105 0 2.004.9 2.004 2.005v26.554H27.35a.5.5 0 0 0-.5.5c0 1.177-.31 2.079-.924 2.681-.837.821-2 .842-2.111.842h-.01c-2.437 0-3.153-1.382-3.364-2.238v-28.34c0-1.105.899-2.004 2.004-2.004zm23.96 35.903l-24.994.03c-.26 0-.803 0-.9-.062-.07-.104-.07-.66-.07-.897v-2.617c.646.668 1.68 1.225 3.351 1.225.005 0 .032-.007.034 0l23.204.189v1.505c0 .346-.28.627-.626.627zm1.069-3.129l-21.01-.17c.05-.044.102-.09.151-.14.724-.704 1.133-1.68 1.22-2.905h22.473c-.048.633-.235 1.753-.936 2.485-.472.492-1.094.73-1.898.73z" style="fill: #141414;"/><path fill="#00243d" d="M23.66 28.265h7.585a.718.718 0 0 0 .717-.717V21.49a.718.718 0 0 0-.717-.718H23.66a.718.718 0 0 0-.717.718v6.058c0 .395.322.717.717.717zm4.573-6.493v1.226h-1.561v-1.226h1.561zm-4.29 0h1.729v1.726a.5.5 0 0 0 .5.5h2.561a.5.5 0 0 0 .5-.5v-1.726h1.729v5.493h-7.019v-5.493zM40.991 25.014h2.284c.14 0 .251.113.251.251v1.328a.251.251 0 0 1-.25.251H40.24v1h1.394v.65h1v-.65h.641c.69 0 1.251-.56 1.251-1.25v-1.329c0-.69-.561-1.251-1.25-1.251H40.99a.251.251 0 0 1-.25-.25v-1.329c0-.138.112-.25.25-.25h3.035v-1h-1.392v-.642h-1v.641h-.643c-.69 0-1.25.561-1.25 1.251v1.328c0 .69.56 1.251 1.25 1.251zM23.443 35.2h20.583v1H23.443zM23.443 37.924h20.583v1H23.443zM23.443 32.525h6.808v1h-6.808z" style="fill: #141414;"/></svg>
