<?xml version="1.0" encoding="UTF-8"?>
<svg xmlns="http://www.w3.org/2000/svg" viewBox="0 0 64 64"><path fill="#00243f" d="M31.664 51.113l-.002-1 8.319-.01a1.578 1.578 0 0 0 1.577-1.576V27.979a.52.52 0 0 0-.038-.19.414.414 0 0 0-.069-.095l-3.687-3.986a.294.294 0 0 0-.221-.095H23.862a1.578 1.578 0 0 0-1.576 1.577v13.754h-1V25.19a2.58 2.58 0 0 1 2.576-2.577h13.68a1.287 1.287 0 0 1 .962.422l3.666 3.964a1.401 1.401 0 0 1 .272.404 1.546 1.546 0 0 1 .116.576v20.548a2.579 2.579 0 0 1-2.577 2.576z" style="fill: #141414;"/><path fill="#00243f" d="M42.112 28.112h-3.408a1.311 1.311 0 0 1-1.31-1.31V23.23h1v3.572a.31.31 0 0 0 .31.31h3.408zM25.096 28.877h10.187v1H25.096zM25.096 32.054h13.56v1h-13.56zM31.664 35.233h6.992v1h-6.992zM25.53 46.38c-.067 0-.132-.002-.198-.005a3.602 3.602 0 1 1 3.79-3.4h.001a3.607 3.607 0 0 1-3.594 3.405zm-.006-6.204a2.602 2.602 0 1 0 2.6 2.743 2.601 2.601 0 0 0-2.456-2.739c-.048-.002-.096-.004-.144-.004z" style="fill: #141414;"/><path fill="#00243f" d="M25.52 49.193a.367.367 0 0 1-.372-.167l-.837-.938-1.167.466a.49.49 0 0 1-.405-.014.502.502 0 0 1-.26-.312l-.347-1.207-1.255-.088a.501.501 0 0 1-.458-.583l.21-1.238-1.091-.622a.5.5 0 0 1-.16-.725l.729-1.024-.715-1.034a.5.5 0 0 1 .17-.722l1.1-.608-.194-1.242a.5.5 0 0 1 .466-.576l1.255-.07.364-1.202a.5.5 0 0 1 .67-.318l1.16.482.851-.926a.504.504 0 0 1 .372-.162.498.498 0 0 1 .37.167l.836.938 1.166-.466a.494.494 0 0 1 .406.014.502.502 0 0 1 .26.312l.348 1.208 1.253.087a.5.5 0 0 1 .459.583l-.21 1.239 1.092.622a.5.5 0 0 1 .16.725l-.729 1.023.714 1.034a.5.5 0 0 1-.17.722l-1.1.608.195 1.242a.5.5 0 0 1-.467.577l-1.256.069-.362 1.203a.5.5 0 0 1-.265.308.494.494 0 0 1-.406.01l-1.16-.483-.85.926a.498.498 0 0 1-.37.162zm-1.069-2.2a.5.5 0 0 1 .373.168l.702.787.714-.777a.506.506 0 0 1 .56-.124l.973.405.304-1.01a.5.5 0 0 1 .452-.355l1.053-.057-.164-1.042a.5.5 0 0 1 .253-.515l.923-.51-.6-.868a.5.5 0 0 1 .005-.574l.611-.858-.916-.522a.5.5 0 0 1-.245-.518l.176-1.04-1.052-.074a.5.5 0 0 1-.446-.36l-.29-1.014-.979.392a.5.5 0 0 1-.559-.13l-.702-.789-.713.776a.499.499 0 0 1-.56.124l-.974-.403-.305 1.01a.5.5 0 0 1-.45.354l-1.054.058.163 1.042a.5.5 0 0 1-.252.515l-.923.51.6.867a.5.5 0 0 1-.005.575l-.61.858.915.522a.501.501 0 0 1 .246.518l-.177 1.04 1.053.073a.5.5 0 0 1 .445.362l.291 1.011.978-.39a.492.492 0 0 1 .186-.036z" style="fill: #141414;"/><path fill="#00243f" d="M21.68 54.801a.707.707 0 0 1-.696-.58l-.304-1.63-1.448.814a.706.706 0 0 1-.83-.095.728.728 0 0 1-.157-.846l2.999-6.506.908.418-2.638 5.724 1.284-.721a.5.5 0 0 1 .737.343l.27 1.444 2.614-5.54.904.428-2.984 6.323a.73.73 0 0 1-.66.424zm-.246-.851v.002zm-2.282-1.067v.002zM29.444 54.801a.73.73 0 0 1-.66-.427l-3.094-6.432.901-.434 2.726 5.667.271-1.453a.5.5 0 0 1 .737-.343l1.276.716-2.625-5.6.906-.424 2.997 6.393a.728.728 0 0 1-.158.846.703.703 0 0 1-.829.096l-1.449-.815-.304 1.63a.707.707 0 0 1-.606.575.687.687 0 0 1-.09.005zm.241-.86l.002.005z" style="fill: #141414;"/></svg>
