<?xml version="1.0" encoding="UTF-8"?>
<svg xmlns="http://www.w3.org/2000/svg" viewBox="0 0 64 64"><g fill="#00243f" data-name="chassis usage"><path d="M8.733 49.985h47.389v1H8.733zM8.802 39.636h2.405v1H8.802z" style="fill: #ffffff;"/><path d="M8.302 38.128h1v4.016h-1zM53.777 39.636h2.409v1h-2.409z" style="fill: #ffffff;"/><path d="M55.686 38.128h1v4.016h-1zM53.212 42.73h-41.44a1.066 1.066 0 0 1-1.065-1.064v-3.06a1.066 1.066 0 0 1 1.065-1.065h41.44a1.066 1.066 0 0 1 1.065 1.064v3.061a1.066 1.066 0 0 1-1.065 1.064zm-41.44-4.189l-.065 3.125 41.505.064.065-3.125-.065-.064z" style="fill: #ffffff;"/><path d="M14.16 42.536l.793-.61 2.155 2.8-.793.61zM21.621 46.772h2.467v1h-2.467zM28.216 44.36l1.871-2.435.793.609-1.871 2.435z" style="fill: #ffffff;"/><path d="M18.838 50.182a3.311 3.311 0 1 1 3.31-3.31 3.315 3.315 0 0 1-3.31 3.31zm0-5.622a2.311 2.311 0 1 0 2.31 2.311 2.314 2.314 0 0 0-2.31-2.311zM26.87 50.182a3.311 3.311 0 1 1 3.311-3.31 3.315 3.315 0 0 1-3.311 3.31zm0-5.622a2.311 2.311 0 1 0 2.311 2.311 2.314 2.314 0 0 0-2.311-2.311zM34.24 42.536l.793-.61 2.155 2.8-.793.61zM41.701 46.772h2.467v1h-2.467zM48.296 44.36l1.871-2.435.793.609-1.871 2.435z" style="fill: #ffffff;"/><path d="M38.918 50.182a3.311 3.311 0 1 1 3.31-3.31 3.315 3.315 0 0 1-3.31 3.31zm0-5.622a2.311 2.311 0 1 0 2.31 2.311 2.314 2.314 0 0 0-2.31-2.311zM46.95 50.182a3.311 3.311 0 1 1 3.311-3.31 3.315 3.315 0 0 1-3.31 3.31zm0-5.622a2.311 2.311 0 1 0 2.311 2.311 2.314 2.314 0 0 0-2.31-2.311z" style="fill: #ffffff;"/></g></svg>
