<?xml version="1.0" encoding="UTF-8"?>
<svg xmlns="http://www.w3.org/2000/svg" viewBox="0 0 64 64"><g fill="#00243f" data-name="chassis usage"><path d="M24.98 28.909h-2.965a1.066 1.066 0 0 1-1.065-1.065v-5.79a1.066 1.066 0 0 1 1.065-1.064h2.964a1.066 1.066 0 0 1 1.065 1.064v5.79a1.066 1.066 0 0 1-1.065 1.065zm-2.965-6.92l-.065 5.855 3.03.065.064-5.855-.065-.064zM41.892 28.909h-2.964a1.066 1.066 0 0 1-1.065-1.065v-5.79a1.066 1.066 0 0 1 1.065-1.064h2.964a1.066 1.066 0 0 1 1.064 1.064v5.79a1.066 1.066 0 0 1-1.064 1.065zm-2.964-6.92l-.065 5.855 3.029.065.064-5.855-.064-.064zM24.98 50.707h-2.965a1.066 1.066 0 0 1-1.065-1.065v-5.789a1.066 1.066 0 0 1 1.065-1.065h2.964a1.066 1.066 0 0 1 1.065 1.065v5.79a1.066 1.066 0 0 1-1.065 1.064zm-2.965-6.92l-.065 5.855 3.03.065.064-5.854-.065-.065zM41.892 50.707h-2.964a1.066 1.066 0 0 1-1.065-1.065v-5.789a1.066 1.066 0 0 1 1.065-1.065h2.964a1.066 1.066 0 0 1 1.064 1.065v5.79a1.066 1.066 0 0 1-1.064 1.064zm-2.964-6.92l-.065 5.855 3.029.065.064-5.854-.064-.065z" style="fill: #ffffff;"/><path d="M33.481 24.449h4.881v1h-4.881zM25.544 24.449h4.651v1h-4.651zM33.597 46.248h4.766v1h-4.766zM25.544 46.248h4.536v1h-4.536z" style="fill: #ffffff;"/><path d="M31.838 27.092a2.143 2.143 0 1 1 2.143-2.143 2.146 2.146 0 0 1-2.143 2.143zm0-3.286a1.143 1.143 0 1 0 1.143 1.143 1.144 1.144 0 0 0-1.143-1.143z" style="fill: #ffffff;"/><path d="M31.338 26.592h1v16.695h-1z" style="fill: #ffffff;"/><path d="M33.204 50.707h-2.732a.882.882 0 0 1-.893-.87v-5.442a.848.848 0 0 1 .163-.5l.525-.735a.9.9 0 0 1 .732-.372h1.691a.897.897 0 0 1 .743.387l.514.751a.849.849 0 0 1 .15.483v5.429a.882.882 0 0 1-.893.869zm-2.625-.87zm0-.13h2.518v-5.298l-.49-.67-1.558.048-.496.693zm.425-5.92z" style="fill: #ffffff;"/></g></svg>
