<?xml version="1.0" encoding="UTF-8"?>
<svg xmlns="http://www.w3.org/2000/svg" viewBox="0 0 64.111 63.839"><path fill="#00243d" d="M43.578 21.21H20.533c-.716 0-1.298.588-1.298 1.312v12.87c0 .724.582 1.312 1.298 1.312h9.343c.092 0 .179.041.237.112l4.408 5.343c.248.3.612.471 1 .471h2.435c.72 0 1.306-.586 1.306-1.306v-4.313c0-.169.138-.306.307-.306h4.009c.715 0 1.297-.59 1.297-1.314V22.507c0-.716-.582-1.298-1.297-1.298zm.297 14.181a.306.306 0 0 1-.297.313h-4.01c-.72 0-1.306.587-1.306 1.307v4.313a.306.306 0 0 1-.306.306h-2.435a.294.294 0 0 1-.228-.108l-4.41-5.343a1.302 1.302 0 0 0-1.007-.475h-9.343a.306.306 0 0 1-.298-.313v-12.87c0-.172.134-.312.298-.312h23.045c.164 0 .297.134.297.298V35.39z" style="fill: #141414;"/><path fill="#00243d" d="M24.099 26.337H40.37v1H24.099zM24.099 30.119h13.403v1H24.099z" style="fill: #141414;"/></svg>
