<?xml version="1.0" encoding="UTF-8"?>
<svg xmlns="http://www.w3.org/2000/svg" viewBox="0 0 64.111 63.839"><path fill="#00243d" d="M48.317 27.8h-8.628v-7.392c0-.713-.573-1.292-1.278-1.292H15.95a1.28 1.28 0 0 0-1.278 1.277v12.559c0 .712.573 1.292 1.278 1.292h3.907c.158 0 .286.128.286.286v4.204c0 .709.577 1.286 1.286 1.286h2.373c.382 0 .741-.17.984-.464l4.298-5.209c.035-.042.09-.05.141-.066v4.688a1.13 1.13 0 0 0 1.123 1.134h7.285c.038 0 .074.017.1.047l1.882 2.282 1.555 1.885c.214.259.53.407.865.407h1.898a1.13 1.13 0 0 0 1.129-1.129v-3.363c0-.071.057-.129.129-.129h3.126a1.13 1.13 0 0 0 1.122-1.134V28.923c0-.619-.504-1.122-1.122-1.122zm-20.005 5.911l-4.297 5.208a.275.275 0 0 1-.213.1H21.43a.286.286 0 0 1-.286-.285V34.53c0-.709-.577-1.285-1.286-1.285l-3.907-.001a.286.286 0 0 1-.278-.292v-12.56c0-.152.125-.276.278-.276h22.462c.152 0 .277.13.277.292v12.544a.286.286 0 0 1-.278.292h-9.107c-.386 0-.747.17-.992.467zM48.44 38.97c0 .074-.055.134-.122.134H45.19a1.13 1.13 0 0 0-1.13 1.13v3.362a.129.129 0 0 1-.128.129h-1.898a.121.121 0 0 1-.093-.044l-1.555-1.885-1.883-2.281a1.126 1.126 0 0 0-.87-.411h-7.286c-.068 0-.123-.06-.123-.134v-4.725h8.186c.705 0 1.278-.58 1.278-1.292v-.153h6.126v-1h-6.126V28.8h8.628c.067 0 .122.054.122.122v10.046z" style="fill: #141414;"/><path fill="#00243d" d="M33.386 35.762h9.712v1h-9.712zM19.077 24.114h15.786v1H19.077zM19.077 27.801h12.274v1H19.077z" style="fill: #141414;"/></svg>
