<?xml version="1.0" encoding="UTF-8"?>
<svg xmlns="http://www.w3.org/2000/svg" viewBox="0 0 64.1 64.2"><path d="M16.334 28.1h3.647c.622 0 1.108-.413 1.108-.942v-4.432c0-.756-.615-1.371-1.37-1.371H16.55c-.758 0-1.375.617-1.375 1.375v4.392c0 .549.51.979 1.159.979zm-.16-5.37c0-.207.17-.375.376-.375h3.168c.205 0 .371.166.371.371l.03 4.337c-.007.008-.055.038-.138.038h-3.647c-.091 0-.154-.032-.16.007V22.73zM44.302 28.1h3.646c.65 0 1.16-.43 1.16-.978V22.73c0-.758-.618-1.375-1.376-1.375h-3.168c-.755 0-1.37.615-1.37 1.371v4.432c0 .529.487.943 1.108.943zm-.109-5.374c0-.205.166-.371.371-.371h3.168c.207 0 .375.168.375.375l.022 4.318c-.015.016-.081.053-.18.053h-3.647c-.054 0-.093-.015-.109.003v-4.378zM51.244 30.693H38.898c-.233-1.634-1.492-2.995-3.138-3.278a3.881 3.881 0 0 0-3.15.854c-.173.147-.33.306-.47.475-.143-.17-.301-.33-.474-.478a3.876 3.876 0 0 0-3.15-.851c-1.644.283-2.897 1.618-3.131 3.278h-12.35a2.776 2.776 0 0 0-2.773 2.773v6.382c0 .435.199.833.553 1.094l2.626 1.882v5.529c0 .882.719 1.601 1.602 1.601h6.129c.839 0 1.521-.683 1.521-1.521V35.825h4.62c1.352 1.66 3.003 2.9 3.614 3.328.211.158.47.24.747.24h.93c.278 0 .537-.082.735-.23.718-.503 2.333-1.723 3.647-3.338h4.599v12.608c0 .838.683 1.521 1.521 1.521h6.13a1.61 1.61 0 0 0 1.613-1.601v-5.529l2.62-1.886a1.37 1.37 0 0 0 .558-1.09v-6.382a2.781 2.781 0 0 0-2.783-2.773zm-29.05 4.132a.5.5 0 0 0-.5.5v13.108a.522.522 0 0 1-.522.521h-6.129a.602.602 0 0 1-.602-.601V35.325h-1v6.27l-2.038-1.461a.346.346 0 0 1-.141-.286v-6.382c0-.978.795-1.773 1.772-1.773h12.32c.068 1.145.407 1.742.553 1.943.187.412.42.806.672 1.19h-4.386zm10.56 3.527a.25.25 0 0 1-.15.042h-.93a.264.264 0 0 1-.162-.052c-.586-.41-3.564-2.583-4.717-5.168a.581.581 0 0 0-.074-.12c-.005-.005-.445-.575-.375-2.073.113-1.282 1.096-2.366 2.338-2.58a2.877 2.877 0 0 1 2.334.627 2.9 2.9 0 0 1 .68.84.5.5 0 1 0 .883 0c.167-.314.395-.597.677-.837a2.869 2.869 0 0 1 2.335-.63c1.36.234 2.37 1.47 2.35 2.871-.05 3.318-4.32 6.472-5.19 7.08zm20.273 1.496a.36.36 0 0 1-.147.282l-2.031 1.461v-6.266h-1v13.028a.608.608 0 0 1-.614.601h-6.129a.523.523 0 0 1-.521-.521V35.325a.5.5 0 0 0-.5-.5h-4.37c.627-.962 1.087-2.022 1.194-3.132h12.335a1.78 1.78 0 0 1 1.783 1.773v6.382z" style="fill: #141414;"/></svg>
