<?xml version="1.0" encoding="UTF-8"?>
<svg xmlns="http://www.w3.org/2000/svg" viewBox="0 0 64.111 63.839"><path fill="#00243d" d="M15.147 19.808h3.936c.54 0 .978-.439.978-.978v-4.763a.98.98 0 0 0-.978-.979h-3.936a.979.979 0 0 0-.978.979v4.763c0 .54.439.978.978.978zm3.914-5.741v4.74l-3.892.023-.022-4.742 3.914-.021zM47.28 41.625L49.84 35a1.584 1.584 0 0 0-1.48-2.157h-2.496V30.95a.5.5 0 0 0-.5-.5h-2.026l.856-2.71a.499.499 0 0 0-.32-.626l-5.526-1.817a.499.499 0 0 0-.633.323l-.932 2.923a2.148 2.148 0 0 0-1.35-.485h-.971l-.236-.932a2.157 2.157 0 0 0-.988-1.335 2.15 2.15 0 0 0-1.642-.245 2.156 2.156 0 0 0-1.336.987 2.157 2.157 0 0 0-.246 1.64l1.136 4.67h-3.483l-.521-2.673a1.23 1.23 0 0 0 .878-1.168v-1.956c0-.686-.557-1.243-1.243-1.243l-2.08.004a.245.245 0 0 1-.191-.093l-3.454-4.402a1.234 1.234 0 0 0-.978-.476h-5.776c-.582 0-1.08.396-1.22 1.016l-2.044 17.356a1.243 1.243 0 0 0 1.234 1.388h1.218c.133 0 .242.11.242.243v8.67c0 .684.557 1.242 1.242 1.242h3.299c.685 0 1.242-.558 1.242-1.242v-8.67c0-.134.11-.243.243-.243h1.333a1.244 1.244 0 0 0 1.24-1.33v-.004c-.237-3.033-.63-8.11-.823-10.6l1.168 1.314c.22.175.495.271.777.271l2.688-.002 3.199 16.393h1.989c-.328.431-.53.963-.53 1.546 0 1.416 1.15 2.567 2.566 2.567s2.567-1.151 2.567-2.567c0-.583-.202-1.115-.53-1.546h6.184c-.328.431-.53.963-.53 1.546 0 1.416 1.15 2.567 2.566 2.567s2.567-1.151 2.567-2.567c0-.583-.203-1.115-.53-1.546h2.086a.5.5 0 1 0 0-1h-3.91c-.072-.006-.14-.022-.213-.022s-.141.016-.213.022h-9.831c-.072-.006-.14-.022-.213-.022s-.141.016-.212.022h-2.99l-.584-3H45.8c.651 0 1.246-.406 1.48-1.013zm-12.348 6.559a1.57 1.57 0 0 1-1.567 1.567 1.569 1.569 0 0 1-1.567-1.567c0-.792.592-1.441 1.355-1.546h.424a1.565 1.565 0 0 1 1.355 1.546zm10.257 0c0 .864-.703 1.567-1.567 1.567s-1.567-.703-1.567-1.567c0-.792.592-1.441 1.355-1.546h.424a1.565 1.565 0 0 1 1.355 1.546zm-.325-15.341h-3.618V31.45h1.37c.013.001.026.006.038.006.007 0 .012-.005.018-.006h2.192v1.393zm-4.118-2.393a.5.5 0 0 0-.5.5v1.893h-2.644v-2.615c0-.222-.043-.431-.105-.633l.434-1.361 4.58 1.518-.221.698h-1.544zm-2.232-4.046l4.578 1.505-.28.89-4.577-1.518.28-.877zm-7.396.645a1.168 1.168 0 0 1 2.139.321l.202.802-1.45.927a.5.5 0 1 0 .538.842l1.17-.748.208.822-1.455.93a.5.5 0 1 0 .538.842l1.176-.75.456 1.805-2.461-.002-1.194-4.905a1.161 1.161 0 0 1 .133-.886zm3.597 2.009h.717c.645 0 1.17.524 1.17 1.17v2.615h-.93l-.957-3.785zm.567 4.785H48.36c.196 0 .372.093.483.255.111.16.134.36.064.542l-.154.396H28.095l-.233-1.193h7.42zm-11.83-4.596c-.056 0-.108-.02-.089.007l-2.09-2.361a.501.501 0 0 0-.605-.114q-.3.156.665 12.558a.241.241 0 0 1-.242.259h-1.333c-.685 0-1.243.557-1.243 1.243v8.67a.243.243 0 0 1-.242.242h-3.299a.242.242 0 0 1-.242-.242v-8.67c0-.686-.557-1.243-1.242-1.243h-1.218a.242.242 0 0 1-.24-.27l2.034-17.302a.24.24 0 0 1 .236-.188h5.776c.075 0 .144.033.19.093l3.455 4.403c.238.302.594.475.978.475l2.08-.004c.134 0 .243.11.243.243v1.956a.243.243 0 0 1-.243.242h-1.925l-.009.002-1.395.001zm4.838 6.79h20.077l-2.02 5.228a.581.581 0 0 1-.547.374H29.384l-1.094-5.603z" style="fill: #141414;"/></svg>
