<?xml version="1.0" encoding="UTF-8"?>
<svg xmlns="http://www.w3.org/2000/svg" viewBox="0 0 64 63.8"><path d="M31.4 50.3c-6.9 0-12.5-5.6-12.5-12.5s5.6-12.5 12.5-12.5c3.3 0 6.5 1.3 8.8 3.7.5.5 1 1.1 1.4 1.7l-.9.6c-.4-.5-.8-1-1.3-1.5-4.4-4.4-11.7-4.4-16.1 0s-4.4 11.7 0 16.1c4.4 4.4 11.6 4.4 16.1 0 .5-.5.9-1 1.3-1.6l.9.6c-.4.6-.9 1.2-1.5 1.7-2.2 2.4-5.4 3.7-8.7 3.7z" style="fill: #141414;"/><path d="M33.4 43.3H28v-1.1h5.3c.4 0 .8-.3.8-.8v-2.3c0-.4-.3-.8-.8-.8h-4c-1 0-1.9-.8-1.9-1.9v-2.3c0-1 .8-1.9 1.9-1.9h5.3v1.1h-5.3c-.4 0-.8.3-.8.8v2.3c0 .4.3.8.8.8h4c1 0 1.9.8 1.9 1.9v2.3c0 1.1-.8 1.9-1.8 1.9z" style="fill: #141414;"/><path d="M30.8 30.8h1.1v2h-1.1zM30.8 42.8h1.1v2h-1.1zM41.4 34.4h1.1v6.3h-1.1z" style="fill: #141414;"/><path d="M38.8 36.9h6.3V38h-6.3z" style="fill: #141414;"/></svg>
