<?xml version="1.0" encoding="UTF-8"?>
<svg xmlns="http://www.w3.org/2000/svg" viewBox="0 0 64 64"><path fill="#00243f" d="M14.608 28.732h6.423v1h-6.423zM12.134 32.656h8.897v1h-8.897zM15.308 36.579h5.724v1h-5.724zM29.154 29.749h-3.479a1.042 1.042 0 0 1-1.128-.956v-4.189a1.336 1.336 0 0 1 1.335-1.335h3.021a1.332 1.332 0 0 1 1.331 1.331v4.228a1 1 0 0 1-1.08.92zm-3.272-5.48a.336.336 0 0 0-.335.335v4.148c.014-.02.06-.002.128-.003h3.479a.28.28 0 0 0 .08-.012V24.6a.331.331 0 0 0-.33-.33zM30.288 50.597h-5.842a1.558 1.558 0 0 1-1.556-1.555v-15.31a1.557 1.557 0 0 1 1.556-1.556H39.82a1.432 1.432 0 0 1 1.43 1.431v2.077a1.432 1.432 0 0 1-1.43 1.43h-8.057v12.009a1.476 1.476 0 0 1-1.476 1.474zm-5.842-17.42a.556.556 0 0 0-.556.554v15.31a.556.556 0 0 0 .556.556h5.842a.475.475 0 0 0 .476-.474V36.615a.5.5 0 0 1 .5-.5h8.557a.431.431 0 0 0 .43-.43v-2.078a.431.431 0 0 0-.43-.43z" style="fill: #ffffff;"/><path fill="#00243f" d="M47.609 35.35h-6.857v-1h6.652v-9.94H34.891v8.266h-1v-8.47a.796.796 0 0 1 .796-.795h12.922a.796.796 0 0 1 .795.795v10.35a.796.796 0 0 1-.795.794z" style="fill: #ffffff;"/><path fill="#00243f" d="M42.785 28.16h-3.274a.5.5 0 0 1-.5-.5v-3.75a.5.5 0 0 1 .5-.5h3.274a.5.5 0 0 1 .5.5v3.75a.5.5 0 0 1-.5.5zm-2.774-1h2.274v-2.75h-2.274zM42.785 32.199h3.686v1h-3.686zM42.785 30.697h3.686v1h-3.686z" style="fill: #ffffff;"/></svg>
