<?xml version="1.0" encoding="UTF-8"?>
<svg xmlns="http://www.w3.org/2000/svg" viewBox="0 0 64 64"><g fill="#00243f" data-name="courier services"><path d="M42.2 51.113H18.317a2.011 2.011 0 0 1-1.968-2.424l.694-3.566.981.191-.695 3.573a1.011 1.011 0 0 0 .988 1.226H42.2a1.015 1.015 0 0 0 .989-.802l3.68-17.478a1.011 1.011 0 0 0-.99-1.22H21.995a1.017 1.017 0 0 0-.99.804l-.65 3.089-.978-.205.65-3.09a2.021 2.021 0 0 1 1.968-1.598H45.88a2.011 2.011 0 0 1 1.968 2.425l-3.68 17.478a2.02 2.02 0 0 1-1.967 1.597z" style="fill: #ffffff;"/><path d="M35.664 38.166h-6.973a.779.779 0 0 1-.749-.992l2.16-7.56h8.593l-2.282 7.988a.781.781 0 0 1-.749.564zm-6.68-1h6.513l1.872-6.553h-6.512zM34.279 45.246h7.518v1h-7.518zM34.279 47.404h7.518v1h-7.518zM12.108 36.087h12.308v1H12.108zM11.051 39.324h11.876v1H11.051zM14.208 42.561h7.64v1h-7.64z" style="fill: #ffffff;"/></g></svg>
