<?xml version="1.0" encoding="UTF-8"?>
<svg xmlns="http://www.w3.org/2000/svg" viewBox="0 0 64 64"><path fill="#00243f" d="M32.683 21.522c.112 0 .18.07.18.12v5.377c0 .05-.068.12-.18.12h-4.13c-.112 0-.18-.07-.18-.12v-5.377c0-.05.068-.12.18-.12h4.13m0-1h-4.13a1.152 1.152 0 0 0-1.18 1.12v5.377a1.152 1.152 0 0 0 1.18 1.12h4.13a1.152 1.152 0 0 0 1.18-1.12v-5.377a1.152 1.152 0 0 0-1.18-1.12zM23.963 42.313l-1.43-.998a1.657 1.657 0 0 1-.722-1.353v-6.355a2.966 2.966 0 0 1 3.055-2.861h11.505a2.966 2.966 0 0 1 3.054 2.861v6.355a1.657 1.657 0 0 1-.722 1.353l-1.238.863-.572-.82 1.238-.863a.658.658 0 0 0 .294-.533v-6.355a1.967 1.967 0 0 0-2.054-1.861H24.866a1.968 1.968 0 0 0-2.055 1.861v6.355a.659.659 0 0 0 .294.533l1.43.998z" style="fill: #141414;"/><path fill="#00243f" d="M36.384 47.441H24.852a1.141 1.141 0 0 1-1.14-1.14v-8.158a1.141 1.141 0 0 1 1.14-1.14h11.532a1.141 1.141 0 0 1 1.14 1.14v8.158a1.141 1.141 0 0 1-1.14 1.14zm-11.532-9.438a.14.14 0 0 0-.14.14v8.158a.14.14 0 0 0 .14.14h11.532a.14.14 0 0 0 .14-.14v-8.158a.14.14 0 0 0-.14-.14z" style="fill: #141414;"/><path fill="#00243f" d="M32.677 40.42h-4.118a.5.5 0 0 1-.5-.5v-2.417a.5.5 0 0 1 .5-.5h4.118a.5.5 0 0 1 .5.5v2.416a.5.5 0 0 1-.5.5zm-3.618-1h3.118v-1.417h-3.118zM32.677 43.76h2.663v1h-2.663zM32.677 42.514h2.663v1h-2.663zM34.033 50.444h-6.83a1.733 1.733 0 0 1-1.776-1.68V46.94h1v1.822a.735.735 0 0 0 .777.68h6.829a.735.735 0 0 0 .777-.68v-1.822h1v1.822a1.733 1.733 0 0 1-1.777 1.68zM25.427 35.233h1v2.271h-1zM34.81 35.233h1v2.271h-1z" style="fill: #141414;"/></svg>
