<?xml version="1.0" encoding="UTF-8"?>
<svg xmlns="http://www.w3.org/2000/svg" viewBox="0 0 64.111 63.839"><path fill="#00243d" d="M47.299 28.083h-3.285v-9a2.267 2.267 0 0 0-2.264-2.263H16.812a2.267 2.267 0 0 0-2.264 2.264v14.408a2.267 2.267 0 0 0 2.264 2.264h3.285v9a2.267 2.267 0 0 0 2.263 2.264H47.3a2.267 2.267 0 0 0 2.264-2.265V30.348a2.267 2.267 0 0 0-2.264-2.265zm-4.285-4.502H15.548v-1.349h27.466v1.349zM16.812 17.82H41.75c.697 0 1.264.567 1.264 1.264v2.148H15.548v-2.148c0-.697.567-1.264 1.264-1.264zm0 16.936a1.266 1.266 0 0 1-1.264-1.264V24.58h27.466v3.502H40.47v-.22c0-.986-.803-1.79-1.79-1.79h-2.97c-.987 0-1.79.804-1.79 1.79v.22H22.36c-.6 0-1.143.24-1.549.622H18.1v1h2.102a2.233 2.233 0 0 0-.104.643v.386h-1.998v1h1.998v3.022h-3.285zm22.657-6.673h-4.55v-.22c0-.435.355-.79.79-.79h2.97c.435 0 .79.355.79.79v.22zm9.094 16.672c0 .697-.567 1.265-1.264 1.265H22.36a1.265 1.265 0 0 1-1.263-1.265V30.348c0-.697.566-1.265 1.263-1.265H47.3c.697 0 1.264.568 1.264 1.265v14.407z" style="fill: #ffffff;"/><path fill="#00243d" d="M23.648 39.97h4.104v1h-4.104zM25.328 37.364h2.754c.935 0 1.696-.761 1.696-1.697v-2.753c0-.936-.76-1.697-1.696-1.697h-2.754c-.936 0-1.696.761-1.696 1.697v2.753c0 .936.76 1.697 1.696 1.697zm-.696-4.45c0-.384.312-.697.696-.697h2.754c.384 0 .696.313.696.697v2.753a.697.697 0 0 1-.696.697h-2.754a.697.697 0 0 1-.696-.697v-2.753zM23.648 42.481h8.191v1h-8.191zM29.731 39.97h4.104v1h-4.104zM35.813 39.97h4.104v1h-4.104zM41.896 39.97H46v1h-4.104zM37.867 31.217h8.134v1h-8.134z" style="fill: #ffffff;"/></svg>
