<?xml version="1.0" encoding="UTF-8"?>
<svg xmlns="http://www.w3.org/2000/svg" viewBox="0 0 64.111 63.839"><path fill="#00243d" d="M46.955 43.136H17.156a2.611 2.611 0 0 1-2.608-2.608V23.312a2.611 2.611 0 0 1 2.608-2.609h29.8a2.611 2.611 0 0 1 2.608 2.609v17.216a2.611 2.611 0 0 1-2.609 2.608zM17.156 21.703a1.61 1.61 0 0 0-1.608 1.609v17.216a1.61 1.61 0 0 0 1.608 1.608h29.8a1.61 1.61 0 0 0 1.608-1.608V23.312a1.61 1.61 0 0 0-1.609-1.609H17.156z" style="fill: #141414;"/><path fill="#00243d" d="M18.694 34.906h4.905v1h-4.905zM23.992 31.598h-3.29a1.933 1.933 0 0 1-1.93-1.93v-3.29c0-1.064.866-1.93 1.93-1.93h3.29c1.065 0 1.93.866 1.93 1.93v3.29c0 1.065-.865 1.93-1.93 1.93zm-3.29-6.15a.932.932 0 0 0-.93.93v3.29c0 .513.418.93.93.93h3.29c.513 0 .93-.417.93-.93v-3.29a.931.931 0 0 0-.93-.93h-3.29zM18.694 37.907h9.788v1h-9.788zM25.963 34.906h4.904v1h-4.904zM33.231 34.906h4.905v1h-4.905zM40.499 34.906h4.904v1h-4.904zM35.685 24.448h9.719v1h-9.719z" style="fill: #141414;"/></svg>
