<?xml version="1.0" encoding="UTF-8"?>
<svg xmlns="http://www.w3.org/2000/svg" viewBox="0 0 64.1 63.9"><path d="M44.816 47.657l-4.004-4.004a1.06 1.06 0 0 0-1.5 0l-.29.291-.984-.984a5.03 5.03 0 0 0 .993-4.407l1.109.64.5-.865-1.62-.935-.232.4A5.018 5.018 0 0 0 37.72 36.2a5.047 5.047 0 0 0-.825-.663 7.676 7.676 0 0 0 .718-3.2 7.709 7.709 0 0 0-2.73-5.886 7.778 7.778 0 0 0-6.322-1.726 7.668 7.668 0 0 0-6.238 6.043 7.78 7.78 0 0 0 .836 5.368c.72 1.26 1.54 2.733 2.148 4.255l.7 1.79a.5.5 0 0 0 .466.317h3.419c.193.301.415.59.678.853.117.117.252.205.378.308h-4.442v1h6.413c.403.1.812.17 1.226.17a5.035 5.035 0 0 0 3.185-1.16l.984.983-.29.291a1.062 1.062 0 0 0 0 1.5l4.003 4.003c.207.207.479.31.75.31.273 0 .544-.103.751-.31l1.288-1.288a1.06 1.06 0 0 0 0-1.5zm-18.002-6.16l-.577-1.476c-.633-1.584-1.473-3.092-2.208-4.38a6.78 6.78 0 0 1-.725-4.677 6.665 6.665 0 0 1 5.42-5.254 6.787 6.787 0 0 1 5.512 1.503 6.71 6.71 0 0 1 2.377 5.124c0 .943-.216 1.88-.606 2.741A5.059 5.059 0 0 0 30.57 36.2c-1.43 1.431-1.808 3.51-1.162 5.298h-2.594zm6.266 2.17v-.009h-.033a4.008 4.008 0 0 1-1.77-1.015 4.062 4.062 0 0 1 0-5.737 4.041 4.041 0 0 1 2.868-1.185c1.039 0 2.077.394 2.868 1.185a4.062 4.062 0 0 1 0 5.737c-1.065 1.063-2.575 1.393-3.933 1.025zm9.654 6.071L38.73 45.65l1.29-1.289h.085l4.004 4.09-1.375 1.288z" style="fill: #141414;"/><path d="M27.286 29.252c.956-.944 2.256-.969 2.37-.96h.01l-.002-1c-.311-.001-1.865.048-3.08 1.249-.953.94-1.44 2.32-1.448 4.104l1 .005c.007-1.508.394-2.651 1.15-3.398zM25.402 34.746c.023.052.575 1.266 1.388 2.137l.731-.682c-.698-.749-1.202-1.854-1.208-1.866l-.911.411zM19.439 27.83l.5-.865 1.62.935-.5.866zM19.694 38.771l1.62-.936.5.865-1.62.936zM38.264 27.459l1.62-.936.5.867-1.62.935zM29.284 21.275h1v1.871h-1zM27.155 45.889h5.578v1h-5.578z" style="fill: #141414;"/></svg>
