<?xml version="1.0" encoding="UTF-8"?>
<svg xmlns="http://www.w3.org/2000/svg" viewBox="0 0 64 64"><path d="M51.4 25.1h-8.6c-.3 0-.5-.2-.5-.5v-4.9c0-.3.2-.5.5-.5h8.6c.4 0 .6.3.6.6 0 .2-.1.5-.4.6l-2.4 1.7 2.4 1.8.3.3c.1.1.1.3 0 .4v.2c-.1.2-.3.3-.5.3zm-8.1-1h7l-2.2-1.6c-.1-.1-.2-.2-.2-.4s.1-.3.2-.4l2-1.5h-6.8v3.9z" style="fill: #141414;"/><path d="M42.8 30.1c-.3 0-.5-.2-.5-.5V17.8c0-.3.2-.5.5-.5s.5.2.5.5v11.8c0 .3-.2.5-.5.5z" style="fill: #141414;"/><path d="M42.3 15.9h.9c.2 0 .5.2.5.5v.9c0 .2-.2.5-.5.5h-.9c-.2 0-.5-.2-.5-.5v-.9c0-.3.3-.5.5-.5zM20.7 46.8h1v3.7h-1zM27.4 46.8h1v3.7h-1zM26.1 40.7h-3c-.6 0-1-.4-1-.9v-3.6c0-.7.5-1.2 1.2-1.2h2.6c.7 0 1.2.5 1.2 1.2v3.6c0 .5-.4.9-1 .9zm-3-1h3v-3.5c0-.1-.1-.2-.2-.2h-2.6c-.1 0-.2.1-.2.2v3.5z" style="fill: #141414;"/><path d="M31.2 50.5h-1v-5.2c-.1-.8-.7-1.4-1.4-1.4h-8.3c-.8.1-1.4.7-1.4 1.4v5.2h-1v-5.2c0-1.3 1-2.3 2.4-2.4h8.3c1.3 0 2.3 1 2.4 2.4v5.2zM35.7 46.8h1v3.7h-1zM42.4 46.8h1v3.7h-1zM41.1 40.7h-3c-.6 0-1-.4-1-.9v-3.6c0-.7.5-1.2 1.2-1.2h2.6c.7 0 1.2.5 1.2 1.2v3.6c0 .5-.4.9-1 .9zm-3-1h3v-3.5c0-.1-.1-.2-.2-.2h-2.6c-.1 0-.2.1-.2.2v3.5z" style="fill: #141414;"/><path d="M46.2 50.5h-1v-5.2c-.1-.8-.7-1.4-1.4-1.4h-8.3c-.8.1-1.4.7-1.4 1.4v5.2h-1v-5.2c0-1.3 1-2.3 2.4-2.4h8.3c1.3 0 2.3 1 2.4 2.4v5.2zM28.7 29.6h1v3.7h-1zM36.4 33.3h-1v-4.2h7.3v1h-6.3zM34.1 23.5h-3c-.6 0-1-.4-1-.9V19c0-.7.5-1.2 1.2-1.2h2.6c.7 0 1.2.5 1.2 1.2v3.6c0 .5-.4.9-1 .9zm-3-1h3V19c0-.1-.1-.2-.2-.2h-2.6c-.1 0-.2.1-.2.2v3.5z" style="fill: #141414;"/><path d="M27.1 33.2h-1V28c0-1.3 1-2.3 2.4-2.4h14.2v1H28.5c-.8.1-1.4.7-1.4 1.4v5.2z" style="fill: #141414;"/></svg>
