<?xml version="1.0" encoding="UTF-8"?>
<svg xmlns="http://www.w3.org/2000/svg" viewBox="0 0 63.9 64"><path d="M32.1 39.2c-4.4 0-7.9-3.6-7.9-7.9 0-4.4 3.6-7.9 7.9-7.9S40 27 40 31.3c0 4.4-3.5 7.9-7.9 7.9zm0-14.8c-3.8 0-6.9 3.1-6.9 6.9s3.1 6.9 6.9 6.9 6.9-3.1 6.9-6.9-3.1-6.9-6.9-6.9zM32.1 18.4c-1.6 0-2.9-1.3-2.9-2.9s1.3-2.9 2.9-2.9c1.6 0 2.9 1.3 2.9 2.9s-1.3 2.9-2.9 2.9zm0-4.8c-1 0-1.9.9-1.9 1.9s.9 1.9 1.9 1.9c1 0 1.9-.9 1.9-1.9s-.8-1.9-1.9-1.9z" style="fill: #141414;"/><path d="M31.6 17.5h1v6.4h-1zM32.1 50.6c-1.6 0-2.9-1.3-2.9-2.9 0-1.6 1.3-2.9 2.9-2.9 1.6 0 2.9 1.3 2.9 2.9 0 1.6-1.3 2.9-2.9 2.9zm0-4.8c-1 0-1.9.9-1.9 1.9 0 1 .9 1.9 1.9 1.9 1 0 1.9-.9 1.9-1.9 0-1-.9-1.9-1.9-1.9z" style="fill: #141414;"/><path d="M31.6 38.8h1v6.9h-1zM48.2 34.5c-1.6 0-2.9-1.3-2.9-2.9 0-1.6 1.3-2.9 2.9-2.9 1.6 0 2.9 1.3 2.9 2.9 0 1.6-1.3 2.9-2.9 2.9zm0-4.8c-1 0-1.9.9-1.9 1.9 0 1 .9 1.9 1.9 1.9 1 0 1.9-.9 1.9-1.9 0-1-.8-1.9-1.9-1.9z" style="fill: #141414;"/><path d="M39.5 31.1h6.6v1h-6.6zM16 34.5c-1.6 0-2.9-1.3-2.9-2.9 0-1.6 1.3-2.9 2.9-2.9s2.9 1.3 2.9 2.9c0 1.6-1.3 2.9-2.9 2.9zm0-4.8c-1 0-1.9.9-1.9 1.9 0 1 .9 1.9 1.9 1.9s1.9-.9 1.9-1.9c0-1.1-.9-1.9-1.9-1.9z" style="fill: #141414;"/><path d="M18 31.1h6.7v1H18zM43.5 45.9c-1.6 0-2.9-1.3-2.9-2.9s1.3-2.9 2.9-2.9 2.9 1.3 2.9 2.9-1.3 2.9-2.9 2.9zm0-4.8c-1 0-1.9.9-1.9 1.9s.9 1.9 1.9 1.9 1.9-.9 1.9-1.9-.9-1.9-1.9-1.9z" style="fill: #141414;"/><path d="M36.835 37.087l.707-.708 4.809 4.809-.708.707zM20.7 23.1c-1.6 0-2.9-1.3-2.9-2.9s1.3-2.9 2.9-2.9 2.9 1.3 2.9 2.9-1.3 2.9-2.9 2.9zm0-4.8c-1 0-1.9.9-1.9 1.9s.9 1.9 1.9 1.9 1.9-.9 1.9-1.9-.8-1.9-1.9-1.9z" style="fill: #141414;"/><path d="M21.768 22.008l.707-.707 4.596 4.596-.707.708zM20.7 45.9c-1.6 0-2.9-1.3-2.9-2.9 0-1.6 1.3-2.9 2.9-2.9 1.6 0 2.9 1.3 2.9 2.9 0 1.6-1.3 2.9-2.9 2.9zm0-4.8c-1 0-1.9.9-1.9 1.9 0 1 .9 1.9 1.9 1.9 1 0 1.9-.9 1.9-1.9 0-1.1-.9-1.9-1.9-1.9z" style="fill: #141414;"/><path d="M21.738 41.212l4.88-4.88.706.708-4.879 4.879zM43.5 23.1c-1.6 0-2.9-1.3-2.9-2.9s1.3-2.9 2.9-2.9c1.6 0 2.9 1.3 2.9 2.9s-1.3 2.9-2.9 2.9zm0-4.8c-1 0-1.9.9-1.9 1.9s.9 1.9 1.9 1.9c1 0 1.9-.9 1.9-1.9s-.8-1.9-1.9-1.9z" style="fill: #141414;"/><path d="M37.17 25.792l4.525-4.526.707.707-4.526 4.526zM33.1 34.5h-2.9v-1h2.9c.1 0 .2-.1.2-.2V32c0-.1-.1-.2-.2-.2h-2.2c-.7 0-1.2-.5-1.2-1.2v-1.3c0-.7.5-1.2 1.2-1.2h2.9v1h-2.9c-.1 0-.2.1-.2.2v1.3c0 .1.1.2.2.2h2.2c.7 0 1.2.5 1.2 1.2v1.3c0 .6-.6 1.2-1.2 1.2z" style="fill: #141414;"/><path d="M31.5 27.5h1v1.1h-1zM31.5 34h1v1.1h-1z" style="fill: #141414;"/></svg>
