<?xml version="1.0" encoding="UTF-8"?>
<svg xmlns="http://www.w3.org/2000/svg" viewBox="0 0 64.111 63.839"><path fill="#00243d" d="M52.053 13.391H17.587c-.934 0-1.693.76-1.693 1.693v3.804H12.27c-.934 0-1.693.76-1.693 1.693v19.27c0 .947.76 1.716 1.693 1.716h5.996c.39 0 .706.318.706.707v6.45c0 .941.765 1.707 1.706 1.707h3.641c.507 0 .982-.225 1.305-.615l6.593-7.992a.703.703 0 0 1 .545-.257h13.974c.934 0 1.694-.77 1.694-1.716v-3.78h3.623c.934 0 1.694-.77 1.694-1.716V15.107c0-.946-.76-1.716-1.694-1.716zm-4.623 26.46a.706.706 0 0 1-.694.716H32.762a1.7 1.7 0 0 0-1.316.62l-6.594 7.992a.69.69 0 0 1-.533.252h-3.64a.707.707 0 0 1-.707-.707v-6.45c0-.941-.765-1.706-1.706-1.706H12.27a.706.706 0 0 1-.693-.717v-19.27c0-.382.31-.693.693-.693h34.466c.383 0 .694.32.694.715v19.248zm5.317-5.496a.705.705 0 0 1-.694.715H48.43V20.603c0-.946-.76-1.715-1.694-1.715H16.894v-3.804c0-.382.31-.693.693-.693h34.466c.383 0 .694.321.694.716v19.248z" style="fill: #ffffff;"/><path fill="#00243d" d="M17.196 29.262c.04.04.082.17.073.224l-.318 1.859c-.05.293.044.559.254.711.209.152.491.162.755.022l1.67-.877a.385.385 0 0 1 .237 0l1.669.877a.813.813 0 0 0 .377.099c.137 0 .267-.04.377-.121.21-.152.306-.418.255-.71l-.319-1.86a.384.384 0 0 1 .074-.225l1.35-1.316c.213-.207.292-.478.212-.725s-.303-.42-.598-.462l-1.866-.271a.385.385 0 0 1-.191-.14l-.835-1.69a.687.687 0 0 0-1.248 0l-.834 1.69a.383.383 0 0 1-.192.14l-1.867.271c-.294.043-.517.215-.597.462-.08.246-.001.517.211.724l1.351 1.318zm1.045-1.786c.379-.055.776-.343.945-.686l.562-1.139.562 1.138c.168.343.565.632.944.687l1.257.183-.909.886a1.343 1.343 0 0 0-.361 1.11l.214 1.252-1.123-.591a1.337 1.337 0 0 0-1.167 0l-1.125.59.215-1.251a1.342 1.342 0 0 0-.361-1.11l-.91-.886 1.257-.183zM26.743 29.262c.039.04.08.169.072.224l-.319 1.86c-.05.293.046.558.255.71.21.153.492.161.755.022l1.67-.877a.385.385 0 0 1 .237 0l1.669.877a.813.813 0 0 0 .376.099c.138 0 .268-.04.378-.121.21-.152.306-.418.255-.71l-.319-1.86a.381.381 0 0 1 .074-.225l1.35-1.316c.213-.207.292-.478.212-.725s-.304-.42-.597-.462l-1.867-.271a.383.383 0 0 1-.192-.14l-.835-1.69c-.13-.267-.363-.426-.623-.427-.26 0-.493.16-.624.426l-.835 1.691a.38.38 0 0 1-.191.14l-1.867.271c-.294.043-.517.215-.597.462s0 .518.212.724l1.35 1.318zm2.726-4.385l-.448.221.448-.22zm-1.682 2.599c.378-.054.775-.343.945-.686l.562-1.139.562 1.139c.169.343.566.631.944.686l1.257.183-.91.886a1.34 1.34 0 0 0-.36 1.11l.214 1.252-1.124-.591a1.337 1.337 0 0 0-1.167 0l-1.124.59.215-1.25a1.34 1.34 0 0 0-.36-1.11l-.91-.887 1.256-.183zM42.056 31.345l-.32-1.858a.383.383 0 0 1 .074-.226l1.35-1.316c.213-.207.293-.478.213-.725s-.304-.42-.598-.462l-1.866-.271a.385.385 0 0 1-.192-.14l-.835-1.69a.686.686 0 0 0-1.247 0l-.836 1.691a.383.383 0 0 1-.19.139l-1.867.271c-.294.043-.518.215-.598.462s0 .518.212.724l1.351 1.318c.039.04.082.17.073.224l-.319 1.859c-.05.293.045.559.255.711.11.08.241.12.378.12a.81.81 0 0 0 .376-.098l1.67-.876a.386.386 0 0 1 .237-.001l1.67.878c.263.137.545.129.755-.023.21-.152.304-.418.254-.71zm-.944-2.8a1.343 1.343 0 0 0-.36 1.11l.214 1.252-1.124-.59a1.274 1.274 0 0 0-.584-.135c-.207 0-.414.045-.583.134l-1.124.59.215-1.251a1.342 1.342 0 0 0-.361-1.11l-.91-.886 1.257-.183a1.34 1.34 0 0 0 .944-.686l.562-1.139.562 1.139c.17.343.567.631.945.686l1.256.183-.909.886zM37.965 34.159H16.103a.5.5 0 1 0 0 1h21.862a.5.5 0 1 0 0-1zM40.507 34.159h-.8a.5.5 0 1 0 0 1h.8a.5.5 0 1 0 0-1zM42.903 34.159h-.8a.5.5 0 1 0 0 1h.8a.5.5 0 1 0 0-1z" style="fill: #ffffff;"/></svg>
