<?xml version="1.0" encoding="UTF-8"?>
<svg xmlns="http://www.w3.org/2000/svg" viewBox="0 0 64.111 63.839"><path fill="#00243d" d="M52.378 13.059H38.66a.976.976 0 0 0-.975.975v8.214a.98.98 0 0 0 .975.984l2.367-.02v2.568c0 .54.44.98.98.98h1.449a.97.97 0 0 0 .751-.354l2.61-3.174h5.562a.98.98 0 0 0 .975-.984v-8.205a.98.98 0 0 0-.975-.984zm-5.562 9.173a.978.978 0 0 0-.757.356l-2.604 3.172-1.43.02v-2.568a.98.98 0 0 0-.98-.98l-2.361.016-.025-8.189 13.694-.016.025 8.19h-5.562z" style="fill: #141414;"/><path fill="#00243d" d="M47.271 15.243a2.103 2.103 0 0 0-1.754.508l-.053-.047a2.09 2.09 0 0 0-1.703-.461 2.086 2.086 0 0 0-1.714 1.887l-.002.018c-.039.812.18 1.25.298 1.425.62 1.34 2.033 2.4 2.444 2.687a.848.848 0 0 0 .51.166h.44a.837.837 0 0 0 .5-.157c.64-.448 2.73-2.057 2.76-3.933a2.103 2.103 0 0 0-1.726-2.093zm-1.534 5.183l-.365.024c-.266-.187-1.623-1.176-2.138-2.333a.323.323 0 0 0-.065-.107c-.002-.003-.152-.226-.125-.804a1.1 1.1 0 0 1 .885-.977 1.088 1.088 0 0 1 1.147.557c.174.326.709.326.883 0a1.1 1.1 0 0 1 .257-.318c.243-.206.571-.29.888-.24.516.09.9.56.892 1.093-.017 1.115-1.268 2.382-2.259 3.105zM44.19 48.661h5.138a2.81 2.81 0 0 0 2.807-2.807V34.632a2.81 2.81 0 0 0-2.807-2.806H33.605V30.01h1.237c.686 0 1.244-.558 1.244-1.244v-3.474c0-.539-.349-.987-.83-1.16V22.03c0-.487-.184-.951-.498-1.284L33.139 18.8a1.964 1.964 0 0 0-1.427-.615H23.79c-.57 0-1.11.245-1.48.673l-1.61 1.86a1.907 1.907 0 0 0-.467 1.248v2.161a1.233 1.233 0 0 0-.853 1.165v3.474c0 .547.36 1 .853 1.165v.904c0 .763.62 1.384 1.384 1.384h.244v.761c0 .866.695 1.57 1.55 1.57h7.046c0 .028-.008.054-.008.082v2.356H19.286a4.316 4.316 0 0 0-4.312 4.312v8.657h-2.097v1h39.911v-1H44.19V48.66zm6.945-14.029v11.222c0 .996-.81 1.807-1.807 1.807H44.19v-5.808c0-.738-.6-1.339-1.339-1.339h-3.118c-.739 0-1.34.6-1.34 1.339v5.808h-5.137c-.996 0-1.806-.81-1.806-1.807V34.632c0-.996.81-1.806 1.806-1.806h16.072c.996 0 1.807.81 1.807 1.806zm-16.049-5.866c0 .135-.11.244-.244.244h-1.237v-.693h.606v-1h-.606v-.557h.606v-1h-.606v-.712h1.237c.137 0 .244.108.244.244v3.474zm-13.63-7.395l1.611-1.859a.955.955 0 0 1 .724-.327h7.92c.265 0 .52.11.68.277l1.618 1.946c.16.169.248.39.248.62v2.02h-.652v-1.722c0-.865-.695-1.57-1.55-1.57h-8.644c-.854 0-1.549.705-1.549 1.57v1.722h-.628v-2.082a.91.91 0 0 1 .223-.595zm-.83 7.64a.245.245 0 0 1-.245-.245v-3.474c0-.136.107-.244.244-.244h1.237v.712h-.606v1h.606v.557h-.606v1h.606v.693h-1.237zm.992 2.208a.384.384 0 0 1-.384-.384v-.825h.628v1.209h-.244zm1.794 2.33a.56.56 0 0 1-.55-.569v-.761h2.907v.364a.5.5 0 0 0 .5.5h2.307a.5.5 0 0 0 .5-.5v-1.73a.5.5 0 0 0-.5-.5H26.27a.5.5 0 0 0-.5.5v.366h-2.907v-8.893a.56.56 0 0 1 .55-.57h8.644a.56.56 0 0 1 .549.57v9.584a2.813 2.813 0 0 0-1.937 1.64h-7.256zm3.357-1.466v-.73h1.307v.73H26.77zM15.974 41.3a3.315 3.315 0 0 1 3.312-3.312H30.45v7.866a2.81 2.81 0 0 0 2.806 2.807h.859v1.296H21.296V43.94h-1v6.017h-4.322V41.3zm19.14 8.657V48.66h3.28v1.296h-3.28zm5.046 0h-.766v-8.104a.34.34 0 0 1 .339-.339h3.118a.34.34 0 0 1 .34.339v8.104h-3.03z" style="fill: #141414;"/><path fill="#00243d" d="M33.803 35.224h14.895a.5.5 0 1 0 0-1H33.803a.5.5 0 1 0 0 1z" style="fill: #141414;"/></svg>
