<?xml version="1.0" encoding="UTF-8"?>
<svg xmlns="http://www.w3.org/2000/svg" viewBox="0 0 64 64"><path d="M42.617 25.017l-1.042-.866a1.39 1.39 0 0 0-1.17-.291l-3.982.823.203.98 3.981-.824a.394.394 0 0 1 .33.082l.188.157-7.114 8.935-7.517-4.48a.5.5 0 0 0-.647.119l-7.694 9.661.782.624 7.422-9.32 7.517 4.479a.5.5 0 0 0 .647-.118l7.374-9.26.084.069a.39.39 0 0 1 .142.308l-.071 4.065 1 .017.071-4.065a1.385 1.385 0 0 0-.504-1.095zM22.367 40.852h-2.823a.5.5 0 0 0-.5.5V50a.5.5 0 0 0 .5.5h2.823a.5.5 0 0 0 .5-.5v-8.648a.5.5 0 0 0-.5-.5zm-.5 8.648h-1.823v-7.648h1.823V49.5z" style="fill: #141414;"/><path d="M28.853 36.187h-2.824a.5.5 0 0 0-.5.5V50a.5.5 0 0 0 .5.5h2.824a.5.5 0 0 0 .5-.5V36.687a.5.5 0 0 0-.5-.5zm-.5 13.313h-1.824V37.187h1.824V49.5zM35.338 38.48h-2.823a.5.5 0 0 0-.5.5V50a.5.5 0 0 0 .5.5h2.823a.5.5 0 0 0 .5-.5V38.98a.5.5 0 0 0-.5-.5zm-.5 11.02h-1.822V39.48h1.822V49.5zM41.823 34.306H39a.5.5 0 0 0-.5.5V50a.5.5 0 0 0 .5.5h2.823a.5.5 0 0 0 .5-.5V34.806a.5.5 0 0 0-.5-.5zm-.5 15.194H39.5V35.306h1.823V49.5z" style="fill: #141414;"/></svg>
