<?xml version="1.0" encoding="UTF-8"?>
<svg xmlns="http://www.w3.org/2000/svg" viewBox="0 0 64.111 63.839"><path fill="#00243d" d="M45.164 15.507h.942v1h-.942zM47.062 15.507h.942v1h-.942zM48.9 15.507h.942v1H48.9zM13.703 21.599h7.314v1h-7.314zM13.703 24.294h7.314v1h-7.314zM22.013 21.599h.985v1h-.985zM22.013 24.294h.985v1h-.985z" style="fill: #ffffff;"/><path fill="#00243d" d="M57.853 45.855l-4.615-4.615V15.52a2.617 2.617 0 0 0-2.614-2.614H12.467a2.617 2.617 0 0 0-2.614 2.614v25.364a2.617 2.617 0 0 0 2.614 2.614h33.485l7.128 7.128c.312.311.72.467 1.128.467s.818-.156 1.129-.467l2.516-2.516c.301-.3.467-.7.467-1.127 0-.426-.166-.826-.467-1.128zM12.467 13.906h38.157c.89 0 1.614.724 1.614 1.614v2.3H10.853v-2.3c0-.89.724-1.614 1.614-1.614zm-1.614 26.978V18.82h41.385v21.42l-2.204-2.204a1.596 1.596 0 0 0-2.255 0l-.905.905-2.554-2.554a9.32 9.32 0 0 0 2.406-6.262c0-2.51-.977-4.87-2.752-6.644-3.662-3.662-9.624-3.663-13.288 0-2.959 2.958-3.525 7.413-1.706 10.948l-2.613 1.516a2.577 2.577 0 0 0-2.27-1.374c-.887 0-1.671.45-2.137 1.134l-4.542-4.136c.279-.412.442-.91.442-1.444a2.588 2.588 0 0 0-2.586-2.585c-1.425 0-2.585 1.16-2.585 2.585s1.16 2.585 2.585 2.585a2.57 2.57 0 0 0 1.433-.436l4.853 4.418a2.577 2.577 0 0 0-.047.465c0 1.425 1.16 2.585 2.585 2.585s2.585-1.16 2.585-2.585c0-.077-.017-.15-.023-.225l2.822-1.638a9.369 9.369 0 0 0 7.847 4.222 9.364 9.364 0 0 0 6.284-2.421l2.554 2.553-.905.906a1.593 1.593 0 0 0-.236 1.944h-32.56c-.89 0-1.613-.724-1.613-1.614zm20.54-16.696a8.37 8.37 0 0 1 5.937-2.455c2.15 0 4.3.819 5.937 2.455 1.586 1.586 2.459 3.694 2.459 5.937s-.873 4.35-2.46 5.937c-3.273 3.273-8.599 3.273-11.873 0-3.274-3.274-3.274-8.6 0-11.874zm-5.71 12.969c0 .874-.711 1.585-1.585 1.585s-1.585-.711-1.585-1.585.71-1.586 1.585-1.586 1.585.712 1.585 1.586zM15.274 31.71c-.874 0-1.585-.711-1.585-1.585s.711-1.585 1.585-1.585 1.586.71 1.586 1.585-.712 1.585-1.586 1.585zm41.872 15.693L54.63 49.92a.596.596 0 0 1-.843 0l-7.818-7.818a.595.595 0 0 1 0-.84l2.517-2.518a.596.596 0 0 1 .84 0l7.82 7.82a.591.591 0 0 1 0 .84z" style="fill: #ffffff;"/><path fill="#00243d" d="M37.33 37.165c3.882 0 7.04-3.158 7.04-7.04s-3.158-7.04-7.04-7.04-7.04 3.158-7.04 7.04 3.158 7.04 7.04 7.04zm0-13.08c3.33 0 6.04 2.71 6.04 6.04s-2.71 6.04-6.04 6.04a6.034 6.034 0 0 1-4.946-2.583l3.069-1.795c.472.5 1.136.818 1.877.818 1.425 0 2.585-1.16 2.585-2.585s-1.16-2.585-2.585-2.585a2.588 2.588 0 0 0-2.585 2.585c0 .325.067.633.176.92l-3.039 1.777a5.994 5.994 0 0 1-.592-2.592c0-3.33 2.709-6.04 6.04-6.04zm-1.585 5.935a1.586 1.586 0 0 1 3.17 0c0 .874-.711 1.585-1.585 1.585s-1.585-.711-1.585-1.585z" style="fill: #ffffff;"/></svg>
