<?xml version="1.0" encoding="UTF-8"?>
<svg xmlns="http://www.w3.org/2000/svg" viewBox="0 0 63.9 64"><path d="M16.9 32.9H20V34h-3.1zM24.8 32.9h3.1V34h-3.1zM35.685 38.135h1.1v4.102h-1.1zM40.883 38.135h1.1v4.102h-1.1zM46.081 38.135h1.1v4.102h-1.1zM16.9 38H20v1.1h-3.1zM24.8 38h3.1v1.1h-3.1z" style="fill: #141414;"/><path d="M50.5 34h-9.4v-9.2c0-1.8-1.5-3.2-3.3-3.1h-4.2v-3.3h-1.1v3.2H20.9v-3.2h-1.1v3.2h-4.3c-1.8 0-3.2 1.4-3.2 3.2v16.5c0 1.8 1.4 3.2 3.2 3.2h15.7v.8c0 .7.5 1.2 1.2 1.2l3.2.1V50c0 .7.5 1.2 1.2 1.2h1.9c.4 0 .7-.2.9-.4l3.5-4.2h7.4c.7 0 1.2-.5 1.2-1.2V35.2c0-.7-.5-1.2-1.2-1.2zm-37.1-9.2c0-1.2 1-2.1 2.1-2.1h4.3v2.6h1.1v-2.6h11.6v2.6h1.1v-2.5h4.3c1.2 0 2.1 1 2.1 2.1v3.8H13.4v-3.9zm17.8 10.4v8.2H15.5c-1.2 0-2.1-1-2.1-2.1V29.8H40V34h-7.6c-.7 0-1.2.5-1.2 1.2zm19.3 10.2h-7.4c-.4 0-.7.2-.9.4L38.7 50l-2-.1v-3.4c0-.7-.5-1.2-1.2-1.2l-3.2-.1v-2.3l.1-7.8h18.2l-.1 10.3z" style="fill: #141414;"/></svg>
