<?xml version="1.0" encoding="UTF-8"?>
<svg xmlns="http://www.w3.org/2000/svg" viewBox="0 0 64.111 63.839"><path fill="#00243d" d="M39.995 34.464h1v2h-1zM12.114 33.367h2.613c.525 0 .936-.359.936-.817v-3.176c0-.62-.504-1.124-1.124-1.124h-2.27c-.622 0-1.128.506-1.128 1.128v3.146c0 .473.428.843.973.843zm.027-3.99c0-.07.058-.127.128-.127h2.27c.068 0 .124.056.124.124v2.993l-2.522-.007v-2.982zM24.968 33.964h2.769v1h-2.769z" style="fill: #ffffff;"/><path fill="#00243d" d="M51.868 22.646l-8.527-4.422v-4.298a.5.5 0 0 0-.5-.5h-2.346a.5.5 0 0 0-.5.5v2.562l-7.043-3.652a.496.496 0 0 0-.462 0l-18.682 9.81a.5.5 0 0 0 .233.944h2.649v2.518h3.328v2.248h-1.134a.723.723 0 0 0-.722.722v5.864H11.19c-.713 0-1.293.58-1.293 1.293v11.501c0 .713.58 1.293 1.293 1.293h4.39c.68 0 1.232-.553 1.232-1.232v-4.192h34.826v-1H46.02V26.108h3.328V23.59h2.289a.5.5 0 0 0 .23-.944zm-10.873-8.22h1.346v3.279l-1.346-.698v-2.58zm-21.833 14.93h2.846v2.318a.5.5 0 0 0 .5.5h2.46a.5.5 0 0 0 .5-.5v-2.318h2.845v7.22H23.94v-.435a1.2 1.2 0 0 0-1.2-1.2h-3.578v-5.585zm3.846 0h1.46v1.818h-1.46v-1.818zm-7.196 9.045v9.396a.236.236 0 0 1-.233.232h-4.39a.297.297 0 0 1-.292-.293V36.235c0-.162.131-.293.293-.293h11.55c.11 0 .2.09.2.199v1.56a.2.2 0 0 1-.2.2h-6.428a.5.5 0 0 0-.5.5zm1 .5h3.206v3.704h-3.206V38.9zm25.257 3.704H33.94V29.25h8.128v13.355zm2.952 0h-1.952V28.25H32.94v14.355H21.018V38.9h1.723a1.2 1.2 0 0 0 1.2-1.2v-.126h4.65a.723.723 0 0 0 .722-.722v-7.775a.722.722 0 0 0-.721-.722h-7.574v-2.248H45.02v16.497zm3.328-17.497h-30.66V23.59h30.66v1.518zm-32.28-2.518l16.654-8.746 16.864 8.746H16.068z" style="fill: #ffffff;"/><path fill="#00243d" d="M29.792 18.417c0 1.68 1.367 3.048 3.047 3.048s3.048-1.367 3.048-3.048c0-1.68-1.368-3.047-3.048-3.047s-3.047 1.367-3.047 3.047zm3.047-2.047a2.05 2.05 0 0 1 2.048 2.047c0 1.13-.919 2.048-2.048 2.048s-2.047-.919-2.047-2.048a2.05 2.05 0 0 1 2.047-2.047z" style="fill: #ffffff;"/></svg>
