<?xml version="1.0" encoding="UTF-8"?>
<svg xmlns="http://www.w3.org/2000/svg" viewBox="0 0 64 64"><path d="M41.3 50.9c-3.8 0-6.9-3.1-6.9-6.9 0-3.8 3.1-6.9 6.9-6.9 3.8 0 6.9 3.1 6.9 6.9 0 3.8-3.1 6.9-6.9 6.9zm0-12.8c-3.2 0-5.9 2.6-5.9 5.9 0 3.2 2.6 5.9 5.9 5.9 3.2 0 5.9-2.6 5.9-5.9 0-3.2-2.6-5.8-5.9-5.9z" style="fill: #141414;"/><path d="M41.2 46.7h-.7c-.2 0-.5-.1-.6-.3l-1.6-2.2.8-.6 1.5 2h.4l2.5-4.1.9.5-2.6 4.3c-.1.2-.4.4-.6.4z" style="fill: #141414;"/><g><path d="M25.4 37.3h-2.2v-1h2.2l.1-1-1.7-.1c-.6 0-1.1-.4-1.1-1v-1c0-.6.4-1.1 1-1.1H26v1h-2.2l-.1 1 1.7.1c.6 0 1.1.5 1.1 1v1c0 .7-.5 1.1-1.1 1.1z" style="fill: #141414;"/><path d="M24.1 31.8h1v.8h-1zM24.1 36.9h1v.9h-1z" style="fill: #141414;"/><path d="M35.3 42.4H18.6V27.1c0-1.6 1.3-2.8 2.9-2.9h20c1.6 0 2.8 1.3 2.8 2.9v10.7h-1V27.1c0-1-.8-1.9-1.8-1.9h-20c-1 0-1.9.8-1.9 1.9v14.4h15.7v.9z" style="fill: #141414;"/><path d="M23.9 45.4H18c-1.5 0-2.2-.7-2.2-1.5v-1c0-.8.7-1.5 1.5-1.5h18.1v1H17.2c-.3 0-.5.2-.5.5v1c0 .3.2.5.5.5h6.6v1h.1z" style="fill: #141414;"/><path d="M23.2 44.4H35v1H23.2z" style="fill: #141414;"/><g><path d="M28.4 34.2h6v1h-6zM28.4 31.7h3.2v1h-3.2zM19.1 26.6h24.7v1H19.1zM28.4 36.7h6v1h-6z" style="fill: #141414;"/></g></g></svg>
