<?xml version="1.0" encoding="UTF-8"?>
<svg xmlns="http://www.w3.org/2000/svg" viewBox="0 0 64 64"><path d="M26.72 34.649l17.239-.138.008 1-17.24.138zM23.27 37.366c1.222 0 2.217-.995 2.217-2.218s-.995-2.216-2.217-2.216c-1.223 0-2.217.994-2.217 2.216s.994 2.218 2.217 2.218zm0-3.434a1.218 1.218 0 0 1 0 2.434 1.218 1.218 0 0 1 0-2.434zM26.827 40.68l17.24-.134.008 1-17.24.134zM23.377 38.965c-1.222 0-2.217.994-2.217 2.217s.995 2.216 2.217 2.216c1.223 0 2.217-.994 2.217-2.216s-.994-2.217-2.217-2.217zm0 3.433c-.67 0-1.217-.545-1.217-1.216a1.218 1.218 0 0 1 2.434 0c0 .67-.546 1.216-1.217 1.216zM26.827 46.712l17.24-.134.008 1-17.24.134zM24.552 45.087l-1.149 1.148-1.148-1.148-.707.707 1.148 1.148-1.148 1.149.707.707 1.148-1.149 1.149 1.149.707-.707-1.149-1.149 1.149-1.148zM45.271 24.584l-.539-1.055c-.228-.33-.497-.558-.849-.579l-3.352-.617-.082.807 3.352.617c.104.042.207.083.27.228l.066.13-9.084 4.685-4.61-5.926-9.205 5.208.492.87 8.455-4.783 4.588 5.9 9.82-5.064.017.034c.103.042.062.145.02.249l-1.383 3.167.828.33 1.28-3.208c.124-.31.144-.663-.084-.993z" style="fill: #141414;"/></svg>
