<?xml version="1.0" encoding="UTF-8"?>
<svg xmlns="http://www.w3.org/2000/svg" viewBox="0 0 63.9 63.9"><path d="M33.6 35.6h-3.4c-.4 0-.7-.3-.7-.7v-2c0-.4.3-.7.7-.7h4.5v-.9h-2.4v-1.2h-.9v1.2h-1.2c-.8 0-1.6.8-1.6 1.6v2c0 .8.8 1.6 1.6 1.6h3.4c.4 0 .7.3.7.7v2c0 .4-.3.7-.7.7h-4.5v.9h2.3V42h.9v-1.2h1.3c.9 0 1.6-.8 1.6-1.6v-2c0-.8-.8-1.6-1.6-1.6z" style="fill: #141414;"/><path d="M31.9 25.5c-5.8 0-10.4 4.6-10.4 10.4s4.6 10.4 10.4 10.4c5.7 0 10.4-4.6 10.4-10.4s-4.6-10.4-10.4-10.4zm0 19.8c-5.2 0-9.4-4.2-9.4-9.4s4.2-9.4 9.4-9.4 9.4 4.2 9.4 9.4-4.2 9.4-9.4 9.4z" style="fill: #141414;"/><path d="M31.695 21.425a14.38 14.38 0 0 0-7.64 2.192.132.132 0 0 1 .002-.067l.91-2.74-.948-.315-.909 2.732a1.11 1.11 0 0 0 .119.974l.524.811a.947.947 0 0 0 .236.263c.159.133.368.22.594.245l2.873.295.102-.995-2.962-.312-.003-.038-.004-.007a13.38 13.38 0 0 1 7.106-2.038c7.42 0 13.457 6.037 13.457 13.458 0 1.821-.357 3.588-1.061 5.25l.92.39a14.367 14.367 0 0 0 1.141-5.64c0-7.972-6.485-14.458-14.457-14.458zM40.96 45.676a.936.936 0 0 0-.262-.229c-.176-.113-.433-.166-.62-.17l-2.888.057.02 1 2.968-.105.015.074a13.393 13.393 0 0 1-3.546 2.096c-1.574.624-3.24.94-4.952.94-7.42 0-13.458-6.036-13.458-13.456 0-2.526.703-4.987 2.034-7.117l-.849-.53a14.423 14.423 0 0 0-2.185 7.647c0 7.971 6.486 14.457 14.458 14.457 1.838 0 3.628-.34 5.322-1.01a14.405 14.405 0 0 0 3.803-2.25c.016.027.029.052.02.087l-.569 2.83.981.197.567-2.822a1.106 1.106 0 0 0-.236-.952l-.622-.744z" style="fill: #141414;"/></svg>
