<?xml version="1.0" encoding="UTF-8"?>
<svg xmlns="http://www.w3.org/2000/svg" viewBox="0 0 64 64"><path d="M50.415 47.243H14.674a1.797 1.797 0 0 1-1.793-1.79v-1.222a1.788 1.788 0 0 1 1.783-1.778h35.74a1.797 1.797 0 0 1 1.793 1.79v1.222a1.787 1.787 0 0 1-1.782 1.778zm-35.747-3.704a.699.699 0 0 0-.701.692v1.221a.709.709 0 0 0 .707.705H50.41a.699.699 0 0 0 .701-.691v-1.223a.709.709 0 0 0-.707-.704H14.668z" style="fill: #ffffff;"/><path d="M45.277 43.539H16.26V24.068a3.542 3.542 0 0 1 3.538-3.535H45.28a3.542 3.542 0 0 1 3.538 3.534v18.929h-1.086V24.068a2.455 2.455 0 0 0-2.452-2.449H19.8a2.456 2.456 0 0 0-2.453 2.45v18.384h27.931z" style="fill: #ffffff;"/><path d="M16.93 23.529h31.476v1.086H16.93zM33.2 37.127h-9.81l-1.688-8.651h-2.428v-.766h3.059l1.687 8.651h9.18v.766z" style="fill: #ffffff;"/><path d="M32.174 35.017h-8.952v-.766h8.952a.19.19 0 0 0 .178-.122l1.35-3.495a.19.19 0 0 0-.178-.26h-11.19v-.765h11.19a.957.957 0 0 1 .893 1.3l-1.35 3.497a.952.952 0 0 1-.893.61zM31.024 39.298a1.474 1.474 0 1 1 1.474-1.474 1.475 1.475 0 0 1-1.474 1.474zm0-2.182a.708.708 0 1 0 .708.708.709.709 0 0 0-.708-.708zM25.612 39.298a1.474 1.474 0 1 1 1.474-1.474 1.475 1.475 0 0 1-1.474 1.474zm0-2.182a.708.708 0 1 0 .708.708.709.709 0 0 0-.708-.708z" style="fill: #ffffff;"/><path d="M22.724 31.224h10.992v.766H22.724zM40.056 30.242h5.195v1h-5.195zM40.056 32.54h5.195v1h-5.195zM40.056 34.839h5.195v1h-5.195zM37.056 30.242h2.195v1h-2.195zM37.056 32.54h2.195v1h-2.195zM37.056 34.839h2.195v1h-2.195z" style="fill: #ffffff;"/></svg>
