<?xml version="1.0" encoding="UTF-8"?>
<svg xmlns="http://www.w3.org/2000/svg" viewBox="0 0 64 64"><path d="M49.8 50.5h-35V50c-.2-9.4 7.3-17.3 16.7-17.5h.8c9.4-.2 17.3 7.3 17.5 16.7v1.3zm-34-1h33c-.1-8.9-7.3-16.1-16.2-16h-.3c-8.9-.2-16.3 6.8-16.5 15.7v.3z" style="fill: #141414;"/><path d="M31.8 34.7h1v1.5h-1zM27.09 35.602l.95-.309.465 1.427-.951.309zM22.955 37.915l.81-.588.881 1.213-.809.588zM45.372 45.245l1.427-.463.308.952-1.427.462zM43.27 41.52l1.213-.882.588.809-1.213.882zM40.06 38.5l.882-1.214.809.588-.882 1.214zM17.632 45.751l.31-.95 1.426.463-.31.95zM19.603 41.452l.588-.809 1.213.882-.587.809zM36.173 36.732l.465-1.426.95.31-.464 1.425zM36.4 50.4l-.7-.7v-.5c0-1.9-1.5-3.4-3.4-3.4s-3.4 1.5-3.4 3.4c0 .3 0 .6.1.8l-1 .2c-.6-2.3.8-4.7 3.2-5.3s4.7.8 5.3 3.2c.1.4.1.7.1 1.1.2.4 0 .8-.2 1.2z" style="fill: #141414;"/><path d="M35.863 47.601l6.939-3.338.433.902-6.939 3.338z" style="fill: #141414;"/></svg>
