<?xml version="1.0" encoding="UTF-8"?>
<svg xmlns="http://www.w3.org/2000/svg" viewBox="0 0 64 64"><path fill="#00243d" d="M43.59 20.603h-2.71v-1.247c0-.586-.478-1.063-1.064-1.063h-2.018c-.586 0-1.062.477-1.062 1.063v1.247h-5.864v-.26c0-.51-.346-.953-.883-1.087l-13.34-2.158a1.1 1.1 0 0 0-.956.201 1.1 1.1 0 0 0-.429.878v5.854c0 .345.156.665.429.877.202.158.447.239.68.239a1 1 0 0 0 .233-.03l13.383-2.166.043-.008c.494-.126.84-.57.84-1.08v-.26h5.864v1.119c-2.284.274-4.066 2.201-4.066 4.558v22.312c0 .717.583 1.3 1.3 1.3h9.871c.717 0 1.3-.583 1.3-1.3V27.28c0-2.424-1.884-4.395-4.262-4.578v-1.099h2.71c3.831 0 4.138 4.123 4.149 4.3l.998-.061c-.109-1.812-1.324-5.239-5.147-5.239m-13.718 1.26c0 .048-.03.09-.073.106l-13.353 2.162a1 1 0 0 0-.181-.1h-.001l.043-5.943.14-.012 13.34 2.158c.05.013.085.058.085.11zm10.007-2.507v3.31h-2.132l.051-3.373zM33.67 31.743h10.47v15.113H33.67zm10.171 18.149H33.97a.3.3 0 0 1-.3-.3v-1.736h10.47v1.736a.3.3 0 0 1-.299.3m.3-22.612v3.463H33.67V27.28a3.62 3.62 0 0 1 3.612-3.614h3.245a3.62 3.62 0 0 1 3.613 3.614" style="fill: #ffffff;"/></svg>
