<?xml version="1.0" encoding="UTF-8"?>
<svg xmlns="http://www.w3.org/2000/svg" viewBox="0 0 63.9 64.1"><path d="M18.687 32.37h3.047c.565 0 1.008-.382 1.008-.87v-3.703a1.23 1.23 0 0 0-1.228-1.228h-2.646c-.68 0-1.232.553-1.232 1.232v3.669c0 .504.462.9 1.05.9zm-.05-4.57c0-.127.103-.23.23-.23h2.647c.126 0 .228.101.228.227v3.573h-.008l-3.098-.022V27.8zM42.053 32.37H45.1c.588 0 1.05-.396 1.05-.9V27.8c0-.678-.553-1.23-1.232-1.23h-2.647a1.23 1.23 0 0 0-1.227 1.227v3.704c0 .487.443.869 1.009.869zm-.01-4.573c0-.126.103-.228.228-.228h2.647c.128 0 .231.104.231.232v3.576c-.004-.006-.013-.009-.028-.009-.006 0-.014 0-.021.002l-3.056-.014v-3.559zM47.853 34.371h-10.24c-.224-1.37-1.295-2.499-2.683-2.738a3.326 3.326 0 0 0-2.699.732 3.489 3.489 0 0 0-.34.334 3.314 3.314 0 0 0-3.041-1.065c-1.385.238-2.445 1.348-2.67 2.737H15.93a2.402 2.402 0 0 0-2.399 2.399v5.332c0 .39.179.747.497.981l2.16 1.548v4.576c0 .783.637 1.421 1.42 1.421h5.12c.747 0 1.354-.607 1.354-1.354v-10.45h3.74c1.13 1.378 2.499 2.407 3.006 2.762.19.143.424.219.675.219h.777c.25 0 .484-.076.66-.21.6-.418 1.939-1.43 3.039-2.772H39.7v10.451c0 .747.608 1.354 1.354 1.354h5.12c.789 0 1.43-.638 1.43-1.42V44.63l2.156-1.552c.313-.231.5-.597.5-.977V36.77a2.406 2.406 0 0 0-2.407-2.399zm-24.271 3.452a.5.5 0 0 0-.5.5v10.951a.354.354 0 0 1-.353.354h-5.121a.42.42 0 0 1-.42-.42V38.322h-1v5.078l-1.572-1.127a.208.208 0 0 1-.085-.172V36.77a1.4 1.4 0 0 1 1.4-1.399h10.215c.068.909.339 1.401.466 1.58.137.3.3.59.477.872h-3.507zm8.698 2.982l-.866-.03c-.486-.34-2.959-2.143-3.912-4.283a.633.633 0 0 0-.073-.117c-.003-.005-.352-.466-.295-1.676.092-1.033.884-1.907 1.884-2.08a2.314 2.314 0 0 1 1.883.506c.229.196.413.424.549.678.174.328.709.328.883 0 .134-.253.319-.482.545-.676a2.32 2.32 0 0 1 1.885-.508c1.096.19 1.912 1.186 1.895 2.318-.042 2.734-3.58 5.343-4.378 5.868zm16.98 1.297a.215.215 0 0 1-.09.169l-1.566 1.127v-5.075h-1v10.884c0 .229-.197.421-.43.421h-5.12a.353.353 0 0 1-.354-.354v-10.95a.5.5 0 0 0-.5-.5h-3.498c.475-.759.823-1.587.921-2.453h10.23c.776 0 1.408.627 1.408 1.399v5.332zM27.99 25.31h1v3.725h-1zM34.694 25.31h1v3.725h-1zM30.433 19.219h2.963c.557 0 .994-.378.994-.86v-3.6c0-.666-.541-1.207-1.207-1.207h-2.574c-.668 0-1.212.543-1.212 1.21v3.568c0 .499.455.889 1.036.889zm-.036-4.456c0-.116.095-.211.212-.211h2.574c.114 0 .207.093.207.207v3.46l-2.993-.019v-3.437z" style="fill: #141414;"/><path d="M26.406 23.798c0-.745.606-1.351 1.35-1.351h8.273c.745 0 1.35.606 1.35 1.35v5.17h1v-5.17a2.354 2.354 0 0 0-2.35-2.35h-8.272a2.354 2.354 0 0 0-2.351 2.35v5.181h1v-5.18z" style="fill: #141414;"/></svg>
