<?xml version="1.0" encoding="UTF-8"?>
<svg xmlns="http://www.w3.org/2000/svg" viewBox="0 0 64 64"><path fill="#00243f" d="M22.323 30.626h1v6.854h-1zM28.243 30.63h1v6.854h-1zM34.162 30.626h1v6.854h-1zM40.081 30.626h1v4.535h-1zM41.005 27.002l-8.986-3.705-8.966 3.698-.381-.924 9.347-3.856 9.367 3.863-.381.924z" style="fill: #141414;"/><path fill="#00243f" d="M41.187 42.502H16.875a.5.5 0 0 1-.5-.5V26.598a.5.5 0 0 1 .5-.5h30.81a.5.5 0 0 1 .5.5v7.678h-1v-7.178h-29.81v14.404h23.812zM31.614 20.647h1v2.088h-1z" style="fill: #141414;"/><path fill="#00243f" d="M32.122 20.864a2.808 2.808 0 0 1-.499-5.573l.002-1.863 1 .002-.003 2.318a.5.5 0 0 1-.5.5 1.809 1.809 0 1 0 1.809 1.808h1a2.812 2.812 0 0 1-2.809 2.808zM47.584 50.86a1.658 1.658 0 0 1-1.006-.341l-5.09-3.868a1.537 1.537 0 0 1-.602-1.215l.02-9.232a.501.501 0 0 1 .577-.493c.034.005 3.591.533 5.9-1.621a.5.5 0 0 1 .69.006 7.255 7.255 0 0 0 5.769 1.615.5.5 0 0 1 .574.494v9.11a1.906 1.906 0 0 1-.782 1.537L48.56 50.54a1.658 1.658 0 0 1-.977.32zm-5.68-14.102l-.018 8.679a.533.533 0 0 0 .208.419l5.09 3.867a.66.66 0 0 0 .79.009l5.072-3.69a.902.902 0 0 0 .37-.728v-8.547a8.196 8.196 0 0 1-5.687-1.654 8.566 8.566 0 0 1-5.825 1.645z" style="fill: #141414;"/><path fill="#00243f" d="M47.324 44.25h-.45a.644.644 0 0 1-.516-.255l-.97-1.304.802-.597.86 1.156h.08l1.949-3.084.846.535-2.053 3.246a.646.646 0 0 1-.548.303zm-.295-.842l-.009.015z" style="fill: #141414;"/><path fill="#00243f" d="M47.531 47.179a5.05 5.05 0 1 1 5.05-5.05 5.056 5.056 0 0 1-5.05 5.05zm0-9.1a4.05 4.05 0 1 0 4.05 4.05 4.055 4.055 0 0 0-4.05-4.05z" style="fill: #141414;"/></svg>
