<?xml version="1.0" encoding="UTF-8"?>
<svg xmlns="http://www.w3.org/2000/svg" viewBox="0 0 64 64"><g fill="#00243d"><path d="M45.123 49.58h-25.52v-1h24.52v-8.782a3.367 3.367 0 0 0-3.363-3.362H28.938v-1H40.76a4.37 4.37 0 0 1 4.363 4.362z" style="fill: #ffffff;"/><path d="M24.497 42.475H25.497V49.08H24.497z" style="fill: #ffffff;"/><path d="M38.503 42.475H39.503V49.08H38.503z" style="fill: #ffffff;"/><path d="M44.623 49.58h-25.52v-9.782a4.367 4.367 0 0 1 4.363-4.362H35.29v1H23.466a3.367 3.367 0 0 0-3.362 3.362v8.782h24.519z" style="fill: #ffffff;"/><path d="M16.759 48.58H47.241V49.58H16.759z" style="fill: #ffffff;"/></g><g fill="#00243d"><path d="M39.467 26.581h-15.29c-.602 0-1.091-.49-1.091-1.09v-1.2c0-.601.49-1.09 1.09-1.09h1.004a7 7 0 0 1-.038-.723c0-2.355 1-4.33 2.817-5.561a.51.51 0 0 1 .618.032.5.5 0 0 1-.068.803c-1.527 1.041-2.367 2.719-2.367 4.726q0 .385.049.756l.112.283a.5.5 0 0 1-.465.684h-1.662a.09.09 0 0 0-.09.09v1.2c0 .049.041.09.09.09h15.29c.049 0 .09-.042.09-.09v-1.2a.09.09 0 0 0-.09-.09h-1.661a.5.5 0 0 1-.465-.685l.112-.282q.049-.371.049-.756c0-2.013-.845-3.694-2.378-4.733l.277-.414-.394-.32a.51.51 0 0 1 .67-.1c1.825 1.237 2.825 3.212 2.825 5.567q-.001.366-.038.723h1.004c.6 0 1.09.489 1.09 1.09v1.2c0 .6-.49 1.09-1.09 1.09" style="fill: #ffffff;"/><path d="M32.353 24.334c-2.603 0-4.916-.311-5.06-.33l.135-.992c.052.008 5.28.71 8.755.006l.199.98c-1.246.252-2.677.336-4.03.336M29.844 21.612c-.01-.193-.28-6.67-.28-6.67a.5.5 0 0 1 .499-.522h3.517a.5.5 0 0 1 .5.521l-.28 6.666-1-.042.259-6.145h-2.475c.064 1.54.25 5.977.258 6.137z" style="fill: #ffffff;"/><path d="m28.217 20.433-.686-4.49a.5.5 0 0 1 .342-.552l2.05-.656.305.953-1.644.525.622 4.068zM35.426 20.433l-.989-.152.623-4.068-1.645-.525.305-.953 2.05.656a.5.5 0 0 1 .342.552zM35.178 32.793h-6.713a3.255 3.255 0 0 1-3.252-3.251v-3.46h1v3.46a2.254 2.254 0 0 0 2.252 2.251h6.713a2.254 2.254 0 0 0 2.252-2.251v-3.46h1v3.46a3.255 3.255 0 0 1-3.252 3.251" style="fill: #ffffff;"/></g></svg>
