<?xml version="1.0" encoding="UTF-8"?>
<svg xmlns="http://www.w3.org/2000/svg" viewBox="0 0 64 64"><path fill="#00243d" d="M43.946 27.179h-3.217v-2.776a3.41 3.41 0 0 0-3.406-3.406H26.677a3.41 3.41 0 0 0-3.406 3.406v2.776h-3.217a3.06 3.06 0 0 0-3.058 3.058v17.629a3.06 3.06 0 0 0 3.058 3.057h23.892a3.06 3.06 0 0 0 3.058-3.057V30.237a3.06 3.06 0 0 0-3.058-3.058M24.27 24.403a2.41 2.41 0 0 1 2.406-2.406h10.646a2.41 2.41 0 0 1 2.406 2.406v2.776H24.271zm21.733 23.463a2.06 2.06 0 0 1-2.058 2.057H20.054a2.06 2.06 0 0 1-2.058-2.057V30.237c0-1.135.923-2.058 2.058-2.058h23.892a2.06 2.06 0 0 1 2.058 2.058z" style="fill: #ffffff;"/><path fill="#00243d" d="M34.38 32.397h-4.76v4.249h-4.19v4.81h4.19v4.25h4.76v-4.25h4.19v-4.81h-4.19zm3.19 5.249v2.81h-4.19v4.25h-2.76v-4.25h-4.19v-2.81h4.19v-4.25h2.76v4.25z" style="fill: #ffffff;"/></svg>
