<?xml version="1.0" encoding="UTF-8"?>
<svg xmlns="http://www.w3.org/2000/svg" viewBox="0 0 63.9 63.9"><path d="M33.3 50.6H28c-.8 0-1.5-.7-1.5-1.5V37.9h1v11.2c0 .3.2.5.5.5h5.3c.2 0 .4-.2.4-.4V37.9h1v11.3c0 .7-.6 1.4-1.4 1.4zM32.3 31.6h-3.1c-.5 0-1-.4-1.1-.9v-3.8c0-.7.5-1.3 1.2-1.3H32c.7 0 1.3.6 1.3 1.2v3.8c-.1.7-.5 1.1-1 1zm0-1v-3.7c0-.1-.1-.3-.2-.3h-2.7c-.1 0-.3.1-.3.3v3.7h3.2z" style="fill: #141414;"/><path d="M34.5 44.5l-.6-.8 2.5-1.8c.1 0 .1-.1.1-.2v-5.5c0-.8-.7-1.5-1.5-1.5h-8.8c-.8 0-1.5.7-1.5 1.5v5.5c0 .1 0 .1.1.2l2.4 1.8-.5.8-2.5-1.8c-.3-.2-.5-.6-.5-1v-5.5c0-1.4 1.1-2.5 2.5-2.5H35c1.4 0 2.5 1.1 2.5 2.5v5.5c0 .4-.2.8-.5 1l-2.5 1.8z" style="fill: #141414;"/><path d="M30.2 34.3h1v6h-1z" style="fill: #141414;"/><g><path d="M41.8 37.8c-4.2 0-7.6-3.4-7.6-7.6s3.4-7.6 7.6-7.6 7.6 3.4 7.6 7.6c0 2-.8 3.9-2.2 5.4-1.5 1.4-3.4 2.2-5.4 2.2zm0-14.2c-3.6 0-6.6 3-6.6 6.6 0 3.6 3 6.6 6.6 6.6 3.6 0 6.6-3 6.6-6.6 0-1.7-.7-3.4-1.9-4.6-1.3-1.3-2.9-2-4.7-2z" style="fill: #141414;"/><path d="M43 33.6h-3.2v-1H43c.2 0 .3-.1.3-.3V31c0-.2-.1-.3-.3-.3h-2.3c-.7 0-1.3-.6-1.3-1.3V28c0-.7.6-1.3 1.3-1.3h3.2v1h-3.2c-.1 0-.3.1-.3.3v1.4c0 .1.1.3.3.3H43c.7 0 1.3.6 1.3 1.3v1.4c0 .7-.6 1.2-1.3 1.2z" style="fill: #141414;"/><path d="M41.3 26.1h1v1.2h-1zM41.3 33.2h1v1.2h-1z" style="fill: #141414;"/></g></svg>
