<?xml version="1.0" encoding="UTF-8"?>
<svg xmlns="http://www.w3.org/2000/svg" viewBox="0 0 64.111 63.839"><path fill="#00243d" d="M43.072 35.087h-4.86v-7.88c0-.013-.007-.024-.008-.037.001-.012.008-.023.008-.036V22.21c0-.551-.124-1.106-.353-1.59l-2.543-5.896a1.632 1.632 0 0 0-2.067-.885l-.543.201c-.424.158-.756.473-.934.89s-.178.873.001 1.289l2.53 5.873v4.603l-2.979-.062c-.03.002-.057.014-.087.02-.028-.004-.055-.015-.083-.014a3.084 3.084 0 0 0-2.678 1.833l-2.073 4.747c-.15.53-.18 1.099-.09 1.642.007.042.02.084.038.123l1.832 4.063-8.93 6.75a1.637 1.637 0 0 0-.318 2.29l1.032 1.364a1.632 1.632 0 0 0 2.29.319l12.837-9.705h5.773v7.491c0 .9.733 1.634 1.634 1.634h1.371c.901 0 1.634-.733 1.634-1.634V37.521a2.436 2.436 0 0 0-2.434-2.434zm1.434 12.47c0 .35-.284.634-.634.634h-1.37a.635.635 0 0 1-.635-.634v-7.99a.5.5 0 0 0-.5-.5h-6.441c-.02 0-.036.008-.055.01a.479.479 0 0 0-.104.021.48.48 0 0 0-.09.043c-.017.01-.036.014-.053.026l-12.97 9.806a.634.634 0 0 1-.889-.124l-1.032-1.365a.635.635 0 0 1 .123-.888l10.934-8.265a.5.5 0 0 0 .198-.425l-.26-4.884a.5.5 0 0 0-.999.053l.246 4.619-.974.736-1.71-3.794c-.055-.38-.03-.771.052-1.08l2.05-4.682a2.078 2.078 0 0 1 1.803-1.235c.022 0 .041-.012.063-.015.015.001.029.01.045.01l3.489.073h.01a.5.5 0 0 0 .5-.49c0-.015-.007-.029-.008-.044.001-.014.008-.025.008-.04V21.99a.493.493 0 0 0-.04-.198l-2.572-5.968a.629.629 0 0 1 0-.5.63.63 0 0 1 .363-.345l.542-.201a.634.634 0 0 1 .802.343l2.55 5.91c.173.367.264.775.264 1.18v4.923c0 .013.006.024.007.036 0 .013-.007.024-.007.037v8.38a.5.5 0 0 0 .5.5h5.36c.79 0 1.434.643 1.434 1.434v10.036z" style="fill: #ffffff;"/><path fill="#00243d" d="M27.43 25.221a.956.956 0 0 0 .925.707.963.963 0 0 0 .257-.036l3.659-1.008a.963.963 0 0 0 .67-1.182l-1.22-4.427a.956.956 0 0 0-1.181-.672l-3.66 1.01a.963.963 0 0 0-.67 1.18l1.22 4.428zm3.327-5.681l1.21 4.39-3.572 1.026-1.249-4.38 3.61-1.036z" style="fill: #ffffff;"/></svg>
