<?xml version="1.0" encoding="UTF-8"?>
<svg xmlns="http://www.w3.org/2000/svg" viewBox="0 0 64 64"><path fill="#00243f" d="M40.77 51.071h-4.379a1.292 1.292 0 0 1-1.291-1.29v-9.315h1v9.314a.291.291 0 0 0 .291.291h4.38a.233.233 0 0 0 .23-.23v-9.375h1v9.375a1.232 1.232 0 0 1-1.23 1.23z" style="fill: #141414;"/><path fill="#00243f" d="M41.786 46.059l-.57-.823 2.108-1.458.046-4.635a1.131 1.131 0 0 0-1.13-1.13h-7.286a1.129 1.129 0 0 0-1.127 1.128v4.56l2.065 1.541-.585.81-2.022-1.458a1.103 1.103 0 0 1-.458-.894v-4.56a2.13 2.13 0 0 1 2.127-2.127h7.286a2.132 2.132 0 0 1 2.13 2.13v4.547a1.106 1.106 0 0 1-.478.91zM39.974 35.415h-2.752a.882.882 0 0 1-.88-.88v-3.346a.882.882 0 0 1 .88-.881h2.752a.882.882 0 0 1 .88.88v3.346a.882.882 0 0 1-.88.881zm-2.633-1h2.513v-3.107h-2.513zM24.306 33.271h1v1.221h-1zM24.306 27.694h1v1.131h-1z" style="fill: #141414;"/><path fill="#00243f" d="M24.61 33.778c-.086 0-.158-.002-.202-.003a10.822 10.822 0 0 1-1.307-.181l.195-.98a9.961 9.961 0 0 0 1.154.161 4.543 4.543 0 0 0 .62-.018c.27-.053.33-.12.332-.123a.693.693 0 0 0 .088-.43.979.979 0 0 0-.047-.37.958.958 0 0 0-.423-.182l-.565-.133a1.904 1.904 0 0 1-.975-.497 1.513 1.513 0 0 1-.39-1.098 1.422 1.422 0 0 1 .555-1.211 2.031 2.031 0 0 1 1.222-.313h.002a5.618 5.618 0 0 1 .729.05 6.623 6.623 0 0 1 .669.121l-.236.973a4.945 4.945 0 0 0-.56-.102 4.652 4.652 0 0 0-.595-.042 1.117 1.117 0 0 0-.646.124.494.494 0 0 0-.14.399.6.6 0 0 0 .11.405.975.975 0 0 0 .485.218l.572.135a2.45 2.45 0 0 1 .686.266 1.073 1.073 0 0 1 .414.48 1.926 1.926 0 0 1 .133.776 1.633 1.633 0 0 1-.32 1.071 1.501 1.501 0 0 1-.908.464 4.196 4.196 0 0 1-.652.04z" style="fill: #141414;"/><path fill="#00243f" d="M32.234 49.177a.786.786 0 0 1-.571-.251l-1.944-2.09-1.944 2.09a.805.805 0 0 1-1.144 0l-1.944-2.09-1.898 2.041a.778.778 0 0 1-1.24-.128l-1.378-2.231a1.193 1.193 0 0 1-.177-.63V24.986a2.312 2.312 0 0 1 2.241-2.372h14.548a2.313 2.313 0 0 1 2.241 2.372v5.792h-1v-5.792a1.313 1.313 0 0 0-1.241-1.372H22.235a1.313 1.313 0 0 0-1.241 1.372V45.89a.198.198 0 0 0 .028.103l1.23 1.993 1.863-2.003a.804.804 0 0 1 1.145.001l1.943 2.09 1.944-2.09a.802.802 0 0 1 1.145.001l1.935 2.08 2.869-3.37.762.648-3.037 3.567a.799.799 0 0 1-.587.268zm-2.676-2.513l.001.001zm.323-.002l-.001.001z" style="fill: #141414;"/><path fill="#00243f" d="M27.744 28.785h3.87v1h-3.87zM27.744 31.085h5.822v1h-5.822zM27.744 33.385h5.822v1h-5.822z" style="fill: #141414;"/></svg>
