<?xml version="1.0" encoding="UTF-8"?>
<svg xmlns="http://www.w3.org/2000/svg" viewBox="0 0 64 64"><g fill="#00243f" data-name="freight collection"><path d="M13.728 49.522h38.986v1H13.728zM39.216 40.058h-1v-12.6H18.204v12.6h-1V27.366a.905.905 0 0 1 .9-.908h20.212a.905.905 0 0 1 .9.908zM23.322 49.2a3.5 3.5 0 1 1 3.49-3.5 3.498 3.498 0 0 1-3.49 3.5zm0-6a2.5 2.5 0 1 0 2.49 2.5 2.497 2.497 0 0 0-2.49-2.5zM32.315 49.2a3.5 3.5 0 1 1 3.496-3.5 3.502 3.502 0 0 1-3.496 3.5zm0-6a2.5 2.5 0 1 0 2.496 2.5 2.5 2.5 0 0 0-2.496-2.5zM44.317 49.2a3.5 3.5 0 1 1 3.494-3.5 3.501 3.501 0 0 1-3.494 3.5zm0-6a2.5 2.5 0 1 0 2.494 2.5 2.5 2.5 0 0 0-2.494-2.5z" style="fill: #ffffff;"/><path d="M49.73 45.977h-2.425v-1h2.425l.06-4.419h-31.6v4.353l2.15.066v1h-2.083a1.068 1.068 0 0 1-1.068-1.066v-5.353h33.609v5.353a1.068 1.068 0 0 1-1.068 1.066z" style="fill: #ffffff;"/><path d="M35.304 44.977h6.038v1h-6.038zM26.304 44.977h3.024v1h-3.024zM50.822 40.573h-10v-7.377a1.002 1.002 0 0 1 1.001-1h5.32a.896.896 0 0 1 .707.343l2.779 3.518a.905.905 0 0 1 .193.558zm-9-1h8v-2.958l-2.757-3.457-5.242.038v.001zM31.548 33.504l-.61-.793 1.62-1.243-.013-.301.008-.338-1.545-1.267.642-.765 1.565 1.312a.93.93 0 0 1 .299.455.745.745 0 0 1 .039.286l-.016.685a.93.93 0 0 1-.376.731z" style="fill: #ffffff;"/><path d="M23.044 30.596h10.009v1H23.044zM24.872 38.303l-1.62-1.243a.925.925 0 0 1-.37-.726l-.015-.683a.84.84 0 0 1 .06-.348.854.854 0 0 1 .276-.392l1.566-1.315.643.766-1.564 1.312.035.637 1.598 1.2z" style="fill: #ffffff;"/><path d="M23.373 35.395h10.003v1H23.373z" style="fill: #ffffff;"/></g></svg>
