<?xml version="1.0" encoding="UTF-8"?>
<svg xmlns="http://www.w3.org/2000/svg" viewBox="0 0 64.111 63.839"><path fill="#00243d" d="M53.454 38.74l-5.167-8.668c-.003-.008-.01-.014-.013-.022l-.147-.246-.014.008a1.227 1.227 0 0 0-.977-.507h-2.4V19.72a.751.751 0 0 0-.75-.75H29.473a.751.751 0 0 0-.75.75v9.586h-3.021v-6.47a.5.5 0 0 0-.5-.5h-.696V14.94a.794.794 0 0 0-1.33-.588l-1.542 1.403a3.23 3.23 0 0 0-1.053 2.383v4.196h-.697a.5.5 0 0 0-.5.5v6.471h-2.4c-.405 0-.75.207-.978.507l-.014-.009-.152.255-.008.013-5.176 8.67.86.512 4.218-7.066v16.249c0 .688.56 1.249 1.25 1.249h30.15a1.25 1.25 0 0 0 1.25-1.25V32.19l4.21 7.062.859-.511zM29.724 19.97h14.011v9.336h-1.141v-5.667a2.508 2.508 0 0 0-2.505-2.505h-1.354a2.508 2.508 0 0 0-2.505 2.505v5.667h-2.749v-4.249c.599-.065 1.25-.35 1.25-1.602 0-1.417-.768-2.528-1.75-2.528s-1.75 1.11-1.75 2.528c0 1.253.652 1.537 1.25 1.602v4.25h-2.757v-9.337zm11.87 7.02H37.23v-3.35c0-.83.675-1.506 1.505-1.506h1.354c.83 0 1.505.675 1.505 1.505v3.352zm-4.364 1h4.364v1.316H37.23V27.99zm-8.02 2.316h5.7v3.671h-5.7v-3.67zm3.771-6.227c-.693 0-.75 0-.75-.624 0-.86.404-1.528.75-1.528s.75.668.75 1.528c0 .624-.056.624-.75.624zm-11.4-5.94c0-.624.266-1.223.727-1.644l1.199-1.09v6.93h-1.925v-4.196zm-1.196 5.196h4.318v5.971h-4.318v-5.97zm27 7.22v17.882a.25.25 0 0 1-.25.249h-30.15a.25.25 0 0 1-.25-.25v-17.88c0-.055.028-.1.058-.14l.024-.04a.247.247 0 0 1 .168-.07h11.226v4.17a.5.5 0 0 0 .5.5h6.699a.5.5 0 0 0 .5-.5v-4.17h11.226c.065 0 .122.028.167.07l.024.04c.03.041.058.085.058.14z" style="fill: #ffffff;"/><path fill="#00243d" d="M35.41 45.126h7.54v1h-7.54zM35.41 43.099h7.54v1h-7.54z" style="fill: #ffffff;"/></svg>
