<?xml version="1.0" encoding="UTF-8"?>
<svg xmlns="http://www.w3.org/2000/svg" viewBox="0 0 64.111 63.839"><path fill="#00243d" d="M53.454 38.74l-5.167-8.668c-.003-.008-.01-.014-.013-.022l-.147-.246-.014.008a1.227 1.227 0 0 0-.977-.507h-7.62V23.77l3.451.684a.879.879 0 0 0 .975-.526l1.498-3.714a.868.868 0 0 0-.418-1.098l-7.975-3.951a.877.877 0 0 0-.745-.017c-.229.1-.4.294-.47.53-.447 1.525-2.07 2.675-3.772 2.675-1.703 0-3.325-1.15-3.772-2.675a.839.839 0 0 0-.47-.53.887.887 0 0 0-.746.017L19.1 19.117a.87.87 0 0 0-.42 1.097l1.5 3.714a.867.867 0 0 0 .976.526l3.43-.683.006 5.534h-7.606c-.405 0-.749.207-.977.506l-.014-.008-.152.254-.008.014-5.176 8.67.858.512 4.22-7.068v16.25c0 .69.56 1.25 1.249 1.25h30.15a1.25 1.25 0 0 0 1.25-1.25V32.19l4.21 7.062.859-.511zM43.055 23.454l-1.4-.278 1.55-3.843 1.26.625-1.41 3.496zm-21.99-.001l-1.41-3.495 1.26-.624 1.55 3.84-1.4.279zm4.52-.291a.5.5 0 0 0-.598-.49l-1.524.304L21.82 18.9l-.17.07 5.733-2.842c.638 1.879 2.576 3.225 4.678 3.225s4.04-1.346 4.679-3.225l5.735 2.842-.173-.07-1.645 4.077-1.542-.306a.5.5 0 0 0-.597.49v6.144H25.59l-.007-6.144zm3.626 7.144h5.699v3.67h-5.7v-3.67zm18.174.25v17.88a.25.25 0 0 1-.25.25h-30.15a.25.25 0 0 1-.25-.25v-17.88c0-.057.029-.103.06-.145l.022-.035a.246.246 0 0 1 .168-.07H28.21v4.17a.5.5 0 0 0 .5.5h6.699a.5.5 0 0 0 .5-.5v-4.17h11.226c.065 0 .122.028.167.07l.024.04c.03.04.058.085.058.14z" style="fill: #ffffff;"/><path fill="#00243d" d="M35.41 45.126h7.541v1H35.41zM35.41 43.099h7.541v1H35.41z" style="fill: #ffffff;"/></svg>
