<?xml version="1.0" encoding="UTF-8"?>
<svg xmlns="http://www.w3.org/2000/svg" viewBox="0 0 64.111 63.839"><path fill="#00243d" d="M53.454 38.74l-5.167-8.668c-.003-.008-.01-.014-.013-.022l-.147-.246-.014.008a1.227 1.227 0 0 0-.977-.507h-.293V24.55c0-.618-.175-1.221-.557-1.812l-1.36-1.5a1.147 1.147 0 0 1-.18-.62v-.952h.328a.5.5 0 0 0 .5-.5V16.68c0-.58-.472-1.052-1.052-1.052h-7.18c-.58 0-1.052.472-1.052 1.052v2.485a.5.5 0 0 0 .5.5h.33v.953c0 .218-.063.432-.13.551l-1.464 1.636a3.263 3.263 0 0 0-.504 1.744v4.756h-1.693c.008-.242.015-.486.015-.743 0-2.402-.37-4.244-1.128-5.599.307-.214.509-.57.509-.97V20.84c0-.656-.535-1.19-1.19-1.19H29.84c-.597-1.3-1.96-1.843-4.512-1.843s-3.915.543-4.512 1.843H19.12c-.656 0-1.19.534-1.19 1.19v1.153c0 .396.196.746.518.961-.764 1.354-1.137 3.198-1.137 5.608 0 .251.003.495.011.732l1-.033a20.29 20.29 0 0 1-.011-.699c0-2.55.43-4.378 1.313-5.59.11-.153.077-.354-.009-.522-.085-.168-.306-.273-.495-.273a.185.185 0 0 1-.19-.184V20.84c0-.108.082-.19.19-.19h12.413c.109 0 .19.082.19.19v1.153c0 .103-.083.184-.283.184a.501.501 0 0 0-.405.793c.88 1.216 1.308 3.046 1.308 5.592 0 .256-.007.501-.015.743h-6.647v-.931h1.285a2.948 2.948 0 0 0 2.944-2.944.5.5 0 0 0-.5-.5h-1.36c-.923 0-1.76.374-2.37.978v-.526a3.374 3.374 0 0 0-3.37-3.37h-1.359a.5.5 0 0 0-.5.5 2.948 2.948 0 0 0 2.945 2.943h1.285v3.85h-7.698c-.404 0-.748.207-.977.506l-.014-.008-.151.254-.009.014-5.176 8.67.86.512 4.218-7.066v16.249c0 .688.561 1.249 1.25 1.249h30.15a1.25 1.25 0 0 0 1.25-1.25V32.19l4.21 7.062.86-.511zM25.328 18.808c1.907 0 2.83.312 3.313.843h-6.627c.484-.531 1.407-.843 3.314-.843zm2.724 7.123h.794c-.221.83-.98 1.444-1.88 1.444H25.87a2.374 2.374 0 0 1 2.182-1.444zm-4.655-1.475c-.9 0-1.659-.613-1.88-1.444h.795c.978 0 1.82.596 2.181 1.444h-1.096zm12.625 4.85V25.63h9.82v3.676h-9.82zm1.32-12.677l7.232.052v1.985h-.657v-.88h-1v.88h-1.524v-.88h-1v.88h-1.526v-.88h-1v.88h-.566l.042-2.037zm-1.022 6.778l1.464-1.635c.219-.346.335-.745.335-1.153v-.953h5.627v.953c0 .41.115.808.386 1.22l1.36 1.5c.23.364.35.782.35 1.21v.08h-9.82v-.08c0-.428.12-.846.298-1.142zm-1.41 6.9v3.67H29.21v-3.67h5.698zm12.475.249v17.88a.25.25 0 0 1-.25.25h-30.15a.25.25 0 0 1-.25-.25v-17.88c0-.054.028-.098.057-.138l.026-.043a.245.245 0 0 1 .166-.069h11.227v4.171a.5.5 0 0 0 .5.5h6.698a.5.5 0 0 0 .5-.5v-4.171h11.227c.065 0 .122.028.167.07l.024.04c.03.041.058.085.058.14z" style="fill: #141414;"/><path fill="#00243d" d="M35.409 45.126h7.541v1h-7.541zM35.409 43.099h7.541v1h-7.541zM42.313 27.114h-.88v-.88h-1v.88h-.881v1h.88v.88h1v-.88h.88v-1z" style="fill: #141414;"/></svg>
