<?xml version="1.0" encoding="UTF-8"?>
<svg xmlns="http://www.w3.org/2000/svg" viewBox="0 0 64.111 63.839"><path fill="#00243d" d="M21.628 22.394h1v4.719h-1z" style="fill: #ffffff;"/><path fill="#00243d" d="M53.454 38.74l-5.167-8.668c-.003-.008-.01-.014-.013-.022l-.147-.246-.014.008a1.227 1.227 0 0 0-.977-.507h-2.034l-.007-3.365-.913-5.13h1.254a.5.5 0 0 0 .5-.5v-2.617a.5.5 0 0 0-.5-.5H30.02a.5.5 0 0 0-.5.5v2.617a.5.5 0 0 0 .5.5h1.398l-.92 5.217v3.278H27.95v-8.05c0-.406-.14-.807-.394-1.13l-1.79-2.269v-.615h.467c.37 0 .67-.3.67-.67v-1.088a1.33 1.33 0 0 0-1.329-1.329h-3.788a1.33 1.33 0 0 0-1.329 1.329v1.089c0 .369.3.67.67.67h.501v.616l-1.783 2.286c-.251.322-.389.72-.389 1.123v8.038h-2.472c-.404 0-.748.207-.977.506l-.014-.008-.151.254-.009.014-5.176 8.67.86.512 4.218-7.066v16.249c0 .688.561 1.249 1.25 1.249h30.15a1.25 1.25 0 0 0 1.25-1.25V32.19l4.21 7.062.86-.511zM30.521 18.194h14.415v1.617H39.6a2.112 2.112 0 0 0-1.872-1.151c-.818 0-1.521.47-1.874 1.15H30.52v-1.616zm8.325 2.583a1.119 1.119 0 0 1-2.236 0 1.118 1.118 0 0 1 2.235 0zm-7.356 5.339l.944-5.305h3.18a2.119 2.119 0 0 0 2.115 2.084 2.118 2.118 0 0 0 2.113-2.084h3.325l.936 5.217v3.278h-1.584a5.177 5.177 0 0 0 .405-2.424c-.095-1.154-.58-2.037-1.367-2.487l-.201-.115a3.389 3.389 0 0 0-2.588-.33 3.386 3.386 0 0 0-2.049 1.575 3.388 3.388 0 0 0-2.696.434l-.195.127c-1.312.854-1.888 2.037-1.609 3.22h-.722l-.007-3.19zm3.92 3.19h-2.16l-.003-.017c-.43-1.14.522-1.971 1.126-2.365l.194-.126a2.413 2.413 0 0 1 3.333.705l1.17 1.803h-3.66zm4.852 0l-1.523-2.348a3.37 3.37 0 0 0-1.08-1.036 2.406 2.406 0 0 1 3.2-.774l.202.115c.663.38.827 1.229.866 1.7.063.78-.113 1.642-.463 2.254-.016.028-.02.06-.03.09h-1.172zm-5.353 1v3.671h-5.698v-3.67h5.698zM21.457 15.483c0-.178.15-.329.33-.329h3.787c.178 0 .328.151.328.33v.757h-4.445v-.758zm-1 5.783c0-.182.06-.357.177-.506l1.889-2.423a.501.501 0 0 0 .105-.307v-.789h2.139v.789c0 .112.038.22.107.31l1.897 2.404c.117.15.18.326.18.51v8.051h-6.495v-8.039zm26.928 9.289v17.88a.25.25 0 0 1-.25.25h-30.15a.25.25 0 0 1-.25-.25v-17.88c0-.054.029-.098.057-.138l.026-.043a.245.245 0 0 1 .166-.069h11.227v4.171a.5.5 0 0 0 .5.5h6.698a.5.5 0 0 0 .5-.5v-4.171h11.227c.065 0 .122.028.167.07l.024.04c.03.041.058.085.058.14z" style="fill: #ffffff;"/><path fill="#00243d" d="M35.409 45.126h7.541v1h-7.541zM35.409 43.099h7.541v1h-7.541z" style="fill: #ffffff;"/></svg>
