<?xml version="1.0" encoding="UTF-8"?>
<svg xmlns="http://www.w3.org/2000/svg" viewBox="0 0 64 64"><path fill="#00243f" d="M27.706 22.747l-.465-.885 4.99-2.625v-.969a2.208 2.208 0 1 1 2.704-2.15h-1a1.209 1.209 0 1 0-1.206 1.207.5.5 0 0 1 .5.499l.002 1.714a.499.499 0 0 1-.267.443z" style="fill: #ffffff;"/><path fill="#00243f" d="M41.513 50.41H23.637a.998.998 0 0 1-1-.995l-.026-17.602-4.867.969a1 1 0 0 1-1.125-.607l-2.033-5.037a.999.999 0 0 1 .482-1.262l10.819-5.36a1.023 1.023 0 0 1 .86-.021.957.957 0 0 1 .538.606 5.602 5.602 0 0 0 10.58 0 .957.957 0 0 1 .537-.606 1.027 1.027 0 0 1 .86.02l10.818 5.36a1 1 0 0 1 .483 1.261v.002l-2.034 5.04a1.003 1.003 0 0 1-1.124.605l-4.892-.97v17.602a.998.998 0 0 1-1 .995zM23.609 30.594l.028 18.82 17.876-.004V30.594l6.088 1.208 2.032-5.032-10.815-5.358a6.603 6.603 0 0 1-12.492-.03l-10.814 5.39 2.036 5.03zm26.027-3.829z" style="fill: #ffffff;"/><path fill="#00243f" d="M16.23 25.865l.928-.375 2.547 6.312-.928.375zM45.442 31.802l2.551-6.312.928.375-2.551 6.312z" data-name="STROCKE" style="fill: #ffffff;"/><path fill="#00243f" d="M32.468 19.964l.527-.85 4.695 2.91-.527.85z" style="fill: #ffffff;"/></svg>
