<?xml version="1.0" encoding="UTF-8"?>
<svg xmlns="http://www.w3.org/2000/svg" data-name="Layer 1" viewBox="0 0 64 64"><path fill="#00243d" d="M41.258 38.55a10.482 10.482 0 0 0-14.809-14.808l-1.423-1.423a1.011 1.011 0 0 0-.735-.295.986.986 0 0 0-.71.318A13.503 13.503 0 0 0 33 44.993V47h-4.5a2.003 2.003 0 0 0-2 2v1.5a.5.5 0 0 0 .5.5h13a.5.5 0 0 0 .5-.5V49a2.003 2.003 0 0 0-2-2H34v-2.005a13.439 13.439 0 0 0 8.657-3.575.987.987 0 0 0 .319-.71 1.012 1.012 0 0 0-.295-.736zM39.5 49v1h-12v-1a1 1 0 0 1 1-1h10a1 1 0 0 1 1 1zm-6-27a9.5 9.5 0 1 1-5.388 17.315l1.73-4.324a.998.998 0 0 0-.222-1.078l-2.476-2.476a.998.998 0 0 0-1.262-.126l-1.824 1.216A9.48 9.48 0 0 1 33.5 22zm-9.257 11.605l2.194-1.461 2.477 2.476-1.622 4.055a9.5 9.5 0 0 1-3.049-5.07zm.418 6.734a12.449 12.449 0 0 1-.342-17.313l1.423 1.423a10.482 10.482 0 0 0 14.809 14.809l1.427 1.427a12.458 12.458 0 0 1-17.317-.346z" style="fill: #141414;"/><path fill="#00243d" d="M30.139 30.193l2.412 1.608.879 4.394a1.002 1.002 0 0 0 .98.805h1.2a.999.999 0 0 0 .97-.758l.85-3.397 1.608-.805a.995.995 0 0 0 .502-.578l.837-2.51v-.002a.995.995 0 0 0-.242-1.022L38.5 26.292a.995.995 0 0 0-.707-.293h-5.525a1 1 0 0 0-.832.445l-1.575 2.362a1 1 0 0 0 .278 1.386zM32.268 27h5.525l1.635 1.635-.837 2.51-1.609.805a.997.997 0 0 0-.523.652L35.609 36H34.41l-.879-4.396a1 1 0 0 0-.426-.635l-2.412-1.608z" style="fill: #141414;"/></svg>
