<?xml version="1.0" encoding="UTF-8"?>
<svg xmlns="http://www.w3.org/2000/svg" viewBox="0 0 64 63.7"><path d="M40.5 43.7H19.2c-1.8 0-3.3-1.5-3.3-3.3V19.9c0-1.8 1.5-3.3 3.3-3.3h23.2c1.6 0 2.9 1.7 2.9 3.7v1.6h-1v-1.6c0-1.5-.9-2.7-1.9-2.7H19.2c-1.3 0-2.3 1-2.3 2.3v20.6c0 1.3 1 2.3 2.3 2.3h21.3v.9z" style="fill: #141414;"/><path d="M24.4 29.8h1v6.6h-1zM28.5 26.1h1v10.4h-1zM32.6 21.4h1v15h-1zM48 51h-6.2c-.9 0-1.6-.7-1.6-1.6V36.1h1v13.2c0 .3.3.6.6.6H48c.3 0 .5-.2.5-.5V36.1h1v13.3c.1.9-.6 1.6-1.5 1.6zM46.8 28.7h-3.7c-.7 0-1.2-.4-1.2-1v-4.4c0-.8.6-1.4 1.4-1.4h3.2c.8 0 1.4.6 1.4 1.4v4.5c0 .5-.4.9-1.1.9zm-3.4-5.8c-.2 0-.4.2-.4.4v4.4h4v-4.4c0-.2-.2-.4-.4-.4h-3.2z" style="fill: #141414;"/><path d="M49.4 43.9l-.6-.8 3-2.1c.1-.1.1-.2.1-.3v-6.5c0-.5-.2-.9-.5-1.3-.3-.3-.8-.5-1.3-.5H39.8c-1 0-1.8.8-1.8 1.8v6.5c0 .1.1.2.1.3l2.9 2.1-.6.8-2.9-2.1c-.3-.3-.6-.7-.6-1.1v-6.5c0-1.5 1.3-2.8 2.8-2.8H50c1.5 0 2.8 1.3 2.8 2.8v6.5c0 .4-.2.9-.6 1.1l-2.8 2.1z" style="fill: #141414;"/></svg>
