<?xml version="1.0" encoding="UTF-8"?>
<svg xmlns="http://www.w3.org/2000/svg" data-name="Layer 1" viewBox="0 0 64 64"><path fill="#00243d" d="M48 32h-6.29l-1.98-1.97A3.483 3.483 0 0 0 37.26 29H26.74a3.483 3.483 0 0 0-2.47 1.03L22.29 32H16a1.003 1.003 0 0 0-1 1v9a1.003 1.003 0 0 0 1 1h4.57a1.952 1.952 0 0 0 .52.91l6.5 6.5a1.98 1.98 0 0 0 2.82 0l.88-.87a3.443 3.443 0 0 0 .6-.83l1.7 1.7a1.98 1.98 0 0 0 2.82 0l6.5-6.5a1.973 1.973 0 0 0 .53-.91H48a1.003 1.003 0 0 0 1-1v-9a1.003 1.003 0 0 0-1-1zM21.79 43.21a1.008 1.008 0 0 1 0-1.42l.88-.88a2.492 2.492 0 0 1 3.19-.28l-3.33 3.32zm1.45 1.45l3.35-3.36 1.45 1.45-3.35 3.35zm2.16 2.15l3.35-3.35 1.45 1.45-3.36 3.35zm5.19 2.02l-.88.88a1.008 1.008 0 0 1-1.42 0l-.74-.74 3.32-3.33a2.49 2.49 0 0 1-.28 3.19zm11.62-5.62l-.8.8-2.65-2.65-.71.71 2.65 2.65-1.45 1.44-2.65-2.64-.7.7 2.64 2.65-1.45 1.45-2.64-2.65-.71.71 2.65 2.65-.68.68a1.008 1.008 0 0 1-1.42 0l-2.03-2.04a4.068 4.068 0 0 0 .06-.61 3.482 3.482 0 0 0-1.03-2.47l-4.38-4.38a3.579 3.579 0 0 0-4.95 0l-.87.88a1.952 1.952 0 0 0-.52.91H16v-9h6.29a.99.99 0 0 0 .71-.29l1.97-1.98a2.549 2.549 0 0 1 1.77-.73h2.05l-3.29 3.29a1.008 1.008 0 0 0 0 1.42l.53.52a3.482 3.482 0 0 0 4.94 0l.74-.73h3.2l7.3 7.29a1.008 1.008 0 0 1 0 1.42zM48 42h-4.56a1.973 1.973 0 0 0-.53-.91l-7.29-7.3a.99.99 0 0 0-.71-.29h-3.2a.99.99 0 0 0-.71.29l-.73.74a2.517 2.517 0 0 1-3.54 0l-.52-.53 4-4h7.05a2.549 2.549 0 0 1 1.77.73L41 32.71a.99.99 0 0 0 .71.29H48z" style="fill: #141414;"/></svg>
