<?xml version="1.0" encoding="UTF-8"?>
<svg xmlns="http://www.w3.org/2000/svg" viewBox="0 0 64.111 63.839"><path fill="#00243d" d="M11.806 34.486a.5.5 0 0 0-.5.5v.585a.5.5 0 1 0 1 0v-.585a.5.5 0 0 0-.5-.5zM11.806 33.733a.5.5 0 0 0 .5-.5v-.585a.5.5 0 1 0-1 0v.585a.5.5 0 0 0 .5.5zM13.238 33.623h-.614a.5.5 0 1 0 0 1h.614a.5.5 0 1 0 0-1zM11.517 34.123a.5.5 0 0 0-.5-.5h-.636a.5.5 0 1 0 0 1h.636a.5.5 0 0 0 .5-.5zM36.06 15.473a.5.5 0 0 0-.5.5v.585a.5.5 0 1 0 1 0v-.585a.5.5 0 0 0-.5-.5zM36.06 14.72a.5.5 0 0 0 .5-.5v-.584a.5.5 0 1 0-1 0v.585a.5.5 0 0 0 .5.5zM36.379 15.11a.5.5 0 0 0 .5.5h.614a.5.5 0 1 0 0-1h-.614a.5.5 0 0 0-.5.5zM34.636 15.61h.636a.5.5 0 1 0 0-1h-.636a.5.5 0 1 0 0 1zM46.905 19.65a.5.5 0 0 0-.5.5v.585a.5.5 0 1 0 1 0v-.585a.5.5 0 0 0-.5-.5zM46.905 18.897a.5.5 0 0 0 .5-.5v-.585a.5.5 0 1 0-1 0v.585a.5.5 0 0 0 .5.5zM47.224 19.287a.5.5 0 0 0 .5.5h.613a.5.5 0 1 0 0-1h-.613a.5.5 0 0 0-.5.5zM45.48 19.787h.636a.5.5 0 1 0 0-1h-.636a.5.5 0 1 0 0 1zM33.468 30.672h-4.196a1.01 1.01 0 0 0-1.01 1.01v5.078c0 .556.454 1.009 1.01 1.009h4.196a1.01 1.01 0 0 0 1.01-1.01v-5.078a1.01 1.01 0 0 0-1.01-1.009zm.01 6.088c0 .004-.003.009-.01.009l-4.205-.01.01-5.087 4.205.01v5.078zM19.89 28.571h3.755a.957.957 0 0 0 .956-.955V23.07a.957.957 0 0 0-.956-.956H19.89a.957.957 0 0 0-.956.956v4.545c0 .526.428.955.956.955zm3.71-5.5v4.5l-3.666.045-.044-4.5 3.71-.045zM39.37 28.571h3.755a.957.957 0 0 0 .955-.955V23.07a.957.957 0 0 0-.955-.956h-3.756a.957.957 0 0 0-.956.956v4.545c0 .526.429.955.956.955zm3.71-5.5v4.5l-3.667.045-.044-4.5 3.711-.045z" style="fill: #141414;"/><path fill="#00243d" d="M51.691 23.49l-1.127-.861a1.173 1.173 0 0 0-1.649.22l-4.724 6.186a.883.883 0 0 1-.368.1l-5.357-.006a.173.173 0 0 1-.14-.07l-4.748-6.21a1.178 1.178 0 0 0-1.65-.22l-.391.3-.392-.3a1.173 1.173 0 0 0-1.65.22l-4.752 6.216a.178.178 0 0 1-.14.07l-5.557-.006a.173.173 0 0 1-.14-.07l-4.748-6.21a1.178 1.178 0 0 0-1.65-.22l-1.125.86a1.18 1.18 0 0 0-.22 1.65l5.36 7.012c.023.031.036.069.036.108v7.38c0 .65.528 1.177 1.176 1.177h7.008l.746.976.001.002a.25.25 0 0 1 .053.154v8.247c0 .692.563 1.256 1.256 1.256h8.889c.693 0 1.256-.564 1.256-1.256v-7.913l1.109-1.466h7.058c.649 0 1.177-.528 1.177-1.177v-7.081l5.624-7.42c.19-.249.273-.558.23-.87a1.167 1.167 0 0 0-.45-.778zM35.98 36.71l-1.303 1.704a.254.254 0 0 1-.203.101h-.001l-6.21-.005a.255.255 0 0 1-.201-.101l-1.275-1.667v-4.394c0-.063.022-.124.063-.173l4.667-5.788 2.056 2.746 2.37 3.018c.024.031.037.07.037.108v4.451zm-18.244 3.106a.177.177 0 0 1-.176-.177v-7.38c0-.257-.086-.51-.242-.715l-5.36-7.012a.178.178 0 0 1 .033-.248l1.126-.861c.08-.06.19-.043.248.033l4.747 6.211c.221.29.57.462.935.462l5.557.005c.364 0 .714-.173.935-.462l4.752-6.216a.174.174 0 0 1 .117-.067.168.168 0 0 1 .13.034l.194.149c-.439.406-.52 1.081-.152 1.563l.32.428-3.29 4.13-1.529 1.842c-.19.227-.294.516-.294.813v3.086l-3.031-3.965a1.259 1.259 0 0 0-1.76-.235l-1.259.962c-.266.204-.437.5-.482.832s.043.662.247.929l4.478 5.86h-6.244zm18.207 2.05l.002 8.329a.257.257 0 0 1-.256.256h-8.89a.256.256 0 0 1-.255-.256v-8.247c0-.275-.093-.547-.26-.765l-5.987-7.834a.254.254 0 0 1 .048-.358l1.259-.963a.256.256 0 0 1 .358.049l5.305 6.939c.235.31.608.494.997.494l6.208.005h.003c.387 0 .76-.184.997-.493l5.307-6.945a.257.257 0 0 1 .36-.048l1.26.962a.257.257 0 0 1 .047.359l-6.503 8.516zm15.175-17.334l-5.83 7.636.001 7.471c0 .098-.079.177-.177.177H38.81l4.431-5.86a1.26 1.26 0 0 0-.235-1.76l-1.26-.962a1.26 1.26 0 0 0-1.76.235l-3.006 3.933v-3.143c0-.257-.086-.51-.246-.72l-2.367-3.015-2.989-3.992a.178.178 0 0 1 .033-.248l1.126-.861a.178.178 0 0 1 .248.033l4.747 6.211c.221.29.57.462.935.462l5.357.005c.202 0 .845-.084 1.136-.462l4.751-6.216a.174.174 0 0 1 .117-.067.168.168 0 0 1 .13.034l1.127.862c.066.05.084.18.033.247z" style="fill: #141414;"/></svg>
