<?xml version="1.0" encoding="UTF-8"?>
<svg xmlns="http://www.w3.org/2000/svg" viewBox="0 0 64.111 63.839"><path fill="#00243d" d="M11.896 36.138a.5.5 0 0 0-.5.5v.636a.5.5 0 1 0 1 0v-.636a.5.5 0 0 0-.5-.5zM11.896 35.234a.5.5 0 0 0 .5-.5V34.1a.5.5 0 1 0-1 0v.635a.5.5 0 0 0 .5.5zM13.452 35.201h-.667a.5.5 0 1 0 0 1h.667a.5.5 0 1 0 0-1zM11.039 35.201h-.69a.5.5 0 1 0 0 1h.69a.5.5 0 1 0 0-1zM50.438 29.516a.5.5 0 0 0-.5.5v.635a.5.5 0 1 0 1 0v-.635a.5.5 0 0 0-.5-.5zM50.438 28.612a.5.5 0 0 0 .5-.5v-.635a.5.5 0 1 0-1 0v.635a.5.5 0 0 0 .5.5zM51.994 28.58h-.667a.5.5 0 1 0 0 1h.667a.5.5 0 1 0 0-1zM49.58 28.58h-.689a.5.5 0 1 0 0 1h.69a.5.5 0 1 0 0-1zM25.015 19.746a.5.5 0 0 0-.5.5v.635a.5.5 0 1 0 1 0v-.635a.5.5 0 0 0-.5-.5zM25.015 18.842a.5.5 0 0 0 .5-.5v-.635a.5.5 0 1 0-1 0v.635a.5.5 0 0 0 .5.5zM25.903 19.809h.667a.5.5 0 1 0 0-1h-.667a.5.5 0 1 0 0 1zM23.467 19.809h.69a.5.5 0 1 0 0-1h-.69a.5.5 0 1 0 0 1zM29.316 36.187h4.558c.58 0 1.053-.473 1.053-1.054v-5.516c0-.58-.472-1.052-1.053-1.052h-4.558c-.58 0-1.053.472-1.053 1.052v5.516c0 .581.472 1.054 1.053 1.054zm0-6.622l4.611.052v5.516c0 .03-.024.054-.053.054l-4.611-.054.053-5.568z" style="fill: #ffffff;"/><path fill="#00243d" d="M42.838 29.165a1.324 1.324 0 0 0-1.852.248l-5.766 7.544a.322.322 0 0 1-.256.126l-6.744-.006a.32.32 0 0 1-.254-.126l-5.762-7.538a1.324 1.324 0 0 0-1.852-.248l-1.367 1.045c-.28.215-.46.525-.507.875-.047.35.045.697.26.978l6.504 8.51a.32.32 0 0 1 .067.196v8.957c0 .728.592 1.321 1.32 1.321h9.656c.728 0 1.32-.593 1.32-1.321V41.03l6.848-8.967c.442-.58.331-1.41-.247-1.852l-1.368-1.046zm.82 2.29l-7.053 9.237v9.034a.322.322 0 0 1-.32.321h-9.656a.322.322 0 0 1-.32-.321v-8.957a1.33 1.33 0 0 0-.271-.802l-6.506-8.512a.32.32 0 0 1 .06-.45l1.367-1.045a.319.319 0 0 1 .45.06l5.762 7.539c.248.324.64.518 1.048.518l6.745.006c.41 0 .802-.194 1.05-.518l5.767-7.544a.32.32 0 0 1 .45-.06l1.367 1.045a.32.32 0 0 1 .06.45zM45.516 12.792H33.322c-.575 0-1.044.469-1.044 1.044v8.774c0 .58.469 1.053 1.044 1.053l2.779.05v2.937c0 .579.47 1.05 1.049 1.05h1.658c.312 0 .605-.14.804-.38l3.04-3.657h2.864a1.05 1.05 0 0 0 1.044-1.053v-8.764a1.05 1.05 0 0 0-1.044-1.054zm0 9.871h-2.864c-.314 0-.61.14-.81.382l-3.034 3.654-1.707-.05v-2.936a1.05 1.05 0 0 0-1.05-1.049l-2.773-.054.044-8.818 12.238.054-.044 8.817z" style="fill: #ffffff;"/><path fill="#00243d" d="M37.312 19.087c.017.02.035.077.035.094l-.254 1.478c-.047.273.045.522.244.666a.61.61 0 0 0 .36.117c.115 0 .234-.03.348-.091l1.319-.695a.26.26 0 0 1 .101-.004l1.328.699c.244.129.51.119.708-.026.2-.144.29-.393.244-.665l-.253-1.471a.237.237 0 0 1 .028-.096l1.074-1.048c.197-.192.27-.446.195-.68-.076-.234-.284-.397-.559-.438l-1.477-.214a.246.246 0 0 1-.082-.057l-.664-1.343a.651.651 0 0 0-1.176-.001l-.66 1.337a.246.246 0 0 1-.08.062l-1.485.217c-.273.04-.481.203-.557.436-.075.235-.003.489.195.682l1.068 1.041zm.922-1.386c.336-.048.678-.295.83-.601l.355-.72.355.72c.152.305.493.553.829.601l.793.116-.574.56a1.156 1.156 0 0 0-.316.973l.135.79-.712-.373c-.15-.078-.33-.117-.51-.117s-.36.039-.512.118l-.71.373.135-.79a1.162 1.162 0 0 0-.316-.975l-.575-.56.793-.115z" style="fill: #ffffff;"/></svg>
