<?xml version="1.0" encoding="UTF-8"?>
<svg xmlns="http://www.w3.org/2000/svg" data-name="Layer 1" viewBox="0 0 64 64"><path fill="#00243d" d="M43.5 30H43v-2.45a3.453 3.453 0 0 0-.77-2.18l-2.44-3.06A3.49 3.49 0 0 0 37.06 21H26.94a3.49 3.49 0 0 0-2.73 1.31l-2.44 3.06a3.453 3.453 0 0 0-.77 2.18V30h-.5a2.5 2.5 0 0 0-2.5 2.5v7a2.5 2.5 0 0 0 2.5 2.5h.5v.95a3.453 3.453 0 0 0 .77 2.18l2.44 3.06a3.49 3.49 0 0 0 2.73 1.31h1.56v.5a1.003 1.003 0 0 0 1 1H35a1.003 1.003 0 0 0 1-1v-2a1.003 1.003 0 0 0-1-1h-5.5a1.003 1.003 0 0 0-1 1v.5h-1.56a2.483 2.483 0 0 1-1.95-.94l-2.44-3.05a2.475 2.475 0 0 1-.55-1.56V42h2a1.003 1.003 0 0 0 1-1V31a1.003 1.003 0 0 0-1-1h-2v-2.45a2.475 2.475 0 0 1 .55-1.56l2.44-3.05a2.483 2.483 0 0 1 1.95-.94H27v2a1.003 1.003 0 0 0 1 1h8a1.003 1.003 0 0 0 1-1v-2h.06a2.483 2.483 0 0 1 1.95.94l2.44 3.05a2.475 2.475 0 0 1 .55 1.56V30h-2a1.003 1.003 0 0 0-1 1v10a1.003 1.003 0 0 0 1 1h3.5a2.5 2.5 0 0 0 2.5-2.5v-7a2.5 2.5 0 0 0-2.5-2.5zm-14 18H35v2h-5.5zM24 31v2h-2v1h2v1.5h-2v1h2V38h-2v1h2v2h-3.5a1.498 1.498 0 0 1-1.5-1.5v-7a1.498 1.498 0 0 1 1.5-1.5zm12-7h-8v-2h8zm9 15.5a1.498 1.498 0 0 1-1.5 1.5H40v-2h2v-1h-2v-1.5h2v-1h-2V34h2v-1h-2v-2h3.5a1.498 1.498 0 0 1 1.5 1.5z" style="fill: #141414;"/></svg>
