<?xml version="1.0" encoding="UTF-8"?>
<svg xmlns="http://www.w3.org/2000/svg" viewBox="0 0 64 64"><path fill="#00243d" d="M44.742 36.624H19.258a1.486 1.486 0 0 1-1.485-1.484v-2c0-.818.666-1.484 1.485-1.484h2.05a11 11 0 0 1-.107-1.537c0-3.812 1.615-7.006 4.549-8.994a.52.52 0 0 1 .627.033.5.5 0 0 1-.084.807c-2.637 1.792-4.092 4.689-4.092 8.154 0 .448.03.9.09 1.344l.201.51a.5.5 0 0 1-.465.683h-2.77a.485.485 0 0 0-.484.485v1.999c0 .266.218.484.485.484h25.484a.486.486 0 0 0 .485-.484v-2a.485.485 0 0 0-.485-.484h-2.77a.5.5 0 0 1-.464-.684l.201-.509c.06-.444.09-.896.09-1.344 0-3.463-1.453-6.358-4.093-8.154a.5.5 0 0 1-.083-.807c.168-.15.43-.16.621-.036 2.94 1.991 4.555 5.185 4.555 8.997 0 .512-.036 1.03-.107 1.537h2.05c.819 0 1.485.666 1.485 1.485v1.999c0 .818-.666 1.484-1.485 1.484" style="fill: #ffffff;"/><path fill="#00243d" d="M32.886 32.879c-4.312 0-8.149-.516-8.39-.549l.137-.991c.087.013 8.852 1.19 14.703.005l.2.98c-2.056.416-4.417.555-6.65.555" style="fill: #ffffff;"/><g fill="#00243d"><path d="M29.037 28.657c-.017-.321-.45-10.674-.468-11.114a.5.5 0 0 1 .5-.521h5.862a.5.5 0 0 1 .5.521l-.467 11.11-1-.042.445-10.589h-4.818c.09 2.16.43 10.306.444 10.58z" style="fill: #ffffff;"/><path d="m26.322 26.66-1.143-7.484a.5.5 0 0 1 .342-.552l3.416-1.093.304.952-3.01.963 1.08 7.062zM37.678 26.66l-.989-.152 1.08-7.062-3.01-.963.304-.952 3.416 1.093a.5.5 0 0 1 .342.552z" style="fill: #ffffff;"/></g><path fill="#00243d" d="M37.595 46.979h-11.19a5.09 5.09 0 0 1-5.086-5.087v-5.768h1v5.768a4.09 4.09 0 0 0 4.086 4.087h11.19a4.09 4.09 0 0 0 4.086-4.087v-5.768h1v5.768a5.09 5.09 0 0 1-5.086 5.087" style="fill: #ffffff;"/></svg>
