<?xml version="1.0" encoding="UTF-8"?>
<svg xmlns="http://www.w3.org/2000/svg" viewBox="0 0 64 64"><path fill="#00243d" d="M48.346 33.423a3.87 3.87 0 0 0-2.646-1.378l-.323-.028v-3.353c.01-1.797-1.332-3.225-1.36-3.25l-2.53-3.187c-.057-.087-1.401-2.152-4.006-2.092h-.26v-.268c0-.707-.576-1.282-1.282-1.282h-7.912c-.688 0-1.248.56-1.248 1.248v.307h-.307c-2.582-.065-3.91 2.046-3.932 2.087l-2.527 3.189c-.057.06-1.4 1.487-1.39 3.282v3.319l-.323.028a3.903 3.903 0 0 0-3.544 4.224l.489 5.587a3.87 3.87 0 0 0 1.378 2.647 3.87 3.87 0 0 0 2.845.897l2.59-.226a1.446 1.446 0 0 0 1.313-1.565l-.917-10.477a1.44 1.44 0 0 0-1.564-1.313l-1.267.11v-3.234c-.007-1.388 1.103-2.578 1.143-2.623l2.592-3.272c.01-.018 1.044-1.66 3.045-1.66h.376v.137c0 .775.631 1.406 1.407 1.406h7.653c.761 0 1.381-.62 1.381-1.382v-.166h.268c2.064-.043 3.118 1.573 3.188 1.676l2.587 3.259c.012.011 1.121 1.191 1.114 2.59v3.27l-1.266-.111c-.8-.071-1.495.52-1.565 1.313l-.916 10.477c-.035.384.084.758.332 1.054.248.295.596.477.98.51l2.589.227q.173.015.344.015a3.904 3.904 0 0 0 3.88-3.56l.489-5.586a3.87 3.87 0 0 0-.898-2.846m-27.37-.608.04-.002c.227 0 .422.175.442.406l.917 10.477a.445.445 0 0 1-.404.481l-2.59.227a2.9 2.9 0 0 1-3.14-2.635l-.489-5.587a2.9 2.9 0 0 1 2.635-3.14zM36.22 21.3c0 .211-.17.382-.381.382h-7.653a.407.407 0 0 1-.407-.406v-1.444c0-.137.111-.248.248-.248h7.912c.155 0 .281.127.281.282zm11.54 20.467a2.9 2.9 0 0 1-3.141 2.636l-2.59-.227a.445.445 0 0 1-.403-.481l.916-10.477a.445.445 0 0 1 .481-.404l2.589.226c.771.068 1.47.431 1.969 1.025s.734 1.344.667 2.116z" style="fill: #ffffff;"/></svg>
