<?xml version="1.0" encoding="UTF-8"?>
<svg xmlns="http://www.w3.org/2000/svg" viewBox="0 0 64 64"><g fill="#00243f" data-name="house BL"><path d="M33.613 51.157h-8.564a2.7 2.7 0 0 1-2.703-2.693V26.633a2.706 2.706 0 0 1 2.703-2.703h2.679v1h-2.68a1.704 1.704 0 0 0-1.702 1.703v21.83a1.7 1.7 0 0 0 1.703 1.694h8.564zM41.65 43.379h-1V26.633a1.704 1.704 0 0 0-1.702-1.703h-2.706v-1h2.706a2.706 2.706 0 0 1 2.703 2.703z" style="fill: #141414;"/><path d="M35.638 26.241h-7.279a1.12 1.12 0 0 1-1.118-1.119v-1.39a1.12 1.12 0 0 1 1.12-1.119h7.277a1.12 1.12 0 0 1 1.118 1.118v1.391a1.12 1.12 0 0 1-1.118 1.12zm-7.278-2.628a.12.12 0 0 0-.119.12v1.39a.12.12 0 0 0 .118.118h7.279a.12.12 0 0 0 .118-.119v-1.39a.118.118 0 0 0-.118-.119zM37.873 49.588h-.61a.7.7 0 0 1-.559-.28l-1.307-1.756.802-.598 1.216 1.634h.289l2.045-3.332.853.523-2.134 3.476a.699.699 0 0 1-.595.333zm-.257-.858l-.004.006z" style="fill: #141414;"/><path d="M37.986 53.478a5.78 5.78 0 1 1 4.088-9.866 5.778 5.778 0 0 1-4.088 9.866zm0-10.557a4.779 4.779 0 1 0 3.381 1.398 4.768 4.768 0 0 0-3.38-1.398zM32.461 33.772h5.683v1h-5.683zM25.853 37.5h12.29v1h-12.29zM25.853 41.857h5.683v1h-5.683zM28.415 30.807a1.284 1.284 0 0 1-.913-.377 1.29 1.29 0 0 1 0-1.827 1.321 1.321 0 0 1 1.827 0 1.29 1.29 0 0 1-.914 2.204zm-.206-1.084a.291.291 0 0 0 .497-.206.29.29 0 0 0-.085-.206.296.296 0 0 0-.412 0 .286.286 0 0 0-.086.206.291.291 0 0 0 .086.206zM28.42 35.731a2.763 2.763 0 0 1-2.726-2.292l.986-.17a1.766 1.766 0 0 0 3.473.036l.981.191a2.762 2.762 0 0 1-2.715 2.235zM27.178 31.825h2.475v1h-2.475z" style="fill: #141414;"/><path d="M27.915 30.361h1v4.871h-1z" style="fill: #141414;"/></g></svg>
