<?xml version="1.0" encoding="UTF-8"?>
<svg xmlns="http://www.w3.org/2000/svg" viewBox="0 0 64 63.9"><g fill-rule="evenodd" clip-rule="evenodd"><path d="M31.022 32.154c-.573 0-1.04.467-1.04 1.041v2.713c0 .446.398.796.907.796h2.254c.49 0 .876-.34.876-.773v-2.739a1.04 1.04 0 0 0-1.039-1.038h-1.958zm-.037 3.55l.037-2.55h1.958l.039 2.55h-2.034zM35.147 38.162h-6.296a1.91 1.91 0 0 0-1.907 1.907v3.94c0 .326.158.635.424.828l1.54 1.111v3.316c0 .652.531 1.183 1.184 1.183h3.786c.624 0 1.13-.507 1.13-1.13v-3.363l1.606-1.111c.277-.19.442-.505.442-.842v-3.93a1.91 1.91 0 0 0-1.909-1.909zm.899 5.858l-1.037.718v-3.524h-1v8.102c0 .072-.06.131-.131.131h-3.786a.186.186 0 0 1-.184-.183v-8.05h-1v3.496l-.964-.701v-3.94c0-.5.407-.907.907-.907h6.296c.501 0 .909.407.909.908l-.01 3.95zM41.751 33.389h2.253c.491 0 .876-.34.876-.773v-2.739a1.04 1.04 0 0 0-1.038-1.038h-1.957c-.574 0-1.041.467-1.041 1.041v2.713c0 .447.398.796.907.796zm.134-3.55h1.957l.038 2.55h-2.033l.038-2.55zM46.009 34.847h-6.296a1.91 1.91 0 0 0-1.907 1.907v3.94c0 .327.158.637.423.827l1.542 1.111v3.317c0 .653.53 1.184 1.183 1.184h3.785c.624 0 1.132-.508 1.132-1.132v-3.362l1.607-1.112c.275-.192.44-.507.44-.841v-3.93c0-1.053-.856-1.91-1.91-1.91zm.898 5.859l-1.036.717v-3.525h-1v8.103c0 .071-.06.132-.132.132h-3.785a.186.186 0 0 1-.183-.184V37.9h-1v3.497l-.965-.702v-3.94c0-.5.407-.907.907-.907h6.296a.91.91 0 0 1 .909.909l-.01 3.95zM20.027 33.564h2.253c.492 0 .877-.34.877-.773v-2.739a1.04 1.04 0 0 0-1.039-1.038h-1.957c-.574 0-1.04.467-1.04 1.041v2.714c0 .446.398.795.906.795zm.134-3.55h1.957l.039 2.55h-2.034l.038-2.55zM24.286 35.021h-6.297a1.91 1.91 0 0 0-1.906 1.908v3.94c0 .327.158.637.423.827l1.54 1.111v3.317c0 .652.532 1.184 1.184 1.184h3.786c.624 0 1.131-.508 1.131-1.132v-3.362l1.607-1.112c.276-.192.44-.507.44-.842v-3.93c0-1.052-.856-1.909-1.908-1.909zm.898 5.86l-1.037.717v-3.525h-1v8.103c0 .071-.06.132-.131.132H19.23a.186.186 0 0 1-.183-.184v-8.05h-1v3.496l-.964-.7v-3.941c0-.5.406-.908.906-.908h6.297a.91.91 0 0 1 .908.91l-.01 3.95zM32 27.47c3.864 0 7.009-3.144 7.009-7.009S35.864 13.452 32 13.452c-3.865 0-7.01 3.145-7.01 7.01S28.136 27.47 32 27.47zm0-13.018c3.313 0 6.009 2.696 6.009 6.01S35.313 26.47 32 26.47s-6.01-2.696-6.01-6.01 2.697-6.009 6.01-6.009z" style="fill: #141414;"/><path d="M34.574 24.233l.74-.74-2.983-2.983v-3.442h-1.046v3.442c0 .278.11.544.307.74l2.982 2.983z" style="fill: #141414;"/></g></svg>
