<?xml version="1.0" encoding="UTF-8"?>
<svg xmlns="http://www.w3.org/2000/svg" viewBox="0 0 64.1 64.1"><path d="M45.629 19.68H24.67c-1.384 0-2.51 1.467-2.51 3.27v.446h-1.008c-.696 0-1.263.566-1.263 1.262v3.826c0 .515.472.917 1.074.917h3.178c.577 0 1.03-.388 1.03-.885v-3.862a1.26 1.26 0 0 0-1.259-1.258h-.752v-.446c0-1.23.692-2.27 1.51-2.27H45.63c1.028 0 1.864.836 1.864 1.864v17.547a1.866 1.866 0 0 1-1.864 1.865h-19.06v-5.827h7.317c.745 0 1.35-.605 1.35-1.35v-1.897c0-.745-.605-1.35-1.35-1.35H18.09a2.487 2.487 0 0 0-2.484 2.483v5.557c0 .395.192.77.513 1l2.257 1.629v4.78c0 .808.657 1.465 1.465 1.465h5.338c.766 0 1.39-.624 1.39-1.39v-4.1h19.06a2.868 2.868 0 0 0 2.864-2.865V22.544a2.868 2.868 0 0 0-2.864-2.864zm-21.457 4.974v3.751a.035.035 0 0 0-.02-.004H20.964a.266.266 0 0 1-.074-.01v-3.733c0-.145.118-.262.263-.262h2.76a.26.26 0 0 1 .259.258zm1.897 10.475a.5.5 0 0 0-.5.5v11.426c0 .212-.179.39-.39.39H19.84a.466.466 0 0 1-.465-.464V35.629h-1v5.338l-1.673-1.207a.232.232 0 0 1-.097-.188v-5.557c0-.818.666-1.483 1.484-1.483h15.796a.35.35 0 0 1 .35.35v1.897a.35.35 0 0 1-.35.35h-7.817z" style="fill: #141414;"/><path d="M30.677 25.898h10.71v1h-10.71zM30.677 29.762h10.71v1h-10.71zM36.983 33.625h4.435v1h-4.435z" style="fill: #141414;"/></svg>
