<?xml version="1.0" encoding="UTF-8"?>
<svg xmlns="http://www.w3.org/2000/svg" viewBox="0 0 64.111 63.839"><path fill="#00243d" d="M28.476 32.571h6.872l.893-2.254c.45-1.136 1.032-2.2 1.767-3.448a7.06 7.06 0 0 0-1.522-8.967 7.115 7.115 0 0 0-5.778-1.577 7.029 7.029 0 0 0-5.716 5.528 7.115 7.115 0 0 0 .771 4.913c.727 1.281 1.423 2.54 1.946 3.863l.767 1.942zm-1.843-6.3a6.112 6.112 0 0 1-.66-4.221 6.025 6.025 0 0 1 4.899-4.738 6.118 6.118 0 0 1 4.967 1.353 6.056 6.056 0 0 1 1.308 7.696c-.759 1.289-1.361 2.391-1.836 3.588l-.643 1.622h-5.512l-.517-1.31c-.547-1.382-1.26-2.675-2.006-3.99z" style="fill: #ffffff;"/><path fill="#00243d" d="M29.584 20.518c.856-.846 2.005-.868 2.123-.86h.01l-.002-1c-.259.018-1.716.045-2.834 1.148-.874.863-1.322 2.13-1.33 3.763l1 .006c.007-1.36.354-2.387 1.033-3.057zM29.799 26.774c-.63-.676-1.085-1.674-1.09-1.685l-.912.411c.022.047.526 1.157 1.27 1.955l.732-.681zM31.324 13.233h1v1.701h-1zM22.394 19.233l.5-.866 1.473.851-.5.865zM22.626 29.1l1.473-.85.5.865-1.473.85zM39.743 28.714l.5-.865 1.474.852-.5.864zM39.512 18.816l1.473-.85.5.864-1.473.851zM28.843 33.539h5.977v1h-5.977zM29.433 35.567h5.072v1h-5.072zM37.38 43.277l-.717-.144a4.877 4.877 0 0 0-.147-.355l.406-.609a1.182 1.182 0 0 0-.147-1.487l-.568-.569a1.184 1.184 0 0 0-1.487-.146l-.61.406a5.744 5.744 0 0 0-.354-.146l-.143-.717c-.11-.55-.596-.95-1.157-.95h-.801c-.561 0-1.048.4-1.156.949l-.145.718c-.12.045-.237.093-.354.146l-.61-.406a1.183 1.183 0 0 0-1.487.147l-.567.567a1.182 1.182 0 0 0-.147 1.488l.406.61a4.878 4.878 0 0 0-.147.354l-.719.144c-.548.11-.947.596-.947 1.156v.801c0 .56.399 1.046.948 1.157l.718.143c.045.12.093.239.147.355l-.407.61a1.183 1.183 0 0 0 .148 1.487l.569.57a1.182 1.182 0 0 0 1.486.144l.609-.406c.116.054.235.103.355.148l.144.716c.108.55.595.95 1.156.95h.801c.56 0 1.047-.4 1.157-.95l.143-.716a5.11 5.11 0 0 0 .355-.148l.608.405c.465.312 1.09.25 1.489-.146l.566-.566a1.183 1.183 0 0 0 .148-1.489l-.406-.61c.053-.115.102-.234.147-.354l.718-.143c.55-.11.948-.597.948-1.157v-.801c0-.56-.399-1.045-.948-1.156zm-.051 1.957c0 .084-.062.16-.144.176l-1.297.26-.086.287a3.94 3.94 0 0 1-.303.73l-.143.265.733 1.1a.18.18 0 0 1-.022.227l-.566.566a.182.182 0 0 1-.226.023l-1.101-.734-.265.143a3.858 3.858 0 0 1-.729.302l-.288.086-.26 1.298a.18.18 0 0 1-.176.145h-.801a.18.18 0 0 1-.176-.146l-.26-1.297-.288-.086a3.859 3.859 0 0 1-.729-.302l-.265-.143-1.103.735a.18.18 0 0 1-.224-.022l-.568-.568a.184.184 0 0 1-.022-.226l.735-1.1-.143-.265a3.94 3.94 0 0 1-.303-.73l-.086-.289-1.297-.259a.182.182 0 0 1-.144-.176v-.801c0-.083.062-.158.144-.175l1.296-.26.087-.287c.076-.254.178-.5.303-.731l.142-.265-.733-1.1a.18.18 0 0 1 .022-.227l.566-.566c.06-.06.158-.07.227-.023l1.1.734.265-.142c.232-.125.478-.228.731-.304l.287-.086.26-1.296a.18.18 0 0 1 .176-.144h.801c.085 0 .16.06.176.144l.26 1.296.287.086c.253.076.499.179.731.304l.265.142 1.099-.733a.18.18 0 0 1 .226.021l.568.568c.059.06.069.156.022.225l-.734 1.1.143.266c.125.231.227.477.303.731l.087.287 1.295.26c.084.017.145.09.145.175v.801z" style="fill: #ffffff;"/><path fill="#00243d" d="M32.056 41.51c-1.833 0-3.324 1.492-3.324 3.324s1.491 3.323 3.324 3.323 3.323-1.49 3.323-3.323-1.49-3.323-3.323-3.323zm0 5.647c-1.282 0-2.324-1.042-2.324-2.323s1.042-2.323 2.324-2.323 2.323 1.042 2.323 2.323-1.042 2.323-2.323 2.323zM40.447 39.302a.93.93 0 0 0 .128-.008l2.537-.278-.11-.994-2.471.253 1.788-1.789c.441-.44.684-1.026.684-1.65v-2.954h-1v2.954c0 .352-.142.695-.39.943l-1.803 1.803.272-2.48-.994-.11-.279 2.543c-.02.21.019.42.086.538.044.11.116.217.216.317l.603.602c.2.201.464.31.733.31zM24.029 35.102l.252 2.46-1.782-1.783a1.341 1.341 0 0 1-.391-.943v-2.954h-1v2.954c0 .624.243 1.21.683 1.65l1.809 1.809-2.492-.273-.109.994 2.528.277a1.035 1.035 0 0 0 .869-.3L25 38.39c.1-.1.172-.206.193-.266.091-.172.13-.382.108-.595l-.278-2.537-.994.11z" style="fill: #ffffff;"/><path fill="#00243d" d="M24.438 43.597l-1.514-1.634-.734.68 1.368 1.466a10.208 10.208 0 0 1-2.712-.91 10.21 10.21 0 0 1-3.049-2.345 10.202 10.202 0 0 1-2.582-7.424 10.202 10.202 0 0 1 3.423-7.075 10.237 10.237 0 0 1 5.088-2.452l-.169-.986a11.232 11.232 0 0 0-5.584 2.692 11.194 11.194 0 0 0-3.757 7.763 11.195 11.195 0 0 0 2.834 8.146 11.207 11.207 0 0 0 3.346 2.574c.954.48 1.966.811 3.014 1.005l-1.734 1.013.505.864 1.918-1.121a.971.971 0 0 0 .482-.707l.11-.74a.806.806 0 0 0-.004-.304.968.968 0 0 0-.249-.505zM49.895 33.372a11.194 11.194 0 0 0-3.757-7.763 11.233 11.233 0 0 0-5.584-2.692l-.17.986c1.89.323 3.65 1.171 5.089 2.452a10.202 10.202 0 0 1 3.423 7.075 10.202 10.202 0 0 1-2.583 7.424 10.206 10.206 0 0 1-3.049 2.345c-.854.43-1.76.73-2.7.908l1.356-1.464-.733-.68-1.518 1.638a.91.91 0 0 0-.234.448.897.897 0 0 0-.015.36l.11.737c.045.3.22.558.477.704l1.923 1.124.505-.864-1.745-1.012a11.201 11.201 0 0 0 3.024-1.006 11.203 11.203 0 0 0 3.347-2.574 11.195 11.195 0 0 0 2.833-8.146z" style="fill: #ffffff;"/></svg>
