<?xml version="1.0" encoding="UTF-8"?>
<svg xmlns="http://www.w3.org/2000/svg" viewBox="0 0 64.2 64.4"><path d="M32.11 40.802c-4.894 0-8.875-3.982-8.875-8.874 0-4.893 3.981-8.874 8.874-8.874 4.893 0 8.874 3.98 8.874 8.874 0 4.892-3.981 8.874-8.874 8.874zm0-16.79c-4.365 0-7.916 3.551-7.916 7.916s3.551 7.915 7.915 7.915 7.915-3.551 7.915-7.915-3.55-7.915-7.915-7.915zM32.11 19.524a2.783 2.783 0 0 1-2.78-2.78 2.783 2.783 0 0 1 2.78-2.78 2.783 2.783 0 0 1 2.779 2.78 2.783 2.783 0 0 1-2.78 2.78zm0-4.6c-1.005 0-1.821.816-1.821 1.82s.816 1.82 1.82 1.82 1.82-.816 1.82-1.82-.816-1.82-1.82-1.82z" style="fill: #141414;"/><path d="M31.611 18.7h.959v4.866h-.959zM32.09 50.436a2.783 2.783 0 0 1-2.779-2.78 2.783 2.783 0 0 1 2.78-2.78 2.783 2.783 0 0 1 2.78 2.78 2.783 2.783 0 0 1-2.78 2.78zm0-4.601c-1.003 0-1.82.817-1.82 1.821s.817 1.82 1.82 1.82 1.821-.816 1.821-1.82-.816-1.821-1.82-1.821z" style="fill: #141414;"/><path d="M31.63 40.086h.959v5.613h-.959z" style="fill: #141414;"/><g><path d="M47.556 34.99c-1.533 0-2.78-1.248-2.78-2.78s1.247-2.78 2.78-2.78 2.779 1.247 2.779 2.78-1.247 2.78-2.78 2.78zm0-4.601c-1.004 0-1.82.817-1.82 1.82 0 1.005.816 1.821 1.82 1.821s1.82-.816 1.82-1.82-.816-1.821-1.82-1.821z" style="fill: #141414;"/><path d="M40.496 31.711H45.6v.959h-5.104zM16.644 34.97c-1.532 0-2.78-1.247-2.78-2.78s1.248-2.779 2.78-2.779c1.533 0 2.78 1.247 2.78 2.78s-1.247 2.779-2.78 2.779zm0-4.6c-1.004 0-1.82.817-1.82 1.82s.816 1.82 1.82 1.82 1.82-.816 1.82-1.82-.816-1.82-1.82-1.82z" style="fill: #141414;"/><path d="M18.601 31.73h5.239v.959h-5.239z" style="fill: #141414;"/></g><g><path d="M43.021 45.913a2.77 2.77 0 0 1-1.964-.812 2.784 2.784 0 0 1 0-3.931 2.784 2.784 0 0 1 3.93 0 2.782 2.782 0 0 1 0 3.93 2.77 2.77 0 0 1-1.966.813zm-1.287-1.49c.712.71 1.866.708 2.576 0 .71-.71.71-1.865 0-2.575a1.825 1.825 0 0 0-2.576 0 1.825 1.825 0 0 0 0 2.575z" style="fill: #141414;"/><path d="M37.461 38.226l.678-.678 3.852 3.853-.678.677zM21.178 24.042a2.77 2.77 0 0 1-1.966-.813 2.761 2.761 0 0 1-.814-1.964c0-.743.29-1.44.814-1.966 1.05-1.05 2.881-1.05 3.931 0a2.782 2.782 0 0 1 0 3.93 2.77 2.77 0 0 1-1.965.813zm0-4.597a1.815 1.815 0 0 0-1.821 1.82 1.823 1.823 0 0 0 3.108 1.287c.71-.71.71-1.865 0-2.575a1.815 1.815 0 0 0-1.287-.532z" style="fill: #141414;"/><path d="M22.218 23.009l.66-.696 3.603 3.42-.66.696z" style="fill: #141414;"/></g><g><path d="M21.165 45.9c-.712 0-1.424-.271-1.966-.812a2.783 2.783 0 0 1 0-3.93 2.782 2.782 0 0 1 3.93 0 2.784 2.784 0 0 1 0 3.93 2.774 2.774 0 0 1-1.964.811zm0-4.597c-.467 0-.933.176-1.288.532-.71.71-.71 1.865 0 2.575.71.71 1.865.71 2.575 0 .71-.71.71-1.865 0-2.575a1.817 1.817 0 0 0-1.287-.532z" style="fill: #141414;"/><path d="M22.223 41.413l3.817-3.818.678.678L22.9 42.09zM43.036 24.056a2.773 2.773 0 0 1-1.966-.813 2.76 2.76 0 0 1-.814-1.965c0-.743.289-1.44.814-1.965a2.783 2.783 0 0 1 3.931 0 2.76 2.76 0 0 1 .814 1.965 2.772 2.772 0 0 1-2.78 2.778zm0-4.598a1.816 1.816 0 0 0-1.821 1.82c0 .486.19.943.533 1.287.71.71 1.865.709 2.575 0 .344-.344.533-.8.533-1.287s-.189-.944-.533-1.288a1.814 1.814 0 0 0-1.288-.532z" style="fill: #141414;"/><path d="M37.89 25.72l3.41-3.41.678.677-3.41 3.41z" style="fill: #141414;"/></g><g><path d="M32.535 37.592h-.728a1.12 1.12 0 0 1-1.096-.9l-.125-.627a4.284 4.284 0 0 1-.278-.115l-.533.356a1.118 1.118 0 0 1-1.408-.138l-.517-.518a1.12 1.12 0 0 1-.14-1.408l.356-.533a4.29 4.29 0 0 1-.116-.278l-.627-.126a1.12 1.12 0 0 1-.898-1.096v-.728c0-.53.377-.99.896-1.095l.63-.126c.035-.093.073-.186.115-.278l-.356-.532a1.121 1.121 0 0 1 .141-1.41l.514-.515c.377-.375.97-.435 1.41-.139l.533.354a4.63 4.63 0 0 1 .278-.115l.125-.627a1.12 1.12 0 0 1 1.096-.899h.728c.531 0 .991.378 1.096.899l.125.627c.094.035.187.074.278.115l.533-.355a1.121 1.121 0 0 1 1.408.137l.517.519c.374.372.435.964.14 1.408l-.356.533c.041.092.08.185.116.278l.628.126c.52.105.897.566.897 1.095v.728c0 .531-.378.991-.898 1.096l-.627.126a5.228 5.228 0 0 1-.116.278l.355.532a1.12 1.12 0 0 1-.14 1.411l-.514.514a1.119 1.119 0 0 1-1.41.139l-.533-.355c-.092.042-.184.08-.278.115l-.125.627c-.105.522-.566.9-1.096.9zm-2.292-2.801l.265.143c.21.114.43.205.654.271l.289.086.24 1.206a.12.12 0 0 0 .116.095h.728a.12.12 0 0 0 .115-.095l.241-1.206.289-.086c.222-.065.442-.157.654-.271l.265-.143 1.023.683a.118.118 0 0 0 .149-.016l.513-.514a.117.117 0 0 0 .015-.148l-.68-1.022.14-.263a3.59 3.59 0 0 0 .273-.658l.086-.288 1.205-.24a.118.118 0 0 0 .094-.116v-.728a.12.12 0 0 0-.095-.115l-1.204-.24-.086-.288a3.675 3.675 0 0 0-.272-.657l-.142-.264.682-1.022a.116.116 0 0 0-.015-.146l-.516-.519a.119.119 0 0 0-.147-.013L34.1 28.9l-.265-.143a3.525 3.525 0 0 0-.655-.271l-.288-.087-.24-1.205a.12.12 0 0 0-.116-.094h-.728a.119.119 0 0 0-.115.094l-.24 1.205-.288.086c-.229.07-.45.161-.656.272l-.264.143-1.024-.682a.12.12 0 0 0-.148.015l-.514.515a.12.12 0 0 0-.015.149l.682 1.021-.143.265a3.505 3.505 0 0 0-.271.655l-.086.289-1.207.24a.12.12 0 0 0-.093.115v.728c0 .055.04.104.094.115l1.206.241.086.289c.067.224.158.445.271.655l.143.264-.683 1.023a.119.119 0 0 0 .014.146l.517.518a.12.12 0 0 0 .146.015l1.024-.684z" style="fill: #141414;"/><path d="M32.17 34.911a3.069 3.069 0 0 1-3.065-3.066c0-1.69 1.375-3.065 3.066-3.065s3.065 1.375 3.065 3.065a3.069 3.069 0 0 1-3.065 3.066zm0-5.131a2.068 2.068 0 0 0-2.065 2.065c0 1.14.927 2.066 2.066 2.066s2.065-.927 2.065-2.066a2.068 2.068 0 0 0-2.065-2.065z" style="fill: #141414;"/></g></svg>
