<?xml version="1.0" encoding="UTF-8"?>
<svg xmlns="http://www.w3.org/2000/svg" data-name="Layer 1" viewBox="0 0 64 64"><path fill="#00243d" d="M44 50v-4h3v-1h-3v-2h1a2.006 2.006 0 0 0 2-2v-5.5a.495.495 0 0 0-.5-.5 3.495 3.495 0 0 0-3 1.7 3.495 3.495 0 0 0-3-1.7.495.495 0 0 0-.5.5V41a2.006 2.006 0 0 0 2 2h1v4h-3v1h3v2H27v-9h5.5a3.504 3.504 0 0 0 3.5-3.5v-13a3.504 3.504 0 0 0-3.5-3.5h-12a3.504 3.504 0 0 0-3.5 3.5v13a3.504 3.504 0 0 0 3.5 3.5H26v9H9v1h46v-1zM26 35h-4v1h4v4h-5.5a2.5 2.5 0 0 1-2.5-2.5v-13a2.5 2.5 0 0 1 2.5-2.5h12a2.5 2.5 0 0 1 2.5 2.5v13a2.5 2.5 0 0 1-2.5 2.5H27v-9h4v-1h-4v-4h-1zm16 7a1.003 1.003 0 0 1-1-1v-4.95a2.5 2.5 0 0 1 2 2.45V40h1v-1.5a2.5 2.5 0 0 1 2-2.45V41a1.003 1.003 0 0 1-1 1z" style="fill: #141414;"/></svg>
