<?xml version="1.0" encoding="UTF-8"?>
<svg xmlns="http://www.w3.org/2000/svg" viewBox="0 0 64 64"><path fill="#00243f" d="M19.31 50.294h-4.936V38.076a1.35 1.35 0 0 1 1.348-1.348h2.24a1.35 1.35 0 0 1 1.347 1.348zm-3.936-1h2.935V38.076a.349.349 0 0 0-.348-.348h-2.239a.349.349 0 0 0-.348.348z" style="fill: #ffffff;"/><path fill="#00243f" d="M18.3 37.347l-.971-.24 5.179-20.996-.993-.245-5.182 21.478-.971-.234 5.416-22.455 2.94.726L18.3 37.347z" style="fill: #ffffff;"/><path fill="#00243f" d="M19.55 21.043l2.189-1.061.437.9-2.189 1.062zM18.298 25.71l2.303-1.116.437.9-2.304 1.117zM17.13 30.56l2.32-1.126.437.9-2.321 1.126zM11.818 49.294H52.64v1H11.818zM43.07 47.043H28.45a.782.782 0 0 1-.595-.276l-1.475-1.749a.785.785 0 0 1-.183-.504V27.29a.754.754 0 0 1 .753-.753h17.944a.754.754 0 0 1 .753.753v17.21a.783.783 0 0 1-.234.557l-1.795 1.762a.776.776 0 0 1-.547.225zm-14.517-1H42.98l1.667-1.635V27.536h-17.45v16.9z" style="fill: #ffffff;"/><path fill="#00243f" d="M31.228 50.051h-2.045a.738.738 0 0 1-.737-.737v-3.271h3.52v3.271a.738.738 0 0 1-.738.737zm-1.782-1h1.52v-2.008h-1.52zM42.344 50.051h-2.046a.738.738 0 0 1-.737-.737v-3.271h3.52v3.271a.738.738 0 0 1-.737.737zm-1.783-1h1.52v-2.008h-1.52zM26.697 29.794h18.45v1h-18.45z" style="fill: #ffffff;"/><path fill="#00243f" d="M47.18 44.033h-2.033v-1h1.787V24.368H24.91v18.665h1.717v1h-1.964a.754.754 0 0 1-.753-.753V24.12a.754.754 0 0 1 .753-.752h22.518a.754.754 0 0 1 .753.753V43.28a.754.754 0 0 1-.753.753z" style="fill: #ffffff;"/><path fill="#00243f" d="M28.32 40.989h1.885v1H28.32zM41.638 40.989h1.885v1h-1.885zM31.25 41.041h9.675v1H31.25zM32.812 43.114h6.22v1h-6.22zM26.672 38.476h18.249v1H26.672z" style="fill: #ffffff;"/></svg>
