<?xml version="1.0" encoding="UTF-8"?>
<svg xmlns="http://www.w3.org/2000/svg" viewBox="0 0 64.2 64.4"><path d="M33.876 50.494H30.09a1.185 1.185 0 0 1-1.183-1.184v-8.05h1v8.05c0 .1.084.184.183.184h3.786c.071 0 .13-.06.13-.132V41.26h1v8.102c0 .624-.506 1.132-1.13 1.132zM33.14 36.75h-2.253c-.509 0-.907-.35-.907-.795v-2.714c0-.574.467-1.04 1.041-1.04h1.957a1.04 1.04 0 0 1 1.039 1.037v2.74c0 .433-.385.772-.876.772zm-2.157-1.001l2.034.001-.039-2.549h-1.957l-.038 2.548z" style="fill: #141414;"/><path d="M34.791 46.15l-.568-.823 1.82-1.26.01-3.95a.909.909 0 0 0-.907-.909h-6.297c-.5 0-.907.407-.907.907v3.94l1.757 1.278-.585.81-1.748-1.26c-.265-.19-.424-.5-.424-.827v-3.94a1.91 1.91 0 0 1 1.907-1.908h6.297a1.91 1.91 0 0 1 1.908 1.908v3.93c0 .338-.165.652-.442.843l-1.821 1.26z" style="fill: #141414;"/><g><path d="M44.737 47.179h-3.785a1.185 1.185 0 0 1-1.183-1.184v-8.05h1v8.05c0 .1.084.184.183.184h3.785c.072 0 .132-.06.132-.132v-8.103h1v8.103c0 .624-.508 1.132-1.132 1.132zM44.002 33.436h-2.253c-.509 0-.907-.35-.907-.796v-2.714c0-.574.467-1.04 1.04-1.04h1.958a1.04 1.04 0 0 1 1.038 1.038v2.738c0 .434-.385.774-.876.774zm-2.157-1.001h2.033l-.038-2.55h-1.957l-.038 2.55z" style="fill: #141414;"/><path d="M45.653 42.834l-.568-.822 1.82-1.26.011-3.95a.909.909 0 0 0-.908-.908H39.71c-.5 0-.907.406-.907.906v3.94l1.757 1.278-.584.81-1.75-1.26a1.02 1.02 0 0 1-.423-.828V36.8c0-1.051.855-1.906 1.907-1.906h6.297a1.91 1.91 0 0 1 1.908 1.908v3.93c0 .336-.165.652-.442.842l-1.82 1.26z" style="fill: #141414;"/></g><g><path d="M23.014 47.354h-3.785a1.185 1.185 0 0 1-1.184-1.184v-8.05h1v8.05c0 .1.084.184.184.184h3.785c.071 0 .132-.06.132-.131v-8.104h1v8.104c0 .624-.508 1.13-1.132 1.13zM22.279 33.61h-2.254c-.508 0-.907-.35-.907-.796v-2.712c0-.575.467-1.041 1.041-1.041h1.957a1.04 1.04 0 0 1 1.039 1.038v2.738c0 .434-.385.773-.876.773zm-2.158-1h2.034l-.039-2.55H20.16l-.038 2.55z" style="fill: #141414;"/><path d="M23.93 43.01l-.57-.822 1.822-1.261.01-3.95a.91.91 0 0 0-.908-.909h-6.297c-.5 0-.906.407-.906.907v3.94l1.756 1.278-.585.81-1.748-1.26a1.02 1.02 0 0 1-.423-.828v-3.94c0-1.051.855-1.907 1.906-1.907h6.297c1.052 0 1.908.857 1.908 1.909v3.93c0 .336-.165.652-.442.842l-1.82 1.26z" style="fill: #141414;"/></g><g><path d="M32.505 29.122h-1.014c-.647 0-1.208-.46-1.334-1.095l-.197-.981a6.168 6.168 0 0 1-.576-.239l-.835.556a1.364 1.364 0 0 1-1.714-.168l-.72-.72a1.364 1.364 0 0 1-.17-1.715l.556-.836a6.177 6.177 0 0 1-.238-.576l-.983-.197a1.364 1.364 0 0 1-1.093-1.333v-1.015c0-.646.459-1.206 1.092-1.334l.984-.197c.07-.195.15-.388.238-.576l-.556-.834a1.365 1.365 0 0 1 .171-1.717l.717-.717a1.365 1.365 0 0 1 1.716-.17l.835.555c.188-.088.38-.168.576-.238l.197-.982a1.364 1.364 0 0 1 1.334-1.094h1.014c.647 0 1.209.46 1.335 1.094l.196.982c.196.07.389.15.576.238l.835-.556a1.365 1.365 0 0 1 1.714.168l.72.721c.457.455.528 1.177.17 1.715l-.556.835c.089.189.17.381.238.576l.984.197a1.364 1.364 0 0 1 1.093 1.334v1.015c0 .645-.46 1.206-1.093 1.333l-.984.197c-.069.195-.149.388-.238.576l.556.835c.358.538.286 1.26-.17 1.717l-.718.717a1.364 1.364 0 0 1-1.717.17l-.834-.556c-.187.089-.38.17-.576.239l-.196.981a1.364 1.364 0 0 1-1.335 1.095zm-3.183-3.476l.265.143c.302.163.621.295.95.394l.287.086.313 1.563c.034.168.182.29.354.29h1.014c.172 0 .32-.122.354-.29l.312-1.563.288-.086c.33-.099.65-.232.95-.394l.265-.143 1.328.885a.367.367 0 0 0 .455-.046l.717-.716a.363.363 0 0 0 .045-.456l-.884-1.327.142-.264c.164-.305.296-.625.393-.951l.087-.288 1.564-.312a.362.362 0 0 0 .289-.353v-1.015c0-.171-.123-.32-.29-.353l-1.563-.313-.086-.288a5.156 5.156 0 0 0-.394-.95l-.142-.265.884-1.327a.361.361 0 0 0-.044-.453l-.72-.72a.363.363 0 0 0-.453-.045l-1.328.885-.265-.142a5.087 5.087 0 0 0-.95-.394l-.288-.086-.312-1.563a.362.362 0 0 0-.354-.29h-1.014a.362.362 0 0 0-.354.29l-.313 1.563-.287.086a5.091 5.091 0 0 0-.95.394l-.264.142-1.329-.885a.364.364 0 0 0-.455.047l-.716.716a.362.362 0 0 0-.045.456l.884 1.326-.142.265a5.09 5.09 0 0 0-.394.95l-.086.288-1.564.313a.361.361 0 0 0-.29.353v1.015c0 .17.122.32.29.353l1.564.312.086.288c.098.328.23.648.394.95l.143.265-.886 1.327a.361.361 0 0 0 .045.454l.719.72c.12.12.311.138.453.045l1.328-.886z" style="fill: #141414;"/><path d="M31.998 25.386c-2.248 0-4.076-1.828-4.076-4.076s1.828-4.076 4.076-4.076c2.248 0 4.076 1.828 4.076 4.076s-1.828 4.076-4.076 4.076zm0-7.152a3.08 3.08 0 0 0-3.076 3.076 3.08 3.08 0 0 0 3.076 3.076 3.08 3.08 0 0 0 3.076-3.076 3.08 3.08 0 0 0-3.076-3.076z" style="fill: #141414;"/></g></svg>
