<?xml version="1.0" encoding="UTF-8"?>
<svg xmlns="http://www.w3.org/2000/svg" viewBox="0 0 64.1 63.5"><path d="M30.04 47.09h-5.338a1.465 1.465 0 0 1-1.464-1.463V34.275h1v11.352c0 .256.208.464.464.464h5.338a.39.39 0 0 0 .39-.39V33.774h6.617v1H31.43V45.7c0 .767-.624 1.39-1.391 1.39zM29.003 28.046h-3.177c-.603 0-1.075-.402-1.075-.917v-3.825c0-.697.567-1.263 1.263-1.263h2.76a1.26 1.26 0 0 1 1.26 1.259v3.862c0 .496-.453.884-1.031.884zm.01-1c.01 0 .016.001.02.004V23.3a.26.26 0 0 0-.259-.259h-2.76a.263.263 0 0 0-.263.263v3.732c.019.006.044.01.075.01h3.187z" style="fill: #141414;"/><path d="M23.445 40.995l-2.465-1.777a1.241 1.241 0 0 1-.512-1.001V32.66a2.487 2.487 0 0 1 2.484-2.484h14.095v1H22.952c-.819 0-1.484.666-1.484 1.484v5.556c0 .075.036.146.098.191l2.464 1.777-.585.81z" style="fill: #141414;"/><g><path d="M45.646 25.573h-8.6a.5.5 0 0 1-.5-.5v-4.9a.5.5 0 0 1 .5-.5h8.6a.639.639 0 0 1 .376 1.158l-2.458 1.793 2.46 1.793a.638.638 0 0 1-.378 1.156zm-8.1-1h6.995l-2.12-1.546a.5.5 0 0 1 0-.807l2.12-1.546h-6.994v3.9z" style="fill: #141414;"/><path d="M36.547 18.246h1v28.163h-1zM37.513 18.246h-.933a.452.452 0 0 1-.452-.452v-.933c0-.25.202-.452.452-.452h.933c.25 0 .452.203.452.452v.933c0 .25-.202.452-.452.452z" style="fill: #141414;"/></g></svg>
