<?xml version="1.0" encoding="UTF-8"?>
<svg xmlns="http://www.w3.org/2000/svg" viewBox="0 0 63.8 63.7"><path d="M49.253 33.934h-5v-7c0-1.1-.9-2-2-2h-21c-1.1 0-2 .9-2 2v7.527c.3-.1.6-.1 1-.1v-7.427c0-.6.5-1 1-1h21c.6 0 1 .4 1 1v7h-1c-1.1 0-2 .9-2 2v1h-15.7c.3.3.5.6.8 1h14.9v2h-14.2c.1.3.1.7.1 1h5v3h-5.6v1h12.169v-1h-5.569v-3h8v8c0 1.1.9 2 2 2h7c1.1 0 2-.9 2-2v-13c.1-1.1-.8-2-1.9-2zm1 15c0 .6-.4 1-1 1h-7c-.5 0-1-.4-1-1v-13c0-.6.5-1 1-1h7c.6 0 1 .4 1 1v13z" style="fill: #141414;"/><path d="M44.353 46.934h2.8v1h-2.8z" style="fill: #141414;"/><path fill-rule="evenodd" d="M34.653 31.434l-1.8 2.1c-.1.2-.4.3-.6.3h-1c-.2 0-.4-.1-.6-.3l-1.8-2.1.7-.6 1.8 2.1v-6.1h.9v6.2l1.8-2.1.6.5z" clip-rule="evenodd" style="fill: #141414;"/><path d="M36.553 32.334v2c0 .8-.6 1.4-1.4 1.4h-6.8c-.8 0-1.4-.6-1.4-1.4v-2h.9v2c0 .3.2.5.5.5h6.8c.3 0 .5-.2.5-.5v-2h.9z" style="fill: #141414;"/><g><path d="M19.763 33.797c-3.978 0-7.216 3.239-7.216 7.217 0 3.978 3.238 7.217 7.216 7.217s7.217-3.239 7.217-7.217c0-3.978-3.239-7.217-7.217-7.217zm0 13.531c-.947 0-1.85-.207-2.652-.595l.577-2.327c.1-.406.46-.686.875-.686h2.4c.415 0 .776.28.875.686l.577 2.327a6.079 6.079 0 0 1-2.652.595zm3.482-1.046l-.532-2.102a1.797 1.797 0 0 0-1.75-1.362h-2.4c-.83 0-1.551.56-1.75 1.362l-.532 2.102a6.332 6.332 0 0 1-2.832-5.268c0-3.482 2.832-6.315 6.314-6.315s6.315 2.833 6.315 6.315a6.332 6.332 0 0 1-2.833 5.268z" style="fill: #141414;"/><path d="M20.763 37.014h-2c-.55 0-1 .45-1 1v2.5c0 .55.45 1 1 1h2c.55 0 1-.45 1-1v-2.5c0-.55-.45-1-1-1zm0 3.5h-2v-2.5h2v2.5z" style="fill: #141414;"/></g></svg>
