<?xml version="1.0" encoding="UTF-8"?>
<svg xmlns="http://www.w3.org/2000/svg" viewBox="0 0 63.9 63.7"><path d="M44.098 38.47l-2.84-6.844v-.796c0-4.91-3.994-8.905-8.904-8.905h-5.79a6.876 6.876 0 0 0-6.869 6.869v5.04c0 2.032.881 3.926 2.426 5.235v11.14a.5.5 0 0 0 .5.5h11.714a.5.5 0 0 0 .5-.5v-3.064h2.485a3.942 3.942 0 0 0 3.938-3.938v-2.814h1.555a1.389 1.389 0 0 0 1.285-1.923zm-.96.749a.383.383 0 0 1-.325.174h-2.055a.5.5 0 0 0-.5.5v3.314a2.94 2.94 0 0 1-2.938 2.938h-2.985a.5.5 0 0 0-.5.5v3.065H23.121V38.832a.5.5 0 0 0-.19-.393 5.836 5.836 0 0 1-2.236-4.605v-5.04a5.875 5.875 0 0 1 5.869-5.869h5.79c4.358 0 7.904 3.546 7.904 7.905v.896c0 .065.013.13.038.191l2.878 6.936a.385.385 0 0 1-.036.366z" style="fill: #141414;"/><path d="M33.593 25.753a3.325 3.325 0 0 0-2.699.732 3.433 3.433 0 0 0-.34.334 3.431 3.431 0 0 0-.342-.336 3.328 3.328 0 0 0-2.699-.73c-1.469.254-2.585 1.483-2.713 2.991l-.002.019c-.067 1.391.32 2.086.478 2.309 1.048 2.296 3.497 4.132 4.215 4.634.19.143.424.218.675.218h.777c.251 0 .485-.075.661-.208 1.095-.765 4.67-3.503 4.717-6.645.025-1.619-1.147-3.046-2.728-3.318zm-2.65 9.17l-.866-.028c-.486-.34-2.958-2.143-3.911-4.283a.636.636 0 0 0-.074-.117c-.003-.005-.352-.466-.295-1.675.092-1.034.884-1.908 1.884-2.08a2.328 2.328 0 0 1 1.883.505c.229.196.414.424.549.678a.5.5 0 0 0 .44.265h.001a.5.5 0 0 0 .441-.265c.136-.254.32-.482.547-.675a2.33 2.33 0 0 1 1.884-.51c1.097.19 1.912 1.186 1.895 2.318-.042 2.735-3.58 5.344-4.378 5.868z" style="fill: #141414;"/></svg>
