<?xml version="1.0" encoding="UTF-8"?>
<svg xmlns="http://www.w3.org/2000/svg" data-name="Layer 1" viewBox="0 0 64 64"><path fill="#00243d" d="M48.78 36.8l-2.74-3.42a.986.986 0 0 0-.78-.38H40a1.003 1.003 0 0 0-1 1v6h-2V30a1.003 1.003 0 0 0-1-1H16a1.003 1.003 0 0 0-1 1v16a1.003 1.003 0 0 0 1 1h2.05a3.484 3.484 0 0 0 6.9 0h2.1a3.484 3.484 0 0 0 6.9 0h5.1a3.484 3.484 0 0 0 6.9 0H48a1.003 1.003 0 0 0 1-1v-8.57a1.028 1.028 0 0 0-.22-.63zM16 30h20v10H16zm5.5 19a2.5 2.5 0 1 1 2.5-2.5 2.501 2.501 0 0 1-2.5 2.5zm9 0a2.5 2.5 0 1 1 2.5-2.5 2.501 2.501 0 0 1-2.5 2.5zm12 0a2.5 2.5 0 1 1 2.5-2.5 2.501 2.501 0 0 1-2.5 2.5zm5.5-3h-2.05a3.484 3.484 0 0 0-6.9 0h-5.1a3.484 3.484 0 0 0-6.9 0h-2.1a3.484 3.484 0 0 0-6.9 0H16v-5h32zm0-6h-8v-6h5.26L48 37.43z" style="fill: #141414;"/><path fill="#00243d" d="M20.5 33h1v4h-1zM30.5 33h1v4h-1zM25.5 33h1v4h-1zM42.5 50H9v1h46v-1H42.5z" style="fill: #141414;"/></svg>
