<?xml version="1.0" encoding="UTF-8"?>
<svg xmlns="http://www.w3.org/2000/svg" data-name="Layer 1" viewBox="0 0 96 64"><path fill="#00243d" d="M24 36h1v4h-1zM27 36h1v4h-1zM30 36h1v4h-1z" style="fill: #141414;"/><path fill="#00243d" d="M85 49a1 1 0 0 1-1 1h-2a1 1 0 0 1-1-1h-1a1 1 0 0 1-1 1h-2a1 1 0 0 1-1-1h-1a1 1 0 0 1-1 1h-.66l5.893-7.366A3.51 3.51 0 0 0 80 40.447V39a1 1 0 0 0-1-1h-5.059a3.482 3.482 0 0 0-2.732 1.313L70.66 40h-3.719a3.486 3.486 0 0 0-.941.143V30a1 1 0 0 0-1-1H54a1 1 0 0 0-1 1v5.5H42a1 1 0 0 0-1 1V42h-6.5v-7a2.003 2.003 0 0 0-2-2H31v-3a1 1 0 0 0-1-1h-5a1 1 0 0 0-1 1v3h-1a2.003 2.003 0 0 0-2 2v7h-2.5a1 1 0 0 0-1 1v7H17a1 1 0 0 1-1-1h-1a1 1 0 0 1-1 1h-2a1 1 0 0 1-1-1h-1a2.003 2.003 0 0 0 2 2h2a1.988 1.988 0 0 0 1.5-.691A1.988 1.988 0 0 0 17 51h2a1.988 1.988 0 0 0 1.5-.691A1.988 1.988 0 0 0 22 51h2a1.988 1.988 0 0 0 1.5-.691A1.988 1.988 0 0 0 27 51h2a1.988 1.988 0 0 0 1.5-.691A1.988 1.988 0 0 0 32 51h2a1.988 1.988 0 0 0 1.5-.691A1.988 1.988 0 0 0 37 51h2a1.988 1.988 0 0 0 1.5-.691A1.988 1.988 0 0 0 42 51h2a1.988 1.988 0 0 0 1.5-.691A1.988 1.988 0 0 0 47 51h2a1.988 1.988 0 0 0 1.5-.691A1.988 1.988 0 0 0 52 51h2a1.988 1.988 0 0 0 1.5-.691A1.988 1.988 0 0 0 57 51h2a1.988 1.988 0 0 0 1.5-.691A1.988 1.988 0 0 0 62 51h2a1.988 1.988 0 0 0 1.5-.691A1.988 1.988 0 0 0 67 51h2a1.988 1.988 0 0 0 1.5-.691A1.988 1.988 0 0 0 72 51h2a1.988 1.988 0 0 0 1.5-.691A1.988 1.988 0 0 0 77 51h2a1.988 1.988 0 0 0 1.5-.691A1.988 1.988 0 0 0 82 51h2a2.003 2.003 0 0 0 2-2zm-20.791-7.687L63.66 42H54v-5.5h11v4.11a3.469 3.469 0 0 0-.791.703zM54 30h11v5.5H54zm-12 6.5h11V42H42zM25 30h5v3h-5zm-3 5a1 1 0 0 1 1-1h9.5a1 1 0 0 1 1 1v7H22zm41.66 8a.996.996 0 0 0 .78-.375l.55-.686A2.484 2.484 0 0 1 66.941 41h3.719a.996.996 0 0 0 .78-.375l.55-.686A2.484 2.484 0 0 1 73.941 39H79v1.447a2.502 2.502 0 0 1-.548 1.562L75.26 46H18.5v-3zM71 49h-1a1 1 0 0 1-1 1h-2a1 1 0 0 1-1-1h-1a1 1 0 0 1-1 1h-2a1 1 0 0 1-1-1h-1a1 1 0 0 1-1 1h-2a1 1 0 0 1-1-1h-1a1 1 0 0 1-1 1h-2a1 1 0 0 1-1-1h-1a1 1 0 0 1-1 1h-2a1 1 0 0 1-1-1h-1a1 1 0 0 1-1 1h-2a1 1 0 0 1-1-1h-1a1 1 0 0 1-1 1h-2a1 1 0 0 1-1-1h-1a1 1 0 0 1-1 1h-2a1 1 0 0 1-1-1h-1a1 1 0 0 1-1 1h-2a1 1 0 0 1-1-1h-1a1 1 0 0 1-1 1h-2a1 1 0 0 1-1-1h-1a1 1 0 0 1-1 1h-.5v-3h55.96l-2.4 3H72a1 1 0 0 1-1-1z" style="fill: #141414;"/><path fill="#00243d" d="M44 38h1v2.5h-1zM47 38h1v2.5h-1zM50 38h1v2.5h-1zM56 38h1v2.5h-1zM59 38h1v2.5h-1zM62 38h1v2.5h-1zM56 31.5h1V34h-1zM59 31.5h1V34h-1zM62 31.5h1V34h-1z" style="fill: #141414;"/></svg>
