<?xml version="1.0" encoding="UTF-8"?>
<svg xmlns="http://www.w3.org/2000/svg" viewBox="0 0 63.9 64.1"><path d="M37.7 50.5c-3.8 0-6.9-3.1-6.9-6.9s3.1-6.9 6.9-6.9 6.9 3.1 6.9 6.9c-.1 3.8-3.1 6.9-6.9 6.9zm0-12.8c-3.2 0-5.9 2.6-5.9 5.9s2.6 5.9 5.9 5.9 5.9-2.6 5.9-5.9c-.1-3.2-2.7-5.9-5.9-5.9z" style="fill: #141414;"/><path d="M37.5 46.3h-.7c-.2 0-.4-.1-.6-.3l-1.6-2.1.8-.7 1.5 2h.5l2.5-4 .9.5-2.6 4.2c-.2.2-.4.4-.7.4zM31.1 45.2h-8.8c-1.6 0-2.9-1.3-2.9-2.8V24.1c0-1.6 1.3-2.9 2.9-2.9h10.5c.4 0 .7.2 1 .5l4.2 4.5c.1.1.2.3.3.4 0 .2.1.4.1.6v10h-1v-10-.2c0-.1 0-.1-.1-.1l-4.2-4.5c-.1-.2-.2-.2-.3-.2H22.3c-1.1 0-1.9.8-1.9 1.8v18.3c0 1 .9 1.8 1.9 1.8h8.8v1.1z" style="fill: #141414;"/><path d="M37.9 27.3H34c-.8 0-1.4-.6-1.4-1.4v-4.1h1v4.1c0 .2.2.4.4.4h3.9v1zM25.8 34.7h-2.1v-1h2.1v-1h-1.6c-.6 0-1-.4-1-1v-1c0-.6.4-1 1-1h2.2v1h-2.2v1h1.7c.6 0 1 .4 1 1v.9c0 .7-.4 1.1-1.1 1.1.1 0 .1 0 0 0z" style="fill: #141414;"/><path d="M24.5 29.4h1v.8h-1zM24.5 34.3h1v.8h-1zM28.4 31.9h6v1h-6zM28.4 34.6h6v1h-6zM28.4 29.6h3.4v1h-3.4z" style="fill: #141414;"/></svg>
