<?xml version="1.0" encoding="UTF-8"?>
<svg xmlns="http://www.w3.org/2000/svg" data-name="Layer 1" viewBox="0 0 64 64"><path fill="#00243d" d="M22.5 27.5a5 5 0 1 0 5 5 5.006 5.006 0 0 0-5-5zm0 9a4 4 0 1 1 4-4 4.004 4.004 0 0 1-4 4z" style="fill: #141414;"/><path fill="#00243d" d="M30.322 36.935a8.944 8.944 0 0 0 .846-2.04l1.996-.332a.996.996 0 0 0 .836-.987v-2.152a.997.997 0 0 0-.835-.986l-1.996-.333a8.944 8.944 0 0 0-.847-2.04l1.178-1.648a.997.997 0 0 0-.107-1.287l-1.522-1.523a.997.997 0 0 0-1.288-.107l-1.648 1.178a8.943 8.943 0 0 0-2.04-.846l-.332-1.997a.998.998 0 0 0-.986-.835h-2.153a.999.999 0 0 0-.987.836l-.333 1.996a8.943 8.943 0 0 0-2.039.846L16.417 23.5a.997.997 0 0 0-1.288.107l-1.522 1.523a.997.997 0 0 0-.106 1.288l1.177 1.647a8.944 8.944 0 0 0-.846 2.04l-1.996.333a.996.996 0 0 0-.836.986v2.152a.996.996 0 0 0 .835.986l1.996.334a8.944 8.944 0 0 0 .847 2.039L13.5 38.582a.995.995 0 0 0 .106 1.288l1.522 1.523a.998.998 0 0 0 1.289.107l1.647-1.178a8.943 8.943 0 0 0 2.04.846l.332 1.997a.999.999 0 0 0 .987.835h2.153a.998.998 0 0 0 .986-.836l.333-1.996a8.943 8.943 0 0 0 2.039-.845l1.648 1.177a.998.998 0 0 0 1.288-.107l1.523-1.523a.997.997 0 0 0 .106-1.288zm-1.158 3.75L27.25 39.32a.498.498 0 0 0-.553-.018 7.938 7.938 0 0 1-2.356.977.499.499 0 0 0-.378.405L23.577 43h-2.154l-.386-2.317a.499.499 0 0 0-.378-.405 7.96 7.96 0 0 1-2.356-.977.502.502 0 0 0-.553.018l-1.914 1.367-1.522-1.522 1.367-1.913a.5.5 0 0 0 .018-.554 7.931 7.931 0 0 1-.977-2.356.501.501 0 0 0-.404-.378L12 33.576v-2.152l2.318-.387a.501.501 0 0 0 .404-.378 7.931 7.931 0 0 1 .977-2.356.5.5 0 0 0-.018-.554l-1.366-1.912 1.521-1.522 1.914 1.366a.506.506 0 0 0 .553.018 7.96 7.96 0 0 1 2.356-.977.499.499 0 0 0 .379-.405L21.424 22h2.153l.386 2.317a.499.499 0 0 0 .378.405 7.96 7.96 0 0 1 2.356.977.502.502 0 0 0 .553-.018l1.914-1.367 1.522 1.522-1.367 1.913a.5.5 0 0 0-.018.554 7.931 7.931 0 0 1 .977 2.356.501.501 0 0 0 .404.378l2.318.387v2.152l-2.317.387a.501.501 0 0 0-.405.378 7.931 7.931 0 0 1-.977 2.356.5.5 0 0 0 .019.554l1.367 1.912zM40.5 39a3.5 3.5 0 1 0 3.5 3.5 3.504 3.504 0 0 0-3.5-3.5zm0 6a2.5 2.5 0 1 1 2.5-2.5 2.503 2.503 0 0 1-2.5 2.5z" style="fill: #141414;"/><path fill="#00243d" d="M48.196 40.93l-1.475-.295a6.46 6.46 0 0 0-.503-1.214l.835-1.252a1.003 1.003 0 0 0-.125-1.262l-.835-.835a1.006 1.006 0 0 0-1.261-.124l-1.253.834a6.464 6.464 0 0 0-1.213-.502l-.295-1.475A1.003 1.003 0 0 0 41.09 34h-1.18a1.003 1.003 0 0 0-.981.805l-.295 1.474a6.464 6.464 0 0 0-1.213.503l-1.253-.835a1.003 1.003 0 0 0-1.261.125l-.834.834a1.003 1.003 0 0 0-.126 1.263l.835 1.252a6.46 6.46 0 0 0-.503 1.214l-1.476.295a1.003 1.003 0 0 0-.803.98v1.18a1.003 1.003 0 0 0 .804.98l1.475.295a6.46 6.46 0 0 0 .503 1.214l-.835 1.252a1.003 1.003 0 0 0 .125 1.262l.835.836a1.004 1.004 0 0 0 1.261.124l1.253-.835a6.464 6.464 0 0 0 1.213.503l.295 1.475a1.003 1.003 0 0 0 .981.804h1.18a1.003 1.003 0 0 0 .981-.805l.295-1.474a6.464 6.464 0 0 0 1.213-.503l1.253.835a1.003 1.003 0 0 0 1.261-.125l.834-.834a1.003 1.003 0 0 0 .126-1.263l-.835-1.252a6.46 6.46 0 0 0 .503-1.214l1.475-.295a1.003 1.003 0 0 0 .804-.98v-1.18a1.003 1.003 0 0 0-.804-.98zM48 43.09l-1.778.355a.5.5 0 0 0-.388.372 5.47 5.47 0 0 1-.631 1.524.5.5 0 0 0 .011.536l1.007 1.509-.835.835-1.509-1.006a.504.504 0 0 0-.536-.012 5.473 5.473 0 0 1-1.524.631.5.5 0 0 0-.371.388L41.09 50h-1.18l-.355-1.778a.5.5 0 0 0-.372-.388 5.473 5.473 0 0 1-1.524-.63.5.5 0 0 0-.536.01l-1.509 1.007-.834-.835 1.006-1.509a.5.5 0 0 0 .012-.536 5.472 5.472 0 0 1-.632-1.525.5.5 0 0 0-.387-.37L33 43.09v-1.18l1.778-.355a.5.5 0 0 0 .388-.372 5.472 5.472 0 0 1 .631-1.524.5.5 0 0 0-.011-.536l-1.007-1.509.835-.835 1.509 1.006a.502.502 0 0 0 .536.012 5.473 5.473 0 0 1 1.524-.631.5.5 0 0 0 .371-.388L39.91 35h1.18l.355 1.778a.5.5 0 0 0 .372.388 5.473 5.473 0 0 1 1.523.63.5.5 0 0 0 .537-.01l1.509-1.007.834.835-1.006 1.509a.5.5 0 0 0-.011.536 5.47 5.47 0 0 1 .631 1.525.5.5 0 0 0 .388.37L48 41.91z" style="fill: #141414;"/></svg>
