<?xml version="1.0" encoding="UTF-8"?>
<svg xmlns="http://www.w3.org/2000/svg" viewBox="0 0 64 64"><path d="M48.044 50.497h-1v-20.4a.1.1 0 0 0-.1-.1h-3.878l-6.43 3.205a1.1 1.1 0 0 1-1.592-.984v-2.12a.1.1 0 0 0-.1-.1h-3.878l-6.43 3.204a1.1 1.1 0 0 1-1.592-.984v-10.12a.1.1 0 0 0-.1-.1h-5.8a.1.1 0 0 0-.1.1v28.4h-1v-28.4a1.102 1.102 0 0 1 1.1-1.1h5.8a1.102 1.102 0 0 1 1.1 1.1v10.12l.368.537-.223-.447 6.385-3.195a1.118 1.118 0 0 1 .493-.116h3.877a1.102 1.102 0 0 1 1.1 1.1v2.12l.368.538-.223-.447 6.385-3.195a1.118 1.118 0 0 1 .493-.116h3.877a1.102 1.102 0 0 1 1.1 1.1z" style="fill: #ffffff;"/><path d="M9.044 50.005h46v1h-46zM22.544 40.497h1v3h-1zM28.544 40.497h1v3h-1zM34.544 40.497h1v3h-1zM40.544 40.497h1v3h-1z" style="fill: #ffffff;"/></svg>
