<?xml version="1.0" encoding="UTF-8"?>
<svg xmlns="http://www.w3.org/2000/svg" viewBox="0 0 64 64"><g fill="#00243f" data-name="payer amendment"><path d="M34.52 44.138H22.335a3.38 3.38 0 0 1-3.376-3.376V18.484a3.38 3.38 0 0 1 3.376-3.377H35.08a1.588 1.588 0 0 1 1.188.52l5.08 5.493a1.787 1.787 0 0 1 .343.509 1.964 1.964 0 0 1 .142.718v12.168h-1V22.347a.919.919 0 0 0-.064-.332.787.787 0 0 0-.142-.202l-5.099-5.512a.603.603 0 0 0-.448-.194H22.336a2.38 2.38 0 0 0-2.376 2.377v22.278a2.378 2.378 0 0 0 2.376 2.376h12.183z" style="fill: #ffffff;"/><path d="M41.41 22.339h-4.722a1.623 1.623 0 0 1-1.62-1.621v-4.949h1v4.949a.622.622 0 0 0 .62.62h4.723zM22.353 28.45h14.751v1H22.353zM22.353 31.51h14.751v1H22.353zM22.353 25.39h11.581v1H22.353zM22.353 34.57h11.581v1H22.353z" style="fill: #ffffff;"/></g><path fill="#00243f" d="M41.696 50.4H40.61a1.423 1.423 0 0 1-1.393-1.143l-.214-1.07a6.408 6.408 0 0 1-.65-.27l-.91.606a1.425 1.425 0 0 1-1.79-.176l-.77-.77a1.426 1.426 0 0 1-.178-1.791l.607-.91a6.397 6.397 0 0 1-.269-.65l-1.072-.215a1.424 1.424 0 0 1-1.141-1.392v-1.086a1.425 1.425 0 0 1 1.14-1.393l1.073-.213a6.29 6.29 0 0 1 .27-.65l-.607-.91a1.426 1.426 0 0 1 .178-1.793l.767-.768a1.424 1.424 0 0 1 1.792-.177l.91.606a6.41 6.41 0 0 1 .65-.27l.214-1.07a1.423 1.423 0 0 1 1.393-1.142h1.086a1.425 1.425 0 0 1 1.393 1.142l.214 1.07a6.411 6.411 0 0 1 .65.27l.91-.606a1.43 1.43 0 0 1 1.79.174l.77.772a1.425 1.425 0 0 1 .178 1.791l-.607.91a6.394 6.394 0 0 1 .269.65l1.072.214a1.424 1.424 0 0 1 1.141 1.393v1.086a1.424 1.424 0 0 1-1.141 1.392l-1.072.214a6.288 6.288 0 0 1-.27.65l.607.91a1.425 1.425 0 0 1-.179 1.793l-.767.768a1.426 1.426 0 0 1-1.791.177l-.91-.606a6.409 6.409 0 0 1-.65.27l-.214 1.07a1.425 1.425 0 0 1-1.393 1.142zm-3.405-3.644l.265.142a5.478 5.478 0 0 0 1.024.425l.288.086.33 1.652a.42.42 0 0 0 .412.338h1.086a.422.422 0 0 0 .412-.338l.33-1.652.288-.086a5.505 5.505 0 0 0 1.023-.424l.265-.143 1.403.935a.418.418 0 0 0 .53-.054l.768-.766a.423.423 0 0 0 .053-.532l-.935-1.402.143-.264a5.455 5.455 0 0 0 .423-1.023l.086-.289 1.654-.33a.422.422 0 0 0 .338-.412v-1.086a.422.422 0 0 0-.338-.412l-1.654-.33-.086-.29a5.455 5.455 0 0 0-.423-1.022l-.143-.264.936-1.403a.421.421 0 0 0-.053-.529l-.77-.77a.423.423 0 0 0-.53-.051l-1.402.934-.265-.143a5.505 5.505 0 0 0-1.023-.424l-.288-.086-.33-1.652a.422.422 0 0 0-.412-.338H40.61a.42.42 0 0 0-.412.338l-.33 1.652-.288.086a5.478 5.478 0 0 0-1.024.425l-.265.142-1.402-.935a.424.424 0 0 0-.532.053l-.766.767a.424.424 0 0 0-.053.532l.936 1.402-.144.264a5.456 5.456 0 0 0-.423 1.023l-.086.289-1.654.33a.422.422 0 0 0-.338.412v1.086a.422.422 0 0 0 .338.412l1.654.33.086.29a5.455 5.455 0 0 0 .423 1.022l.144.264-.936 1.403a.423.423 0 0 0 .052.53l.77.77a.424.424 0 0 0 .529.051z" style="fill: #ffffff;"/><path fill="#00243f" d="M41.153 46.402a4.326 4.326 0 1 1 4.326-4.326 4.33 4.33 0 0 1-4.326 4.326zm0-7.652a3.326 3.326 0 1 0 3.326 3.326 3.33 3.33 0 0 0-3.326-3.326z" style="fill: #ffffff;"/></svg>
