<?xml version="1.0" encoding="UTF-8"?>
<svg xmlns="http://www.w3.org/2000/svg" viewBox="0 0 64.111 63.839"><path fill="#00243d" d="M49.408 29.406c1.197 0 2.17-.974 2.17-2.172v-5.1c0-.752-.61-1.363-1.363-1.363h-.903l-1.143-5.623a3.523 3.523 0 0 0-3.357-2.503H18.138c-1.476 0-2.801.933-3.314 2.378l-1.338 5.748h-.915c-.752 0-1.364.61-1.364 1.363v5.1c0 1.198.975 2.172 2.172 2.172h.004v21.059H11.25v1h40.287v-1h-2.133V29.406h.004zm.807-7.635c.2 0 .364.163.364.363v5.1c0 .647-.526 1.172-1.171 1.172h-3.22c-.646 0-1.171-.525-1.171-1.172v-5.463h5.198zm-6.198 5.463c0 .647-.525 1.172-1.171 1.172h-3.22c-.646 0-1.171-.525-1.171-1.172v-5.463h5.562v5.463zm-6.562 0c0 .647-.525 1.172-1.171 1.172h-3.22a1.173 1.173 0 0 1-1.171-1.172v-5.463h5.562v5.463zm-6.562 0c0 .647-.525 1.172-1.17 1.172h-3.22a1.173 1.173 0 0 1-1.172-1.172v-5.463h5.562v5.463zm-6.562 0c0 .647-.525 1.172-1.17 1.172h-3.22c-.646 0-1.172-.525-1.172-1.172v-5.463h5.562v5.463zm-8.55-11.93a2.509 2.509 0 0 1 2.357-1.66h26.674c1.1 0 2.085.736 2.388 1.746l.62 3.06H15.05l.731-3.146zm-.962 4.146h33.205l.268 1.32h-33.78l.307-1.32zm-2.612 7.784v-5.1c0-.2.164-.363.364-.363h5.198v5.463c0 .647-.525 1.172-1.17 1.172h-3.22a1.173 1.173 0 0 1-1.172-1.172zm20.826 23.23V35.13a1.24 1.24 0 0 1 1.238-1.238h8.508a1.24 1.24 0 0 1 1.238 1.238v15.336H33.033zm15.37.001h-3.386V35.129a2.24 2.24 0 0 0-2.238-2.238H34.27a2.24 2.24 0 0 0-2.238 2.238v15.336h-17.65V29.406h2.215c.676 0 1.273-.317 1.671-.802.399.485.996.802 1.671.802h3.22c.676 0 1.273-.317 1.671-.802.399.485.996.802 1.671.802h3.22c.676 0 1.273-.317 1.671-.802.399.485.996.802 1.671.802h3.22c.675 0 1.272-.317 1.671-.802.398.485.995.802 1.67.802h3.22c.676 0 1.273-.317 1.672-.802.398.485.995.802 1.67.802h2.217v21.059z" style="fill: #141414;"/><path fill="#00243d" d="M42.172 41.451h1v1.803h-1zM28.153 32.89h-9.554a1.77 1.77 0 0 0-1.768 1.77v7.856a1.77 1.77 0 0 0 1.768 1.768h9.554a1.77 1.77 0 0 0 1.768-1.768v-7.857a1.77 1.77 0 0 0-1.768-1.768zm.768 9.626a.77.77 0 0 1-.768.768h-9.554a.77.77 0 0 1-.768-.768v-7.857a.77.77 0 0 1 .768-.768h9.554a.77.77 0 0 1 .768.768v7.857z" style="fill: #141414;"/></svg>
