<?xml version="1.0" encoding="UTF-8"?>
<svg xmlns="http://www.w3.org/2000/svg" viewBox="0 0 64.2 64.1"><path d="M20.6 32h3.2c.6 0 1-.4 1.1-.8v-3.9c0-.7-.6-1.3-1.3-1.3h-2.8c-.7 0-1.3.6-1.3 1.3v3.8c0 .5.5.9 1.1.9zm-.1-4.7c0-.2.2-.3.3-.3h2.7c.2 0 .3.2.3.3V31H20.5v-3.7zM39.132 27.3v3.9c.1.4.5.8 1.1.8h3.2c.6 0 1.1-.4 1.1-.9v-3.8c0-.7-.6-1.3-1.3-1.3h-2.8c-.7 0-1.3.6-1.3 1.3zm4.1-.3c.1 0 .3.1.3.3V31H40.232v-3.7c0-.1.1-.3.3-.3h2.7z" style="fill: #141414;"/><path d="M46.332 34.1H32.3V22.3h8.1c.3 0 .5-.2.6-.5.1-.2 0-.5-.2-.7l-2.5-1.8 2.5-1.8c.2-.1.3-.5.2-.7s-.3-.4-.6-.4h-8.1V15c.2 0 .4-.2.4-.5v-.9c0-.3-.2-.5-.4-.5h-.9c-.3 0-.5.3-.5.5v.9c0 .3.3.5.5.5h-.1v19.1H17.7c-1.4 0-2.5 1.1-2.5 2.5v5.6c0 .4.2.8.5 1l2.3 1.656V49.6c0 .8.7 1.5 1.5 1.5h5.3c.8 0 1.4-.6 1.4-1.4V38.8h5.1v12.3h1V38.8h5.532v10.9c0 .8.6 1.4 1.4 1.4h5.3c.8 0 1.5-.7 1.5-1.5v-4.744l2.3-1.656c.3-.2.5-.6.5-1v-5.6c0-1.4-1.1-2.5-2.5-2.5zM39.3 17.5L37.2 19c-.1.1-.2.2-.2.4s.1.3.2.4l2.1 1.5h-7v-3.8h7zM25.2 37.8v11.9c0 .2-.2.4-.4.4h-5.3c-.3 0-.5-.2-.5-.5V38.3h-1v5.324L16.3 42.4c-.1-.1-.1-.1-.1-.2v-5.6c0-.8.7-1.5 1.5-1.5h4v5.6h1v-5.6h8.6v2.7h-6.1zm22.632 4.4c0 .1 0 .1-.1.2l-1.7 1.224V38.3h-1v11.3c0 .3-.2.5-.5.5h-5.3c-.2 0-.4-.2-.4-.4V37.8H32.3v-2.7h9.032v5.6h1v-5.6h4c.8 0 1.5.7 1.5 1.5v5.6z" style="fill: #141414;"/></svg>
