<?xml version="1.0" encoding="UTF-8"?>
<svg xmlns="http://www.w3.org/2000/svg" viewBox="0 0 64 64"><path fill="#00243d" d="m25.775 20.86.49 4.373-.165.165-7.427-7.416-.707.708 7.426 7.416-.165.165-4.373-.483-.11.995 4.375.482q.055.006.11.006a1 1 0 0 0 .706-.294l1.037-1.038a1 1 0 0 0 .287-.817l-.49-4.373zM25.935 37.023a1.01 1.01 0 0 0-.817-.287l-4.373.482.11.994 4.373-.482.165.165-7.427 7.415.707.707 7.427-7.415.164.165-.489 4.372.994.111.49-4.373a1 1 0 0 0-.288-.817zM38.063 26.976a1 1 0 0 0 .819.289l4.373-.483-.11-.994-4.374.482-.164-.164 7.427-7.416-.707-.708-7.427 7.416-.165-.164.49-4.373-.995-.112-.489 4.374c-.033.303.071.6.287.817zM38.772 37.73l4.373.482.11-.994-4.374-.482a1.01 1.01 0 0 0-.817.287l-1.036 1.037a1 1 0 0 0-.287.818l.49 4.372.993-.111-.489-4.372.165-.165 7.427 7.415.707-.707-7.427-7.415zM32 28.14c-2.128 0-3.86 1.731-3.86 3.86s1.732 3.86 3.86 3.86 3.86-1.732 3.86-3.86-1.731-3.86-3.86-3.86m0 6.72A2.863 2.863 0 0 1 29.14 32 2.863 2.863 0 0 1 32 29.14 2.863 2.863 0 0 1 34.86 32 2.864 2.864 0 0 1 32 34.86" style="fill: #ffffff;"/></svg>
