<?xml version="1.0" encoding="UTF-8"?>
<svg xmlns="http://www.w3.org/2000/svg" viewBox="0 0 64.1 64.2"><path d="M29.723 48.396h-1.955a1.15 1.15 0 0 1-1.149-1.148v-3.456a.145.145 0 0 0-.148-.149h-3.216a1.15 1.15 0 0 1-1.14-1.158V32.153c0-.633.512-1.148 1.14-1.148H34.19v1H23.255c-.078 0-.14.065-.14.148v10.332c0 .09.06.158.14.158h3.216a1.15 1.15 0 0 1 1.148 1.149v3.456c0 .085.064.148.15.148h1.954c.04 0 .08-.018.103-.047l3.542-4.293c.212-.26.535-.413.886-.413h7.497c.08 0 .139-.068.139-.158V32.163c0-.086-.064-.158-.139-.158h-5.245v-1h5.245c.628 0 1.139.519 1.139 1.158v10.322a1.15 1.15 0 0 1-1.139 1.158h-7.497a.145.145 0 0 0-.111.046L30.6 47.983a1.14 1.14 0 0 1-.877.413z" style="fill: #141414;"/><path d="M51.295 48.084H38.35a2.347 2.347 0 0 1-2.344-2.344v-2.21h1v2.21c0 .741.602 1.344 1.344 1.344h12.945c.741 0 1.344-.603 1.344-1.344V27.921c0-.74-.603-1.343-1.344-1.343H38.35c-.742 0-1.344.603-1.344 1.343v4.081h-2.817v-1h1.817v-3.08a2.347 2.347 0 0 1 2.344-2.344h12.945a2.347 2.347 0 0 1 2.344 2.343v17.82a2.347 2.347 0 0 1-2.344 2.343z" style="fill: #141414;"/><path d="M41.403 45.295c-5.08 0-5.12-.042-5.25-.171l.353-.354h.5-.5l.052-.497c.438.03 10.156.015 16.58-.003l.002 1c-5.532.015-9.242.025-11.737.025zM44.059 45.765h1.538v1h-1.538zM44.051 27.141h1.539v1h-1.539zM41.019 26.078h-1V17.59c-.05-.7-.562-1.174-1.175-1.174h-7.447c-.613 0-1.126.475-1.167 1.082l-.007 7.017h-1V17.59c0-.074.003-.149.017-.223.07-1.067 1.02-1.951 2.157-1.951h7.447c1.137 0 2.089.884 2.165 2.014.01.024.01.106.01.16v8.487z" style="fill: #141414;"/><path d="M29.722 17.254h10.8v1h-10.8zM22.616 42.123H11.794a1.334 1.334 0 0 1-1.333-1.332v-.813c0-.73.598-1.323 1.333-1.323h9.863v1h-9.863a.328.328 0 0 0-.333.323v.813c0 .18.153.332.333.332h10.822v1z" style="fill: #141414;"/><path d="M22.616 39.655h-9.897V26.513a2.5 2.5 0 0 1 2.496-2.497h16.978a2.47 2.47 0 0 1 1.758.728c.475.462.738 1.092.738 1.769v5.379h-1v-5.37c0-.414-.156-.79-.44-1.066a1.482 1.482 0 0 0-1.056-.44H15.215c-.825 0-1.496.671-1.496 1.497v12.142h8.897v1z" style="fill: #141414;"/><path d="M13.219 26.531H34.19v1H13.219zM36.506 28.663h16.633v1H36.506zM27.249 35.436h1v3.981h-1zM32.06 35.436h1v3.981h-1zM36.87 35.436h1v3.981h-1z" style="fill: #141414;"/></svg>
