<?xml version="1.0" encoding="UTF-8"?>
<svg xmlns="http://www.w3.org/2000/svg" viewBox="0 0 63.8 64.2"><path d="M29.247 46.78c-6.923 0-12.555-5.634-12.555-12.556s5.632-12.556 12.555-12.556c2.432 0 4.791.697 6.824 2.015l-.545.838a11.512 11.512 0 0 0-6.279-1.853c-6.372 0-11.555 5.184-11.555 11.556 0 6.372 5.183 11.555 11.555 11.555s11.556-5.183 11.556-11.555c0-.76-.074-1.52-.222-2.264l.98-.194c.16.806.242 1.633.242 2.458 0 6.922-5.633 12.555-12.556 12.555z" style="fill: #141414;"/><path d="M30.833 32.99H28.2a1.95 1.95 0 0 1-1.949-1.948v-3.52a1.95 1.95 0 0 1 1.949-1.947h2.633a1.95 1.95 0 0 1 1.949 1.948v3.519a1.95 1.95 0 0 1-1.949 1.948zM28.2 26.575a.95.95 0 0 0-.949.948v3.519a.95.95 0 0 0 .949.948h2.633a.95.95 0 0 0 .949-.948v-3.52a.95.95 0 0 0-.949-.947H28.2zM22.84 44.155l-.97-.244 1.577-6.263c.264-.814 1.279-2.253 3.48-2.244h5.625c.096.001 2.272.05 2.98 2.867l1.368 5.56-.97.238-1.368-5.557c-.513-2.04-1.958-2.106-2.02-2.108h-5.625c-1.975-.003-2.49 1.461-2.511 1.525l-1.566 6.226zM40.965 32.08c-3.422 0-6.206-2.785-6.206-6.206s2.784-6.207 6.206-6.207 6.206 2.785 6.206 6.207-2.784 6.206-6.206 6.206zm0-11.413c-2.871 0-5.206 2.336-5.206 5.207s2.335 5.206 5.206 5.206 5.206-2.336 5.206-5.206-2.335-5.207-5.206-5.207z" style="fill: #141414;"/><path d="M39.608 26.46c0 .676-.454 1.036-1.274 1.036-.44 0-.81-.117-.993-.183v-.646c.16.08.604.258.974.258.399 0 .605-.15.605-.492 0-.332-.211-.493-.633-.493-.186 0-.347.02-.496.057v-.445l.91-.81h-1.317v-.572h2.107v.562l-.866.811c.028-.005.052-.005.075-.005.478 0 .908.248.908.923zM40.078 25.81c0-1.186.323-1.687 1.237-1.687.909 0 1.237.501 1.237 1.687 0 1.236-.36 1.686-1.237 1.686s-1.237-.45-1.237-1.686zm1.78 0c0-.853-.154-1.092-.543-1.092-.384 0-.544.239-.544 1.092 0 .847.16 1.086.544 1.086.39 0 .543-.239.543-1.086zM43.743 26.231h-.75v-.618h.75v-.75h.618v.75h.75v.618h-.75v.75h-.618v-.75z" style="fill: #141414;"/></svg>
