<?xml version="1.0" encoding="UTF-8"?>
<svg xmlns="http://www.w3.org/2000/svg" viewBox="0 0 64 64"><path d="M36.622 21.16l.682-.732 8.673 8.063-.682.733zM18.024 28.494l8.596-8.066.684.728-8.597 8.067zM35.35 36.862h-6.7a.586.586 0 0 1-.586-.586v-7.673a.586.586 0 0 1 .586-.586h6.7a.586.586 0 0 1 .585.586v7.673a.586.586 0 0 1-.585.586zm-6.114-1.171h5.528v-6.502h-5.528z" style="fill: #141414;"/><path d="M45.074 51.571H18.927a1.337 1.337 0 0 1-1.336-1.335V29.352a1.337 1.337 0 0 1 1.336-1.335h26.147a1.336 1.336 0 0 1 1.335 1.335v20.884a1.336 1.336 0 0 1-1.335 1.335zM18.927 29.19a.164.164 0 0 0-.164.163v20.884a.164.164 0 0 0 .164.164h26.147a.163.163 0 0 0 .163-.164V29.352a.163.163 0 0 0-.163-.163z" style="fill: #141414;"/><path d="M35.35 46.037h7.54v1.172h-7.54zM35.35 44.01h7.54v1.172h-7.54z" style="fill: #141414;"/></svg>
