<?xml version="1.0" encoding="UTF-8"?>
<svg xmlns="http://www.w3.org/2000/svg" viewBox="0 0 64 64.1"><path d="M43.7 46.4l-6.5-3.7-.3-3.5c0-.3.1-.7.2-1l3.5-6c.5-.8 1.5-1.1 2.3-.6l.6.4-1-5c-.2-.9.3-1.7 1.2-2l1.1-.3c.4-.1.9-.1 1.3.2.4.2.7.6.8 1l2.4 8.8c.2.7.1 1.5-.3 2.2l-5.3 9.5zM38.1 42l5.2 3 5-8.7c.3-.4.3-1 .2-1.5L46 26.1c-.1-.4-.5-.6-.8-.5l-1.2.3c-.3.1-.6.4-.5.8l1.3 6.5c.1.4.1.9-.2 1.3L42 39.2l-.9-.5 2.7-4.7c.2-.3.1-.7-.3-.9l-1.1-.6c-.3-.2-.8-.1-1 .2l-3.5 6c-.1.1-.1.3-.1.4l.3 2.9z" style="fill: #141414;"/><path d="M42 50.7c-.3 0-.6-.1-.8-.2l-7.1-4.1c-.8-.5-1.1-1.5-.6-2.3l1.2-2.1c.2-.4.6-.7 1-.8.4-.1.9-.1 1.3.2l7.1 4.1c.4.2.7.6.8 1 .1.4.1.9-.2 1.3l-1.2 2.1c-.2.4-.6.7-1 .8H42zm-5.9-8.5h-.2c-.2 0-.3.2-.4.3l-1.2 2.1c-.2.3-.1.7.2 1h.1l7.1 4.1c.3.2.8.1 1-.2v-.1l1.2-2.1c.2-.3.1-.8-.2-1l-7.1-4.1c-.2 0-.3-.1-.5 0z" style="fill: #141414;"/><g><path d="M20.3 46.4l-5.4-9.5c-.4-.7-.5-1.4-.3-2.2l2.4-8.8c.1-.4.4-.8.8-1 .4-.2.9-.3 1.3-.1l1.1.3c.8.2 1.3 1.1 1.2 1.9l-1 5 .6-.4c.8-.5 1.9-.2 2.3.6l3.5 6c.2.3.3.7.2 1l-.3 3.5-6.4 3.7zm-1.7-20.8c-.1 0-.2 0-.3.1-.2.1-.3.2-.3.4l-2.4 8.8c-.1.5-.1 1 .2 1.4l5 8.7 5.2-3 .2-2.9c0-.1 0-.3-.1-.4l-3.5-6c-.2-.3-.6-.4-.9-.2l-1.1.7c-.2.1-.3.2-.3.4s0 .4.1.5l2.7 4.7-1.1.4-2.7-4.7c-.2-.4-.3-.8-.2-1.3l1.3-6.5c.1-.4-.1-.7-.5-.8l-1.1-.3h-.2z" style="fill: #141414;"/><path d="M22 50.7c-.2 0-.3 0-.5-.1-.4-.1-.8-.4-1-.8l-1.2-2.1c-.5-.8-.2-1.9.6-2.3l7.1-4.1c.4-.2.9-.3 1.3-.2.4.1.8.4 1 .8l1.2 2.1c.2.4.3.9.2 1.3-.1.4-.4.8-.8 1l-7.1 4.1c-.2.2-.5.3-.8.3zm5.9-8.5c-.1 0-.2 0-.4.1l-7.1 4.1c-.2.1-.3.2-.3.4s0 .4.1.5l1.2 2.1c.1.2.2.3.4.3.2.1.4 0 .5-.1l7.1-4.1c.2-.1.3-.2.3-.4s0-.4-.1-.5l-1.2-2.1c-.1-.2-.3-.3-.4-.3h-.1z" style="fill: #141414;"/></g><g><path d="M31.6 16.9h1v7.6h-1zM24.662 18.935l.866-.5 3.8 6.581-.866.5zM34.88 25.042l3.802-6.581.866.5-3.802 6.581z" style="fill: #141414;"/></g></svg>
