<?xml version="1.0" encoding="UTF-8"?>
<svg xmlns="http://www.w3.org/2000/svg" viewBox="0 0 64 64"><path d="M45.22 27.43l5.325-8.063.834.551-5.326 8.063zM12.611 19.92l.835-.553 5.336 8.063-.835.552zM35.35 35.71h-6.7a.586.586 0 0 1-.586-.585v-7.673a.586.586 0 0 1 .586-.586h6.7a.586.586 0 0 1 .585.586v7.673a.586.586 0 0 1-.585.586zm-6.114-1.171h5.528v-6.501h-5.528z" style="fill: #ffffff;"/><path d="M45.074 50.42H18.927a1.337 1.337 0 0 1-1.336-1.335V28.2a1.337 1.337 0 0 1 1.336-1.335h26.147a1.336 1.336 0 0 1 1.335 1.335v20.884a1.336 1.336 0 0 1-1.335 1.335zM18.927 28.038a.164.164 0 0 0-.164.163v20.884a.164.164 0 0 0 .164.163h26.147a.163.163 0 0 0 .163-.163V28.2a.163.163 0 0 0-.163-.163z" style="fill: #ffffff;"/><path d="M35.35 44.887h7.54v1.172h-7.54zM35.35 42.859h7.54v1.172h-7.54z" style="fill: #ffffff;"/></svg>
