<?xml version="1.0" encoding="UTF-8"?>
<svg xmlns="http://www.w3.org/2000/svg" viewBox="0 0 64 64"><path d="M45.173 28.384l.859-.512 5.327 8.937-.859.512zM13.425 37.321l-.86-.512 5.336-8.937.86.512-5.336 8.937zM35.316 36.133h-6.698a.586.586 0 0 1-.586-.586v-7.673a.586.586 0 0 1 .586-.586h6.698a.586.586 0 0 1 .586.586v7.673a.586.586 0 0 1-.586.586zm-6.112-1.172h5.526V28.46h-5.526z" style="fill: #ffffff;"/><path d="M45.041 50.842H18.893a1.336 1.336 0 0 1-1.335-1.335V28.623a1.336 1.336 0 0 1 1.335-1.335h26.148a1.336 1.336 0 0 1 1.335 1.335v20.884a1.336 1.336 0 0 1-1.335 1.335zM18.893 28.46a.163.163 0 0 0-.163.163v20.884a.163.163 0 0 0 .163.163h26.148a.163.163 0 0 0 .163-.163V28.623a.163.163 0 0 0-.163-.163z" style="fill: #ffffff;"/><path d="M35.316 45.308h7.541v1.172h-7.541zM35.316 43.281h7.541v1.172h-7.541z" style="fill: #ffffff;"/></svg>
