<?xml version="1.0" encoding="UTF-8"?>
<svg xmlns="http://www.w3.org/2000/svg" viewBox="0 0 64.111 63.839"><path fill="#00243d" d="M42.124 49.965V31.62c.436.07.88.117 1.336.117 4.635 0 8.405-3.77 8.405-8.404s-3.77-8.405-8.405-8.405c-4.634 0-8.404 3.771-8.404 8.405 0 .387.035.765.086 1.139l-4.384-2.192a3.015 3.015 0 0 0-1.342-.316h-4.584c-.464 0-.928.109-1.342.316L12.953 27.55c-.512.256-.83.77-.83 1.341v21.074h-3.16v1h46v-1h-12.84zm1.336-34.036c4.083 0 7.405 3.322 7.405 7.405s-3.322 7.404-7.405 7.404-7.404-3.321-7.404-7.404 3.32-7.405 7.404-7.405zM13.4 28.444l10.537-5.268c.277-.138.585-.211.895-.211h4.584c.31 0 .618.073.894.21l5.096 2.548a8.432 8.432 0 0 0 5.718 5.678v3.375h-28v-5.885c0-.19.106-.362.276-.447zm-.276 21.52V35.777h2.652v14.189h-2.652zm6.158 0v-6.742h2.623v2.655h3.317v-2.655h2.623v6.743h-8.563zm3.623-6.742h1.317v1.655h-1.317v-1.655zm10.146 2.508h.551v.779h-.551v-.779zm1.551 1.779V45.73h1.426v4.185h-5.404V45.73h1.427v1.779h2.551zm2.426 2.456v-4.56a.675.675 0 0 0-.674-.675h-6.056a.675.675 0 0 0-.674.674v4.56h-.78v-6.983a.76.76 0 0 0-.758-.759H19.04a.76.76 0 0 0-.759.76v6.983h-1.346V35.776h20.818v14.189h-.726zm1.886 0V35.776h2.21v14.189h-2.21z" style="fill: #141414;"/><path fill="#00243d" d="M17.624 28.965h1v3h-1zM23.624 28.965h1v3h-1zM29.624 28.965h1v3h-1zM35.624 28.965h1v3h-1zM38.63 19.82l1.333 6.835h.61c-.031.113-.053.23-.053.353a1.363 1.363 0 0 0 2.723 0c0-.123-.022-.24-.052-.353h1.657c-.03.113-.052.23-.052.353 0 .75.611 1.362 1.362 1.362s1.361-.611 1.361-1.362c0-.123-.021-.24-.052-.353h.409a.5.5 0 1 0 0-1h-1.631c-.03-.002-.057-.009-.087-.009s-.058.007-.087.009H41.97c-.03-.002-.058-.009-.087-.009-.03 0-.058.007-.087.009h-1.008l-.13-.667h6.408a.96.96 0 0 0 .89-.61l1.067-2.762a.953.953 0 0 0-.89-1.295h-8.385l-.293-1.5h-1.12a.5.5 0 1 0 0 1h.296zm3.613 7.188a.362.362 0 1 1-.723 0c0-.184.14-.33.318-.353h.087a.358.358 0 0 1 .318.353zm4.276 0a.362.362 0 1 1-.723 0c0-.184.14-.33.318-.353h.087a.358.358 0 0 1 .318.353zm1.57-5.752l-1.024 2.732h-6.603l-.521-2.672 8.148-.06zM24.722 47.839h2.607v1h-2.607zM34.102 48.472h1.746v1h-1.746z" style="fill: #141414;"/></svg>
