<?xml version="1.0" encoding="UTF-8"?>
<svg xmlns="http://www.w3.org/2000/svg" viewBox="0 0 64.111 63.839"><path fill="#00243d" d="M17.167 23.628h3.585c.515 0 .935-.42.935-.936v-2.82h1.22a.5.5 0 1 0 0-1h-1.22v-.518a.936.936 0 0 0-.935-.935h-3.585a.936.936 0 0 0-.936.935v4.338c0 .516.42.936.936.936zm3.52-.999l-3.456.063-.042-2.82h3.498v2.757zm0-4.275v.518h-3.513l-.007-.453 3.52-.065zM42.184 23.628h3.586c.516 0 .935-.42.935-.936v-4.338a.935.935 0 0 0-.935-.935h-3.586a.936.936 0 0 0-.935.935v4.338c0 .516.42.936.935.936zm3.52-5.274l.066 4.274h-3.522l-.064-4.209 3.52-.065zM48.402 25.557a1.088 1.088 0 0 0-1.086-1.082H41.28a1.17 1.17 0 0 0-.926.45l-3.147 4.01c-.024.032-.062.04-.099.05v-2.51c0-.599-.45-1.085-1.004-1.085h-9.076c-.553 0-1.003.486-1.003 1.085v2.528h-.155a.178.178 0 0 1-.14-.068l-3.146-4.011a1.17 1.17 0 0 0-.925-.45H15.62a1.09 1.09 0 0 0-1.086 1.083l-.059 14.07c0 .29.112.564.318.77.205.206.477.319.768.319h.297c.048 0 .086.038.086.086v8.964c0 .598.487 1.086 1.086 1.086h3.294c.599 0 1.086-.488 1.086-1.086v-8.964c0-.048.038-.086.086-.086h.36c.291 0 .565-.114.77-.32s.316-.48.315-.77l-.031-7.969 1.086 1.221c.207.167.469.259.735.259l1.293-.001v.796c0 .598.45 1.085 1.003 1.085h9.076c.554 0 1.004-.487 1.004-1.085v-.796h1.098c.268 0 .53-.091.797-.317l1.025-1.156-.032 7.963c-.001.291.111.565.317.77.205.207.478.32.769.32h.36c.047 0 .085.038.085.086v8.964c0 .598.488 1.086 1.086 1.086h3.294c.599 0 1.086-.488 1.086-1.086v-8.964c0-.048.038-.086.086-.086h.297a1.081 1.081 0 0 0 1.086-1.09l-.059-14.07zm-17.957.865l2.24.02V27.6h-2.24v-1.177zm-5.764 5.732l-1.902-2.147a.499.499 0 1 0-.874.333l.036 9.29-.086.086h-.36c-.598 0-1.085.487-1.085 1.086v8.964a.085.085 0 0 1-.086.086H17.03a.085.085 0 0 1-.086-.086v-8.964c0-.599-.487-1.086-1.086-1.086h-.297l-.086-.086.059-14.068c0-.048.039-.087.086-.087h6.038c.055 0 .105.025.139.067l3.145 4.01c.226.287.564.451.928.451L29.074 30c.098 0 .177.08.177.177v1.781c0 .098-.08.177-.176.177l-4.344.003c-.039-.001-.073-.013-.05.017zm11.422 1.863l-9.079-.085v-.797l2.051-.001c.648 0 1.176-.528 1.176-1.177v-1.781c0-.649-.529-1.177-1.178-1.177l-2.048.003.002-2.612 2.418.022V28.1a.5.5 0 0 0 .5.5h3.24a.5.5 0 0 0 .5-.5v-1.647l2.422.023v2.527l-2.245-.003c-.648 0-1.177.528-1.177 1.177v1.781c0 .649.529 1.177 1.177 1.177l2.244.001-.003.882zm11.272 5.699h-.297c-.599 0-1.086.487-1.086 1.086v8.964a.085.085 0 0 1-.086.086h-3.294a.085.085 0 0 1-.086-.086v-8.964c0-.599-.487-1.086-1.086-1.086l-.42-.025a.084.084 0 0 1-.025-.061l.037-9.29a.499.499 0 0 0-.874-.333l-1.844 2.092a.17.17 0 0 1-.11.038l-4.342-.003a.177.177 0 0 1-.177-.177v-1.781c0-.098.08-.177.176-.177l3.207.004c.364 0 .702-.165.926-.451l3.146-4.01a.178.178 0 0 1 .14-.067h6.036c.048 0 .086.037.086.086l.059 14.069-.086.086zM30.829 19.646h.539a.67.67 0 0 0 .575-.323l1.886-3.07-.852-.523-1.79 2.916h-.194l-1.058-1.42-.802.597 1.157 1.554c.128.168.329.269.539.269z" style="fill: #141414;"/><path fill="#00243d" d="M31.469 23.085a5.13 5.13 0 0 0 3.653-1.514 5.17 5.17 0 0 0 0-7.305 5.174 5.174 0 0 0-7.307 0 5.17 5.17 0 0 0 0 7.305 5.13 5.13 0 0 0 3.654 1.514zm-2.947-8.112c.813-.813 1.88-1.219 2.947-1.219s2.133.406 2.946 1.219a4.171 4.171 0 0 1 0 5.891c-.787.787-1.833 1.221-2.946 1.221s-2.16-.434-2.947-1.22a4.171 4.171 0 0 1 0-5.892z" style="fill: #141414;"/></svg>
