<?xml version="1.0" encoding="UTF-8"?>
<svg xmlns="http://www.w3.org/2000/svg" viewBox="0 0 63.7 63.8"><path d="M31.3 32c-3.4 0-6.2-2.8-6.2-6.2s2.8-6.2 6.2-6.2 6.2 2.8 6.2 6.2c0 3.4-2.8 6.2-6.2 6.2zm0-11.4c-2.9 0-5.2 2.3-5.2 5.2s2.3 5.2 5.2 5.2 5.2-2.3 5.2-5.2-2.3-5.2-5.2-5.2z" style="fill: #141414;"/><path fill-rule="evenodd" d="M30.7 25.8v-3h.9v3l2.6 2.6-.6.6-2.6-2.6c-.2-.1-.3-.3-.3-.6z" clip-rule="evenodd" style="fill: #141414;"/><g><path d="M38.565 40.145H25.641a.92.92 0 0 1-.92-.92v-2.408c0-.506.413-.92.92-.92h12.924a.92.92 0 0 1 .92.92v2.409a.92.92 0 0 1-.92.919zm-12.843-1h12.762v-2.248H25.722v2.248z" style="fill: #141414;"/><path d="M33.308 50.662h-2.409a.921.921 0 0 1-.92-.92v-9.678c0-.506.413-.92.92-.92h2.409a.92.92 0 0 1 .919.92v9.678a.92.92 0 0 1-.92.92zm-2.329-1h2.248v-9.517h-2.248v9.517zM49.145 32.512h-3.517a.928.928 0 0 1-.928-.928V27.33c0-.511.416-.927.928-.927h3.517c.51 0 .926.416.926.927v4.255a.928.928 0 0 1-.926.928zm-3.445-1h3.371v-4.11h-3.37v4.11zM42.679 50.394h-1.787c-.8 0-1.45-.65-1.45-1.45V42.42c0-.758.618-1.375 1.376-1.375h2.526v-4.588c0-.759.617-1.376 1.376-1.376h5.259c.798 0 1.449.65 1.449 1.45v7.899c0 .799-.65 1.449-1.45 1.449h-5.85v3.066c0 .8-.65 1.45-1.45 1.45zm-1.86-8.35a.376.376 0 0 0-.377.375v6.525c0 .248.202.45.45.45h1.787a.45.45 0 0 0 .449-.45v-3.566a.5.5 0 0 1 .5-.5h6.35a.45.45 0 0 0 .45-.45V36.53a.45.45 0 0 0-.45-.449H44.72a.377.377 0 0 0-.376.376v5.088a.5.5 0 0 1-.5.5h-3.026z" style="fill: #141414;"/><path d="M51.832 47.741h-6.35v-1h6.35a.45.45 0 0 0 .45-.449v-7.9h1v7.9c0 .799-.651 1.45-1.45 1.45zM46.886 35.456h1v6.033h-1z" style="fill: #141414;"/><g><path d="M18.58 32.512h-3.517a.928.928 0 0 1-.928-.928V27.33c0-.511.416-.927.928-.927h3.516c.511 0 .927.416.927.927v4.255a.928.928 0 0 1-.927.928zm-3.445-1h3.37v-4.11h-3.37v4.11zM23.315 50.394h-1.787c-.8 0-1.45-.65-1.45-1.45v-3.066h-5.85c-.8 0-1.45-.65-1.45-1.45V36.53c0-.799.65-1.449 1.45-1.449h5.259c.759 0 1.376.617 1.376 1.376v4.588h2.526c.758 0 1.376.617 1.376 1.375v6.525c0 .8-.65 1.45-1.45 1.45zM14.228 36.08a.45.45 0 0 0-.45.45v7.899c0 .248.202.449.45.449h6.35a.5.5 0 0 1 .5.5v3.566c0 .248.202.45.45.45h1.787a.45.45 0 0 0 .45-.45V42.42a.376.376 0 0 0-.376-.375h-3.026a.5.5 0 0 1-.5-.5v-5.088a.376.376 0 0 0-.376-.376h-5.259z" style="fill: #141414;"/><path d="M18.725 47.741h-6.35c-.8 0-1.45-.65-1.45-1.449v-7.9h1v7.9c0 .248.202.45.45.45h6.35v1zM16.321 35.456h1v6.033h-1z" style="fill: #141414;"/></g><g><path d="M38.565 40.145H25.641a.92.92 0 0 1-.92-.92v-2.408c0-.506.413-.92.92-.92h12.924a.92.92 0 0 1 .92.92v2.409a.92.92 0 0 1-.92.919zm-12.843-1h12.762v-2.248H25.722v2.248z" style="fill: #141414;"/><path d="M33.308 50.662h-2.409a.921.921 0 0 1-.92-.92v-9.678c0-.506.413-.92.92-.92h2.409a.92.92 0 0 1 .919.92v9.678a.92.92 0 0 1-.92.92zm-2.329-1h2.248v-9.517h-2.248v9.517z" style="fill: #141414;"/></g></g></svg>
