<?xml version="1.0" encoding="UTF-8"?>
<svg xmlns="http://www.w3.org/2000/svg" viewBox="0 0 64 64"><path fill="#1a1a18" d="M30.22 32.024h3.497a.975.975 0 0 0 1-.949v-4.553a.975.975 0 0 0-1-.948h-3.496a.975.975 0 0 0-1 .948v4.553a.975.975 0 0 0 1 .949zm0-5.45h3.497v4.45l-3.496-.005v-4.445zM43.286 27.583h3.496a.975.975 0 0 0 1-.949v-4.553a.975.975 0 0 0-1-.948h-3.496a.975.975 0 0 0-1 .948v4.553a.975.975 0 0 0 1 .949zm0-5.45h3.496v4.45l-3.496-.004v-4.446z" style="fill: #141414;"/><path fill="#1a1a18" d="M49.538 29.712H40.53a2.502 2.502 0 0 0-2.5 2.5v2.501a2.475 2.475 0 0 0-1.557-.56h-9.008c-.54.003-1.065.181-1.495.51v-2.66a2.502 2.502 0 0 0-2.5-2.5h-9.008a2.502 2.502 0 0 0-2.5 2.5v5.38c.001.471.222.914.597 1.199l2.234 1.684v4.57c0 .828.671 1.499 1.5 1.5h5.346c.828-.001 1.5-.672 1.5-1.5v-4.57l1.826-1.377v3.146c.001.47.222.913.597 1.197l2.233 1.685v4.569c.001.828.672 1.499 1.5 1.5h5.347c.828-.001 1.5-.672 1.5-1.5v-4.57l2.233-1.684c.376-.283.597-.726.598-1.197v-2.982l1.888 1.423v4.57c0 .828.672 1.499 1.5 1.5h5.347c.828-.001 1.499-.672 1.5-1.5v-4.57l2.234-1.685a1.51 1.51 0 0 0 .596-1.198v-5.38a2.502 2.502 0 0 0-2.5-2.5zm-24.767 8.07l-1.632 1.232v-5.25h-1v11.072c0 .275-.224.499-.5.5h-5.346a.501.501 0 0 1-.5-.5V33.763h-1v5.25l-1.632-1.23a.503.503 0 0 1-.199-.4v-5.38c.001-.829.672-1.5 1.5-1.5h9.008c.828 0 1.5.671 1.5 1.5v4.603c0 .016-.005.031-.005.048v.75a.499.499 0 0 1-.194.379zm13.202 4.253a.5.5 0 0 1-.199.398l-1.632 1.231v-5.25h-1v11.072c0 .276-.224.5-.5.5h-5.347a.501.501 0 0 1-.5-.5V38.414h-1v5.25l-1.632-1.23a.503.503 0 0 1-.198-.4v-4.61c0-.013.005-.027.005-.04v-.778a1.5 1.5 0 0 1 1.495-1.452h9.008c.828 0 1.5.672 1.5 1.5v5.38zm13.065-4.442a.496.496 0 0 1-.199.4l-1.631 1.23v-5.25h-1v11.072c-.001.276-.224.5-.5.5H42.36a.501.501 0 0 1-.5-.5V33.973h-1v5.251l-1.632-1.23a.498.498 0 0 1-.2-.4v-5.382c.002-.828.673-1.499 1.5-1.5h9.009c.828.001 1.499.672 1.5 1.5v5.381zM17.218 27.373h3.496a.975.975 0 0 0 1-.949v-4.553a.975.975 0 0 0-1-.948h-3.496a.975.975 0 0 0-1 .948v4.553a.975.975 0 0 0 1 .949zm0-5.45h3.496v4.45l-3.496-.004v-4.446zM36.11 22.81h2.71a.756.756 0 0 0 .776-.735v-3.53a.756.756 0 0 0-.776-.735h-2.71a.756.756 0 0 0-.775.735v3.53a.756.756 0 0 0 .775.735zm.225-4h2.26v3h-2.26v-3zM44.233 17.394h2.262a.631.631 0 0 0 .647-.614v-2.946a.631.631 0 0 0-.647-.613h-2.262a.631.631 0 0 0-.647.613v2.946c.01.348.299.623.647.614zm.353-3.173h1.556v2.173h-1.556V14.22zM19.613 17.394h2.262a.631.631 0 0 0 .647-.614v-2.946a.631.631 0 0 0-.647-.613h-2.262a.631.631 0 0 0-.647.613v2.946c.01.348.299.623.647.614zm.353-3.173h1.556v2.173h-1.556V14.22zM31.65 17.394h2.262a.631.631 0 0 0 .647-.614v-2.946a.631.631 0 0 0-.647-.613h-2.263a.631.631 0 0 0-.647.613v2.946c.01.348.3.623.647.614zm.352-3.173h1.557v2.173h-1.557V14.22zM25.117 22.81h2.71a.756.756 0 0 0 .776-.735v-3.53a.756.756 0 0 0-.775-.735h-2.71a.756.756 0 0 0-.776.735v3.53a.756.756 0 0 0 .775.735zm.225-4h2.261v3h-2.26v-3z" style="fill: #141414;"/></svg>
