<?xml version="1.0" encoding="UTF-8"?>
<svg xmlns="http://www.w3.org/2000/svg" viewBox="0 0 64 64"><path fill="#00243f" d="M40.951 51.512a8.249 8.249 0 1 1 8.25-8.248 8.258 8.258 0 0 1-8.25 8.248zm0-15.497a7.249 7.249 0 1 0 7.25 7.25 7.257 7.257 0 0 0-7.25-7.25z" style="fill: #141414;"/><path fill="#00243f" d="M40.784 46.393h-.898a.796.796 0 0 1-.634-.318l-1.925-2.586.801-.598 1.863 2.502h.676l3.082-5.02.852.523-3.143 5.12a.794.794 0 0 1-.674.377zm-.178-.9h-.001zM32.953 45.138h-10.75a3.38 3.38 0 0 1-3.377-3.376V19.484a3.38 3.38 0 0 1 3.377-3.377h12.745a1.588 1.588 0 0 1 1.188.52l5.08 5.493a1.751 1.751 0 0 1 .343.509 1.964 1.964 0 0 1 .142.718v12.168h-1V23.347a.919.919 0 0 0-.064-.332.776.776 0 0 0-.142-.2l-5.1-5.514a.598.598 0 0 0-.447-.194H22.203a2.38 2.38 0 0 0-2.377 2.377v22.278a2.379 2.379 0 0 0 2.377 2.376h10.75z" style="fill: #141414;"/><path fill="#00243f" d="M41.277 23.339h-4.722a1.623 1.623 0 0 1-1.621-1.621v-4.949h1v4.949a.622.622 0 0 0 .621.62h4.722zM26.567 32.368h-2.613v-1h2.613a.147.147 0 0 0 .147-.147v-1.143a.147.147 0 0 0-.147-.147H24.6a1.148 1.148 0 0 1-1.146-1.146V27.64a1.148 1.148 0 0 1 1.146-1.146h2.614v1H24.6a.147.147 0 0 0-.146.146v1.144a.147.147 0 0 0 .146.146h1.967a1.148 1.148 0 0 1 1.147 1.147v1.143a1.148 1.148 0 0 1-1.147 1.147z" style="fill: #141414;"/><path fill="#00243f" d="M25.084 26.012h1v.982h-1zM25.084 31.876h1v.982h-1zM29.671 29.162h7.3v1h-7.3zM29.671 31.867h7.3v1h-7.3zM29.671 26.39H33.8v1h-4.129z" style="fill: #141414;"/></svg>
