<?xml version="1.0" encoding="UTF-8"?>
<svg xmlns="http://www.w3.org/2000/svg" data-name="Layer 1" viewBox="0 0 64 64"><path fill="#00243d" d="M20 33h3v1h-3zM25 33h3v1h-3zM30 33h3v1h-3z" style="fill: #141414;"/><path fill="#00243d" d="M50.27 33.41l-2.48-3.1A3.49 3.49 0 0 0 45.06 29h-5.72l-9.3-11.62a1 1 0 0 0-.78-.38h-1.15a.97.97 0 0 0-.77.37.99.99 0 0 0-.21.83L29.29 29h-8.55l-3.7-4.62a1 1 0 0 0-.78-.38H14a1.003 1.003 0 0 0-1 1v6.45a3.453 3.453 0 0 0 .77 2.18l3.24 4.06A3.49 3.49 0 0 0 19.74 39h9.55l-2.16 10.8a.99.99 0 0 0 .21.83.97.97 0 0 0 .77.37h1.15a1 1 0 0 0 .78-.38L39.34 39h8.16a3.504 3.504 0 0 0 3.5-3.5 3.362 3.362 0 0 0-.73-2.09zM28.11 18h1.15l8.8 11h-7.75zM14 25h2.26l3.2 4H14zm15.26 25h-1.15l2.2-11h7.75zM47.5 38H19.74a2.483 2.483 0 0 1-1.95-.94l-3.24-4.05a2.474 2.474 0 0 1-.55-1.56V30h31.06a2.483 2.483 0 0 1 1.95.94L48.66 33H42v1h7.46l.02.03A2.335 2.335 0 0 1 50 35.5a2.5 2.5 0 0 1-2.5 2.5z" style="fill: #141414;"/></svg>
