<?xml version="1.0" encoding="UTF-8"?>
<svg xmlns="http://www.w3.org/2000/svg" viewBox="0 0 63.7 64"><path d="M36.3 50.6c-4.5 0-8.2-3.6-8.2-8.1s3.6-8.2 8.1-8.2 8.2 3.6 8.2 8.1-3.6 8.2-8.1 8.2zm0-15.3c-3.9 0-7.2 3.2-7.2 7.1s3.2 7.2 7.1 7.2c3.9 0 7.2-3.2 7.2-7.1 0-4-3.2-7.2-7.1-7.2z" style="fill: #141414;"/><path d="M36.1 45.6h-.9c-.2 0-.5-.1-.6-.3l-1.9-2.5.8-.6 1.8 2.5h.7l3-5 .9.5-3.1 5c-.2.2-.4.4-.7.4zm-.7-.9z" style="fill: #141414;"/><g><path d="M30.4 47.8h-5.8c-.9 0-1.7-.8-1.7-1.7V31.3h.9V46c0 .4.4.8.8.8h5.8v1zM32.2 31.3h.9v4.4h-.9z" style="fill: #141414;"/><path d="M23 39.9l-3.2-2.3c-.4-.3-.6-.7-.6-1.1v-7.2c0-1.7 1.3-3 2.9-3h11.7c1.7 0 3 1.3 3 3V35h-.9v-5.6c0-1.2-.9-2.1-2.1-2.1H22.3c-1.1 0-2.1 1-2.1 2.1v7.2c0 .2.1.3.2.4l3.2 2.3-.6.6zM30.3 23h-4.4c-.6 0-1-.4-1-1v-5.4c0-.6.4-1 1-1h4.4c.6 0 1 .4 1 1V22c0 .6-.5 1-1 1zm-4.5-6.5s0 .1 0 0V22s0 .1.1.1h4.4s.1 0 .1-.1v-5.4s0-.1-.1-.1h-4.5z" style="fill: #141414;"/></g></svg>
