<?xml version="1.0" encoding="UTF-8"?>
<svg xmlns="http://www.w3.org/2000/svg" viewBox="0 0 64 63.7"><path d="M44.6 29.9h1v5.5h-1zM18.5 29.4h1v5.5h-1zM31.5 34h1v5.5h-1zM30.22 25.905h3.497v4.45l-3.496-.004v-4.446m3.496-1h-3.496c-.553 0-1 .425-1 .948v4.553c0 .524.447.949 1 .949h3.496c.552 0 1-.425 1-.949v-4.553c0-.523-.448-.948-1-.948z" style="fill: #141414;"/><path d="M35.943 44.398l-.601-.798 2.432-1.835a.496.496 0 0 0 .199-.4v-5.38c0-.828-.673-1.5-1.5-1.5h-9.008c-.827 0-1.5.672-1.5 1.5v5.38a.5.5 0 0 0 .2.4l2.432 1.835-.603.798-2.432-1.835a1.512 1.512 0 0 1-.597-1.198v-5.38c0-1.38 1.121-2.5 2.5-2.5h9.008c1.379 0 2.5 1.12 2.5 2.5v5.38c0 .467-.223.915-.596 1.197l-2.434 1.836z" style="fill: #141414;"/><path d="M34.643 50.317h-5.348c-.827 0-1.5-.672-1.5-1.5V37.745h1v11.072a.5.5 0 0 0 .5.5h5.348c.275 0 .5-.224.5-.5V37.745h1v11.072c0 .828-.673 1.5-1.5 1.5zM46.782 21.464v4.45l-3.496-.004v-4.446h3.496m0-1h-3.496c-.552 0-1 .425-1 .949v4.553c0 .523.448.948 1 .948h3.496c.552 0 1-.425 1-.948v-4.553c0-.524-.448-.949-1-.949zM49.008 39.958l-.602-.799 2.434-1.835a.503.503 0 0 0 .198-.4v-5.38c0-.827-.673-1.5-1.5-1.5H40.53c-.827 0-1.5.673-1.5 1.5v5.38c0 .157.074.306.2.401l2.431 1.834-.601.799-2.433-1.835a1.512 1.512 0 0 1-.597-1.198v-5.381c0-1.378 1.121-2.5 2.5-2.5h9.008c1.379 0 2.5 1.122 2.5 2.5v5.38c0 .468-.223.916-.596 1.198l-2.434 1.836z" style="fill: #141414;"/><path d="M47.707 45.877H42.36c-.827 0-1.5-.673-1.5-1.5V33.305h1v11.072c0 .275.225.5.5.5h5.347c.275 0 .5-.225.5-.5V33.305h1v11.072c0 .827-.673 1.5-1.5 1.5zM17.218 21.254h3.496v4.45l-3.496-.004v-4.446m3.496-1h-3.496c-.552 0-1 .425-1 .949v4.552c0 .524.448.949 1 .949h3.496c.552 0 1-.425 1-.949v-4.552c0-.524-.448-.949-1-.949zM15.02 39.768l-2.827-1.836a.499.499 0 0 1-.227-.42l-.004-6.178c0-1.378 1.121-2.5 2.5-2.5h9.008c1.379 0 2.5 1.122 2.5 2.5v5.38c0 .47-.223.917-.597 1.198l-2.432 1.836-.603-.799 2.433-1.836a.5.5 0 0 0 .2-.398v-5.381c0-.827-.674-1.5-1.5-1.5h-9.01c-.826 0-1.5.673-1.5 1.5l.005 5.907 2.599 1.689-.545.838z" style="fill: #141414;"/><path d="M21.64 45.667h-5.348c-.827 0-1.5-.673-1.5-1.5V33.095h1v11.072a.5.5 0 0 0 .5.5h5.348a.5.5 0 0 0 .5-.5V33.095h1v11.072c0 .827-.673 1.5-1.5 1.5z" style="fill: #141414;"/><g><path d="M38.596 18.141v3h-2.261v-3h2.26m.225-1h-2.71c-.428 0-.775.33-.775.736v3.529c0 .406.347.735.775.735h2.71c.429 0 .776-.329.776-.735v-3.53c0-.406-.347-.735-.776-.735z" style="fill: #141414;"/></g><g><path d="M46.142 13.552v2.173h-1.556v-2.173h1.556m.353-1h-2.262c-.358 0-.647.275-.647.614v2.945c0 .34.29.614.647.614h2.262c.357 0 .647-.275.647-.614v-2.945c0-.34-.29-.614-.647-.614z" style="fill: #141414;"/></g><g><path d="M21.522 13.552v2.173h-1.556v-2.173h1.556m.353-1h-2.262c-.357 0-.647.275-.647.614v2.945c0 .34.29.614.647.614h2.262c.358 0 .647-.275.647-.614v-2.945c0-.34-.29-.614-.647-.614z" style="fill: #141414;"/></g><g><path d="M33.559 13.552v2.173h-1.557v-2.173h1.557m.353-1h-2.263c-.357 0-.647.275-.647.614v2.945c0 .34.29.614.647.614h2.263c.357 0 .647-.275.647-.614v-2.945c0-.34-.29-.614-.647-.614z" style="fill: #141414;"/></g><g><path d="M27.603 18.141v3h-2.26v-3h2.26m.225-1h-2.71c-.429 0-.776.33-.776.736v3.529c0 .406.347.735.775.735h2.71c.429 0 .776-.329.776-.735v-3.53c0-.406-.347-.735-.775-.735z" style="fill: #141414;"/></g></svg>
