<?xml version="1.0" encoding="UTF-8"?>
<svg xmlns="http://www.w3.org/2000/svg" viewBox="0 0 64.111 63.839"><path fill="#00243d" d="M40.65 16.016h-2.83v-.364c0-.697-.567-1.264-1.264-1.264h-9c-.698 0-1.266.567-1.266 1.265v.363h-2.83a3.228 3.228 0 0 0-3.223 3.224v26.987a3.228 3.228 0 0 0 3.224 3.225h17.2a3.217 3.217 0 0 0 3.213-3.213V19.24a3.228 3.228 0 0 0-3.224-3.224zm-13.36-.363c0-.146.12-.265.266-.265h9c.146 0 .265.118.265.264v1.72a.265.265 0 0 1-.265.265h-9.001a.265.265 0 0 1-.265-.265v-1.719zM42.874 46.24c0 1.22-.993 2.213-2.213 2.213h-17.2a2.227 2.227 0 0 1-2.224-2.225V19.24c0-1.226.997-2.224 2.224-2.224h2.829v.356c0 .698.567 1.265 1.265 1.265h9.001c.697 0 1.265-.567 1.265-1.265v-.356h2.83c1.225 0 2.223.998 2.223 2.224v27z" style="fill: #141414;"/><path fill="#00243d" d="M24.322 25.416h15.466v1H24.322zM24.322 28.624h15.466v1H24.322zM24.322 22.207h12.143v1H24.322zM24.322 31.832h8.295v1h-8.295zM38.806 39.94c.29-.55.47-1.166.47-1.83 0-2.176-1.77-3.947-3.947-3.947s-3.947 1.77-3.947 3.948c0 .677.19 1.323.51 1.901l-1.825 4.223a.5.5 0 0 0 .576.684l2.209-.534.878 1.843c.083.175.26.286.452.286h.009a.5.5 0 0 0 .45-.302l.724-1.677.724 1.677a.5.5 0 0 0 .45.302h.01a.5.5 0 0 0 .45-.286l.879-1.843 2.208.534a.499.499 0 0 0 .577-.684l-1.857-4.296zm-3.477-4.777c1.625 0 2.947 1.323 2.947 2.948s-1.322 2.947-2.947 2.947a2.95 2.95 0 0 1-2.947-2.947 2.95 2.95 0 0 1 2.947-2.948zm-1.17 9.642l-.579-1.217a.5.5 0 0 0-.569-.27l-1.628.394 1.205-2.79c.07.068.126.147.201.21.71.597 1.612.926 2.54.926l.018-.002-1.187 2.749zm3.56-1.488a.499.499 0 0 0-.57.271l-.579 1.216-.66-1.53.614-1.421a3.943 3.943 0 0 0 1.604-.963l1.22 2.822-1.63-.395z" style="fill: #141414;"/><path fill="#00243d" d="M35.329 40.02c1.053 0 1.91-.857 1.91-1.91s-.857-1.908-1.91-1.908-1.91.856-1.91 1.909.857 1.909 1.91 1.909zm0-2.818a.91.91 0 1 1 0 0zM24.515 39.496h3.706v1h-3.706z" style="fill: #141414;"/></svg>
