<?xml version="1.0" encoding="UTF-8"?>
<svg xmlns="http://www.w3.org/2000/svg" viewBox="0 0 64.3 64"><path d="M48.594 49.379c-.482 0-.952-.235-1.233-.667l-5.321-8.178a1.467 1.467 0 0 1 .43-2.027l2.633-1.713a1.468 1.468 0 0 1 2.027.428l5.321 8.18c.44.677.248 1.586-.428 2.028l-2.632 1.713c-.246.16-.524.236-.797.236zM45.9 37.557a.464.464 0 0 0-.254.075l-2.632 1.713a.467.467 0 0 0-.137.644l5.321 8.178a.468.468 0 0 0 .647.138l2.632-1.713a.467.467 0 0 0 .135-.645l-5.321-8.18a.465.465 0 0 0-.39-.21z" style="fill: #141414;"/><path d="M41.44 34.96l.838-.546 2.2 3.383-.838.545z" style="fill: #141414;"/><path d="M37.595 36.46a8.42 8.42 0 0 1-1.746-.184 8.293 8.293 0 0 1-5.27-3.615 8.294 8.294 0 0 1-1.17-6.282 8.294 8.294 0 0 1 3.615-5.27 8.296 8.296 0 0 1 6.284-1.17 8.294 8.294 0 0 1 5.27 3.616c1.216 1.87 1.631 4.1 1.17 6.282S44 33.891 42.13 35.107a8.288 8.288 0 0 1-4.536 1.353zm-.032-15.704a7.304 7.304 0 0 0-3.994 1.191 7.304 7.304 0 0 0-3.182 4.639 7.305 7.305 0 0 0 1.03 5.53 7.3 7.3 0 0 0 4.639 3.182 7.3 7.3 0 0 0 5.53-1.03 7.3 7.3 0 0 0 3.183-4.638 7.301 7.301 0 0 0-1.03-5.53 7.303 7.303 0 0 0-4.64-3.183 7.43 7.43 0 0 0-1.536-.161z" style="fill: #141414;"/><g><path d="M33.985 31.861l5.774-7.447.79.613-5.773 7.447zM14.413 46.434l-.758-.653 8.959-10.395a.496.496 0 0 1 .703-.054l4.907 4.19 2.887-3.783.795.608L28.7 40.55a.503.503 0 0 1-.722.076l-4.93-4.211-8.634 10.019z" style="fill: #141414;"/><path d="M41.38 29.894l-1-.018.071-4.064a.394.394 0 0 0-.141-.31l-1.043-.863a.392.392 0 0 0-.33-.083l-3.98.823-.204-.98 3.982-.822a1.39 1.39 0 0 1 1.17.292l1.043.864c.327.273.511.672.503 1.096l-.071 4.065z" style="fill: #141414;"/></g></svg>
