<?xml version="1.0" encoding="UTF-8"?>
<svg xmlns="http://www.w3.org/2000/svg" viewBox="0 0 64.1 64"><path d="M34.4 50.6H22.7c-.3 0-.5-.2-.5-.5V38.9c-1.5-1.3-2.4-3.2-2.4-5.2v-5c0-3.8 3.1-6.9 6.8-6.9h5.8c4.9 0 8.9 4 8.9 8.9v.8l2.8 6.8c.2.4.1.9-.1 1.3-.3.4-.7.6-1.1.6h-1.6V43c0 2.2-1.8 3.9-3.9 3.9h-2.5V50c0 .4-.2.6-.5.6zm-11.2-1h10.7v-3.1c0-.3.2-.5.5-.5h3c1.6 0 2.9-1.3 2.9-2.9v-3.3c0-.3.2-.5.5-.5h2.1c.1 0 .3-.1.3-.2.1-.1.1-.2 0-.4l-2.8-7v-1c0-4.4-3.6-7.9-7.9-7.9h-5.8c-3.3 0-5.9 2.6-5.9 5.9v5c0 1.8.8 3.5 2.2 4.6.1.1.2.2.2.4v10.9z" style="fill: #141414;"/><path d="M33.2 38.4H28l-.6-1.5c-.4-.9-.9-1.9-1.4-2.7-1.3-2.5-.5-5.7 2-7.1s5.7-.5 7.1 1.9c.5.8.7 1.7.7 2.6 0 .9-.2 1.8-.7 2.6-.5.8-.9 1.6-1.3 2.4l-.6 1.8zm-4.5-1h3.8l.4-1.1c.4-.9.8-1.8 1.3-2.6.4-.6.6-1.4.6-2.1 0-2.3-1.9-4.2-4.2-4.2s-4.2 1.8-4.2 4.2c0 .7.2 1.5.5 2.1.5.9 1 1.9 1.4 2.9l.4.8z" style="fill: #141414;"/><path d="M28.3 31.8h-1c-.1-1 .3-2 1-2.8.6-.5 1.3-.8 2.1-.9v1c-.5 0-1 .2-1.4.6-.5.6-.7 1.3-.7 2.1zM23.83 28.784l.5-.866 1.039.6-.5.865zM35.932 28.293l1.04-.6.5.866-1.04.6zM30 24.4h1v1.2h-1zM28.4 38.8h4.3v1h-4.3zM28.8 40.2h3.6v1h-3.6z" style="fill: #141414;"/></svg>
