<?xml version="1.0" encoding="UTF-8"?>
<svg xmlns="http://www.w3.org/2000/svg" viewBox="0 0 64.111 63.839"><path fill="#00243d" d="M47.258 44.519h2.959v1h-2.959zM33.311 44.519h2.959v1h-2.959zM19.565 44.519h2.959v1h-2.959z" style="fill: #141414;"/><path fill="#00243d" d="M53.293 12.929v9.332H38.02v-7.988a.795.795 0 0 0-.794-.794h-10.26a.795.795 0 0 0-.793.794v7.988h-1.998v-7.988a.795.795 0 0 0-.794-.794H13.12a.795.795 0 0 0-.794.794v7.988h-1.626v-9.332h-1V50.91h1v-1.302h42.592v1.302h1V12.93h-1zm-20.381 1.55v1.01h-1.629v-1.01h1.629zm-5.738 0h3.11v1.51a.5.5 0 0 0 .5.5h2.628a.5.5 0 0 0 .5-.5v-1.51h3.11v7.782h-9.848v-7.782zm-8.109 0v1.01h-1.628v-1.01h1.628zm-5.738 0h3.11v1.51a.5.5 0 0 0 .5.5h2.628a.5.5 0 0 0 .5-.5v-1.51h3.11v7.782h-9.848v-7.782zm-.206 8.782h40.172v11.128h-1.425V26.4a.795.795 0 0 0-.794-.793h-10.26a.795.795 0 0 0-.795.793v7.989h-2.058V26.4a.795.795 0 0 0-.794-.793h-10.26a.795.795 0 0 0-.795.793v7.989H10.701V23.26h2.42zM45.13 38.734h1.628v1.011H45.13v-1.01zm-.5 2.011h2.628a.5.5 0 0 0 .5-.5v-1.51h3.11v7.783h-9.849v-7.784h3.11v1.511a.5.5 0 0 0 .5.5zm6.444-3.01h-10.26a.795.795 0 0 0-.795.793v7.99h-2.097v-7.99a.795.795 0 0 0-.794-.794H26.867a.795.795 0 0 0-.794.794v7.99h-1.897v-7.99a.795.795 0 0 0-.794-.794H13.12a.795.795 0 0 0-.794.794v7.99h-1.626v-11.13h42.592v11.13h-1.425v-7.99a.795.795 0 0 0-.794-.794zm-19.892 1h1.63v1.01h-1.63v-1.01zm-.5 2.01h2.63a.5.5 0 0 0 .5-.5v-1.51h3.11v7.783h-9.849v-7.784h3.11v1.511a.5.5 0 0 0 .5.5zm-13.245-2.01h1.628v1.01h-1.628v-1.01zm-.5 2.01h2.628a.5.5 0 0 0 .5-.5v-1.51h3.11v7.783h-9.848v-7.784h3.11v1.511a.5.5 0 0 0 .5.5zm14.286-14.138h1.627v1.01h-1.627v-1.01zm-.5 2.01h2.627a.5.5 0 0 0 .5-.5v-1.51h3.11v7.782h-9.848v-7.782h3.11v1.51a.5.5 0 0 0 .5.5zm14.407-2.01h1.628v1.01H45.13v-1.01zm-.5 2.01h2.628a.5.5 0 0 0 .5-.5v-1.51h3.11v7.782h-9.849v-7.782h3.11v1.51a.5.5 0 0 0 .5.5zM10.7 48.606v-1.09h42.592v1.09H10.7z" style="fill: #141414;"/><path fill="#00243d" d="M33.35 32.391h2.959v1H33.35zM33.412 20.263h2.959v1h-2.959zM19.565 20.263h2.959v1h-2.959zM47.258 32.391h2.959v1h-2.959z" style="fill: #141414;"/></svg>
