<?xml version="1.0" encoding="UTF-8"?>
<svg xmlns="http://www.w3.org/2000/svg" viewBox="0 0 64 63.8"><path d="M37.1 46.7l-1.9-1.5-.6.8 1.773 1.4H31.8v-4.3h-4.3v4.3h-1v-6.1h-4.3v6.1h-3.1V26.227L20.5 28l.8-.6-1.5-1.9c-.2-.3-.5-.4-.8-.4h-.8c-.3 0-.6.2-.8.4l-1.5 1.9.8.6 1.4-1.773V47.9c0 .3.2.5.5.5h17.773L34.6 49.8l.6.8 1.9-1.5c.3-.2.4-.5.4-.8v-.8c0-.3-.2-.6-.4-.8zm-13.9.7v-5.1h2.3v5.1h-2.3zm5.3 0v-3.3h2.3v3.3h-2.3z" style="fill: #141414;"/><path d="M47.771 45.077l-6.215-6.216a1.37 1.37 0 0 0-1.938 0l-.648.647-1.88-1.88c2.604-2.971 2.498-7.505-.335-10.338-2.953-2.952-7.757-2.952-10.71 0-1.43 1.43-2.217 3.332-2.217 5.355s.788 3.924 2.218 5.354a7.545 7.545 0 0 0 5.354 2.214c1.782 0 3.56-.632 4.983-1.878l1.88 1.88-.648.647a1.374 1.374 0 0 0 .001 1.938l6.216 6.217c.268.266.62.399.97.399.351 0 .703-.134.97-.4l2-2.001a1.372 1.372 0 0 0 0-1.938zm-21.018-7.785a6.528 6.528 0 0 1-1.925-4.647c0-1.756.684-3.406 1.925-4.648 1.281-1.281 2.964-1.921 4.647-1.921s3.367.64 4.648 1.921c2.562 2.563 2.562 6.733 0 9.295s-6.733 2.563-9.295 0zm20.311 9.016l-2 2a.373.373 0 0 1-.525 0l-6.215-6.215a.371.371 0 0 1 0-.524l2.001-2a.369.369 0 0 1 .524 0l6.215 6.215a.37.37 0 0 1 0 .524z" style="fill: #141414;"/><path d="M32.585 32.14h-2.37a.28.28 0 0 1-.28-.28v-1.378a.28.28 0 0 1 .28-.28h3.15v-1H31.9v-.684h-1v.685h-.686a1.28 1.28 0 0 0-1.279 1.279v1.378c0 .706.574 1.28 1.28 1.28h2.37a.28.28 0 0 1 .28.28v1.378a.28.28 0 0 1-.28.28h-3.15v1H30.9v.693h1v-.694h.685c.706 0 1.28-.574 1.28-1.28V33.42c0-.706-.574-1.28-1.28-1.28z" style="fill: #141414;"/></svg>
