<?xml version="1.0" encoding="UTF-8"?>
<svg xmlns="http://www.w3.org/2000/svg" viewBox="0 0 64.111 63.839"><path fill="#00243d" d="M55.668 12.7H36.604a.5.5 0 0 0-.5.5v4.56a.93.93 0 0 0-.865.921v.519h-1.218a.5.5 0 1 0 0 1h1.218v2.82c0 .516.42.935.936.935h3.585a.936.936 0 0 0 .935-.935v-4.339a.937.937 0 0 0-.935-.935h-2.656V13.7h8.357v20.129h-3.035l-.033-7.945a1.088 1.088 0 0 0-1.086-1.081H35.27c-.366 0-.704.164-.926.45l-3.147 4.01a.178.178 0 0 1-.138.067h-.156v-2.528c0-.6-.45-1.085-1.004-1.085h-9.076c-.552 0-1.003.486-1.003 1.085v2.509c-.037-.01-.076-.018-.1-.049l-3.146-4.01a1.17 1.17 0 0 0-.925-.45H9.61a1.09 1.09 0 0 0-1.086 1.082l-.058 14.069c-.001.29.111.564.317.77.205.206.478.32.769.32h.297c.048 0 .086.038.086.086v8.964c0 .598.487 1.085 1.086 1.085h3.294c.598 0 1.085-.487 1.085-1.085v-8.964c0-.048.039-.086.086-.086h.36c.292 0 .565-.115.77-.32.205-.207.318-.48.316-.77l-.032-7.968 1.087 1.222c.207.166.47.257.735.257l1.098-.001v.796c0 .598.45 1.085 1.003 1.085H29.9c.553 0 1.003-.487 1.003-1.085v-.796h1.292c.266 0 .528-.09.797-.316l1.026-1.156-.033 7.962c0 .29.112.564.318.77.205.206.477.32.768.32h.36c.048 0 .086.038.086.086v8.964c0 .598.487 1.085 1.086 1.085h3.294c.598 0 1.086-.487 1.086-1.085v-8.964c0-.048.038-.086.085-.086h.297c.291 0 .564-.114.769-.32.206-.206.318-.48.317-.77l-.006-1.626H53.01v.403c0 .805.655 1.46 1.46 1.46s1.46-.655 1.46-1.46v-1.805c0-.805-.655-1.46-1.46-1.46s-1.46.655-1.46 1.46v.402H42.44l-.01-2.498h13.238a.5.5 0 0 0 .5-.5V13.2a.5.5 0 0 0-.5-.5zm-19.43 10.255l-.041-2.755h3.521l.042 2.755h-3.522zm3.465-3.755h-3.521l-.007-.454 3.52-.065.008.519zM54.01 36.925a.46.46 0 0 1 .92 0v1.805a.46.46 0 0 1-.92 0v-1.805zM24.24 26.749l2.24.02v1.157h-2.24v-1.177zm-5.57 5.733l-1.902-2.147a.499.499 0 1 0-.874.333l.037 9.289-.086.086h-.36c-.598 0-1.086.487-1.086 1.086v8.964a.085.085 0 0 1-.085.085H11.02a.085.085 0 0 1-.086-.085v-8.964c0-.599-.488-1.086-1.086-1.086h-.297l-.086-.086.058-14.069c0-.046.04-.085.086-.085h6.038c.055 0 .106.024.14.067l3.145 4.01c.221.282.567.45.926.45l3.206-.003h.001c.063 0 .104.032.124.05.019.02.051.062.051.126v1.781c0 .098-.079.177-.176.177l-4.343.003c-.038-.001-.078-.015-.051.018zM29.9 34.344l-9.08-.085v-.797l2.246-.001c.648 0 1.175-.529 1.175-1.177v-1.781c0-.315-.123-.61-.345-.833a1.168 1.168 0 0 0-.829-.343h-.002l-2.244.002.002-2.612 2.418.022v1.687a.5.5 0 0 0 .5.5h3.24a.5.5 0 0 0 .5-.5v-1.647l2.422.023v2.527l-2.05-.002h-.002c-.313 0-.608.122-.83.343a1.171 1.171 0 0 0-.345.833v1.78c0 .65.528 1.178 1.177 1.178l2.049.001-.002.881zm11.465 5.699h-.297c-.598 0-1.085.487-1.085 1.086v8.964a.085.085 0 0 1-.086.085h-3.294a.085.085 0 0 1-.086-.085v-8.964c0-.599-.488-1.086-1.086-1.086l-.42-.026a.084.084 0 0 1-.026-.06l.038-9.29a.499.499 0 0 0-.875-.332l-1.841 2.09a.18.18 0 0 1-.112.039l-4.342-.003a.177.177 0 0 1-.177-.177v-1.781a.176.176 0 0 1 .176-.176l3.207.003c.358 0 .704-.168.925-.45l3.148-4.011a.173.173 0 0 1 .138-.067h6.037c.047 0 .086.039.086.085l.058 14.07.5-.002-.586.088zm5.096-6.214V13.7h8.568v20.129h-8.568z" style="fill: #141414;"/><path fill="#00243d" d="M11.157 23.955h3.585a.936.936 0 0 0 .936-.935v-4.339a.937.937 0 0 0-.936-.935h-3.585a.937.937 0 0 0-.935.935v4.34c0 .515.42.934.935.934zm3.52-5.274v4.275l-3.455.064-.065-4.274 3.52-.065zM24.723 19.972h.538a.674.674 0 0 0 .575-.32l1.886-3.072-.852-.524-1.79 2.916h-.194l-1.057-1.42-.803.598L24.18 19.7c.127.17.329.273.543.273z" style="fill: #141414;"/><path fill="#00243d" d="M25.361 23.41a5.151 5.151 0 0 0 3.654-1.51 5.172 5.172 0 0 0 0-7.307 5.173 5.173 0 0 0-7.307 0 5.172 5.172 0 0 0 0 7.306 5.154 5.154 0 0 0 3.653 1.51zm-2.946-8.11a4.174 4.174 0 0 1 5.893 0 4.17 4.17 0 0 1 0 5.892 4.172 4.172 0 0 1-5.893 0 4.17 4.17 0 0 1 0-5.892z" style="fill: #141414;"/></svg>
