<?xml version="1.0" encoding="UTF-8"?>
<svg xmlns="http://www.w3.org/2000/svg" viewBox="0 0 64.111 63.839"><path fill="#00243d" d="M53.3 40.463H51.23c-.848 0-1.538.688-1.542 1.535l-1.106-.756V24.725a1.94 1.94 0 0 0-1.938-1.939H20.722a1.94 1.94 0 0 0-1.939 1.939v3.003l-4.687 3.902c-.234-.334-.604-.567-1.042-.567h-2.37c-.715 0-1.296.582-1.296 1.296v6.76c0 .715.58 1.297 1.296 1.297h2.37c.472 0 .867-.266 1.094-.645l2.575.937 2.06.034v2.32A1.94 1.94 0 0 0 20.722 45h11.785c-.112.464.023.949.389 1.272l2.443 2.162c.583.516 1.333.8 2.111.8h12.254a1.538 1.538 0 0 0 1.525 1.368H53.3c.85 0 1.542-.692 1.542-1.542v-7.055c0-.85-.692-1.542-1.542-1.542zM37.81 23.786v4.432h-8.255v-4.432h8.255zM13.35 39.12a.297.297 0 0 1-.296.297h-2.37a.297.297 0 0 1-.296-.297v-6.76c0-.164.133-.296.296-.296h2.37c.163 0 .296.132.296.296v6.76zm1-.355v-6.085c.013-.009.029-.012.042-.023l6.97-5.775c.02-.015.087-.008.163.022l.717.575.018.174.01.008-2.801 2.496a.906.906 0 0 0 .604 1.58h8.276c.06 0 .107.047.107.108v1.116l-6.76.003v1h6.838c.025 0 .05-.001.074-.003h1.395c.059 0 .107.049.107.108V35.2c0 .06-.047.108-.106.108h-8.19v1h7.529c.06 0 .107.049.107.108l-.044 1.234h-2.482a.976.976 0 0 0-.094-.004l-5.048-.035-.006 1 5.051.035c.067 0 .117.046.117.109v.876a.118.118 0 0 1-.117.117l-9.724.013-2.753-.997zm5.433 4.299v-2.311l7.044-.004c.616 0 1.117-.5 1.117-1.117v-.876c0-.035-.002-.07-.004-.105h1.466c.576 0 1.044-.47 1.044-1.044v-1.19c0-.066-.006-.132-.017-.195.398-.168.677-.563.677-1.02v-1.133a1.11 1.11 0 0 0-1.106-1.108h-.548v-1.116c0-.61-.497-1.108-1.107-1.108H20.32l2.61-2.325c.256-.221.395-.556.374-.886a1.079 1.079 0 0 0-.438-.829l-.768-.615L22 26.02c-.465-.22-.907-.195-1.263.08l-.954.795v-2.17a.94.94 0 0 1 .939-.939h7.833v5.432H38.81v-5.432h7.833a.94.94 0 0 1 .938.939v16.017c-.086-.015-.171-.039-.26-.039h-.008l-6 .032c-.836.006-1.516.69-1.516 1.56v1.098c0 .214.044.419.126.607H20.722a.94.94 0 0 1-.939-.937zm16.218 4.623l-2.443-2.162a.287.287 0 0 1-.081-.33.286.286 0 0 1 .279-.194h12.198L46 43.917h-4.678a.526.526 0 0 1-.525-.524V42.26c0-.288.234-.524.522-.526l5.998-.032h.003a.52.52 0 0 1 .297.092l2.07 1.412v5.027H37.45a2.189 2.189 0 0 1-1.449-.548zm17.842 1.374a.543.543 0 0 1-.542.542h-2.072a.543.543 0 0 1-.542-.542v-7.055c0-.299.243-.542.542-.542H53.3c.299 0 .542.243.542.542v7.055z" style="fill: #141414;"/><path fill="#00243d" d="M38.31 37.975h5.983v1H38.31zM38.31 35.173h5.983v1H38.31z" style="fill: #141414;"/></svg>
