<?xml version="1.0" encoding="UTF-8"?>
<svg xmlns="http://www.w3.org/2000/svg" viewBox="0 0 64.1 63.7"><path d="M30.496 20.851H33.3c.543 0 .968-.37.968-.84v-3.408c0-.645-.525-1.17-1.17-1.17h-2.437c-.647 0-1.173.526-1.173 1.173v3.377c0 .487.442.868 1.007.868zm-.007-4.245c0-.096.077-.173.173-.173H33.1a.17.17 0 0 1 .17.17v3.248l-2.78-.013v-3.232zM11.629 43.962v3.378c0 .487.442.868 1.007.868h2.804c.543 0 .969-.37.969-.84V43.96c0-.646-.525-1.17-1.17-1.17h-2.437c-.647 0-1.173.526-1.173 1.173zm3.78-.003v3.249l-2.78-.013v-3.233c0-.096.078-.173.173-.173h2.437a.17.17 0 0 1 .17.17z" style="fill: #141414;"/><path d="M50.581 40.055v-1.333a3.031 3.031 0 0 0-3.027-3.028H32.339v-4.48c4.87-.262 8.754-4.294 8.754-9.228 0-5.102-4.152-9.253-9.254-9.253s-9.253 4.15-9.253 9.253c0 4.934 3.884 8.966 8.753 9.228v4.48H16.087a3.03 3.03 0 0 0-3.026 3.028v1.397c-2.56.455-4.511 2.69-4.511 5.379 0 3.016 2.453 5.469 5.469 5.469s5.469-2.453 5.469-5.469a5.474 5.474 0 0 0-5.427-5.467v-1.31a2.03 2.03 0 0 1 2.026-2.027H31.34v3.363a5.476 5.476 0 0 0-4.93 5.441c0 3.016 2.453 5.469 5.469 5.469s5.469-2.453 5.469-5.469c0-2.86-2.208-5.21-5.008-5.445v-3.359h15.215a2.03 2.03 0 0 1 2.027 2.028v1.333a5.474 5.474 0 0 0-4.969 5.443c0 3.016 2.453 5.469 5.47 5.469s5.468-2.453 5.468-5.469a5.474 5.474 0 0 0-4.969-5.443zM28.157 26.59v2.77c-.515-.258-1-.565-1.447-.921v-3.28c0-.69.561-1.253 1.252-1.253h7.832c.69 0 1.253.562 1.253 1.253v3.222a8.274 8.274 0 0 1-1.544.989v-2.78h-1v3.199c-.837.286-1.73.45-2.664.45a8.2 8.2 0 0 1-2.682-.457V26.59h-1zm-4.57-4.605c0-4.551 3.702-8.253 8.252-8.253 4.552 0 8.254 3.702 8.254 8.253a8.21 8.21 0 0 1-2.046 5.422V25.16a2.255 2.255 0 0 0-2.253-2.253h-7.832a2.255 2.255 0 0 0-2.252 2.253v2.333a8.21 8.21 0 0 1-2.124-5.507zm-5.1 23.512a4.474 4.474 0 0 1-4.468 4.469c-2.464 0-4.47-2.005-4.47-4.469s2.006-4.469 4.47-4.469a4.474 4.474 0 0 1 4.469 4.469zm17.86 0c0 2.464-2.005 4.469-4.47 4.469s-4.468-2.005-4.468-4.469 2.005-4.469 4.469-4.469 4.469 2.005 4.469 4.469zm13.734 4.469c-2.464 0-4.469-2.005-4.469-4.469s2.005-4.469 4.47-4.469 4.468 2.005 4.468 4.469-2.005 4.469-4.469 4.469z" style="fill: #141414;"/><path d="M51.3 42.79h-2.436c-.646 0-1.173.525-1.173 1.172v3.378c0 .487.443.868 1.007.868h2.805c.543 0 .968-.37.968-.84V43.96a1.17 1.17 0 0 0-1.17-1.17zm.17 4.418l-2.779-.013v-3.233c0-.096.078-.173.173-.173h2.437a.17.17 0 0 1 .17.17v3.249zM29.488 43.962v3.378c0 .487.443.868 1.007.868H33.3c.543 0 .968-.37.968-.84V43.96a1.17 1.17 0 0 0-1.17-1.17h-2.436c-.647 0-1.174.526-1.174 1.173zm3.78-.003v3.249l-2.78-.013v-3.233c0-.096.078-.173.174-.173h2.436a.17.17 0 0 1 .17.17z" style="fill: #141414;"/></svg>
