<?xml version="1.0" encoding="UTF-8"?>
<svg xmlns="http://www.w3.org/2000/svg" viewBox="0 0 64.111 63.839"><path fill="#00243d" d="M40.394 16.475h-2.73v-.338c0-.685-.557-1.242-1.242-1.242H27.69c-.686 0-1.244.557-1.244 1.243v.337h-2.73a3.147 3.147 0 0 0-3.143 3.143v26.183a3.147 3.147 0 0 0 3.143 3.143h16.688a3.136 3.136 0 0 0 3.132-3.131V19.618a3.147 3.147 0 0 0-3.143-3.143zm-12.947-.337c0-.134.11-.243.244-.243h8.731c.134 0 .242.108.242.242v1.669a.242.242 0 0 1-.242.242H27.69a.242.242 0 0 1-.243-.242v-1.668zm-5.873 3.48c0-1.181.961-2.143 2.143-2.143h2.73v.33c0 .685.558 1.243 1.243 1.243h8.732c.685 0 1.242-.558 1.242-1.242v-.331h2.73c1.181 0 2.143.962 2.143 2.143v21.315h-16.16a.5.5 0 0 0-.5.5c0 1.323-.3 2.32-.87 2.88-.506.5-1.067.515-1.14.515h-.006c-2.19 0-2.284-2.468-2.287-2.573V19.618zm20.953 22.315c-.045.781-.242 2.024-.859 2.66-.272.283-.604.42-1.007.42l-14.788-.162c.59-.681.923-1.66.991-2.918h15.663zm-2.122 6.011H23.717a2.146 2.146 0 0 1-2.143-2.143v-.931c.505.552 1.227.958 2.269.958h.013l16.8.186c.683 0 1.266-.244 1.73-.725.058-.06.1-.133.151-.197v.72a2.134 2.134 0 0 1-2.132 2.132z" style="fill: #ffffff;"/><path fill="#00243d" d="M23.583 25.078h7.45v1h-7.45zM23.583 22.033h5.583v1h-5.583zM37.695 26.893c1.565 0 2.837-1.273 2.837-2.837s-1.272-2.837-2.837-2.837-2.837 1.272-2.837 2.837 1.273 2.837 2.837 2.837zm0-4.674c1.013 0 1.837.824 1.837 1.837s-.824 1.837-1.837 1.837-1.837-.825-1.837-1.837.825-1.837 1.837-1.837zM33.26 38.421h2.167a.5.5 0 0 0 .5-.5v-5.968a.5.5 0 0 0-.5-.5H33.26a.5.5 0 0 0-.5.5v5.968a.5.5 0 0 0 .5.5zm.5-5.968h1.167v4.968H33.76v-4.968zM40.032 29.073h-2.166a.5.5 0 0 0-.5.5v8.349a.5.5 0 0 0 .5.5h2.166a.5.5 0 0 0 .5-.5v-8.349a.5.5 0 0 0-.5-.5zm-.5 8.349h-1.166v-7.349h1.166v7.349zM24.05 38.421h2.166a.5.5 0 0 0 .5-.5V33.31a.5.5 0 0 0-.5-.5H24.05a.5.5 0 0 0-.5.5v4.611a.5.5 0 0 0 .5.5zm.5-4.611h1.166v3.611H24.55V33.81zM28.655 30.278a.5.5 0 0 0-.5.5v7.144a.5.5 0 0 0 .5.5h2.166a.5.5 0 0 0 .5-.5v-7.144a.5.5 0 0 0-.5-.5h-2.166zm1.666 7.144h-1.166v-6.144h1.166v6.144z" style="fill: #ffffff;"/></svg>
