<?xml version="1.0" encoding="UTF-8"?>
<svg xmlns="http://www.w3.org/2000/svg" viewBox="0 0 64.111 63.839"><path fill="#00243d" d="M17.951 35.775h8.297v1h-8.297zM17.951 38.679h8.297v1h-8.297zM43.87 36.605h-5.395l1.788-1.618-.672-.742-1.924 1.742a.968.968 0 0 0-.304.709v.65c-.004.25.084.49.277.71l1.949 1.896.697-.716-1.665-1.631h5.25c.985 0 1.788.848 1.788 1.891v.193c-.005 1.04-.808 1.89-1.789 1.894h-2.62v1h2.622c1.53-.007 2.78-1.303 2.787-2.892v-.195c0-1.594-1.25-2.891-2.789-2.891z" style="fill: #ffffff;"/><path fill="#00243d" d="M46.933 25.917l4.21 7.063.859-.512-5.167-8.668c-.003-.008-.01-.014-.013-.023l-.147-.246-.014.008a1.227 1.227 0 0 0-.977-.506h-30.15c-.406 0-.75.206-.978.506l-.015-.008-5.336 8.937.86.512 4.22-7.067v16.25c0 .689.56 1.25 1.248 1.25h19.981c1.411 2.006 3.701 3.318 6.29 3.318 4.278 0 7.76-3.573 7.76-7.966a8.033 8.033 0 0 0-2.645-5.975c.003-.023.014-.043.014-.066v-6.807zm-13.475-1.884v3.67h-5.7v-3.67h5.7zm15.106 14.731c0 3.842-3.033 6.967-6.76 6.967s-6.76-3.125-6.76-6.967 3.032-6.966 6.76-6.966 6.76 3.125 6.76 6.967zm-6.76-7.966c-4.279 0-7.76 3.573-7.76 7.967a8.08 8.08 0 0 0 .87 3.647h-19.38a.25.25 0 0 1-.25-.249v-17.88c0-.057.028-.103.06-.144l.021-.037a.246.246 0 0 1 .168-.07H26.76v4.171a.5.5 0 0 0 .5.5h6.699a.5.5 0 0 0 .5-.5v-4.17h11.226c.065 0 .122.028.167.069l.024.041c.03.041.058.085.058.14v7.748a7.558 7.558 0 0 0-4.13-1.233z" style="fill: #ffffff;"/></svg>
