<?xml version="1.0" encoding="UTF-8"?>
<svg xmlns="http://www.w3.org/2000/svg" viewBox="0 0 64 64"><path fill="#00243d" d="M21.62 33.855h-.735a4.01 4.01 0 0 1-4.004-4.004v-1.527c0-1.104.898-2.002 2.002-2.002h2.737zm-2.737-6.533c-.553 0-1.002.45-1.002 1.002v1.527a3.01 3.01 0 0 0 2.74 2.993v-5.522zM43.49 33.855h-.736v-7.533h2.738c1.104 0 2.002.898 2.002 2.002v1.527a4.01 4.01 0 0 1-4.004 4.004m.264-6.533v5.522a3.01 3.01 0 0 0 2.74-2.993v-1.527c0-.553-.45-1.002-1.002-1.002zM28.457 30.14l-.137-.991c.19-.026 4.643-.624 7.756.005l-.199.98c-2.944-.597-7.377-.001-7.42.006" style="fill: #ffffff;"/><path fill="#00243d" d="M35.365 39.316H29.01a1.58 1.58 0 0 1-.929-.289l-6.993-5.118c-.298-.218-.468-.533-.468-.866v-5.636c0-.554.455-1.019 1.107-1.13l8.192-1.402a13.6 13.6 0 0 1 4.537 0l8.192 1.401c.65.112 1.106.577 1.106 1.13v5.637c0 .333-.17.65-.466.866l-6.995 5.118c-.254.187-.584.29-.928.29m-3.178-13.63c-.707 0-1.413.058-2.1.175l-8.191 1.4c-.176.031-.268.118-.276.15v5.632l7.052 5.178c.082.06.208.095.338.095h6.355a.6.6 0 0 0 .337-.095l6.995-5.118.057-5.696c-.006-.02-.087-.113-.275-.145l-8.19-1.401a12.5 12.5 0 0 0-2.102-.176" style="fill: #ffffff;"/></svg>
