<?xml version="1.0" encoding="UTF-8"?>
<svg xmlns="http://www.w3.org/2000/svg" viewBox="0 0 64 64"><path fill="#00243d" d="M32.892 38.09c-4.34 0-8.203-.519-8.445-.552l.136-.99c.089.012 8.912 1.198 14.803.005l.198.98c-2.067.418-4.444.558-6.692.558" style="fill: #ffffff;"/><path fill="#00243d" d="M45.09 41.862H18.91a1.237 1.237 0 0 1-1.235-1.236V38.05c0-.682.554-1.237 1.236-1.237h2.257a10.975 10.975 0 0 1 4.54-10.615l.575.819a9.97 9.97 0 0 0-4.027 10.193l.128.603h-3.473a.24.24 0 0 0-.236.237v2.576a.24.24 0 0 0 .236.236h26.178a.24.24 0 0 0 .236-.236V38.05a.24.24 0 0 0-.236-.237h-3.473l.128-.603a9.972 9.972 0 0 0-4.026-10.193l.574-.819a10.98 10.98 0 0 1 4.54 10.615h2.257c.682 0 1.236.555 1.236 1.237v2.576c0 .682-.554 1.236-1.236 1.236" style="fill: #ffffff;"/><path fill="#00243d" d="m34.89 34.02-.997-.056.613-10.826h-5.012l.613 10.826-.998.057-.621-10.966a.87.87 0 0 1 .236-.646.87.87 0 0 1 .631-.271h5.29c.238 0 .468.099.631.271a.87.87 0 0 1 .236.645z" style="fill: #ffffff;"/><path fill="#00243d" d="m26.288 31.833-1.121-7.234a.864.864 0 0 1 .6-.962l3.071-.95.296.955-2.961.916 1.103 7.122zM37.712 31.833l-.988-.153 1.103-7.122-2.961-.916.296-.955 3.07.95a.86.86 0 0 1 .601.962z" style="fill: #ffffff;"/></svg>
