<?xml version="1.0" encoding="UTF-8"?>
<svg xmlns="http://www.w3.org/2000/svg" viewBox="0 0 64 64"><path fill="#00243d" d="M41.324 48.977h-.01l-8.763-.066a1.13 1.13 0 0 1-.802-.339 1.12 1.12 0 0 1-.327-.806l1.523-9.814-5.981-7.329c-.278-.366-.3-.822-.07-1.297l.062-.099.651-.801c.187-.26.503-.429.852-.444a1.16 1.16 0 0 1 .908.39l2.461 2.804.063-8.481a1.14 1.14 0 0 1 1.136-1.129h.01l1.193.01.005-.599c.007-.628.473-1.123 1.147-1.128l1.187.009a1.14 1.14 0 0 1 1.05.721c.071-.014.138-.028.219-.02l1.248.01c.59.004 1.066.488 1.062 1.077l-.011 1.566c.045-.004.097-.008.134-.006l.918.006c.307.002.594.124.809.343.216.218.333.507.33.814l-.121 10.594-1.146 3.032 1.395 9.778c.002.378-.118.664-.334.876-.215.211-.498.328-.798.328m-8.9-1.14c.009 0 .024.02.037.033.018.019.05.041.097.041l8.764.066h.001c.065 0 .137-.073.138-.137l-1.413-9.863.068-.311 1.133-2.975-.005-.02.02-.107.008-1.931h-.001v-.504l.057-7.768a.14.14 0 0 0-.042-.105.14.14 0 0 0-.103-.044l-.92-.006c-.08 0-.139.063-.14.146l-.039 5.257-1-.007.039-5.258q0-.056.006-.11l.02-2.594a.07.07 0 0 0-.07-.071l-1.249-.01a.14.14 0 0 0-.098.04.14.14 0 0 0-.04.096l-.06 7.896-1-.008.065-8.588a.137.137 0 0 0-.135-.137l-1.188-.009h-.001a.14.14 0 0 0-.138.137l-.01 1.47.002.07-.053 7.047-1-.008.047-6.204h-.003l.006-.842-1.195.047a.14.14 0 0 0-.138.137l-.065 8.677a.92.92 0 0 1-.277.653.92.92 0 0 1-.648.265h-.007a.93.93 0 0 1-.686-.313l-2.597-2.957c-.028-.033-.045-.046-.103-.048a.14.14 0 0 0-.108.055l-.627.772c-.03.076-.05.162-.023.198l6.003 7.355c.133.173.2.374.2.578l-1.537 9.909q.002-.01.008-.01" style="fill: #ffffff;"/><path fill="#00243d" d="m30.403 44.123-5.048-.037a1.14 1.14 0 0 1-1.128-1.147l1.523-9.813-5.981-7.329c-.279-.366-.3-.822-.07-1.297l.062-.099.651-.801c.188-.26.505-.43.853-.444.337-.022.681.127.907.391l2.46 2.803.063-8.48a1.14 1.14 0 0 1 1.138-1.13h.009l1.193.009.005-.598a1.14 1.14 0 0 1 1.138-1.128h.009l1.187.009c.477.005.883.303 1.049.721a1 1 0 0 1 .22-.02l1.248.01a1.07 1.07 0 0 1 1.062 1.078l-.02 2.64-1-.008.02-2.639-1.318-.08h-.001a.135.135 0 0 0-.137.135l-.06 7.896-1-.008.065-8.588a.14.14 0 0 0-.137-.137l-1.186-.01h-.001a.14.14 0 0 0-.138.138l-.01 1.47.001.07-.052 7.047-1-.008.046-6.204h-.003l.006-.843-1.194.048h-.001a.14.14 0 0 0-.138.137l-.064 8.677a.92.92 0 0 1-.277.653.92.92 0 0 1-.648.265h-.008a.93.93 0 0 1-.686-.314l-2.596-2.956a.14.14 0 0 0-.102-.047.14.14 0 0 0-.11.054l-.626.772c-.031.077-.05.162-.023.198l6.003 7.356c.132.172.2.373.2.577l-1.537 9.909v-.001c.012 0 .08.065.142.066l5.048.037z" data-name="outline" style="fill: #ffffff;"/></svg>
