<?xml version="1.0" encoding="UTF-8"?>
<svg xmlns="http://www.w3.org/2000/svg" viewBox="0 0 64 64"><path fill="#00243d" d="M42.592 47.1H21.164a2.227 2.227 0 0 1-2.225-2.225V30.564l.268-.14c.157-.086 3.892-2.2 1.298-8.945-.328-.852.065-1.852.915-2.324l3.78-2.1a1.223 1.223 0 0 1 1.65.442l.056.133 1.38 5.37c.176.254.472.41.784.41h5.638a.96.96 0 0 0 .785-.41l1.435-5.503a1.225 1.225 0 0 1 1.65-.442l3.668 2.038a1.964 1.964 0 0 1 .876 2.45c-.803 1.976-1.64 5.766 1.78 8.957l.159.148v13.983a2.47 2.47 0 0 1-2.47 2.469M19.939 31.135v13.74c0 .675.55 1.225 1.225 1.225h21.428c.81 0 1.469-.66 1.469-1.47V31.08c-3.672-3.567-2.753-7.73-1.866-9.913a.963.963 0 0 0-.434-1.2l-3.669-2.038a.23.23 0 0 0-.275.04l-1.43 5.49c-.353.587-.996.951-1.68.951H29.07a1.97 1.97 0 0 1-1.678-.951l-.056-.132-1.375-5.357a.23.23 0 0 0-.275-.04l-3.78 2.1c-.41.227-.615.706-.468 1.09 2.508 6.522-.544 9.33-1.499 10.015" style="fill: #ffffff;"/><path fill="#00243d" d="M19.439 35.017H44.56V36.017H19.439z" style="fill: #ffffff;"/><path fill="#00243d" d="M19.439 39.12H44.56V40.12H19.439z" style="fill: #ffffff;"/><path fill="#00243d" d="M31.389 23.91H32.388999999999996V46.599000000000004H31.389z" style="fill: #ffffff;"/></svg>
