<?xml version="1.0" encoding="UTF-8"?>
<svg xmlns="http://www.w3.org/2000/svg" viewBox="0 0 64 64"><g fill="#00243d"><path d="M29.553 37.423H31.887V38.422000000000004H29.553z" transform="rotate(-69.759 30.72 37.922)" style="fill: #ffffff;"/><path d="M27.718 36.589H30.051000000000002V37.589999999999996H27.718z" transform="rotate(-59.631 28.884 37.089)" style="fill: #ffffff;"/><path d="M26.051 35.32H28.383V36.32H26.051z" transform="rotate(-43.892 27.217 35.82)" style="fill: #ffffff;"/><path d="M31.413 38.002H33.746V39.002H31.413z" transform="rotate(-74.823 32.58 38.502)" style="fill: #ffffff;"/><path d="m22.69 44.086-1-.002v-1.197c-.005-1.081-.428-2.036-1.193-2.69-.831-.71-2.006-.992-3.321-.792l-.15-.988c1.597-.245 3.065.117 4.121 1.02.974.833 1.537 2.09 1.542 3.447z" style="fill: #ffffff;"/><path d="M41.338 46.86h-23.36a1.24 1.24 0 0 1-1.236-1.24v-1.535a.5.5 0 0 1 .5-.5h24.832a.5.5 0 0 1 .5.5v1.535a1.24 1.24 0 0 1-1.236 1.24m-23.596-2.275v1.035c0 .132.107.24.237.24h23.359c.13 0 .236-.108.236-.24v-1.035z" style="fill: #ffffff;"/><path d="M30.365 46.359H31.365V47.147H30.365z" style="fill: #ffffff;"/><path d="M28.729 46.359H29.729V47.147H28.729z" style="fill: #ffffff;"/><path d="M27.094 46.359H28.094V47.147H27.094z" style="fill: #ffffff;"/><path d="M21.986 46.359H22.986V47.147H21.986z" style="fill: #ffffff;"/><path d="M20.258 46.359H21.258V47.147H20.258z" style="fill: #ffffff;"/><path d="M18.454 46.359H19.454V47.147H18.454z" style="fill: #ffffff;"/><path d="M31.807 46.359H32.807V47.147H31.807z" style="fill: #ffffff;"/><path d="M33.249 46.359H34.249V47.147H33.249z" style="fill: #ffffff;"/><path d="M34.69 46.359H35.69V47.147H34.69z" style="fill: #ffffff;"/><path d="M36.133 46.359H37.133V47.147H36.133z" style="fill: #ffffff;"/><path d="M37.574 46.359H38.574V47.147H37.574z" style="fill: #ffffff;"/><path d="M39.016 46.359H40.016V47.147H39.016z" style="fill: #ffffff;"/><path d="m34.571 44.372-.11-.156c-.028-.04-.908-1.242-.908-2.753 0-1.9.874-3.15.91-3.202l.815.58-.407-.29.408.288c-.007.01-.726 1.057-.726 2.624 0 1.173.714 2.16.72 2.169l.117.166zM25.763 27.21h-8.734a.96.96 0 0 1-.958-.957v-2.028c0-.528.43-.958.958-.958h8.734c.528 0 .958.43.958.958v2.028c0 .528-.43.958-.958.958m-.042-2.985-8.692.042.042 1.986 8.65-.042z" style="fill: #ffffff;"/><path d="M16.601 26.711H17.601V34.225H16.601z" style="fill: #ffffff;"/><path d="M41.703 44.585H18.54c-1.07 0-1.94-.87-1.94-1.94v-9.366h1v9.366c0 .518.422.94.94.94h22.655c-.126-3.703-1.688-4.447-4.308-4.447-10.116 0-11.632-5.853-11.692-6.102a.5.5 0 0 1-.013-.117v-6.208h1v6.143c.166.575 1.802 5.284 10.705 5.284 3.726 0 5.316 1.778 5.316 5.947a.5.5 0 0 1-.5.5" style="fill: #ffffff;"/></g><path fill="#00243d" d="M35.277 30.508H37.61V31.509H35.277z" transform="rotate(-69.797 36.444 31.008)" style="fill: #ffffff;"/><path fill="#00243d" d="M33.442 29.674H35.775V30.674H33.442z" transform="rotate(-59.679 34.609 30.174)" style="fill: #ffffff;"/><path fill="#00243d" d="M31.775 28.406H34.109V29.406H31.775z" transform="rotate(-43.892 32.941 28.906)" style="fill: #ffffff;"/><path fill="#00243d" d="M37.136 31.088H39.469V32.087H37.136z" transform="rotate(-74.877 38.303 31.588)" style="fill: #ffffff;"/><path fill="#00243d" d="M47.062 39.945h-4.706v-1h4.573v-.133l-.001-1.641h1v1.534c.003.403.006.75-.248 1.006q-.234.233-.618.234" style="fill: #ffffff;"/><path fill="#00243d" d="M42.375 39.445H43.375V40.233H42.375z" style="fill: #ffffff;"/><path fill="#00243d" d="M43.816 39.445H44.816V40.233H43.816z" style="fill: #ffffff;"/><path fill="#00243d" d="M45.259 39.445H46.259V40.233H45.259z" style="fill: #ffffff;"/><path fill="#00243d" d="M31.486 20.297h-8.733a.96.96 0 0 1-.958-.958V17.31c0-.529.43-.958.958-.958h8.733c.529 0 .958.43.958.958v2.028c0 .528-.43.958-.958.958m-.042-2.986-8.691.042.042 1.986 8.65-.042z" style="fill: #ffffff;"/><path fill="#00243d" d="M22.324 19.797H23.324V21.879H22.324z" style="fill: #ffffff;"/><path fill="#00243d" d="M47.428 37.67h-6.723a.5.5 0 0 1-.408-.211l-.11-.156c-.032-.041-.91-1.243-.91-2.754 0-1.07.277-1.933.525-2.493-7.599-.957-8.828-5.71-8.882-5.935a.5.5 0 0 1-.014-.116v-6.208h1v6.142c.166.575 1.802 5.284 10.704 5.284 3.728 0 5.318 1.779 5.318 5.948a.5.5 0 0 1-.5.5m-6.463-1h5.955c-.126-3.703-1.69-4.447-4.31-4.447q-.92 0-1.747-.062a5.16 5.16 0 0 0-.586 2.388c0 1.028.547 1.912.688 2.122" style="fill: #ffffff;"/></svg>
