<?xml version="1.0" encoding="UTF-8"?>
<svg xmlns="http://www.w3.org/2000/svg" viewBox="0 0 64 64"><path fill="#00243d" d="M36.661 42.615c-.571 0-1.111-.329-1.362-.873l-2.21-4.804a.5.5 0 0 0-.454-.29h-4.969a.5.5 0 0 0-.455.29l-2.209 4.804a1.5 1.5 0 0 1-1.824.8l-7.75-2.505a1.49 1.49 0 0 1-1.04-1.427V27.012a4.51 4.51 0 0 1 3.915-4.462l5.952-.78a45.4 45.4 0 0 1 11.79 0l5.953.78a4.51 4.51 0 0 1 3.914 4.462V38.61c0 .654-.418 1.228-1.039 1.427l-7.75 2.505a1.5 1.5 0 0 1-.462.073m-8.995-6.968h4.969c.585 0 1.12.343 1.363.874l2.209 4.803c.106.23.365.345.607.267l7.752-2.505a.5.5 0 0 0 .346-.476V27.012a3.51 3.51 0 0 0-3.045-3.47l-5.952-.781a44.4 44.4 0 0 0-11.53 0l-5.951.78a3.51 3.51 0 0 0-3.045 3.47v11.6c0 .217.138.409.345.475l7.751 2.505a.5.5 0 0 0 .609-.267l2.209-4.803c.243-.53.778-.874 1.363-.874" style="fill: #ffffff;"/><path fill="#00243d" d="M22.396 40.112a1.5 1.5 0 0 1-.458-.072l-4.511-1.459a1.49 1.49 0 0 1-1.038-1.427v-8.387a4.51 4.51 0 0 1 3.915-4.462l5.008-.657a37.4 37.4 0 0 1 9.676 0l5.01.657a4.51 4.51 0 0 1 3.914 4.462v8.387c0 .654-.418 1.228-1.039 1.427l-4.509 1.458a1.504 1.504 0 0 1-1.82-.789l-2.028-4.315a.5.5 0 0 0-.453-.289h-7.826a.5.5 0 0 0-.453.289l-2.027 4.316a1.5 1.5 0 0 1-1.36.861m7.754-15.78c-1.567 0-3.151.104-4.709.308l-5.006.656a3.51 3.51 0 0 0-3.046 3.47v8.388c0 .218.138.41.345.476l4.512 1.459a.51.51 0 0 0 .607-.264l2.027-4.316c.246-.524.78-.863 1.357-.863h7.826c.58 0 1.112.34 1.358.864l2.028 4.314a.506.506 0 0 0 .608.264l4.508-1.458a.5.5 0 0 0 .347-.476v-8.387a3.51 3.51 0 0 0-3.046-3.471l-5.008-.656a36 36 0 0 0-4.708-.307M14.535 35.793h-2.07a.465.465 0 0 1-.466-.466v-7.725c0-.257.208-.466.466-.466h2.07c.258 0 .466.209.466.466v7.725a.465.465 0 0 1-.466.466m-1.604-.932h1.138v-6.793h-1.138zM47.483 35.793h-2.07a.465.465 0 0 1-.467-.466v-7.725c0-.257.208-.466.466-.466h2.071c.258 0 .466.209.466.466v7.725a.465.465 0 0 1-.466.466m-1.605-.932h1.14v-6.793h-1.14z" style="fill: #ffffff;"/></svg>
