<?xml version="1.0" encoding="UTF-8"?>
<svg xmlns="http://www.w3.org/2000/svg" viewBox="0 0 64.2 64"><g fill="#1a1a18"><path d="M40.57 32.79a.92.92 0 0 0-.584-.499l-1.898-.539v-3.597a.921.921 0 0 0-.92-.92H34.55v-2.598a.921.921 0 0 0-.92-.92h-1.52a.92.92 0 0 0-.92.92v2.598h-2.619a.92.92 0 0 0-.92.92v3.602l-1.896.538a.921.921 0 0 0-.585 1.268l2.01 4.39c.271.597.871.984 1.528.984h8.067c.822 0 1.572-.484 1.91-1.23l1.887-4.15a.917.917 0 0 0-.002-.766zm-8.38-8.073h1.36v2.518h-1.36v-2.518zm-3.538 3.518h8.436v3.233l-4.212-1.195-4.224 1.2v-3.238zm9.123 9.057v.001c-.177.39-.57.644-1 .644h-8.067a.682.682 0 0 1-.62-.4l-1.97-4.306 6.758-1.919 6.747 1.916-1.848 4.064zM32.485 18.232v3.162l1-.002v-3.156a2.767 2.767 0 1 0-1-.004zm.518-4.497a1.775 1.775 0 1 1 0 3.55 1.775 1.775 0 0 1 0-3.55zM51.898 31.092a2.772 2.772 0 0 0-2.733-2.287 2.776 2.776 0 0 0-2.722 2.257h-3.408l-.026 1h3.43a2.772 2.772 0 0 0 5.46-.97zm-2.733 2.263a1.775 1.775 0 1 1 .002-3.55 1.775 1.775 0 0 1-.002 3.55zM40.595 24.774l2.29-2.29a2.772 2.772 0 0 0 3.55-4.231 2.84 2.84 0 0 0-3.923 0 2.771 2.771 0 0 0-.332 3.52l-2.28 2.282.695.72zm2.624-5.814a1.775 1.775 0 0 1 2.51 2.51c-.703.67-1.808.67-2.51 0a1.775 1.775 0 0 1 0-2.51zM25.437 38.654l-2.557 2.558a2.767 2.767 0 1 0 .705.71l2.57-2.572-.718-.696zm-2.889 6.081a1.775 1.775 0 1 1-2.51-2.51 1.775 1.775 0 0 1 2.51 2.51zM33.395 44.994v-3.162l-1 .002v3.156a2.767 2.767 0 1 0 1 .004zm-.519 4.498a1.775 1.775 0 1 1 .001-3.55 1.775 1.775 0 0 1 0 3.55zM22.975 22.494l2.304 2.304.694-.721-2.289-2.288a2.775 2.775 0 0 0-.306-3.55 2.84 2.84 0 0 0-3.923 0 2.773 2.773 0 0 0 3.52 4.255zm-2.814-3.547a1.775 1.775 0 0 1 2.51 2.51 1.775 1.775 0 0 1-2.51-2.51zM42.78 40.835l-2.552-2.551-.72.694 2.56 2.56a2.773 2.773 0 1 0 .712-.703zm2.815 3.549a1.776 1.776 0 1 1-.002-2.512c.694.693.695 1.818.002 2.512zM19.323 32.08h3.454l-.029-1h-3.42a2.766 2.766 0 1 0-.005 1zM16.6 33.336a1.775 1.775 0 1 1 .001-3.55 1.775 1.775 0 0 1 0 3.55z" style="fill: #141414;"/></g></svg>
