<?xml version="1.0" encoding="UTF-8"?>
<svg xmlns="http://www.w3.org/2000/svg" viewBox="0 0 64.111 63.839"><path fill="#00243d" d="M45.178 18.876a.495.495 0 0 0-.4-.115c-7.404 1.119-12.178-3.395-12.225-3.44a.5.5 0 0 0-.689-.006c-4.908 4.58-12.41 3.458-12.487 3.446a.499.499 0 0 0-.578.493l-.04 18.852c0 .808.385 1.582 1.026 2.069l10.394 7.9a2.87 2.87 0 0 0 1.738.588c.592 0 1.184-.184 1.691-.554l10.36-7.534a3.368 3.368 0 0 0 1.384-2.716V19.255a.5.5 0 0 0-.174-.379zm-.826 18.983c0 .752-.364 1.465-.972 1.908L33.02 47.3a1.862 1.862 0 0 1-2.236-.024l-10.393-7.899c-.396-.3-.631-.775-.631-1.271l.038-18.288c1.89.19 7.932.422 12.41-3.468 1.238 1.043 5.633 4.239 12.144 3.475V37.86z" style="fill: #ffffff;"/><path fill="#00243d" d="M32.522 18.741a.5.5 0 0 0-.689-.006c-3.836 3.58-9.712 2.702-9.77 2.694a.5.5 0 0 0-.578.493l-.03 14.88c0 .672.318 1.313.85 1.718l8.206 6.234c.427.325.931.488 1.435.488.489 0 .977-.152 1.397-.458l8.178-5.946a2.767 2.767 0 0 0 1.135-2.23V21.923a.5.5 0 0 0-.574-.494c-5.799.868-9.523-2.652-9.56-2.688zm9.134 17.867c0 .56-.27 1.091-.723 1.421l-8.178 5.947a1.362 1.362 0 0 1-1.639-.018l-8.206-6.235a1.16 1.16 0 0 1-.455-.92l.03-14.319c1.615.143 6.222.245 9.692-2.716 1.07.879 4.485 3.262 9.48 2.724v14.116z" style="fill: #ffffff;"/><path fill="#00243d" d="M31.772 33.129h-.478l-1.531-2.058-.803.598 1.61 2.16c.139.188.362.3.595.3h.75a.746.746 0 0 0 .634-.355l2.626-4.278-.852-.523-2.551 4.156z" style="fill: #ffffff;"/><path fill="#00243d" d="M27.106 26.97a7.007 7.007 0 0 0 0 9.898 6.977 6.977 0 0 0 4.95 2.047 6.977 6.977 0 0 0 4.948-2.047 7.007 7.007 0 0 0 0-9.897c-2.73-2.729-7.17-2.729-9.898 0zm9.19 9.191a6.007 6.007 0 0 1-8.482 0 6.005 6.005 0 0 1 0-8.483 5.984 5.984 0 0 1 4.242-1.754c1.535 0 3.071.585 4.24 1.754a6.005 6.005 0 0 1 0 8.483z" style="fill: #ffffff;"/></svg>
