<?xml version="1.0" encoding="UTF-8"?>
<svg xmlns="http://www.w3.org/2000/svg" viewBox="0 0 64 64"><path d="M9.214 29.671h6.802v1H9.214zM11.214 33.076h6.802v1h-6.802zM9.214 36.481h6.802v1H9.214zM48.928 43.788H23.616l-4.425-22.685h-6.782v-1h7.606l4.426 22.685h24.487v1z" style="fill: #ffffff;"/><path d="M46.237 38.256H22.761v-1h23.476a1.007 1.007 0 0 0 .935-.642l3.542-9.168a1.001 1.001 0 0 0-.936-1.363H20.433v-1h29.345a2.003 2.003 0 0 1 1.87 2.725l-3.542 9.167a2.016 2.016 0 0 1-1.869 1.28zM43.223 49.48a3.36 3.36 0 1 1 3.36-3.36 3.365 3.365 0 0 1-3.36 3.36zm0-5.72a2.36 2.36 0 1 0 2.36 2.36 2.363 2.363 0 0 0-2.36-2.36zM29.03 49.48a3.36 3.36 0 1 1 3.36-3.36 3.365 3.365 0 0 1-3.36 3.36zm0-5.72a2.36 2.36 0 1 0 2.36 2.36 2.364 2.364 0 0 0-2.36-2.36z" style="fill: #ffffff;"/><path d="M21.455 28.117h28.824v1H21.455z" style="fill: #ffffff;"/></svg>
