<?xml version="1.0" encoding="UTF-8"?>
<svg xmlns="http://www.w3.org/2000/svg" viewBox="0 0 64.111 63.839"><path fill="#00243d" d="M9.878 25.45h1v-5.527h6.025v-1H9.878v6.527zM47.207 18.923v1h6.026v5.527h1v-6.527h-7.026zM53.233 43.917h-6.026v1h7.026V38.39h-1v5.528zM10.878 38.389h-1v6.528h7.025v-1h-6.025V38.39zM14.29 22.478h1v18.884h-1zM44.957 22.478h1v18.884h-1zM17 22.478h1v18.884h-1zM22.312 22.478h1v18.884h-1zM20.736 22.478h1v18.884h-1zM34.142 22.478h1v18.884h-1zM23.971 22.478h1v18.884h-1zM39.068 22.478h1v18.884h-1zM42.967 22.478h1v18.884h-1zM32.847 22.478h1v18.884h-1zM26.791 22.478h1v18.884h-1zM29.446 22.478h1v18.884h-1zM36.299 22.478h1v18.884h-1zM48.821 22.478h1v18.884h-1z" style="fill: #ffffff;"/></svg>
