<?xml version="1.0" encoding="UTF-8"?>
<svg xmlns="http://www.w3.org/2000/svg" viewBox="0 0 64 64"><path d="M25.46 48.316l-.02-10.24 3.955-2.713a2.172 2.172 0 0 1 1.233-.382h.006l9.82.033a2.182 2.182 0 0 1 2.168 2.173l.003 1.517 5.785-5.036a2.167 2.167 0 0 1 2.936.068l1.195 1.145a2.177 2.177 0 0 1 .038 3.107l-9.1 9.16a3.88 3.88 0 0 1-2.726 1.138zm.981-9.715l.017 8.713 14.293-.028a2.874 2.874 0 0 0 2.019-.843l9.1-9.16a1.177 1.177 0 0 0-.02-1.679l-1.196-1.145a1.17 1.17 0 0 0-1.588-.037l-7.1 6.182a2.168 2.168 0 0 1-1.513.617l-7.655.015-.002-1 7.655-.015a1.177 1.177 0 0 0 1.175-1.18l-.004-1.795a1.193 1.193 0 0 0-1.173-1.232l-9.818-.033h-.003a1.175 1.175 0 0 0-.667.207z" style="fill: #ffffff;"/><path d="M20.863 50.563a2.206 2.206 0 0 1-2.205-2.201l-.022-11.545a2.206 2.206 0 0 1 2.2-2.21l3.391-.007h.005a2.208 2.208 0 0 1 2.205 2.201l.023 11.545a2.208 2.208 0 0 1-2.2 2.21l-3.392.007zm3.37-14.963h-.004l-3.39.007a1.205 1.205 0 0 0-1.203 1.208l.022 11.545a1.205 1.205 0 0 0 1.205 1.203h.003l3.392-.007a1.206 1.206 0 0 0 1.202-1.208l-.023-11.545a1.207 1.207 0 0 0-1.205-1.203zM44.81 33.292H31.052a.896.896 0 0 1-.895-.895V21.41a.896.896 0 0 1 .895-.895H44.81a.895.895 0 0 1 .894.895v10.988a.895.895 0 0 1-.894.895zm-13.653-1h13.547V21.514H31.157z" style="fill: #ffffff;"/><path d="M39.693 25.552H36.17a.5.5 0 0 1-.5-.5v-4.038a.5.5 0 0 1 .5-.5h3.524a.5.5 0 0 1 .5.5v4.038a.5.5 0 0 1-.5.5zm-3.024-1h2.524v-3.038H36.67zM39.693 29.976h3.968v1h-3.968zM39.693 28.358h3.968v1h-3.968z" style="fill: #ffffff;"/></svg>
