<?xml version="1.0" encoding="UTF-8"?>
<svg xmlns="http://www.w3.org/2000/svg" viewBox="0 0 64 64"><path d="M50.9 45l-28-10.2c-1.3-.5-2-1.9-1.5-3.2l3.7-10.1c.2-.5.8-.8 1.3-.6l2.1.8c.4.1.6.5.7.9l.1 3.8c0 .6.4 1.2 1 1.4l3 1.1 1-2.8c.2-.5.7-.9 1.2-1l2-.2c.4 0 .8.1 1.1.3L55 37.4c1.5 1.2 1.9 3.4.7 4.9-.3.5-.8.8-1.3 1.1L50.9 45zM26 21.9L22.4 32c-.3.8.1 1.6.9 1.9l27.6 10 3.1-1.5c1.3-.6 1.8-2.1 1.2-3.3-.2-.4-.4-.7-.8-.9L38 26c-.1-.1-.2-.1-.4-.1l-2 .2c-.2 0-.3.1-.4.3l-1.4 3.7-4-1.5c-1-.3-1.6-1.2-1.6-2.3l-.1-3.8-2.1-.6z" style="fill: #141414;"/><path d="M48.6 37.5c-.1 0-.2-.1-.2-.1l-9.6-6.5c-.4-.3-.5-.7-.4-1.2l1.2-3.3.9.3-1.2 3.3 9.6 6.5.9-2.4.9.3-.9 2.4c-.1.7-.7.9-1.2.7z" style="fill: #141414;"/><path d="M41.718 32.536l1.094-3.007.94.342-1.095 3.007zM45.136 34.854l1.094-3.007.94.342-1.094 3.007zM21.967 31.293l.342-.94 32.607 11.864-.341.94z" style="fill: #141414;"/><g><path d="M10.074 26.184l.288-.957 9.96 2.987-.287.958z" style="fill: #141414;"/></g><g><path d="M6.2 28.24l.3-.954 9.924 3.107-.299.955z" style="fill: #141414;"/></g><g><path d="M9.77 32.235l.3-.955 9.924 3.108-.299.954z" style="fill: #141414;"/></g></svg>
