<?xml version="1.0" encoding="UTF-8"?>
<svg xmlns="http://www.w3.org/2000/svg" data-name="Layer 1" viewBox="0 0 96 64"><path fill="#00243d" d="M85 49a1 1 0 0 1-1 1h-2a1 1 0 0 1-1-1h-1a1 1 0 0 1-1 1h-2a1 1 0 0 1-1-1h-1a1 1 0 0 1-1 1h-.525a10.486 10.486 0 0 0-20.95 0H52a1 1 0 0 1-1-1h-1a1 1 0 0 1-1 1h-2a1 1 0 0 1-1-1h-1a1 1 0 0 1-1 1h-2a1 1 0 0 1-1-1h-1a1 1 0 0 1-1 1h-2a1 1 0 0 1-1-1h-1a1 1 0 0 1-1 1h-2a1 1 0 0 1-1-1h-1a1 1 0 0 1-1 1h-2a1 1 0 0 1-1-1h-1a1 1 0 0 1-1 1h-2a1 1 0 0 1-1-1h-1a1 1 0 0 1-1 1h-2a1 1 0 0 1-1-1h-1a1 1 0 0 1-1 1h-2a1 1 0 0 1-1-1h-1a2.003 2.003 0 0 0 2 2h2a1.988 1.988 0 0 0 1.5-.691A1.988 1.988 0 0 0 17 51h2a1.988 1.988 0 0 0 1.5-.691A1.988 1.988 0 0 0 22 51h2a1.988 1.988 0 0 0 1.5-.691A1.988 1.988 0 0 0 27 51h2a1.988 1.988 0 0 0 1.5-.691A1.988 1.988 0 0 0 32 51h2a1.988 1.988 0 0 0 1.5-.691A1.988 1.988 0 0 0 37 51h2a1.988 1.988 0 0 0 1.5-.691A1.988 1.988 0 0 0 42 51h2a1.988 1.988 0 0 0 1.5-.691A1.988 1.988 0 0 0 47 51h2a1.988 1.988 0 0 0 1.5-.691A1.988 1.988 0 0 0 52 51h2a1.988 1.988 0 0 0 1.5-.691A1.988 1.988 0 0 0 57 51h2a1.988 1.988 0 0 0 1.5-.691A1.988 1.988 0 0 0 62 51h2a1.988 1.988 0 0 0 1.5-.691A1.988 1.988 0 0 0 67 51h2a1.988 1.988 0 0 0 1.5-.691A1.988 1.988 0 0 0 72 51h2a1.988 1.988 0 0 0 1.5-.691A1.988 1.988 0 0 0 77 51h2a1.988 1.988 0 0 0 1.5-.691A1.988 1.988 0 0 0 82 51h2a2.003 2.003 0 0 0 2-2zm-14 0h-1a1 1 0 0 1-1 1h-2a1 1 0 0 1-1-1h-1a1 1 0 0 1-1 1h-2a1 1 0 0 1-1-1h-1a1 1 0 0 1-1 1h-2a1 1 0 0 1-1-1h-1a1 1 0 0 1-1 1h-.475a9.487 9.487 0 0 1 18.95 0H72a1 1 0 0 1-1-1zM31 28h13a1 1 0 0 0 1-1v-1a2.003 2.003 0 0 0-2-2h-1.035a3.506 3.506 0 0 0-3.465-3h-2a3.506 3.506 0 0 0-3.465 3H32a2.003 2.003 0 0 0-2 2v1a1 1 0 0 0 1 1zm0-2a1 1 0 0 1 1-1h2v-.5a2.502 2.502 0 0 1 2.5-2.5h2a2.502 2.502 0 0 1 2.5 2.5v.5h2a1 1 0 0 1 1 1v1H31zM67.704 37.837l.957-2.31.924.383-.957 2.31z" style="fill: #141414;"/><path fill="#00243d" d="M75.28 44.872l2.31-.957.383.924-2.31.957zM56.415 35.91l.924-.383.957 2.31-.924.382zM48.026 44.838l.383-.924 2.31.957-.383.924zM62.5 32h1v5h-1zM21 39a1 1 0 0 1 1-1h2a1 1 0 0 1 1 1v2h1v-2a1 1 0 0 1 1-1h2a1 1 0 0 1 1 1v1h1v-1a2.003 2.003 0 0 0-2-2h-2a1.988 1.988 0 0 0-1.5.691A1.988 1.988 0 0 0 24 37h-2a2.003 2.003 0 0 0-2 2v1h1zM72.193 40.6l3.535-3.535.708.707-3.536 3.536zM49.566 37.772l.707-.707 3.536 3.536-.708.707z" style="fill: #141414;"/></svg>
