<?xml version="1.0" encoding="UTF-8"?>
<svg xmlns="http://www.w3.org/2000/svg" viewBox="0 0 64 64"><path d="M48.4 50.6H15.6c-1-.1-1.7-.9-1.7-1.7v-1.1c.2-.9.9-1.6 1.7-1.6h32.9c.8 0 1.6.7 1.7 1.6V49c-.2.9-.9 1.6-1.8 1.6zm-32.8-3.4c-.3 0-.6.3-.7.7v1c0 .3.3.6.8.7h32.8c.3 0 .6-.3.7-.7v-1c-.1-.4-.4-.7-.7-.7H15.6z" style="fill: #141414;"/><path d="M43.7 47.2H16.9v-18c0-1.8 1.5-3.3 3.3-3.3h23.4c1.8 0 3.3 1.5 3.3 3.3v17.5h-1V29.2c0-1.3-1-2.3-2.3-2.3H20.2c-1.3 0-2.3 1-2.3 2.3v17h25.7v1h.1z" style="fill: #141414;"/><path d="M17.7 28.7h28.9v1H17.7zM32.547 45.266h-.888a1.256 1.256 0 0 1-1.228-1.01l-.165-.824a5.455 5.455 0 0 1-.445-.184l-.701.467a1.26 1.26 0 0 1-1.58-.153l-.63-.632a1.255 1.255 0 0 1-.157-1.58l.469-.702a5.5 5.5 0 0 1-.185-.444l-.826-.166a1.257 1.257 0 0 1-1.007-1.228v-.888c0-.595.423-1.111 1.006-1.229l.827-.165c.054-.15.116-.3.184-.445l-.467-.7a1.258 1.258 0 0 1 .158-1.582l.627-.628a1.257 1.257 0 0 1 1.58-.156l.701.467c.146-.068.295-.13.446-.184l.165-.826a1.256 1.256 0 0 1 1.228-1.007h.888c.596 0 1.112.424 1.23 1.007l.164.826c.15.054.3.116.445.184l.7-.467a1.256 1.256 0 0 1 1.58.155l.63.63c.42.419.487 1.084.158 1.58l-.469.701c.069.146.13.294.185.445l.826.165a1.257 1.257 0 0 1 1.007 1.229v.888c0 .594-.424 1.11-1.007 1.228l-.827.166c-.055.15-.116.3-.184.445l.467.7c.331.495.266 1.16-.156 1.582l-.628.628a1.258 1.258 0 0 1-1.582.156l-.7-.467a5.538 5.538 0 0 1-.445.184l-.165.825a1.257 1.257 0 0 1-1.229 1.009zm-2.789-3.178l.264.142c.26.14.535.254.82.34l.288.086.281 1.406a.254.254 0 0 0 .248.204h.888c.12 0 .225-.086.249-.204l.28-1.406.288-.086c.285-.086.56-.2.82-.34l.265-.142 1.193.795a.253.253 0 0 0 .32-.032l.627-.627a.252.252 0 0 0 .031-.319l-.795-1.193.143-.265c.14-.26.254-.535.34-.82l.086-.288 1.405-.281a.258.258 0 0 0 .204-.248v-.888a.258.258 0 0 0-.204-.248l-1.405-.28-.087-.29c-.085-.285-.2-.56-.338-.819l-.144-.264.796-1.193a.254.254 0 0 0-.031-.318l-.63-.63a.258.258 0 0 0-.32-.031l-1.19.796-.265-.143a4.382 4.382 0 0 0-.82-.34l-.289-.087-.28-1.405a.254.254 0 0 0-.249-.203h-.888a.254.254 0 0 0-.248.203l-.281 1.405-.288.086c-.282.085-.558.2-.82.341l-.264.143-1.194-.796a.259.259 0 0 0-.318.032l-.628.627a.256.256 0 0 0-.032.321l.796 1.192-.143.264a4.37 4.37 0 0 0-.34.82l-.086.289-1.407.28a.254.254 0 0 0-.202.248v.888c0 .12.086.224.203.248l1.406.28.086.289c.084.282.199.559.34.82l.143.265-.797 1.192a.252.252 0 0 0 .032.318l.63.63c.082.084.22.096.316.032l1.195-.796z" style="fill: #141414;"/><path d="M32.104 41.995a3.634 3.634 0 0 1-3.63-3.629 3.634 3.634 0 0 1 3.63-3.63 3.633 3.633 0 0 1 3.628 3.63 3.633 3.633 0 0 1-3.628 3.63zm0-6.259c-1.45 0-2.63 1.18-2.63 2.63s1.18 2.63 2.63 2.63c1.449 0 2.628-1.18 2.628-2.63s-1.18-2.63-2.628-2.63z" style="fill: #141414;"/></svg>
