<?xml version="1.0" encoding="UTF-8"?>
<svg xmlns="http://www.w3.org/2000/svg" viewBox="0 0 64 64"><path fill="#00243f" d="M42.537 47.137h-.49v-1h.49a.968.968 0 0 0 .967-.965V31.587a.968.968 0 0 0-.967-.967H21.129a.968.968 0 0 0-.967.967v13.585a.968.968 0 0 0 .967.965h.532v1h-.532a1.968 1.968 0 0 1-1.967-1.965V31.587a1.968 1.968 0 0 1 1.967-1.967h21.408a1.968 1.968 0 0 1 1.967 1.967v13.585a1.968 1.968 0 0 1-1.967 1.965z" style="fill: #ffffff;"/><path fill="#00243f" d="M39.834 50.354H23.83a2.369 2.369 0 0 1-2.365-2.365V36.875l.538-.04H42.16l.04.54v10.614a2.369 2.369 0 0 1-2.367 2.365zM22.466 37.836v10.153a1.367 1.367 0 0 0 1.365 1.365h16.003A1.367 1.367 0 0 0 41.2 47.99V37.836zM42.2 30.12h-1v-6.375a1.284 1.284 0 0 0-1.282-1.282h-16.17a1.284 1.284 0 0 0-1.282 1.282v6.375h-1v-6.375a2.284 2.284 0 0 1 2.282-2.282h16.17a2.284 2.284 0 0 1 2.282 2.282z" style="fill: #ffffff;"/><path fill="#00243f" d="M24.725 46.137h10.237v1H24.725zM24.725 41.4h7.107v1h-7.107zM24.725 43.878h14.214v1H24.725zM31.767 24.315h7.172v1h-7.172zM31.833 26.662h7.106v1h-7.106zM28.376 27.99H25.24a.967.967 0 0 1-.966-.966v-2.342a.967.967 0 0 1 .966-.966h3.136a.967.967 0 0 1 .966.966v2.342a.967.967 0 0 1-.966.966zm-3.136-3.274l.034 2.308 3.102-.034-.033-2.274zM39.22 32.615h3.033v1H39.22z" style="fill: #ffffff;"/></svg>
