<?xml version="1.0" encoding="UTF-8"?>
<svg xmlns="http://www.w3.org/2000/svg" viewBox="0 0 64.111 63.839"><path fill="#00243d" d="M29.9 22.031a.5.5 0 0 0-.5.5v1.394a.5.5 0 1 0 1 0v-1.394a.5.5 0 0 0-.5-.5zM31.93 22.031a.5.5 0 0 0-.5.5v1.394a.5.5 0 1 0 1 0v-1.394a.5.5 0 0 0-.5-.5zM33.96 22.031a.5.5 0 0 0-.5.5v1.394a.5.5 0 1 0 1 0v-1.394a.5.5 0 0 0-.5-.5z" style="fill: #141414;"/><path fill="#00243d" d="M26.802 21.095l.834 4.395c.085.463.487.8.959.8h6.768c.467 0 .87-.333.957-.788l.879-4.406a.884.884 0 0 0 .445-.768v-.548c0-.49-.377-.887-.84-.887h-3.592v-1.907a1.212 1.212 0 0 0-2.421 0v1.907h-3.592c-.464 0-.84.398-.84.887v.548c0 .335.183.616.443.767zm8.561 4.195l-6.744.017-.776-4.092h8.315l-.795 4.075zm1.281-5.397v.322h-3.432v-.322h3.432zm-4.853-2.907c0-.232.42-.232.42 0v3.229h-.42v-3.229zm-4.433 2.907h3.433v.322h-3.433v-.322zM22.201 38.713h-.01l-.183-.85a1.082 1.082 0 0 0-1.051-.847H14.57c-.508 0-.94.347-1.05.843l-.19.854h-.068a.75.75 0 0 0-.75.75v1.025a.97.97 0 0 0 .72.929v4.803a.5.5 0 0 0 .5.5h8.056a.5.5 0 0 0 .5-.5v-4.803a.97.97 0 0 0 .72-.93v-.966a.809.809 0 0 0-.808-.808zm-8.687 1.775v-.775h2.165v.757l-2.165.018zm3.165-.775h2.165v.757l-2.165.018v-.775zm3.165 0h2.17l.013.757-2.183.018v-.775zm-5.273-1.697h6.386l.074.06.138.637h-6.784l.186-.697zm1.898 7.704v-2.832h2.586v2.832h-2.586zm3.586 0v-3.332a.5.5 0 0 0-.5-.5h-3.586a.5.5 0 0 0-.5.5v3.332h-1.236v-4.25h1.464c.179 0 .337-.061.482-.145a.953.953 0 0 0 .481.145h2.202a.953.953 0 0 0 .482-.145.954.954 0 0 0 .482.145h1.463v4.25h-1.234z" style="fill: #141414;"/><path fill="#00243d" d="M18.211 43.804h.581v1h-.581zM45.396 40.582h2.168c.484 0 .862-.335.862-.763v-2.634c0-.56-.456-1.017-1.018-1.017h-1.883a1.02 1.02 0 0 0-1.02 1.02v2.61c0 .44.392.784.891.784zm.13-3.414h1.882l.018 2.414h-1.918l.017-2.414zM49.332 41.572h-5.75c-1.02 0-1.85.83-1.85 1.852v2.495c0 .441.359.8.8.8h7.852c.441 0 .8-.359.8-.8v-2.495a1.854 1.854 0 0 0-1.852-1.852zm.852 4.148h-.918v-1.631h-1v1.63h-3.554v-1.63h-1v1.63h-.98v-2.295c0-.47.381-.852.85-.852h5.75c.47 0 .852.382.852.852v2.296z" style="fill: #141414;"/><path fill="#00243d" d="M46.467 32.833c-1.4 0-2.721.33-3.905.9l-4.377-5.602a9.034 9.034 0 0 0 2.869-6.6c0-4.999-4.068-9.066-9.068-9.066-4.999 0-9.066 4.067-9.066 9.067a9.04 9.04 0 0 0 3.095 6.805l-4.19 5.46a8.966 8.966 0 0 0-4.035-.964c-4.983 0-9.035 4.053-9.035 9.035 0 4.981 4.052 9.034 9.035 9.034 4.272 0 7.852-2.983 8.788-6.974h11.1c.936 3.99 4.517 6.974 8.789 6.974 4.982 0 9.035-4.053 9.035-9.034 0-4.982-4.053-9.035-9.035-9.035zM23.92 21.532c0-4.449 3.618-8.067 8.066-8.067s8.068 3.618 8.068 8.067-3.62 8.067-8.068 8.067-8.066-3.62-8.066-8.067zm-6.13 28.37c-4.43 0-8.035-3.604-8.035-8.034s3.604-8.035 8.035-8.035c4.43 0 8.034 3.604 8.034 8.035s-3.604 8.034-8.034 8.034zm8.966-6.974c.041-.349.068-.701.068-1.06 0-3.17-1.644-5.959-4.122-7.572l4.097-5.339a9.008 9.008 0 0 0 10.62-.183l4.257 5.448c-2.544 1.6-4.244 4.425-4.244 7.646 0 .359.027.711.068 1.06H26.756zm19.71 6.974c-4.43 0-8.034-3.604-8.034-8.034s3.605-8.035 8.035-8.035 8.035 3.604 8.035 8.035-3.605 8.034-8.035 8.034z" style="fill: #141414;"/></svg>
