<?xml version="1.0" encoding="UTF-8"?>
<svg xmlns="http://www.w3.org/2000/svg" viewBox="0 0 64.111 63.839"><path fill="#00243d" d="M27.28 21.288v5.117a.5.5 0 0 0 .5.5h8.54a.5.5 0 0 0 .5-.5v-5.117a.997.997 0 0 0 .764-.96v-1.026a.827.827 0 0 0-.826-.826h-.035l-.2-.924a1.115 1.115 0 0 0-1.084-.876h-6.772c-.517 0-.973.366-1.084.87l-.205.93h-.099a.765.765 0 0 0-.764.764v1.088c0 .47.329.848.764.96zm9.302-1.812l-.009.862-2.345-.01v-.852h2.354zm-5.71 0h2.352l-.007.862-2.346-.01v-.852zm-3.093 0h2.088l-.007.862-2.345-.01v-.852h.264zm2.87 6.429v-3.063h2.801v3.063h-2.802zm3.801 0v-3.563a.5.5 0 0 0-.5-.5h-3.802a.5.5 0 0 0-.5.5v3.563H28.28v-4.567h1.581c.19 0 .359-.067.511-.159.152.092.32.159.51.159h2.336c.19 0 .358-.067.51-.159.153.092.32.159.511.159h1.582v4.567h-1.37zm-5.89-8.143a.11.11 0 0 1 .107-.086h6.772a.11.11 0 0 1 .107.087l.154.713h-7.299l.159-.714z" style="fill: #141414;"/><path fill="#00243d" d="M32.526 23.873h.616v1h-.616zM22.844 38.824h-.035l-.2-.924a1.115 1.115 0 0 0-1.085-.875h-6.771c-.523 0-.969.357-1.084.87l-.205.93h-.099a.765.765 0 0 0-.763.763v1.088c0 .47.328.848.763.96v5.117a.5.5 0 0 0 .5.5h8.541a.5.5 0 0 0 .5-.5v-5.117a.998.998 0 0 0 .764-.96V39.65a.827.827 0 0 0-.826-.826zm-9.242 1.852v-.852h2.351l-.006.862-2.345-.01zm3.355-.852h2.353l-.007.862-2.346-.01v-.852zm3.357 0h2.354l-.009.862-2.345-.01v-.852zm-5.668-1.712a.11.11 0 0 1 .107-.087h6.771a.11.11 0 0 1 .108.086l.154.713h-7.299l.159-.712zm2.088 8.14V43.19h2.802v3.063h-2.802zm3.802 0V42.69a.5.5 0 0 0-.5-.5h-3.802a.5.5 0 0 0-.5.5v3.563h-1.369v-4.567h1.582a.98.98 0 0 0 .51-.158.98.98 0 0 0 .51.158h2.336c.19 0 .358-.067.51-.159.153.092.32.16.511.16h1.582v4.566h-1.37z" style="fill: #141414;"/><path fill="#00243d" d="M18.612 44.222h.616v1h-.616z" style="fill: #141414;"/><path fill="#00243d" d="M46.372 32.813a9.256 9.256 0 0 0-4.873 1.39l-3.34-5.384a9.3 9.3 0 0 0 3.216-7.029c0-5.142-4.184-9.325-9.325-9.325-5.143 0-9.326 4.183-9.326 9.325a9.292 9.292 0 0 0 2.911 6.752l-3.84 5.02a9.272 9.272 0 0 0-3.66-.75c-5.142 0-9.325 4.184-9.325 9.327 0 5.142 4.183 9.326 9.326 9.326 4.637 0 8.484-3.406 9.197-7.846h9.842c.713 4.44 4.56 7.846 9.197 7.846 5.143 0 9.326-4.184 9.326-9.326 0-5.143-4.183-9.326-9.326-9.326zM23.724 21.79c0-4.59 3.735-8.325 8.326-8.325s8.325 3.735 8.325 8.325-3.734 8.326-8.325 8.326-8.326-3.735-8.326-8.326zm-5.588 28.675c-4.591 0-8.326-3.735-8.326-8.326 0-4.591 3.735-8.326 8.326-8.326s8.326 3.735 8.326 8.326c0 4.59-3.735 8.326-8.326 8.326zm9.302-7.846c.008-.16.024-.318.024-.48 0-3.482-1.921-6.519-4.756-8.12l3.692-4.828a9.267 9.267 0 0 0 10.97.25l3.307 5.33c-2.203 1.708-3.63 4.371-3.63 7.368 0 .162.017.32.025.48h-9.632zm18.934 7.846c-4.59 0-8.326-3.735-8.326-8.326 0-4.591 3.735-8.326 8.326-8.326s8.326 3.735 8.326 8.326c0 4.59-3.735 8.326-8.326 8.326z" style="fill: #141414;"/><path fill="#00243d" d="M51.08 38.824h-.035l-.2-.924a1.115 1.115 0 0 0-1.084-.875h-6.772c-.523 0-.968.357-1.084.87l-.205.93h-.098a.765.765 0 0 0-.764.763v1.088c0 .47.329.848.764.96v5.117a.5.5 0 0 0 .5.5h8.54a.5.5 0 0 0 .5-.5v-5.117a.998.998 0 0 0 .764-.96V39.65a.827.827 0 0 0-.826-.826zm-9.242 1.852v-.852h2.352l-.006.862-2.346-.01zm3.356-.852h2.352l-.007.862-2.345-.01v-.852zm3.356 0h2.354l-.008.862-2.346-.01v-.852zm-5.668-1.712a.11.11 0 0 1 .107-.087h6.772a.11.11 0 0 1 .107.086l.154.713h-7.298l.158-.712zm2.089 8.14V43.19h2.801v3.063h-2.801zm3.801 0V42.69a.5.5 0 0 0-.5-.5h-3.801a.5.5 0 0 0-.5.5v3.563H42.6v-4.567h1.583c.19 0 .358-.067.51-.158a.98.98 0 0 0 .51.158h2.335c.19 0 .359-.067.51-.159.153.092.321.16.512.16h1.582v4.566h-1.37z" style="fill: #141414;"/><path fill="#00243d" d="M46.849 44.222h.616v1h-.616z" style="fill: #141414;"/></svg>
