<?xml version="1.0" encoding="UTF-8"?>
<svg xmlns="http://www.w3.org/2000/svg" viewBox="0 0 64 64"><path fill="#00243d" d="M36.349 17.177H27.65a3.404 3.404 0 0 0-3.4 3.4v26.955c0 1.874 1.526 3.399 3.4 3.399h8.698c1.875 0 3.4-1.525 3.4-3.4V20.577c0-1.874-1.525-3.4-3.4-3.4m2.4 30.355c0 1.323-1.077 2.399-2.4 2.399H27.65a2.4 2.4 0 0 1-2.4-2.4V20.577c0-1.323 1.077-2.4 2.4-2.4h8.698c1.323 0 2.4 1.077 2.4 2.4z" style="fill: #ffffff;"/><path fill="#00243d" d="M35.23 24.277c0-1.781-1.449-3.23-3.23-3.23s-3.23 1.449-3.23 3.23 1.449 3.23 3.23 3.23 3.23-1.449 3.23-3.23M32 26.507c-1.23 0-2.23-1-2.23-2.23s1-2.23 2.23-2.23 2.23 1 2.23 2.23-1 2.23-2.23 2.23M32 30.824c-1.781 0-3.23 1.449-3.23 3.23s1.449 3.23 3.23 3.23 3.23-1.449 3.23-3.23-1.449-3.23-3.23-3.23m0 5.46c-1.23 0-2.23-1-2.23-2.23s1-2.23 2.23-2.23 2.23 1 2.23 2.23-1 2.23-2.23 2.23M32 40.6c-1.781 0-3.23 1.45-3.23 3.23s1.449 3.23 3.23 3.23 3.23-1.448 3.23-3.23S33.781 40.6 32 40.6m0 5.46c-1.23 0-2.23-1-2.23-2.23s1-2.23 2.23-2.23 2.23 1 2.23 2.23-1 2.23-2.23 2.23" style="fill: #ffffff;"/><path fill="#00243d" d="M31.5 18.893H32.5V20.55H31.5z" style="fill: #ffffff;"/><path fill="#00243d" d="M31.5 27.991H32.5V29.647H31.5z" style="fill: #ffffff;"/><path fill="#00243d" d="M35.721 23.77H37.376999999999995V24.77H35.721z" style="fill: #ffffff;"/><path fill="#00243d" d="M26.623 23.77H28.279V24.77H26.623z" style="fill: #ffffff;"/><path fill="#00243d" d="M34.716 26.659H35.716V28.314999999999998H34.716z" transform="rotate(-44.988 35.216 27.487)" style="fill: #ffffff;"/><path fill="#00243d" d="M28.284 20.226H29.284V21.881999999999998H28.284z" transform="rotate(-45 28.784 21.054)" style="fill: #ffffff;"/><path fill="#00243d" d="M27.955 26.987H29.610999999999997V27.987H27.955z" transform="rotate(-45.012 28.784 27.487)" style="fill: #ffffff;"/><path fill="#00243d" d="M34.388 20.554H36.044V21.554H34.388z" transform="rotate(-45 35.216 21.054)" style="fill: #ffffff;"/></svg>
