<?xml version="1.0" encoding="UTF-8"?>
<svg xmlns="http://www.w3.org/2000/svg" viewBox="0 0 64 64"><path fill="#00243d" d="M36.348 17.177h-8.697a3.404 3.404 0 0 0-3.4 3.4v26.955c0 1.874 1.526 3.399 3.4 3.399h8.697c1.875 0 3.4-1.525 3.4-3.4V20.577c0-1.874-1.525-3.4-3.4-3.4m2.4 30.355c0 1.323-1.077 2.399-2.4 2.399h-8.697a2.4 2.4 0 0 1-2.4-2.4V20.577c0-1.323 1.077-2.4 2.4-2.4h8.697c1.323 0 2.4 1.077 2.4 2.4z" style="fill: #ffffff;"/><path fill="#00243d" d="M35.23 24.277c0-1.781-1.449-3.23-3.23-3.23s-3.23 1.449-3.23 3.23 1.449 3.23 3.23 3.23 3.23-1.449 3.23-3.23M32 26.507c-1.23 0-2.23-1-2.23-2.23s1-2.23 2.23-2.23 2.23 1 2.23 2.23-1 2.23-2.23 2.23M32 30.824c-1.781 0-3.23 1.449-3.23 3.23s1.449 3.23 3.23 3.23 3.23-1.449 3.23-3.23-1.449-3.23-3.23-3.23m0 5.46c-1.23 0-2.23-1-2.23-2.23s1-2.23 2.23-2.23 2.23 1 2.23 2.23-1 2.23-2.23 2.23M32 40.6c-1.781 0-3.23 1.45-3.23 3.23s1.449 3.23 3.23 3.23 3.23-1.448 3.23-3.23S33.781 40.6 32 40.6m0 5.46c-1.23 0-2.23-1-2.23-2.23s1-2.23 2.23-2.23 2.23 1 2.23 2.23-1 2.23-2.23 2.23" style="fill: #ffffff;"/><path fill="#00243d" d="M31.5 38.453H32.5V40.11H31.5z" style="fill: #ffffff;"/><path fill="#00243d" d="M31.5 47.551H32.5V49.207H31.5z" style="fill: #ffffff;"/><path fill="#00243d" d="M35.721 43.33H37.376999999999995V44.33H35.721z" style="fill: #ffffff;"/><path fill="#00243d" d="M26.623 43.33H28.279V44.33H26.623z" style="fill: #ffffff;"/><path fill="#00243d" d="M34.716 46.218H35.716V47.874H34.716z" transform="rotate(-44.988 35.216 47.047)" style="fill: #ffffff;"/><path fill="#00243d" d="M28.284 39.786H29.284V41.442H28.284z" transform="rotate(-45 28.784 40.614)" style="fill: #ffffff;"/><path fill="#00243d" d="M27.956 46.547H29.612V47.547H27.956z" transform="rotate(-45.012 28.784 47.047)" style="fill: #ffffff;"/><path fill="#00243d" d="M34.388 40.114H36.044V41.114H34.388z" transform="rotate(-45 35.216 40.614)" style="fill: #ffffff;"/></svg>
