<?xml version="1.0" encoding="UTF-8"?>
<svg xmlns="http://www.w3.org/2000/svg" viewBox="0 0 64 64"><path fill="#00243d" d="M36.348 17.177h-8.697a3.404 3.404 0 0 0-3.4 3.4v26.955c0 1.874 1.526 3.399 3.4 3.399h8.697c1.875 0 3.4-1.525 3.4-3.4V20.577c0-1.874-1.525-3.4-3.4-3.4m2.4 30.355c0 1.323-1.077 2.399-2.4 2.399h-8.697a2.4 2.4 0 0 1-2.4-2.4V20.577c0-1.323 1.077-2.4 2.4-2.4h8.697c1.323 0 2.4 1.077 2.4 2.4z" style="fill: #ffffff;"/><path fill="#00243d" d="M35.23 24.277c0-1.781-1.45-3.23-3.23-3.23s-3.231 1.449-3.231 3.23 1.45 3.23 3.23 3.23 3.231-1.449 3.231-3.23M32 26.507c-1.23 0-2.231-1-2.231-2.23s1.001-2.23 2.23-2.23 2.231 1 2.231 2.23-1.001 2.23-2.23 2.23M32 30.824c-1.782 0-3.231 1.449-3.231 3.23s1.45 3.23 3.23 3.23 3.231-1.449 3.231-3.23-1.45-3.23-3.23-3.23m0 5.46c-1.23 0-2.231-1-2.231-2.23s1.001-2.23 2.23-2.23 2.231 1 2.231 2.23-1.001 2.23-2.23 2.23M32 40.6c-1.782 0-3.231 1.45-3.231 3.23s1.45 3.23 3.23 3.23 3.231-1.448 3.231-3.23S33.78 40.6 32 40.6m0 5.46c-1.23 0-2.231-1-2.231-2.23s1.001-2.23 2.23-2.23 2.231 1 2.231 2.23-1.001 2.23-2.23 2.23" style="fill: #ffffff;"/><path fill="#00243d" d="M31.5 28.677H32.5V30.334H31.5z" style="fill: #ffffff;"/><path fill="#00243d" d="M31.5 37.774H32.5V39.43H31.5z" style="fill: #ffffff;"/><path fill="#00243d" d="M35.72 33.554H37.376V34.554H35.72z" style="fill: #ffffff;"/><path fill="#00243d" d="M26.623 33.554H28.279V34.554H26.623z" style="fill: #ffffff;"/><path fill="#00243d" d="M34.716 36.442H35.716V38.098H34.716z" transform="rotate(-44.988 35.216 37.27)" style="fill: #ffffff;"/><path fill="#00243d" d="M28.283 30.009H29.283V31.665H28.283z" transform="rotate(-45 28.783 30.837)" style="fill: #ffffff;"/><path fill="#00243d" d="M27.955 36.77H29.610999999999997V37.77H27.955z" transform="rotate(-45.012 28.783 37.27)" style="fill: #ffffff;"/><path fill="#00243d" d="M34.388 30.337H36.044V31.337H34.388z" transform="rotate(-45 35.216 30.837)" style="fill: #ffffff;"/></svg>
