<?xml version="1.0" encoding="UTF-8"?>
<svg xmlns="http://www.w3.org/2000/svg" viewBox="0 0 64 64"><path fill="#00243d" d="M43.665 47.32h-1.222l-7.578-25.97a1.48 1.48 0 0 0-1.412-1.059h-2.865c-.648 0-1.228.435-1.41 1.057l-7.6 25.973h-1.223c-1.277 0-2.316 1.336-2.316 2.978v.689h27.942v-.689c0-1.642-1.04-2.978-2.316-2.978M27.34 31.187l8.073-4.385 2.52 8.633-14.076 7.654zm2.797-9.556a.47.47 0 0 1 .451-.339h2.865c.207 0 .393.139.452.339l1.222 4.189-7.39 4.014zm-6.676 22.813 14.758-8.026 3.18 10.9H22.62zm-4.405 5.545c.104-.931.656-1.667 1.299-1.667h23.31c.643 0 1.196.736 1.3 1.667z" style="fill: #ffffff;"/></svg>
