<?xml version="1.0" encoding="UTF-8"?>
<svg xmlns="http://www.w3.org/2000/svg" viewBox="0 0 64 63.3"><path d="M34.385 50.863H22.67a.5.5 0 0 1-.5-.5V39.222a6.826 6.826 0 0 1-2.426-5.235v-5.04a6.877 6.877 0 0 1 6.87-6.869h5.789c4.91 0 8.904 3.995 8.904 8.904v.797l2.84 6.843c.178.43.13.918-.128 1.305s-.69.618-1.156.618h-1.556v2.815a3.941 3.941 0 0 1-3.937 3.938h-2.486v3.065a.5.5 0 0 1-.5.5zm-11.214-1h10.714v-3.065a.5.5 0 0 1 .5-.5h2.986a2.94 2.94 0 0 0 2.937-2.938v-3.315a.5.5 0 0 1 .5-.5h2.056c.188 0 .29-.121.323-.173a.387.387 0 0 0 .037-.367l-2.878-6.935a.494.494 0 0 1-.038-.192v-.896c0-4.358-3.546-7.904-7.904-7.904h-5.79a5.876 5.876 0 0 0-5.869 5.869v5.04c0 1.805.815 3.484 2.235 4.605a.5.5 0 0 1 .19.392v10.88z" style="fill: #141414;"/><path d="M31.108 38.253h-.886a1.255 1.255 0 0 1-1.228-1.006l-.165-.824a5.247 5.247 0 0 1-.444-.185l-.7.467a1.256 1.256 0 0 1-1.577-.154l-.63-.63a1.255 1.255 0 0 1-.156-1.578l.467-.701a5.164 5.164 0 0 1-.184-.444l-.824-.164a1.258 1.258 0 0 1-1.007-1.228v-.887c0-.593.423-1.109 1.005-1.227l.826-.165c.055-.15.116-.298.184-.444l-.466-.699a1.257 1.257 0 0 1 .156-1.58l.627-.627a1.259 1.259 0 0 1 1.58-.156l.7.466c.144-.068.293-.13.443-.184l.165-.824a1.256 1.256 0 0 1 1.228-1.006h.886c.596 0 1.112.423 1.228 1.007l.164.823c.15.054.3.116.444.184l.7-.466a1.258 1.258 0 0 1 1.578.154l.629.63c.42.418.486 1.082.158 1.578l-.468.701c.068.145.129.293.184.443l.824.165h.002a1.257 1.257 0 0 1 1.005 1.227v.887c0 .593-.423 1.11-1.005 1.227l-.826.165c-.055.15-.117.3-.184.445l.466.699c.33.495.264 1.16-.156 1.58l-.627.627a1.255 1.255 0 0 1-1.58.156l-.7-.467c-.145.069-.293.13-.444.185l-.164.823a1.255 1.255 0 0 1-1.228 1.007zM28.35 35.16c.082 0 .163.02.238.06.26.141.536.256.818.34.177.053.31.2.346.381l.222 1.109a.253.253 0 0 0 .248.202h.886c.12 0 .224-.085.247-.202l.222-1.109a.498.498 0 0 1 .347-.38c.281-.085.557-.2.819-.341a.5.5 0 0 1 .515.024l.941.628c.1.067.235.053.319-.032l.626-.626a.253.253 0 0 0 .03-.319l-.626-.94a.5.5 0 0 1-.025-.515c.141-.262.255-.538.34-.82.053-.177.2-.31.381-.346l1.11-.222a.258.258 0 0 0 .202-.247v-.887a.257.257 0 0 0-.204-.247l-1.108-.221a.498.498 0 0 1-.38-.347c-.086-.28-.2-.557-.34-.82a.498.498 0 0 1 .024-.513l.628-.941a.254.254 0 0 0-.031-.318l-.63-.629a.254.254 0 0 0-.317-.03l-.94.627a.502.502 0 0 1-.515.024 4.387 4.387 0 0 0-.82-.339.5.5 0 0 1-.346-.38l-.222-1.11a.252.252 0 0 0-.247-.202h-.886a.253.253 0 0 0-.248.203l-.222 1.108a.5.5 0 0 1-.346.381c-.283.085-.559.2-.819.34a.506.506 0 0 1-.514-.025l-.942-.627a.256.256 0 0 0-.318.032l-.626.626a.253.253 0 0 0-.032.32l.627.94a.501.501 0 0 1 .025.514c-.141.26-.255.536-.34.819a.5.5 0 0 1-.38.347l-1.11.221a.253.253 0 0 0-.203.247v.887c0 .12.086.223.204.247l1.108.222a.5.5 0 0 1 .381.347c.085.283.2.559.34.818a.5.5 0 0 1-.025.515l-.628.941a.253.253 0 0 0 .032.318l.628.629c.083.082.22.096.316.031l.943-.629a.5.5 0 0 1 .277-.084z" style="fill: #141414;"/><path d="M30.665 34.988a3.63 3.63 0 0 1-3.625-3.625c0-2 1.626-3.625 3.625-3.625s3.625 1.626 3.625 3.625c0 2-1.626 3.625-3.625 3.625zm0-6.25a2.628 2.628 0 0 0-2.625 2.625 2.628 2.628 0 0 0 2.625 2.625 2.628 2.628 0 0 0 2.625-2.625 2.628 2.628 0 0 0-2.625-2.625z" style="fill: #141414;"/></svg>
