<?xml version="1.0" encoding="UTF-8"?>
<svg xmlns="http://www.w3.org/2000/svg" viewBox="0 0 64.3 64.1"><circle cx="13.9" cy="42.2" r="1" style="fill: #141414;"/><circle cx="13.9" cy="35.2" r="1" style="fill: #141414;"/><circle cx="13.9" cy="28.2" r="1" style="fill: #141414;"/><circle cx="13.9" cy="21.2" r="1" style="fill: #141414;"/><circle cx="13.9" cy="14.2" r="1" style="fill: #141414;"/><path d="M48.1 26.5l-.7-.7 3.5-3.4c.1-.1.2-.3.2-.5l-.2-1.6c0-.2-.1-.3-.3-.4l-4.1-2.7.5-.8 4.1 2.7c.4.3.7.7.7 1.2l.2 1.6c0 .5-.1.9-.5 1.3l-3.4 3.3z" style="fill: #141414;"/><path d="M20.1 20.7h31.4v1H20.1zM25.8 51.382h-3.3c-.3 0-.5-.2-.5-.5v-19.9c0-.3.2-.5.5-.5h3.3c.3 0 .5.2.5.5v19.9c0 .3-.3.5-.5.5zm-2.8-1h2.3v-18.9H23v18.9zM36.21 51.382h-3.3c-.3 0-.5-.2-.5-.5v-19.9c0-.3.2-.5.5-.5h3.3c.3 0 .5.2.5.5v19.9c0 .3-.3.5-.5.5zm-2.8-1h2.3v-18.9h-2.3v18.9zM46.621 51.382h-3.3c-.3 0-.5-.2-.5-.5v-19.9c0-.3.2-.5.5-.5h3.3c.3 0 .5.2.5.5v19.9c0 .3-.3.5-.5.5zm-2.8-1h2.3v-18.9h-2.3v18.9z" style="fill: #141414;"/><path d="M13.2 50.4h36.5v1H13.2z" style="fill: #141414;"/></svg>
