<?xml version="1.0" encoding="UTF-8"?>
<svg xmlns="http://www.w3.org/2000/svg" viewBox="0 0 64.111 63.839"><path fill="#00243d" d="M39.459 31.816v4.702h1v-4.733h.018l1.677 2.099.782-.625-1.678-2.099a1.085 1.085 0 0 0-.852-.408h-.894c-.333 0-.644.15-.85.408l-1.68 2.099.782.625 1.695-2.068zM47.48 30.752h-.895c-.333 0-.644.15-.85.408l-1.68 2.099.782.625 1.695-2.068v4.702h1v-4.733h.018l1.678 2.099.78-.625-1.677-2.099a1.085 1.085 0 0 0-.85-.408z" style="fill: #141414;"/><path fill="#00243d" d="M52.41 14.241H18.863a2.364 2.364 0 0 0-2.361 2.362v5.474h-1.922c-.587 0-1.064.478-1.064 1.065v.14H11.56a2.51 2.51 0 0 0-2.512 2.502v19.9a2.514 2.514 0 0 0 2.512 2.51h7.088a6.509 6.509 0 0 0 5.078 2.425 6.51 6.51 0 0 0 4.618-1.909 6.525 6.525 0 0 0 1.753-6.016H52.41a2.363 2.363 0 0 0 2.36-2.36V16.603a2.364 2.364 0 0 0-2.36-2.362zm-11.285 1v6.03H30.148v-6.03h10.977zm-26.544 7.836l6.7.064v1.268l-.064.065-6.7-.065.064-1.332zm-3.02 24.117a1.513 1.513 0 0 1-1.512-1.51v-19.9c0-.828.678-1.502 1.512-1.502h1.956v.127c0 .587.477 1.065 1.063 1.065h6.637c.587 0 1.064-.478 1.064-1.065v-.127h1.952c.834 0 1.512.674 1.512 1.502V37.89a6.534 6.534 0 0 0-6.634 1.586 6.486 6.486 0 0 0-1.912 4.617c0 1.1.272 2.16.782 3.101h-6.42zm16.077.809a5.535 5.535 0 0 1-7.82 0 5.536 5.536 0 0 1 0-7.82 5.512 5.512 0 0 1 3.91-1.617c1.416 0 2.832.539 3.91 1.617a5.536 5.536 0 0 1 0 7.82zm26.132-7.669c0 .75-.61 1.36-1.36 1.36H29.797a6.488 6.488 0 0 0-3.053-3.391V25.784a2.51 2.51 0 0 0-2.512-2.502h-1.952v-.141c0-.586-.477-1.064-1.064-1.064h-3.714v-5.474c0-.751.61-1.362 1.361-1.362h10.284v6.53a.5.5 0 0 0 .5.5h11.977a.5.5 0 0 0 .5-.5v-6.53h10.284c.75 0 1.36.61 1.36 1.362v23.731z" style="fill: #141414;"/><path fill="#00243d" d="M37.023 37.845h12.944v1H37.023zM15.108 33.906h-2.703a.5.5 0 0 0-.5.5v2.703a.5.5 0 0 0 .5.5h2.703a.5.5 0 0 0 .5-.5v-2.703a.5.5 0 0 0-.5-.5zm-.5 2.703h-1.703v-1.703h1.703v1.703zM15.108 28.759h-2.703a.5.5 0 0 0-.5.5v2.704a.5.5 0 0 0 .5.5h2.703a.5.5 0 0 0 .5-.5v-2.704a.5.5 0 0 0-.5-.5zm-.5 2.704h-1.703v-1.704h1.703v1.704zM16.355 30.111h6.26v1h-6.26zM16.458 35.258h6.26v1h-6.26zM23.35 45.77h-.562l-1.672-2.246-.802.597 1.744 2.343a.77.77 0 0 0 .612.306h.812a.759.759 0 0 0 .652-.365l2.846-4.634-.852-.524-2.777 4.523z" style="fill: #141414;"/></svg>
