<?xml version="1.0" encoding="UTF-8"?>
<svg xmlns="http://www.w3.org/2000/svg" viewBox="0 0 63.9 63.9"><path d="M34.973 28.873l.812-.582a9.349 9.349 0 0 0-7.583-3.9c-5.14 0-9.32 4.181-9.32 9.32s4.18 9.322 9.32 9.322 9.321-4.181 9.321-9.321c0-.519-.043-1.04-.128-1.55l-.987.164c.076.456.115.922.115 1.386 0 4.588-3.732 8.321-8.32 8.321-4.589 0-8.322-3.733-8.322-8.321s3.733-8.32 8.321-8.32a8.348 8.348 0 0 1 6.77 3.481z" style="fill: #141414;"/><path d="M28.202 29.51c1.123 0 2.178.436 2.972 1.23l.707-.707a5.167 5.167 0 0 0-3.679-1.524A5.209 5.209 0 0 0 23 33.712c0 2.869 2.333 5.203 5.202 5.203s5.203-2.334 5.203-5.203h-1c0 2.317-1.885 4.203-4.203 4.203S24 36.029 24 33.712s1.885-4.203 4.202-4.203z" style="fill: #141414;"/><path d="M48.813 24.84l-.665-1.305.744-1.86-.928-.372-.83 2.074a.5.5 0 0 0 .021.417l.19.372-2.876 1.439-.012-.024.743-1.86-.928-.372-.829 2.074a.498.498 0 0 0 .02.417l.11.213-15.608 7.803.447.895 15.617-7.808.32.624a.5.5 0 0 0 .359.262l2.185.374.168-.986-1.94-.332-.198-.39 2.879-1.438.238.464a.499.499 0 0 0 .36.262l2.184.373.168-.985-1.94-.332z" style="fill: #141414;"/><path d="M39.362 41.408a13.482 13.482 0 0 0 2.407-7.696c0-1.196-.157-2.383-.464-3.528l-.965.26c.284 1.06.429 2.16.429 3.268 0 6.929-5.638 12.566-12.567 12.566-6.93 0-12.566-5.637-12.566-12.566 0-6.93 5.637-12.567 12.566-12.567 4.182 0 8.077 2.072 10.421 5.541l.828-.56a13.56 13.56 0 0 0-11.249-5.98c-7.48 0-13.566 6.085-13.566 13.566 0 2.875.905 5.54 2.437 7.737l-4.306 5.498.787.617 4.14-5.286c2.49 3.049 6.274 5 10.508 5 4.287 0 8.108-2.003 10.596-5.118l4.232 5.404.787-.617-4.382-5.596-.073.057z" style="fill: #141414;"/></svg>
