<?xml version="1.0" encoding="UTF-8"?>
<svg xmlns="http://www.w3.org/2000/svg" viewBox="0 0 64.111 63.839"><path fill="#00243d" d="M41.927 37.36h-.001l-1.092-.22a6.537 6.537 0 0 0-.277-.667l.62-.928c.377-.568.3-1.329-.18-1.809l-.783-.784a1.43 1.43 0 0 0-1.573-.28 9.064 9.064 0 0 0-8.519-5.865c-5.028 0-9.119 4.09-9.119 9.12 0 4.299 3.044 8.045 7.233 8.921.014.016.02.036.036.05l.78.784a1.441 1.441 0 0 0 1.81.177l.927-.618c.217.104.44.196.668.276l.218 1.092a1.438 1.438 0 0 0 1.407 1.155h1.103c.682 0 1.274-.486 1.407-1.154l.219-1.093c.228-.08.45-.172.668-.276l.926.618a1.44 1.44 0 0 0 1.81-.179l.78-.78a1.443 1.443 0 0 0 .18-1.812l-.618-.926c.104-.217.197-.44.277-.668l1.093-.218a1.44 1.44 0 0 0 1.153-1.407v-1.103a1.44 1.44 0 0 0-1.153-1.407zm-4.173-4.15l-.276.184a6.564 6.564 0 0 0-.667-.277l-.197-.98h.68c.179.341.328.701.46 1.073zm-1.072-2.073h-.694a1.415 1.415 0 0 0-.803-.266h-.974a10.207 10.207 0 0 0-2.444-2.88 8.037 8.037 0 0 1 4.915 3.146zm-7.972 5.336a6.677 6.677 0 0 0-.276.667l-1.094.22a1.438 1.438 0 0 0-1.152 1.406v.951a9.429 9.429 0 0 1-.767-3.34h3.226l.063.096zm-.398 6.284a9.1 9.1 0 0 1-1.372-1.638c.125.068.256.128.4.157l1.094.218c.079.226.172.45.276.667l-.398.596zm-6.289-6.38h2.397c.043 1.118.265 2.21.65 3.242h-2.165a8.072 8.072 0 0 1-.882-3.241zm2.415-1H22.03a8.057 8.057 0 0 1 .916-3.24h2.2c-.353.895-.6 1.842-.695 2.837-.013.135-.007.269-.014.404zm3.58 0h-2.582c.007-.102.001-.205.011-.308a9.35 9.35 0 0 1 .782-2.932h3.25v.528c-.156.07-.302.164-.428.29l-.78.78a1.425 1.425 0 0 0-.253 1.643zm2.46-4.24v-2.851a9.281 9.281 0 0 1 2.718 2.85h-2.717zm-1-2.859v2.859h-2.726a9.261 9.261 0 0 1 2.727-2.859zm1 3.859h2.175l-.196.98c-.228.08-.451.173-.668.277l-.928-.618c-.119-.08-.25-.128-.382-.168v-.471zm-2.382-4.064a10.155 10.155 0 0 0-2.49 3.064H23.58a8.13 8.13 0 0 1 4.515-3.064zm-4.587 12.546h2a10.233 10.233 0 0 0 2.37 3.108v.001a8.11 8.11 0 0 1-4.37-3.109zm18.571-.75a.437.437 0 0 1-.35.426l-1.378.276a.498.498 0 0 0-.381.346c-.11.362-.254.712-.432 1.04a.5.5 0 0 0 .024.516l.78 1.17a.438.438 0 0 1-.055.55l-.778.779a.434.434 0 0 1-.549.055l-1.172-.78a.497.497 0 0 0-.516-.024 5.486 5.486 0 0 1-1.039.43.5.5 0 0 0-.346.382l-.277 1.379a.436.436 0 0 1-.426.35h-1.103a.436.436 0 0 1-.427-.35l-.275-1.38a.5.5 0 0 0-.347-.38 5.555 5.555 0 0 1-1.04-.431.498.498 0 0 0-.515.023l-1.172.782c-.17.114-.4.09-.547-.054l-.781-.783a.435.435 0 0 1-.055-.547l.781-1.17a.5.5 0 0 0 .025-.515 5.518 5.518 0 0 1-.431-1.04.5.5 0 0 0-.382-.348l-1.379-.276a.437.437 0 0 1-.35-.426v-1.103c0-.207.147-.386.35-.426l1.379-.276a.5.5 0 0 0 .382-.348c.105-.355.25-.705.43-1.04a.499.499 0 0 0-.024-.515l-.78-1.17a.437.437 0 0 1 .055-.55l.778-.778a.437.437 0 0 1 .55-.055l1.17.78a.501.501 0 0 0 .515.024 5.6 5.6 0 0 1 1.042-.431.5.5 0 0 0 .346-.381l.275-1.379c.04-.203.22-.35.427-.35h1.103c.207 0 .385.147.426.35l.277 1.379a.5.5 0 0 0 .345.38 5.54 5.54 0 0 1 1.041.432c.162.087.36.079.515-.024l1.171-.78a.44.44 0 0 1 .549.052l.78.783a.434.434 0 0 1 .055.548l-.781 1.17a.5.5 0 0 0-.025.515c.179.33.324.68.433 1.041.052.177.199.31.38.347l1.38.276c.202.04.35.22.35.426v1.103z" style="fill: #ffffff;"/><path fill="#00243d" d="M34.634 34.931c-2.42 0-4.387 1.968-4.387 4.386s1.968 4.386 4.387 4.386c2.418 0 4.386-1.967 4.386-4.386s-1.968-4.386-4.386-4.386zm0 7.772a3.39 3.39 0 0 1-3.387-3.386c0-1.866 1.52-3.386 3.387-3.386s3.386 1.52 3.386 3.386a3.39 3.39 0 0 1-3.386 3.386z" style="fill: #ffffff;"/><path fill="#00243d" d="M51.948 18.732H12.163a2.708 2.708 0 0 0-2.705 2.704v26.446a2.708 2.708 0 0 0 2.705 2.704h39.785a2.707 2.707 0 0 0 2.704-2.704V21.436a2.707 2.707 0 0 0-2.704-2.704zm-39.785 1h39.785c.94 0 1.704.764 1.704 1.704v2.419H10.458v-2.42c0-.939.765-1.703 1.705-1.703zm39.785 29.854H12.163c-.94 0-1.705-.764-1.705-1.704V24.855h43.194v23.027c0 .94-.764 1.704-1.704 1.704z" style="fill: #ffffff;"/><path fill="#00243d" d="M46.255 21.443h.982v1h-.982zM48.234 21.443h.982v1h-.982zM50.151 21.443h.982v1h-.982z" style="fill: #ffffff;"/></svg>
