<?xml version="1.0" encoding="UTF-8"?>
<svg xmlns="http://www.w3.org/2000/svg" viewBox="0 0 64.111 63.839"><path fill="#00243d" d="M35.754 36.89c-2.639 0-4.785 2.146-4.785 4.785s2.146 4.785 4.785 4.785 4.785-2.146 4.785-4.785-2.147-4.785-4.785-4.785zm0 8.57c-2.087 0-3.785-1.698-3.785-3.785s1.698-3.785 3.785-3.785 3.785 1.698 3.785 3.785-1.698 3.785-3.785 3.785z" style="fill: #ffffff;"/><path fill="#00243d" d="M53.727 28.858l-.739-.148a5.135 5.135 0 0 0-.154-.371l.42-.63a1.197 1.197 0 0 0-.152-1.503l-.58-.582a1.189 1.189 0 0 0-1.284-.243v-7.27a2.535 2.535 0 0 0-2.532-2.534h-36.68a2.535 2.535 0 0 0-2.533 2.533v24.383a2.535 2.535 0 0 0 2.532 2.532H29.14l-.56.839a1.535 1.535 0 0 0 .194 1.93l.862.863a1.536 1.536 0 0 0 1.93.189l1.046-.698c.255.123.518.232.785.325l.247 1.232a1.534 1.534 0 0 0 1.501 1.232h1.216c.727 0 1.359-.518 1.502-1.231l.246-1.233a7.24 7.24 0 0 0 .785-.325l1.047.698a1.538 1.538 0 0 0 1.932-.191l.86-.86a1.535 1.535 0 0 0 .19-1.933l-.557-.837h6.34a2.535 2.535 0 0 0 2.532-2.532v-6.998c.436.176.942.097 1.286-.246l.578-.578c.4-.4.464-1.033.15-1.507l-.418-.627a5.24 5.24 0 0 0 .154-.372l.74-.148c.555-.112.958-.604.958-1.17v-.818c0-.567-.403-1.059-.959-1.17zm-41.702-12.28h36.68c.846 0 1.533.687 1.533 1.532v2.191H10.493v-2.19c0-.846.688-1.534 1.532-1.534zm30 30.51l-.858.859a.535.535 0 0 1-.671.067l-1.291-.86a.501.501 0 0 0-.515-.025 6.21 6.21 0 0 1-1.157.48.5.5 0 0 0-.347.38l-.303 1.52a.534.534 0 0 1-.522.428h-1.216a.533.533 0 0 1-.52-.427l-.305-1.52a.5.5 0 0 0-.347-.381c-.4-.12-.79-.282-1.157-.48a.5.5 0 0 0-.514.024l-1.292.861a.53.53 0 0 1-.668-.065l-.862-.863a.533.533 0 0 1-.066-.67l.861-1.29a.5.5 0 0 0 .025-.514 6.17 6.17 0 0 1-.48-1.158.498.498 0 0 0-.382-.346l-1.52-.304a.533.533 0 0 1-.427-.521v-1.216c0-.252.18-.47.426-.52l1.521-.305a.498.498 0 0 0 .381-.346c.12-.4.281-.79.48-1.157a.5.5 0 0 0-.024-.515l-.86-1.29a.533.533 0 0 1 .066-.672l.86-.858a.534.534 0 0 1 .67-.068l1.29.861a.501.501 0 0 0 .515.024 6.21 6.21 0 0 1 1.157-.48.5.5 0 0 0 .347-.38l.305-1.52a.533.533 0 0 1 .52-.428h1.216c.252 0 .472.18.522.428l.303 1.52a.5.5 0 0 0 .347.38c.4.12.79.282 1.157.48.162.088.36.078.515-.024l1.29-.86a.537.537 0 0 1 .67.065l.861.862a.532.532 0 0 1 .067.669l-.862 1.29a.5.5 0 0 0-.024.516c.2.368.36.757.48 1.157.053.177.2.31.381.346l1.52.305c.248.05.427.268.427.52v1.216c0 .252-.18.47-.425.52l-1.522.305a.498.498 0 0 0-.38.346c-.12.4-.282.79-.481 1.158a.5.5 0 0 0 .024.514l.86 1.29c.141.211.113.493-.066.672zm6.68-3.063h-6.124l1.205-.241a1.536 1.536 0 0 0 1.23-1.501v-1.216c0-.726-.517-1.357-1.23-1.5h-.001l-1.233-.247a7.33 7.33 0 0 0-.326-.785l.699-1.048a1.534 1.534 0 0 0-.192-1.93l-.862-.864a1.537 1.537 0 0 0-1.93-.189l-1.047.698a7.24 7.24 0 0 0-.785-.325l-.246-1.233a1.537 1.537 0 0 0-1.502-1.231h-1.216c-.727 0-1.36.518-1.5 1.231l-.248 1.233a7.24 7.24 0 0 0-.785.325l-1.047-.698a1.536 1.536 0 0 0-1.93.192l-.86.859a1.537 1.537 0 0 0-.192 1.933l.697 1.047a7.34 7.34 0 0 0-.325.785l-1.234.246a1.536 1.536 0 0 0-1.23 1.501v1.216c0 .726.518 1.357 1.231 1.501l1.204.24h-16.9a1.534 1.534 0 0 1-1.533-1.531V21.3h39.745v4.531c-.073-.03-.145-.064-.22-.09l-.147-.74a1.197 1.197 0 0 0-1.171-.96h-.817c-.568 0-1.06.404-1.171.96l-.149.74c-.126.045-.25.097-.37.153l-.629-.418a1.199 1.199 0 0 0-1.506.15l-.578.577a1.197 1.197 0 0 0-.15 1.507l.419.627a5.24 5.24 0 0 0-.154.372l-.74.148a1.198 1.198 0 0 0-.959 1.17v.819c0 .566.404 1.058.96 1.17l.739.148c.046.125.097.25.154.372l-.42.628a1.198 1.198 0 0 0 .15 1.505l.58.581c.406.4 1.038.462 1.505.147l.628-.418c.121.056.245.108.371.155l.149.737c.11.557.603.96 1.17.96h.818c.567 0 1.06-.403 1.17-.96l.148-.737c.075-.028.147-.06.22-.092v7.45c0 .844-.687 1.532-1.532 1.532zm4.981-13.178a.194.194 0 0 1-.155.19l-1.023.204a.5.5 0 0 0-.382.348c-.076.256-.18.508-.31.747a.5.5 0 0 0 .025.514l.579.869c.05.077.04.18-.025.245l-.577.577a.2.2 0 0 1-.245.025l-.87-.579a.5.5 0 0 0-.514-.024c-.238.129-.489.233-.748.31a.5.5 0 0 0-.346.382l-.205 1.022a.194.194 0 0 1-.19.156h-.817a.194.194 0 0 1-.19-.156l-.206-1.023a.5.5 0 0 0-.347-.38 3.987 3.987 0 0 1-.747-.31.5.5 0 0 0-.514.023l-.87.58a.199.199 0 0 1-.244-.024l-.579-.58a.197.197 0 0 1-.024-.243l.58-.87a.5.5 0 0 0 .024-.514 3.955 3.955 0 0 1-.31-.747.5.5 0 0 0-.381-.348l-1.022-.205a.194.194 0 0 1-.157-.189v-.818c0-.09.067-.173.155-.19l1.024-.205a.502.502 0 0 0 .382-.347 3.92 3.92 0 0 1 .31-.748.5.5 0 0 0-.025-.514l-.58-.869a.193.193 0 0 1 .025-.245l.577-.577a.195.195 0 0 1 .246-.025l.869.579a.499.499 0 0 0 .514.024c.237-.127.489-.232.747-.31a.5.5 0 0 0 .347-.38l.205-1.024a.194.194 0 0 1 .19-.156h.818c.093 0 .172.066.19.156l.205 1.023a.5.5 0 0 0 .346.381c.26.078.511.182.748.31.162.088.36.079.515-.024l.87-.58c.072-.048.179-.038.242.024l.58.581a.194.194 0 0 1 .025.243l-.58.868a.5.5 0 0 0-.025.515c.13.24.234.49.31.748.054.177.2.311.382.347l1.022.205c.089.018.156.1.156.19v.818z" style="fill: #ffffff;"/><path fill="#00243d" d="M48.29 27.055a3.387 3.387 0 0 0-3.382 3.383 3.387 3.387 0 0 0 3.383 3.383 3.387 3.387 0 0 0 3.384-3.383 3.387 3.387 0 0 0-3.384-3.383zm0 5.766c-1.313 0-2.382-1.07-2.382-2.383s1.07-2.383 2.383-2.383c1.314 0 2.384 1.069 2.384 2.383s-1.07 2.383-2.384 2.383zM43.458 18.077h.905v1h-.905zM45.282 18.077h.905v1h-.905zM47.05 18.077h.905v1h-.905zM18.077 24.883a.5.5 0 0 0-.707-.006l-3.107 3.059a.502.502 0 0 0-.005.708l3.054 3.081a.5.5 0 0 0 .711-.704l-2.702-2.724 2.75-2.707a.5.5 0 0 0 .006-.707zM25.406 24.877a.5.5 0 1 0-.701.713l2.75 2.707-2.702 2.724a.5.5 0 0 0 .71.704l3.055-3.08a.502.502 0 0 0-.004-.71l-3.108-3.058zM22.776 24.768a.501.501 0 0 0-.648.283l-2.411 6.14a.5.5 0 0 0 .931.365l2.411-6.14a.5.5 0 0 0-.283-.648z" style="fill: #ffffff;"/></svg>
