<?xml version="1.0" encoding="UTF-8"?>
<svg xmlns="http://www.w3.org/2000/svg" viewBox="0 0 64 64"><path fill="#00243f" d="M48.02 42.297v4.583H19.93v-4.583h28.09m1-1H18.93v6.583h30.09v-6.583z" style="fill: #ffffff;"/><path fill="#00243f" d="M44.959 42.06H29.935a1.335 1.335 0 0 1-1.333-1.333V30.098a1.335 1.335 0 0 1 1.333-1.333H44.96a1.335 1.335 0 0 1 1.333 1.333v10.63a1.335 1.335 0 0 1-1.333 1.332zM29.935 29.765a.334.334 0 0 0-.333.333v10.63a.334.334 0 0 0 .333.332H44.96a.334.334 0 0 0 .333-.333V30.098a.334.334 0 0 0-.333-.333z" style="fill: #ffffff;"/><path fill="#00243f" d="M40.129 32.913h-5.364a.5.5 0 0 1-.5-.5v-3.148a.5.5 0 0 1 .5-.5h5.364a.5.5 0 0 1 .5.5v3.148a.5.5 0 0 1-.5.5zm-4.864-1h4.364v-2.148h-4.364zM40.129 37.568h3.468v1h-3.468zM40.129 35.944h3.468v1h-3.468zM25.365 25.194h1V41.65h-1zM21.486 25.194h1V41.65h-1z" style="fill: #ffffff;"/><path fill="#00243f" d="M31.219 26.046h-13.78a.5.5 0 0 1-.5-.5V18.33a.5.5 0 0 1 .5-.5h13.78a.5.5 0 0 1 .5.5v7.217a.5.5 0 0 1-.5.5zm-13.28-1h12.78V18.83h-12.78z" style="fill: #ffffff;"/><path fill="#00243f" d="M22.38 23.215a1.035 1.035 0 0 1-.647.31v.672h-.665v-.64a3.168 3.168 0 0 1-.49-.065 1.956 1.956 0 0 1-.345-.1v-.73a2.33 2.33 0 0 0 .497.188 2.1 2.1 0 0 0 .557.08.734.734 0 0 0 .437-.092.352.352 0 0 0 .114-.29.308.308 0 0 0-.075-.231 1.038 1.038 0 0 0-.303-.167l-.571-.229a1.049 1.049 0 0 1-.514-.377 1.129 1.129 0 0 1-.151-.62.878.878 0 0 1 .203-.592 1.044 1.044 0 0 1 .64-.313v-.621h.666v.596a1.861 1.861 0 0 1 .676.159v.656a1.76 1.76 0 0 0-.393-.132 2.263 2.263 0 0 0-.526-.062.779.779 0 0 0-.407.077.28.28 0 0 0-.114.25.298.298 0 0 0 .081.227 1.175 1.175 0 0 0 .33.176l.517.214a1.417 1.417 0 0 1 .41.241.732.732 0 0 1 .209.31 1.415 1.415 0 0 1 .062.452.984.984 0 0 1-.199.653zM27.356 50.592h-5.81v-3.489h5.81zm-4.81-1h3.81v-1.489h-3.81zM45.937 50.592h-5.811v-3.489h5.81zm-4.811-1h3.81v-1.489h-3.81z" style="fill: #ffffff;"/></svg>
