<?xml version="1.0" encoding="UTF-8"?>
<svg xmlns="http://www.w3.org/2000/svg" viewBox="0 0 64 64"><path fill="#00243f" d="M20.409 31.622h1v6.854h-1zM26.328 31.626h1v6.854h-1zM32.247 31.622h1v6.854h-1zM38.166 31.622h1v4.535h-1zM39.09 27.998l-8.986-3.705-8.966 3.697-.381-.924 9.347-3.855 9.367 3.863-.381.924z" style="fill: #ffffff;"/><path fill="#00243f" d="M38.552 43.498H14.961a.5.5 0 0 1-.5-.5V27.592a.5.5 0 0 1 .5-.5h30.81a.5.5 0 0 1 .5.5v6.989h-1v-6.489H15.46v14.406h23.091zM29.699 21.643h1v2.088h-1z" style="fill: #ffffff;"/><path fill="#00243f" d="M30.207 21.86a2.808 2.808 0 0 1-.5-5.573l.003-1.864 1 .002-.003 2.319a.5.5 0 0 1-.5.499 1.809 1.809 0 1 0 1.809 1.808h1a2.812 2.812 0 0 1-2.81 2.809z" style="fill: #ffffff;"/><g fill="#00243f"><path d="M47.159 42.555l.01-1 2.791.027-.01 1z" style="fill: #ffffff;"/><path d="M45.951 50.367a8.02 8.02 0 1 1 8.02-8.02 8.028 8.028 0 0 1-8.02 8.02zm0-15.04a7.02 7.02 0 1 0 7.02 7.02 7.028 7.028 0 0 0-7.02-7.02z" style="fill: #ffffff;"/><path d="M45.951 43.967a1.755 1.755 0 1 1 1.755-1.756 1.758 1.758 0 0 1-1.755 1.756zm0-2.51a.755.755 0 1 0 .755.754.756.756 0 0 0-.755-.754z" style="fill: #ffffff;"/></g><path fill="#00243f" d="M52.003 42.332h-1a5.058 5.058 0 1 0-10.114 0h-1a6.058 6.058 0 1 1 12.114 0z" style="fill: #ffffff;"/></svg>
